<svg width="27" height="25" viewBox="0 0 27 25" fill="none" xmlns="http://www.w3.org/2000/svg">
<path d="M6.70809 24.6501C6.66309 24.6501 6.626 24.6483 6.597 24.6453C6.294 24.6083 6.18603 24.4462 6.14803 24.3162C6.11103 24.1842 6.09106 23.9443 6.05306 23.4583C6.01906 23.0193 5.94996 22.1263 5.85896 21.8743C3.52596 20.3153 0.738079 18.3952 0.552079 18.0032C0.374079 17.6292 0.130054 13.7102 0.00105413 11.4072C-0.000945871 11.3832 7.25407e-06 11.3582 0.00300725 11.3352C0.0660073 10.8602 0.549941 10.5221 1.23494 10.4751C1.85394 10.4351 2.55491 10.6652 2.72591 11.2832C2.83791 11.6852 2.91798 12.8012 3.00398 13.9802C3.06998 14.8922 3.16009 16.1282 3.23909 16.4102C3.70409 16.9372 5.39295 18.3321 5.89095 18.1821C6.13895 18.1071 6.28901 18.0402 6.37801 17.9922C6.25701 17.9162 6.08894 17.8142 5.93294 17.7192C4.44394 16.8192 3.669 16.2682 3.566 15.7512C3.361 14.7252 3.29094 14.0611 3.53694 13.7021C3.62894 13.5681 3.76595 13.4791 3.92195 13.4531C4.63495 13.3201 10.7479 17.9732 10.9429 18.4202C11.0329 18.6272 12.105 22.9382 11.783 23.5022C11.47 24.0522 7.58109 24.6501 6.70809 24.6501ZM1.24495 17.6611C1.63395 18.0631 4.48305 20.0322 6.34505 21.2742C6.62805 21.4632 6.7039 21.9212 6.8199 23.3992C6.8319 23.5612 6.84594 23.7491 6.85994 23.8911C7.68394 23.8731 10.4211 23.3541 11.0921 23.0801C11.0731 22.3261 10.443 19.1861 10.241 18.7261C9.90604 18.2531 5.3101 14.9283 4.1451 14.3013C4.1361 14.5403 4.1949 14.9751 4.3199 15.5991C4.4339 15.9131 5.81213 16.7463 6.33113 17.0613C6.90013 17.4053 7.05206 17.5003 7.13606 17.6243C7.25306 17.7983 7.28094 17.9971 7.21394 18.1851C7.10394 18.4961 6.76414 18.7222 6.11214 18.9172C4.91314 19.2792 2.63997 16.8903 2.61897 16.8643C2.45397 16.6673 2.40109 16.2701 2.23909 14.0361C2.16309 12.9951 2.07792 11.8173 1.98592 11.4883C1.94592 11.3423 1.69313 11.2371 1.38313 11.2371C1.38113 11.2371 1.37901 11.2371 1.37801 11.2371C1.03701 11.2391 0.811097 11.3601 0.770097 11.4231C0.924097 14.1391 1.13795 17.1711 1.24495 17.6611ZM5.91902 21.9141H5.92293H5.91902Z" fill="#555555"/>
<path d="M3.9858 14.2142C3.7838 14.2142 3.61399 14.0564 3.60299 13.8534C3.57099 13.2814 3.49898 12.4062 3.42598 12.0892C3.27598 12.0562 2.95502 12.1242 2.86202 12.2142C2.86302 12.4072 2.71893 12.5752 2.52193 12.5992C2.31093 12.6222 2.12191 12.4733 2.09591 12.2623C2.04491 11.8393 2.38091 11.4843 2.94991 11.3573C3.53091 11.2273 4.00795 11.3982 4.13595 11.7792C4.27395 12.1932 4.35386 13.5432 4.36886 13.8102C4.38086 14.0212 4.21879 14.2032 4.00679 14.2142C4.00079 14.2142 3.9928 14.2142 3.9858 14.2142Z" fill="#555555"/>
<path d="M19.7628 24.6501C18.8918 24.6501 15.0019 24.0512 14.6889 23.5012C14.3669 22.9372 15.437 18.6262 15.529 18.4192C15.72 17.9782 21.6759 13.4502 22.5199 13.4502C22.5309 13.4502 22.541 13.4501 22.55 13.4521C22.704 13.4781 22.8407 13.5671 22.9337 13.7021C23.1807 14.0601 23.1099 14.7252 22.9049 15.7502C22.8009 16.2672 22.027 16.8172 20.539 17.7182C20.383 17.8142 20.2139 17.9152 20.0929 17.9912C20.1819 18.0402 20.3317 18.1061 20.5797 18.1811C21.0737 18.3281 22.7678 16.9372 23.2318 16.4092C23.3118 16.1282 23.4019 14.8912 23.4669 13.9792C23.5529 12.7992 23.6328 11.6842 23.7448 11.2822C23.9168 10.6652 24.6187 10.4341 25.2357 10.4741C25.9217 10.5221 26.4049 10.8602 26.4679 11.3342C26.4709 11.3572 26.4729 11.3822 26.4709 11.4062C26.3409 13.7092 26.0959 17.6282 25.9189 18.0022C25.7339 18.3952 22.9447 20.315 20.6107 21.873C20.5207 22.125 20.4509 23.0183 20.4179 23.4573C20.3789 23.9433 20.3589 24.1842 20.3219 24.3152C20.2849 24.4452 20.177 24.607 19.873 24.644C19.847 24.648 19.8088 24.6501 19.7628 24.6501ZM15.3798 23.081C16.0518 23.354 18.788 23.8741 19.612 23.8921C19.626 23.7491 19.6397 23.5621 19.6527 23.4001C19.7667 21.9221 19.8438 21.4641 20.1278 21.2751C21.9968 20.0271 24.8638 18.0462 25.2318 17.6562C25.3298 17.2482 25.5458 14.1751 25.7028 11.4241C25.6608 11.3611 25.4358 11.2403 25.0978 11.2383C25.0948 11.2383 25.0917 11.2383 25.0897 11.2383C24.7787 11.2383 24.5267 11.3432 24.4857 11.4892C24.3937 11.8182 24.3078 12.9961 24.2328 14.0371C24.0718 16.2711 24.0179 16.6682 23.8529 16.8652C23.8319 16.8902 21.5658 19.2802 20.3588 18.9182C19.7088 18.7232 19.3687 18.4963 19.2567 18.1863C19.1907 17.9983 19.2188 17.7992 19.3358 17.6252C19.4188 17.5022 19.5708 17.4062 20.1398 17.0622C20.6598 16.7482 22.037 15.9151 22.154 15.5911C22.297 14.8821 22.3338 14.5022 22.3258 14.3022C21.1598 14.9312 16.5637 18.2571 16.2147 18.7571C16.0277 19.1881 15.3988 22.327 15.3798 23.081ZM15.3839 23.196C15.3839 23.195 15.3839 23.195 15.3839 23.196V23.196ZM25.2509 17.633C25.2509 17.634 25.2509 17.634 25.2509 17.633C25.2509 17.634 25.2509 17.634 25.2509 17.633Z" fill="#555555"/>
<path d="M22.4848 14.2142C22.4768 14.2142 22.4708 14.2142 22.4638 14.2142C22.2518 14.2022 22.0899 14.0212 22.1019 13.8102C22.1169 13.5422 22.1979 12.1932 22.3349 11.7792C22.4619 11.3982 22.9389 11.2273 23.5209 11.3573C24.0889 11.4843 24.4249 11.8393 24.3749 12.2623C24.3509 12.4733 24.1619 12.6222 23.9479 12.5992C23.7529 12.5762 23.6078 12.4082 23.6098 12.2142C23.5158 12.1242 23.1938 12.0562 23.0458 12.0892C22.9738 12.4052 22.8998 13.2804 22.8678 13.8534C22.8568 14.0564 22.6878 14.2142 22.4848 14.2142Z" fill="#555555"/>
<path d="M12.8041 14.7641C12.7181 14.7641 12.6331 14.7361 12.5641 14.6801C12.2931 14.4621 5.91812 9.32097 4.95812 6.25797C4.43012 4.85297 4.57601 3.12115 5.33801 1.86515C5.97301 0.819151 6.96114 0.187026 8.19714 0.0370264C10.5851 -0.253974 12.1621 1.24208 12.8041 2.01408C13.4461 1.24308 15.022 -0.253974 17.411 0.0370264C18.647 0.187026 19.6362 0.819151 20.2692 1.86515C21.0322 3.12115 21.1772 4.85199 20.6432 6.27799C19.6902 9.31999 13.3141 14.4621 13.0431 14.6791C12.9741 14.7361 12.8891 14.7641 12.8041 14.7641ZM8.79211 0.76896C8.63011 0.76896 8.46218 0.778989 8.28918 0.798989C7.03418 0.950989 6.34904 1.6801 5.99304 2.2631C5.35904 3.3091 5.233 4.81397 5.682 6.00797C6.479 8.55097 11.6231 12.9102 12.8031 13.8842C13.9821 12.9102 19.1251 8.55297 19.9171 6.02897C20.3721 4.81397 20.246 3.3091 19.611 2.2631C19.257 1.6801 18.572 0.950989 17.317 0.798989C14.677 0.479989 13.1881 2.76207 13.1271 2.85807C13.0561 2.96907 12.9341 3.03605 12.8031 3.03605H12.8021C12.6711 3.03605 12.5491 2.97007 12.4791 2.85807C12.4211 2.76807 11.1141 0.76896 8.79211 0.76896Z" fill="#FFB800"/>
</svg>
