<svg width="29" height="28" viewBox="0 0 29 28" fill="none" xmlns="http://www.w3.org/2000/svg">
<circle cx="7.5" cy="10.5" r="1.5" fill="#FFB800"/>
<circle cx="13.5" cy="10.5" r="1.5" fill="#FFB800"/>
<circle cx="19.5" cy="10.5" r="1.5" fill="#FFB800"/>
<path d="M4.58301 23.6009C4.52734 23.6009 4.47277 23.5897 4.42043 23.5686C4.26121 23.5029 4.15877 23.3492 4.15877 23.1766V17.8098C1.51319 15.869 0 13.1422 0 10.2984C0 4.61977 5.91025 0 13.1756 0C20.4409 0 26.3511 4.61977 26.3511 10.2984C26.3511 15.977 20.4409 20.5956 13.1756 20.5956C11.5488 20.5956 9.95878 20.3663 8.44782 19.9131L4.88253 23.4772C4.80125 23.5574 4.69324 23.6009 4.58301 23.6009ZM5.00724 17.6204V22.1523L8.02805 19.1304C8.14051 19.0179 8.30529 18.9789 8.45672 19.0268C9.95878 19.5045 11.5455 19.7461 13.1744 19.7461C19.971 19.7461 25.5016 15.5072 25.5016 10.2973C25.5016 5.08745 19.971 0.848414 13.1744 0.848414C6.37789 0.848414 0.848465 5.08745 0.848465 10.2973C0.848465 12.9262 2.2993 15.4582 4.82908 17.2453C4.95267 17.3344 5.01614 17.4779 5.00724 17.6204Z" fill="#555555"/>
<path d="M25.1909 27.6772C25.0807 27.6772 24.9726 27.6338 24.8902 27.5526L22.022 24.6855C20.7983 25.0473 19.5134 25.231 18.195 25.231C14.6208 25.231 11.2827 23.8526 9.26842 21.5422C9.11365 21.3651 9.13146 21.0978 9.3085 20.943C9.48554 20.7883 9.75278 20.8072 9.90755 20.9842C11.7637 23.1109 14.8624 24.3814 18.195 24.3814C19.5145 24.3814 20.7983 24.1855 22.012 23.7991C22.1634 23.7524 22.3282 23.7913 22.4406 23.9038L24.7655 26.2287V22.708C24.7655 22.571 24.8323 22.4418 24.9448 22.3616C26.9824 20.9219 28.1516 18.8843 28.1516 16.7699C28.1516 15.3547 27.6383 13.9729 26.6662 12.7737C26.5192 12.5922 26.5471 12.3249 26.7297 12.1768C26.9112 12.0299 27.1784 12.0577 27.3265 12.2403C28.421 13.5921 29 15.1587 29 16.7699C29 19.1003 27.7696 21.3317 25.614 22.925V27.2542C25.614 27.4246 25.5105 27.5804 25.3523 27.6461C25.3 27.6672 25.2454 27.6772 25.1909 27.6772Z" fill="#555555"/>
</svg>
