<svg width="21" height="31" viewBox="0 0 21 31" fill="none" xmlns="http://www.w3.org/2000/svg">
<path d="M16.2529 25.7821H0.484909C0.216539 25.7821 0 25.5645 0 25.2974V0.57057C0 0.303466 0.216539 0.0858154 0.484909 0.0858154H16.2529C18.6898 0.0858154 20.6709 2.06693 20.6709 4.50377V21.3629C20.6709 23.801 18.6885 25.7821 16.2529 25.7821ZM0.971054 24.8112H16.2517C18.1518 24.8112 19.6974 23.2655 19.6974 21.3642V4.50501C19.6974 2.60364 18.1518 1.05795 16.2517 1.05795H0.971054V24.8112Z" fill="#555555"/>
<path d="M3.67363 25.7821C3.40653 25.7821 3.18872 25.5645 3.18872 25.2974V0.57057C3.18872 0.303466 3.40653 0.0858154 3.67363 0.0858154C3.94326 0.0858154 4.16101 0.303466 4.16101 0.57057V25.2974C4.16101 25.5645 3.94326 25.7821 3.67363 25.7821Z" fill="#555555"/>
<path d="M10.3349 30.3786C10.2489 30.3786 10.164 30.3571 10.088 30.3115L7.86002 28.9988L5.62957 30.3115C5.47892 30.4001 5.29283 30.4014 5.14218 30.3154C4.99028 30.2293 4.89648 30.0672 4.89648 29.8938V25.2974C4.89648 25.0277 5.11426 24.81 5.38263 24.81C5.65226 24.81 5.86877 25.0277 5.86877 25.2974V29.0431L7.61309 28.0165C7.76499 27.9266 7.95381 27.9266 8.10572 28.0165L9.85003 29.0431V25.2974C9.85003 25.0277 10.0665 24.81 10.3362 24.81C10.6058 24.81 10.8223 25.0277 10.8223 25.2974V29.8938C10.8223 30.0672 10.7285 30.2293 10.5779 30.3154C10.5006 30.3584 10.4172 30.3786 10.3349 30.3786Z" fill="#FFB800"/>
</svg>
