<svg width="28" height="25" viewBox="0 0 28 25" fill="none" xmlns="http://www.w3.org/2000/svg">
<path d="M14.2755 24.9389C14.158 24.9389 14.0417 24.9029 13.9441 24.8254C13.4846 24.47 2.69368 16.0799 1.07444 11.0966C0.206034 8.87078 0.4238 6.11043 1.63823 4.08904C2.37437 2.8666 3.81052 1.34232 6.47719 1.02969C10.5894 0.552737 13.2321 4.36698 14.2755 6.23739C15.319 4.36564 17.9737 0.548729 22.0726 1.02969C24.7392 1.34232 26.1767 2.8666 26.9115 4.08904C28.126 6.11043 28.3438 8.87071 27.466 11.1272C25.8561 16.0812 15.0665 24.4713 14.6069 24.8267C14.5094 24.9029 14.3931 24.9389 14.2755 24.9389ZM7.15857 2.07573C6.97687 2.07573 6.79261 2.08652 6.60424 2.10656C4.37444 2.36708 3.18005 3.63359 2.56816 4.64762C1.51939 6.39111 1.33368 8.77847 2.0952 10.7331C3.47129 14.9629 12.4278 22.2402 14.2755 23.7058C16.1219 22.2402 25.0785 14.9657 26.444 10.7626C27.2162 8.77993 27.029 6.39242 25.9816 4.64892C25.371 3.63356 24.1753 2.36838 21.9455 2.10786C17.4699 1.58548 14.7978 7.59479 14.7725 7.65625C14.687 7.85398 14.4907 7.98357 14.2742 7.98357C14.0578 7.98357 13.8613 7.85398 13.7758 7.65625C13.7531 7.59747 11.3096 2.07573 7.15857 2.07573Z" fill="#555555"/>
</svg>
