<svg width="34" height="26" viewBox="0 0 34 26" fill="none" xmlns="http://www.w3.org/2000/svg">
<path d="M31.5112 25.1156H2.67725V13.3949C2.67725 13.1189 2.90061 12.8956 3.17652 12.8956C3.45243 12.8956 3.67723 13.1189 3.67723 13.3949V24.1158H30.5101V13.3764C30.5101 13.1005 30.7347 12.8759 31.0106 12.8759C31.2865 12.8759 31.5112 13.1005 31.5112 13.3764V25.1156Z" fill="#555555"/>
<path d="M15.2311 25.1171H6.72925V12.9901C6.72925 12.7141 6.95389 12.4895 7.2298 12.4895C7.50571 12.4895 7.73036 12.7141 7.73036 12.9901V24.1171H14.2313V13.3475C14.2313 13.0703 14.4546 12.8468 14.7319 12.8468C15.0078 12.8468 15.2311 13.0703 15.2311 13.3475V25.1171Z" fill="#555555"/>
<path d="M11.7062 12.4606H11.1912C10.9153 12.4606 10.6919 12.236 10.6919 11.9601C10.6919 11.6842 10.9153 11.4595 11.1912 11.4595H11.7062C11.9821 11.4595 12.2067 11.6842 12.2067 11.9601C12.2067 12.236 11.9821 12.4606 11.7062 12.4606Z" fill="#555555"/>
<path d="M20.2451 17.7582C20.1111 17.7582 19.9783 17.7056 19.8797 17.6005C19.6918 17.3995 19.7024 17.0816 19.9048 16.8937L24.1235 12.9534C24.3258 12.7642 24.6425 12.7748 24.8317 12.9784C25.0196 13.1794 25.0092 13.4974 24.8081 13.684L20.5893 17.6255C20.4894 17.7149 20.3673 17.7582 20.2451 17.7582Z" fill="#555555"/>
<path d="M20.3673 22.22C20.2385 22.22 20.1111 22.1714 20.0125 22.0742C19.8181 21.8798 19.8181 21.5618 20.0125 21.3674L25.4689 15.9109C25.6634 15.7164 25.9813 15.7164 26.1757 15.9109C26.3715 16.1053 26.3715 16.4234 26.1757 16.6178L20.7193 22.0742C20.6221 22.1714 20.4934 22.22 20.3673 22.22Z" fill="#555555"/>
<path d="M11.7062 12.4606H11.1912C10.9153 12.4606 10.6919 12.236 10.6919 11.9601C10.6919 11.6842 10.9153 11.4595 11.1912 11.4595H11.7062C11.9821 11.4595 12.2067 11.6842 12.2067 11.9601C12.2067 12.236 11.9821 12.4606 11.7062 12.4606Z" fill="#555555"/>
<path d="M9.03107 20.2111C8.75516 20.2111 8.53052 19.9878 8.53052 19.7119V17.1525C8.53052 16.8752 8.75516 16.6519 9.03107 16.6519C9.30698 16.6519 9.53034 16.8752 9.53034 17.1525V19.7119C9.53034 19.9878 9.30698 20.2111 9.03107 20.2111Z" fill="#FFB800"/>
<path d="M33.4228 11.3241C33.231 11.3241 33.0457 11.2111 32.9643 11.0233L28.5669 0.999826H5.63088L0.952189 11.0339C0.835256 11.2848 0.538318 11.3925 0.288685 11.2768C0.0390529 11.1612 -0.0699446 10.863 0.0469886 10.612L4.99367 0H29.2211L33.8801 10.6225C33.9904 10.8747 33.8775 11.1705 33.6226 11.2808C33.5583 11.3111 33.4898 11.3241 33.4228 11.3241Z" fill="#555555"/>
<path d="M6.01455 11.3242C5.9817 11.3242 5.94764 11.3202 5.91479 11.3136C5.64414 11.2584 5.4694 10.9944 5.52458 10.7237L7.62544 0.402106C7.68062 0.131451 7.94467 -0.0445706 8.21532 0.0106114C8.48729 0.0671072 8.66072 0.331159 8.60554 0.600499L6.50596 10.9221C6.45604 11.1599 6.2471 11.3242 6.01455 11.3242Z" fill="#555555"/>
<path d="M27.9099 11.324C27.6774 11.324 27.4697 11.1612 27.4198 10.9247L25.2743 0.602937C25.2179 0.333597 25.3912 0.068262 25.6606 0.0117663C25.9312 -0.0447295 26.1967 0.128726 26.2532 0.400694L28.3999 10.721C28.4564 10.9917 28.2817 11.257 28.0124 11.3122C27.9769 11.3201 27.9428 11.324 27.9099 11.324Z" fill="#555555"/>
<path d="M22.397 11.3241C22.1434 11.3241 21.9266 11.1323 21.899 10.8735L20.8546 0.55188C20.827 0.277284 21.0267 0.0316034 21.3013 0.00401242C21.5772 -0.0235785 21.8215 0.176052 21.8491 0.451961L22.895 10.7723C22.9226 11.0469 22.7228 11.2927 22.4469 11.3216C22.4298 11.3229 22.4128 11.3241 22.397 11.3241Z" fill="#FFB800"/>
<path d="M16.9366 11.3241C16.6594 11.3241 16.436 11.0995 16.436 10.8236L16.4386 0.500553C16.4386 0.225957 16.6633 0.00128174 16.9379 0.00128174C16.9379 0.00128174 16.938 0.00128174 16.9393 0.00128174C17.2152 0.00128174 17.4386 0.225927 17.4386 0.501836L17.4359 10.8236C17.4359 11.0995 17.2112 11.3241 16.9366 11.3241Z" fill="#555555"/>
<path d="M11.4749 11.3242C11.4578 11.3242 11.4421 11.3229 11.4237 11.3216C11.1491 11.294 10.948 11.0469 10.9769 10.7723L12.028 0.450682C12.0556 0.176086 12.2987 -0.0275163 12.5759 0.00401624C12.8505 0.0316072 13.0502 0.277288 13.0226 0.551884L11.9716 10.8735C11.9466 11.1323 11.7284 11.3242 11.4749 11.3242Z" fill="#555555"/>
<path d="M19.6405 13.898C17.8431 13.898 16.436 12.5487 16.436 10.8236C16.436 10.5464 16.6607 10.3231 16.9366 10.3231C17.2112 10.3231 17.4359 10.5464 17.4359 10.8236C17.4359 11.9864 18.4041 12.8982 19.6405 12.8982C20.8847 12.8982 21.8964 11.9667 21.8964 10.8236C21.8964 10.5464 22.1198 10.3231 22.3957 10.3231C22.6716 10.3231 22.8963 10.5464 22.8963 10.8236C22.8963 12.5185 21.4365 13.898 19.6405 13.898Z" fill="#FFB800"/>
<path d="M14.18 13.898C12.3827 13.898 10.9756 12.5487 10.9756 10.8236C10.9756 10.5464 11.2002 10.3231 11.4761 10.3231C11.7521 10.3231 11.9767 10.5464 11.9767 10.8236C11.9767 11.9864 12.9438 12.8982 14.1815 12.8982C15.4257 12.8982 16.4373 11.9667 16.4373 10.8236C16.4373 10.5464 16.6619 10.3231 16.9378 10.3231C17.2124 10.3231 17.4371 10.5464 17.4371 10.8236C17.4358 12.5185 15.9748 13.898 14.18 13.898Z" fill="#555555"/>
<path d="M8.71836 13.898C6.92101 13.898 5.51392 12.5487 5.51392 10.8236C5.51392 10.5464 5.73728 10.3231 6.01319 10.3231C6.2891 10.3231 6.51374 10.5464 6.51374 10.8236C6.51374 11.9864 7.48203 12.8982 8.71836 12.8982C9.96127 12.8982 10.9743 11.9667 10.9743 10.8236C10.9743 10.5464 11.199 10.3231 11.4749 10.3231C11.7508 10.3231 11.9754 10.5464 11.9754 10.8236C11.9754 12.5185 10.5144 13.898 8.71836 13.898Z" fill="#555555"/>
<path d="M3.25803 13.898C1.46199 13.898 0.000976562 12.5185 0.000976562 10.8236C0.000976562 10.5464 0.224468 10.3231 0.501692 10.3231C0.777601 10.3231 1.00225 10.5464 1.00225 10.8236C1.00225 11.9667 2.01512 12.8982 3.25803 12.8982C4.50094 12.8982 5.51397 11.9667 5.51397 10.8236C5.51397 10.5464 5.73734 10.3231 6.01325 10.3231C6.28916 10.3231 6.5138 10.5464 6.5138 10.8236C6.5138 12.5185 5.05276 13.898 3.25803 13.898Z" fill="#555555"/>
<path d="M25.1535 13.898C24.8803 13.898 24.6082 13.8677 24.3481 13.8046C22.9042 13.4565 21.8965 12.2308 21.8965 10.8236C21.8965 10.5464 22.1198 10.3231 22.397 10.3231C22.6743 10.3231 22.8976 10.5464 22.8976 10.8236C22.8976 11.767 23.59 12.592 24.5819 12.8298C24.7659 12.8745 24.9591 12.8969 25.1548 12.8969C26.3977 12.8969 27.4108 11.9667 27.4108 10.8236C27.4108 10.5464 27.6354 10.3231 27.9113 10.3231C28.1872 10.3231 28.4119 10.5464 28.4119 10.8236C28.4106 12.5185 26.9496 13.898 25.1535 13.898Z" fill="#555555"/>
<path d="M30.6665 13.898C28.8704 13.898 27.4094 12.5185 27.4094 10.8236C27.4094 10.5464 27.6341 10.3231 27.91 10.3231C28.1859 10.3231 28.4105 10.5464 28.4105 10.8236C28.4105 11.9667 29.4223 12.8982 30.6665 12.8982C31.9107 12.8982 32.9223 11.9667 32.9223 10.8236C32.9223 10.5464 33.1456 10.3231 33.4215 10.3231C33.6974 10.3231 33.9221 10.5464 33.9221 10.8236C33.9234 12.5185 32.4625 13.898 30.6665 13.898Z" fill="#555555"/>
</svg>
