<svg width="38" height="29" viewBox="0 0 38 29" fill="none" xmlns="http://www.w3.org/2000/svg">
<rect x="15.8315" width="18.56" height="29" rx="2" fill="#FFB800"/>
<path d="M32.2692 28.0831H17.9287C16.7727 28.0831 15.832 27.1324 15.832 25.9595V2.12359C15.832 0.952028 16.7727 0 17.9287 0H32.2692C33.4252 0 34.3647 0.952028 34.3647 2.12359V25.9595C34.3647 27.131 33.4252 28.0831 32.2692 28.0831ZM17.9302 1.11396C17.3807 1.11396 16.9338 1.56665 16.9338 2.12225V25.9581C16.9338 26.5151 17.3807 26.9678 17.9302 26.9678H32.2707C32.8202 26.9678 33.2669 26.5151 33.2669 25.9581V2.12225C33.2669 1.56665 32.8202 1.11396 32.2707 1.11396H17.9302Z" fill="#FFB800"/>
<path d="M30.1077 4.76168H19.908C19.6034 4.76168 19.3584 4.51216 19.3584 4.20487C19.3584 3.89757 19.6048 3.64789 19.908 3.64789H30.1077C30.4109 3.64789 30.6559 3.89757 30.6559 4.20487C30.6559 4.51216 30.4095 4.76168 30.1077 4.76168Z" fill="white"/>
<path d="M30.1077 8.44232H19.908C19.6034 8.44232 19.3584 8.1926 19.3584 7.88668C19.3584 7.58075 19.6048 7.3297 19.908 7.3297H30.1077C30.4109 7.3297 30.6559 7.58075 30.6559 7.88668C30.6559 8.1926 30.4095 8.44232 30.1077 8.44232Z" fill="white"/>
<path d="M30.1077 11.8583H19.908C19.6034 11.8583 19.3584 11.6086 19.3584 11.3027C19.3584 10.9967 19.6048 10.7457 19.908 10.7457H30.1077C30.4109 10.7457 30.6559 10.9967 30.6559 11.3027C30.6559 11.6086 30.4095 11.8583 30.1077 11.8583Z" fill="white"/>
<path d="M30.1077 22.04H19.908C19.6034 22.04 19.3584 20.9986 19.3584 19.7228C19.3584 18.447 19.6048 17.4 19.908 17.4H30.1077C30.4109 17.4 30.6559 18.447 30.6559 19.7228C30.6559 20.9986 30.4095 22.04 30.1077 22.04Z" fill="white"/>
<path d="M33.8154 8.44238C33.5121 8.44238 33.2671 8.19266 33.2671 7.88674C33.2671 7.58082 33.5135 7.32976 33.8154 7.32976C35.1974 7.32976 36.0786 6.73028 36.0786 6.32147V3.69031C36.0786 3.28012 35.1974 2.68185 33.8154 2.68185C33.5121 2.68185 33.2671 2.43216 33.2671 2.12487C33.2671 1.81757 33.5135 1.5694 33.8154 1.5694C35.7023 1.5694 37.1763 2.50225 37.1763 3.69165V6.32281C37.1763 7.50946 35.7023 8.44238 33.8154 8.44238Z" fill="#FFB800"/>
<path d="M33.8154 14.2054C33.5121 14.2054 33.2671 13.9558 33.2671 13.6485C33.2671 13.3412 33.5135 13.0928 33.8154 13.0928C35.1974 13.0928 36.0786 12.4934 36.0786 12.0832V9.45336C36.0786 9.04181 35.1974 8.44373 33.8154 8.44373C33.5121 8.44373 33.2671 8.19402 33.2671 7.8881C33.2671 7.58217 33.5135 7.33112 33.8154 7.33112C35.7023 7.33112 37.1763 8.26531 37.1763 9.4547V12.0845C37.1763 13.2739 35.7023 14.2054 33.8154 14.2054Z" fill="#FFB800"/>
<path d="M33.8154 19.9701C33.5121 19.9701 33.2671 19.7204 33.2671 19.4131C33.2671 19.1058 33.5135 18.8561 33.8154 18.8561C35.1974 18.8561 36.0786 18.258 36.0786 17.8465V15.218C36.0786 14.8051 35.1974 14.2084 33.8154 14.2084C33.5121 14.2084 33.2671 13.9587 33.2671 13.6514C33.2671 13.3441 33.5135 13.0957 33.8154 13.0957C35.7023 13.0957 37.1763 14.0286 37.1763 15.2193V17.8478C37.1763 19.0372 35.7023 19.9701 33.8154 19.9701Z" fill="#FFB800"/>
<path d="M33.8154 25.7333C33.5121 25.7333 33.2671 25.4823 33.2671 25.1763C33.2671 24.8677 33.5135 24.6194 33.8154 24.6194C35.1974 24.6194 36.0786 24.0211 36.0786 23.6096V20.9811C36.0786 20.5681 35.1974 19.9714 33.8154 19.9714C33.5121 19.9714 33.2671 19.7218 33.2671 19.4145C33.2671 19.1072 33.5135 18.8575 33.8154 18.8575C35.7023 18.8575 37.1763 19.7904 37.1763 20.9826V23.6111C37.1763 24.8005 35.7023 25.7333 33.8154 25.7333Z" fill="#FFB800"/>
<g filter="url(#filter0_d)">
<path d="M6.03418 5.65691L6.57258 5.11851L14.2728 12.8187L13.7333 13.3577L6.03418 5.65691Z" fill="#555555"/>
<path d="M7.87109 3.81834L8.41061 3.27937L16.1125 10.9802L15.573 11.5197L7.87109 3.81834Z" fill="#555555"/>
<path d="M9.70947 1.98034L10.249 1.44138L17.9492 9.1416L17.4108 9.68057L9.70947 1.98034Z" fill="#555555"/>
<path d="M20.3524 16.228L15.2603 14.8632C15.1298 14.8277 15.0263 14.7248 14.9909 14.5937C14.9554 14.462 14.9931 14.322 15.0899 14.2252L18.8171 10.4974C18.9138 10.4018 19.0534 10.3641 19.185 10.399C19.3167 10.4344 19.4191 10.5374 19.4551 10.6685L20.8188 15.7611C20.8542 15.8927 20.8165 16.0328 20.7198 16.1296C20.6472 16.2022 20.5493 16.241 20.4497 16.241C20.4171 16.241 20.3845 16.2365 20.3524 16.228ZM16.0964 14.2966L19.9113 15.3194L18.8885 11.5034L16.0964 14.2966Z" fill="#555555"/>
<path d="M4.5918 4.17389L8.76624 0L9.30464 0.538966L5.13132 4.71342L4.5918 4.17389Z" fill="#555555"/>
</g>
<defs>
<filter id="filter0_d" x="0.591797" y="0" width="24.2401" height="24.241" filterUnits="userSpaceOnUse" color-interpolation-filters="sRGB">
<feFlood flood-opacity="0" result="BackgroundImageFix"/>
<feColorMatrix in="SourceAlpha" type="matrix" values="0 0 0 0 0 0 0 0 0 0 0 0 0 0 0 0 0 0 127 0"/>
<feOffset dy="4"/>
<feGaussianBlur stdDeviation="2"/>
<feColorMatrix type="matrix" values="0 0 0 0 0 0 0 0 0 0 0 0 0 0 0 0 0 0 0.25 0"/>
<feBlend mode="normal" in2="BackgroundImageFix" result="effect1_dropShadow"/>
<feBlend mode="normal" in="SourceGraphic" in2="effect1_dropShadow" result="shape"/>
</filter>
</defs>
</svg>
