<svg width="41" height="57" viewBox="0 0 41 57" fill="none" xmlns="http://www.w3.org/2000/svg">
<path d="M37.6592 8.25535C36.3208 6.83173 34.8426 5.91987 33.6556 5.18795C32.8083 4.66561 31.9324 4.12474 31.7768 3.73681C31.716 3.58545 31.6567 3.42934 31.5969 3.2711C31.1005 1.96233 30.4194 0.170369 28.3681 0.0137178C25.9188 -0.175745 24.8556 1.63367 24.21 3.19542C24.0157 3.66537 22.8694 4.19195 21.7612 4.70107C19.1336 5.9077 15.1634 7.73141 13.5477 12.695C12.1711 16.9235 13.0216 20.0857 13.5842 22.1782C13.8631 23.2139 14.1033 24.1083 13.9128 24.5698C13.5836 25.3689 12.6654 25.896 11.2752 26.693C9.44563 27.7414 6.94082 29.1783 4.07718 32.2488C-0.42071 37.0701 -1.28812 45.0032 1.92957 49.9393L2.6001 50.8654C2.59216 51.0353 2.53184 51.3544 2.4895 51.5772C2.2958 52.596 2.00366 54.1344 3.16954 55.1188C3.6686 55.5401 4.2841 55.7539 4.99749 55.7539C5.76593 55.7539 6.52643 55.5099 7.19696 55.295C7.64151 55.1516 8.10246 55.004 8.36654 55.004C8.40782 55.004 8.42635 55.0087 8.42053 55.005L8.51102 55.0399L8.51632 55.042C8.86349 55.1828 9.1826 55.3019 9.49114 55.4072C11.7531 56.1783 14.0393 56.5699 16.2859 56.5699C16.2869 56.5699 16.2869 56.5699 16.2875 56.5699C23.3923 56.5699 30.2183 52.4377 33.6773 46.0442C36.5028 40.8223 35.9598 35.2146 35.6 31.5037C35.5481 30.975 35.5005 30.4812 35.4661 30.0293C35.3724 28.7798 36.1202 27.8653 37.1564 26.5994C38.2895 25.2154 39.7009 23.4923 40.4762 20.6853C41.7395 16.1212 40.6858 11.4741 37.6592 8.25535Z" fill="#FBBF28"/>
<path d="M26.0626 28.7697C31.8457 28.7697 36.5338 24.0815 36.5338 18.2984C36.5338 12.5153 31.8457 7.82715 26.0626 7.82715C20.2795 7.82715 15.5913 12.5153 15.5913 18.2984C15.5913 24.0815 20.2795 28.7697 26.0626 28.7697Z" fill="white"/>
<path d="M21.1168 19.1187C21.7533 19.2035 22.3408 18.7358 22.429 18.0741C22.5172 17.4124 22.0727 16.8073 21.4362 16.7224C20.7997 16.6376 20.2122 17.1053 20.124 17.767C20.0358 18.4287 20.4803 19.0338 21.1168 19.1187Z" fill="#755726"/>
<path d="M30.614 20.4083C31.2509 20.493 31.8385 20.0253 31.9266 19.3635C32.0146 18.7017 31.5698 18.0966 30.9329 18.0118C30.2961 17.9271 29.7084 18.3949 29.6204 19.0566C29.5323 19.7184 29.9772 20.3236 30.614 20.4083Z" fill="#755726"/>
<path d="M25.6673 23.783C25.5577 23.783 25.4461 23.7761 25.3349 23.7613C24.2696 23.619 23.4096 22.8151 23.1969 21.7598C23.1503 21.5238 23.3022 21.2941 23.5382 21.2459C23.7742 21.2004 24.0039 21.3507 24.0516 21.5867C24.1907 22.2779 24.7533 22.8045 25.4508 22.8971C26.1489 22.9929 26.8289 22.6293 27.1433 21.9985C27.2507 21.7831 27.5122 21.6963 27.7276 21.8037C27.943 21.9106 28.0297 22.1721 27.9223 22.3875C27.4915 23.2506 26.6135 23.783 25.6673 23.783Z" fill="#755726"/>
<path d="M21.0005 23.736C21.3233 21.3116 19.6208 19.0841 17.1948 18.7618C16.6502 18.6893 16.1168 18.7243 15.6108 18.8417C15.7654 21.8806 17.2403 24.6368 19.5351 26.4726C20.3093 25.7905 20.8539 24.8395 21.0005 23.736Z" fill="#FFE0B0"/>
<path d="M36.0079 21.5569C35.5506 21.3113 35.0447 21.1382 34.499 21.0657C32.0752 20.7424 29.8477 22.446 29.5254 24.8703C29.3783 25.9743 29.6545 27.0349 30.2245 27.8965C32.9198 26.7242 35.0643 24.4496 36.0079 21.5569Z" fill="#FFE0B0"/>
<path d="M31.6343 44.3006C31.5671 43.9053 31.1924 43.6385 30.7976 43.7057C30.2784 43.7936 29.7651 43.8523 29.2581 43.891C30.7807 40.5754 30.9198 37.6683 30.9246 37.5302C30.941 37.1301 30.6282 36.7919 30.2287 36.7761C29.8355 36.7676 29.4899 37.0714 29.474 37.472C29.4719 37.5048 29.3253 40.6161 27.6201 43.9386C26.2939 43.9148 25.0433 43.7465 23.9034 43.503C24.9391 42.072 25.3259 40.9442 25.3646 40.8273C25.4884 40.4468 25.2815 40.0398 24.902 39.9138C24.5241 39.7889 24.1114 39.9953 23.9854 40.3753C23.9473 40.4881 23.5303 41.6761 22.3755 43.1199C19.5611 42.3022 17.73 41.1676 17.6966 41.1469C17.3579 40.9321 16.9107 41.0326 16.6953 41.3713C16.4805 41.71 16.5815 42.1588 16.9197 42.3737C17.052 42.4573 18.7069 43.4824 21.2832 44.3175C20.5079 45.0637 19.5293 45.8168 18.3079 46.4842C16.4217 45.7798 15.2617 45.06 15.2357 45.0431C14.897 44.8287 14.4493 44.9283 14.2339 45.268C14.0196 45.6062 14.1201 46.055 14.4583 46.2698C14.5451 46.3249 15.2818 46.7827 16.4974 47.3256C15.3188 47.7866 13.9703 48.1623 12.4197 48.3989C12.0233 48.4592 11.7508 48.8292 11.8111 49.225C11.8661 49.5854 12.1752 49.8426 12.5277 49.8426C12.5642 49.8426 12.6012 49.8395 12.6378 49.8342C14.9309 49.4859 16.8287 48.8509 18.3989 48.0745C19.7315 48.5349 21.3424 48.9562 23.1413 49.1621C20.6984 50.873 17.6379 51.8193 13.974 51.9722C13.5734 51.9897 13.2628 52.3284 13.2792 52.7285C13.2956 53.1185 13.6174 53.4239 14.0042 53.4239C14.0148 53.4239 14.0248 53.4239 14.0354 53.4234C19.2716 53.2043 22.855 51.4462 25.2984 49.2922C25.3439 49.2922 25.3889 49.2959 25.4344 49.2959C26.4458 49.2959 27.4989 49.2171 28.5791 49.034C28.9744 48.9678 29.2401 48.5931 29.1739 48.1983C29.1067 47.8019 28.7299 47.5352 28.3372 47.6024C27.8106 47.6924 27.2899 47.7511 26.7781 47.7892C27.4651 46.9885 28.0266 46.1735 28.4822 45.3887C29.3115 45.3638 30.1668 45.2876 31.0395 45.1389C31.4348 45.0701 31.7015 44.6959 31.6343 44.3006ZM20.1385 47.0796C21.2567 46.3408 22.1538 45.5422 22.8661 44.769C24.0537 45.0621 25.3736 45.2881 26.7935 45.3675C26.1976 46.2809 25.5191 47.0959 24.7681 47.8215C23.0661 47.7538 21.4938 47.4569 20.1385 47.0796Z" fill="#CE9328"/>
<path d="M29.6116 10.4637C29.5343 10.4335 29.4322 10.4679 29.3756 10.5277C28.9675 10.9511 28.1981 11.0522 27.7667 10.7315C27.2963 10.3795 27.1819 9.97574 27.1682 9.69896C27.1486 9.30469 27.3232 8.89824 27.6355 8.61087C27.9588 8.31715 28.4071 8.17637 28.8818 8.22506C28.8114 8.20495 29.0289 8.26423 29.2046 8.31927L29.2232 8.31345C29.0681 7.79216 28.5637 7.47039 28.5637 7.47039C28.2187 7.25764 27.8069 7.12851 27.3455 7.11634C26.4357 7.08987 25.3101 7.53919 24.8533 8.5987C24.4342 9.56665 24.4527 10.5621 24.9041 11.33C25.3339 12.0593 26.1071 12.5134 27.0835 12.6076C27.1639 12.6155 27.2444 12.6198 27.3227 12.6224C28.2811 12.6494 29.0988 12.2371 29.51 11.519C29.6703 11.2395 29.754 10.9342 29.7529 10.6352C29.7529 10.5526 29.6868 10.4944 29.6116 10.4637Z" fill="#755726"/>
</svg>
