<svg width="15" height="13" viewBox="0 0 15 13" fill="none" xmlns="http://www.w3.org/2000/svg">
<path d="M3.77344 6.875C4.14844 6.78125 4.50781 6.79688 4.85156 6.92188C5.19531 7.01562 5.49219 7.1875 5.74219 7.4375C6.02344 7.6875 6.24219 7.98438 6.39844 8.32812C6.58594 8.67188 6.67969 9.04688 6.67969 9.45312C6.67969 10.2344 6.39844 10.8906 5.83594 11.4219C5.27344 11.9219 4.58594 12.1719 3.77344 12.1719C2.67969 12.1719 1.86719 11.7812 1.33594 11C0.804688 10.1875 0.539062 9.15625 0.539062 7.90625C0.539062 6.21875 0.929688 4.75 1.71094 3.5C2.52344 2.21875 3.77344 1.26562 5.46094 0.640625L6.11719 1.53125C4.89844 2.09375 3.99219 2.79688 3.39844 3.64062C2.80469 4.48438 2.50781 5.42188 2.50781 6.45312C2.50781 6.79688 2.57031 7 2.69531 7.0625C2.85156 7.125 3.02344 7.125 3.21094 7.0625L3.77344 6.875ZM11.2734 6.875C11.9922 6.71875 12.6484 6.90625 13.2422 7.4375C13.8359 7.96875 14.1328 8.64062 14.1328 9.45312C14.1328 10.2344 13.8516 10.8906 13.2891 11.4219C12.7578 11.9219 12.0859 12.1719 11.2734 12.1719C10.1797 12.1719 9.35156 11.7812 8.78906 11C8.25781 10.1875 7.99219 9.15625 7.99219 7.90625C7.99219 6.21875 8.39844 4.75 9.21094 3.5C10.0234 2.21875 11.2734 1.26562 12.9609 0.640625L13.6172 1.53125C12.3984 2.09375 11.4766 2.79688 10.8516 3.64062C10.2578 4.48438 9.96094 5.42188 9.96094 6.45312C9.96094 6.79688 10.0234 7 10.1484 7.0625C10.3047 7.125 10.4922 7.125 10.7109 7.0625L11.2734 6.875Z" fill="#FFB800"/>
</svg>
