<svg width="147" height="162" viewBox="0 0 147 162" fill="none" xmlns="http://www.w3.org/2000/svg">
<path d="M111.837 15.5158C109.321 12.8388 106.543 11.1268 104.313 9.74977C102.721 8.76977 101.074 7.75178 100.782 7.02278C100.668 6.73778 100.556 6.44478 100.444 6.14778C99.51 3.68778 98.231 0.320768 94.376 0.025768C89.773 -0.330232 87.7751 3.07078 86.562 6.00578C86.196 6.88878 84.042 7.87879 81.959 8.83479C77.021 11.1038 69.559 14.5298 66.522 23.8588C63.935 31.8058 65.534 37.7498 66.591 41.6818C67.115 43.6278 67.567 45.3098 67.208 46.1758C66.59 47.6788 64.863 48.6688 62.25 50.1668C58.812 52.1378 54.104 54.8378 48.723 60.6078C40.27 69.6698 38.64 84.5778 44.686 93.8538L45.946 95.5948C45.931 95.9138 45.818 96.5138 45.738 96.9328C45.374 98.8468 44.824 101.739 47.017 103.589C47.955 104.38 49.112 104.782 50.453 104.782C51.896 104.782 53.326 104.324 54.586 103.919C55.422 103.651 56.289 103.373 56.784 103.373C56.862 103.373 56.897 103.382 56.885 103.375L57.055 103.44L57.065 103.444C57.717 103.709 58.317 103.933 58.897 104.132C63.148 105.581 67.445 106.317 71.668 106.317C71.67 106.317 71.67 106.317 71.67 106.317C85.023 106.317 97.852 98.5518 104.354 86.5358C109.664 76.7228 108.644 66.1828 107.967 59.2088C107.869 58.2158 107.78 57.2878 107.716 56.4378C107.539 54.0888 108.945 52.3708 110.893 49.9918C113.022 47.3898 115.674 44.1518 117.132 38.8778C119.506 30.2968 117.526 21.5648 111.837 15.5158Z" fill="#FBBF28"/>
<path d="M90.0421 54.0698C100.911 54.0698 109.722 45.2587 109.722 34.3898C109.722 23.5208 100.911 14.7098 90.0421 14.7098C79.1731 14.7098 70.3621 23.5208 70.3621 34.3898C70.3621 45.2587 79.1731 54.0698 90.0421 54.0698Z" fill="white"/>
<path d="M80.7764 35.9526C81.9727 36.1117 83.0765 35.2322 83.2419 33.9884C83.4073 32.7445 82.5716 31.6072 81.3753 31.4481C80.1791 31.2891 79.0753 32.1685 78.9099 33.4124C78.7445 34.6563 79.5802 35.7936 80.7764 35.9526Z" fill="#755726"/>
<path d="M98.5985 38.3398C99.7953 38.4989 100.9 37.6195 101.065 36.3756C101.23 35.1318 100.394 33.9944 99.1974 33.8353C98.0006 33.6762 96.8963 34.5555 96.7309 35.7994C96.5656 37.0433 97.4017 38.1806 98.5985 38.3398Z" fill="#755726"/>
<path d="M92.351 24.2228C91.316 24.2228 90.27 23.8908 89.36 23.2328C87.809 22.1108 86.442 19.8028 87.251 16.6928C87.737 14.8258 88.892 13.3578 90.591 12.4528C92.351 11.5138 94.559 11.2798 96.216 11.8598C96.644 12.0078 96.867 12.4748 96.72 12.9028C96.57 13.3298 96.103 13.5548 95.678 13.4058C94.688 13.0608 92.917 13.0668 91.362 13.8968C90.468 14.3758 89.301 15.3188 88.837 17.1058C88.236 19.4178 89.21 21.1008 90.32 21.9058C91.479 22.7438 92.887 22.8218 93.999 22.1048C95.061 21.4218 95.617 20.4678 95.523 19.4908C95.443 18.6468 94.876 17.9348 94.009 17.5858C93.198 17.2618 92.574 17.5858 92.333 18.0248C92.102 18.4468 92.257 18.8938 92.759 19.2498C93.128 19.5118 93.216 20.0218 92.954 20.3918C92.691 20.7598 92.182 20.8458 91.812 20.5848C90.447 19.6168 90.368 18.2078 90.896 17.2398C91.491 16.1528 92.959 15.3988 94.619 16.0668C96.068 16.6498 97.015 17.8718 97.153 19.3358C97.304 20.9208 96.457 22.4718 94.884 23.4818C94.115 23.9778 93.238 24.2228 92.351 24.2228Z" fill="#755726"/>
<path d="M89.301 44.6978C89.095 44.6978 88.885 44.6848 88.677 44.6568C86.674 44.3888 85.058 42.8788 84.658 40.8948C84.571 40.4518 84.856 40.0198 85.3 39.9298C85.743 39.8438 86.175 40.1258 86.264 40.5708C86.525 41.8688 87.582 42.8588 88.893 43.0328C90.206 43.2138 91.483 42.5298 92.074 41.3448C92.276 40.9408 92.768 40.7768 93.173 40.9788C93.578 41.1808 93.741 41.6718 93.538 42.0768C92.729 43.6968 91.078 44.6978 89.301 44.6978Z" fill="#755726"/>
<path d="M80.53 44.6088C79.924 49.1648 75.738 52.3678 71.182 51.7598C66.625 51.1548 63.424 46.9678 64.031 42.4118C64.636 37.8558 68.822 34.6527 73.377 35.2587C77.936 35.8667 81.136 40.0538 80.53 44.6088Z" fill="#FFE0B0"/>
<path d="M104.801 56.1618C109.398 56.1618 113.124 52.4354 113.124 47.8388C113.124 43.2421 109.398 39.5158 104.801 39.5158C100.204 39.5158 96.478 43.2421 96.478 47.8388C96.478 52.4354 100.204 56.1618 104.801 56.1618Z" fill="#FFE0B0"/>
<path d="M100.515 83.2578C100.389 82.5158 99.685 82.0138 98.942 82.1398C97.966 82.3058 97.002 82.4158 96.049 82.4888C98.911 76.2578 99.172 70.7938 99.181 70.5348C99.212 69.7828 98.625 69.1468 97.872 69.1168C97.134 69.0998 96.484 69.6728 96.455 70.4248C96.451 70.4878 96.175 76.3348 92.971 82.5778C90.478 82.5338 88.128 82.2168 85.985 81.7598C87.931 79.0708 88.658 76.9498 88.73 76.7308C88.963 76.0158 88.575 75.2518 87.861 75.0138C87.152 74.7788 86.376 75.1668 86.138 75.8808C86.066 76.0938 85.283 78.3258 83.113 81.0388C77.823 79.5018 74.382 77.3698 74.32 77.3308C73.684 76.9278 72.842 77.1148 72.438 77.7518C72.035 78.3888 72.225 79.2318 72.86 79.6358C73.108 79.7928 76.219 81.7208 81.06 83.2888C79.604 84.6918 77.765 86.1068 75.469 87.3608C71.924 86.0358 69.744 84.6838 69.696 84.6528C69.059 84.2498 68.218 84.4368 67.814 85.0748C67.411 85.7108 67.6 86.5538 68.236 86.9578C68.398 87.0608 69.783 87.9218 72.068 88.9418C69.853 89.8078 67.318 90.5148 64.404 90.9588C63.659 91.0728 63.147 91.7698 63.259 92.5118C63.363 93.1888 63.944 93.6728 64.607 93.6728C64.676 93.6728 64.745 93.6668 64.814 93.6568C69.124 93.0018 72.69 91.8078 75.642 90.3498C78.146 91.2148 81.174 92.0058 84.555 92.3928C79.965 95.6088 74.211 97.3868 67.326 97.6728C66.574 97.7058 65.99 98.3418 66.02 99.0948C66.051 99.8278 66.656 100.403 67.382 100.403C67.402 100.403 67.421 100.403 67.441 100.402C77.282 99.9898 84.017 96.6848 88.609 92.6378C88.694 92.6378 88.778 92.6448 88.863 92.6448C90.764 92.6448 92.744 92.4968 94.774 92.1518C95.516 92.0278 96.016 91.3238 95.892 90.5808C95.766 89.8368 95.058 89.3358 94.319 89.4618C93.329 89.6308 92.351 89.7408 91.389 89.8128C92.68 88.3088 93.736 86.7768 94.591 85.3008C96.15 85.2538 97.756 85.1108 99.398 84.8318C100.14 84.7048 100.642 84.0008 100.515 83.2578ZM78.91 88.4808C81.012 87.0928 82.697 85.5918 84.037 84.1378C86.269 84.6898 88.75 85.1148 91.418 85.2628C90.298 86.9798 89.022 88.5108 87.611 89.8748C84.412 89.7478 81.457 89.1918 78.91 88.4808Z" fill="#CE9328"/>
<path d="M31.154 126.101C31.153 126.101 31.153 126.101 31.152 126.101C30.985 126.092 30.816 126.086 30.647 126.08C30.085 126.06 29.449 126.038 29.213 125.831C28.745 125.483 28.625 124.97 28.579 124.253L28.558 123.873C28.523 123.235 28.488 122.575 28.281 121.921C28.174 121.44 27.915 121.027 27.507 120.681C27.209 120.381 26.793 120.238 26.237 120.238C25.817 120.238 25.516 120.309 25.244 120.474C24.525 120.86 24.201 121.825 24.138 122.589C24.117 122.77 24.089 122.959 24.059 123.155C24.016 123.437 23.971 123.734 23.942 124.055C23.892 124.699 23.892 125.346 23.892 125.972V127.341C23.917 128.015 23.917 128.702 23.917 129.394C23.917 130.096 23.917 130.802 23.94 131.521C23.963 131.858 23.975 132.133 23.986 132.394C24 132.696 24.011 132.98 24.04 133.34C24.066 133.524 24.105 133.678 24.144 133.835C24.178 133.969 24.211 134.104 24.234 134.261L24.282 134.414C24.414 134.771 24.531 135.083 24.791 135.354C25.115 135.836 25.68 135.96 26.168 136.014C26.277 136.034 26.384 136.043 26.49 136.043C27.302 136.043 28.055 135.453 28.305 134.645C28.488 134.231 28.518 133.513 28.553 132.681L28.576 132.145C28.635 131.04 28.748 130.346 28.902 130.099C29.135 129.761 29.735 129.707 30.37 129.65C30.61 129.629 30.853 129.607 31.081 129.571L31.194 129.554C31.535 129.508 32.004 129.446 32.388 129.253C33.034 128.965 33.375 128.467 33.375 127.813L33.372 127.566C33.273 126.899 32.802 126.101 31.154 126.101Z" fill="#FBBF28"/>
<path d="M25.959 143.732C23.992 142.749 20.8781 143.596 19.4351 145.113C18.5161 146.082 18.0291 147.222 18.0291 148.412C18.0291 149.748 18.5841 151.011 19.5391 151.862C20.4911 152.814 21.6821 153.433 23.0791 153.698C23.2361 153.76 23.4141 153.76 23.6691 153.76C24.6051 153.76 25.5371 153.445 26.4391 152.825C27.3361 152.208 28.0221 151.358 28.2671 150.576C28.5431 149.857 28.58 149.204 28.58 148.605C28.579 146.528 27.583 144.664 25.959 143.732ZM22.6611 147.455C22.8431 147.251 23.0961 147.136 23.3941 147.119L23.3751 146.764L23.4231 147.119C23.8091 147.119 24.4391 147.541 24.6671 148.047V148.361C24.6671 148.924 24.3861 149.439 23.8961 149.785C23.7571 149.825 23.6281 149.847 23.5211 149.847C23.1811 149.847 22.7941 149.649 22.6481 149.367C22.4221 149.053 22.3751 148.648 22.3741 148.341C22.3541 148.004 22.4581 147.683 22.6611 147.455Z" fill="#FBBF28"/>
<path d="M19.468 136.877C19.468 136.305 19.25 135.902 18.803 135.646C18.463 135.452 18.055 135.358 17.561 135.358H14.287C13.517 135.31 12.981 135.17 12.69 134.626C12.383 134.05 12.388 133.214 12.393 132.543V132.321C12.393 132.12 12.393 131.785 12.432 131.633L12.443 131.546C12.443 131.417 12.44 131.318 12.437 131.237C12.43 131 12.43 130.964 12.532 130.649C12.674 129.975 12.937 129.766 13.752 129.716C14.214 129.628 14.713 129.616 15.141 129.616L16.141 129.623C16.571 129.583 17.258 129.697 17.969 129.461C18.447 129.302 18.989 129.121 19.248 128.532C19.556 127.795 19.312 126.92 18.714 126.587C18.444 126.426 18.231 126.318 18.039 126.258C16.673 125.903 15.176 125.859 14.024 125.859C13.48 125.859 12.895 125.907 12.333 125.958C11.953 126.006 11.576 126.097 11.199 126.191C10.629 126.098 9.99799 126.101 9.51199 126.006C8.32599 125.859 7.133 125.859 5.978 125.859C4.811 125.859 3.765 126.012 2.589 126.355C2.139 126.479 1.317 126.809 0.865997 127.645C0.496997 128.33 0.295995 128.909 0.147995 130.333C-5.00679e-06 131.377 0 131.887 0 132.903L0.0039978 134.555C0.0259978 134.703 0.0469943 134.855 0.0659943 135.007C0.179994 135.871 0.307994 136.853 0.899994 137.533C1.58199 138.396 2.546 138.583 3.321 138.731C3.476 138.761 3.624 138.79 3.784 138.826C4.638 138.978 5.376 138.978 6.028 138.978H6.657C7.051 138.978 7.362 138.978 7.675 138.929C7.874 138.929 8.17499 138.929 8.72499 138.878C9.26599 138.829 9.70799 138.779 10.059 138.73C10.322 138.687 10.582 138.641 10.81 138.599C11.129 138.69 11.456 138.78 11.777 138.826C12.585 138.978 13.383 138.978 14.024 138.978C14.979 138.978 16.399 138.947 17.697 138.676C17.945 138.613 18.221 138.495 18.433 138.365C19.062 138.086 19.468 137.503 19.468 136.877ZM8.144 134.547C8.178 134.821 8.213 135.098 8.248 135.391C8.049 135.405 7.853 135.405 7.625 135.405H7.091C6.98 135.405 6.895 135.399 6.867 135.389L6.703 135.358H6.336C5.541 135.312 4.99699 135.175 4.73199 134.61C4.38499 134.033 4.39 133.195 4.394 132.523L4.395 132.321C4.395 132.12 4.395 131.785 4.442 131.578C4.459 131.386 4.459 131.259 4.459 131.155C4.459 130.988 4.45899 130.943 4.55899 130.721L4.582 130.649C4.738 129.909 5.01199 129.761 5.76599 129.712C6.35699 129.575 6.667 129.575 7.287 129.575H8.334C8.302 129.803 8.272 130.059 8.242 130.332C8.141 131.045 8.131 131.508 8.121 132.046C8.115 132.294 8.11 132.563 8.104 132.817C8.044 133.053 8.04399 133.231 8.04399 133.292C8.04399 133.752 8.095 134.155 8.144 134.547Z" fill="#FBBF28"/>
<path d="M42.305 126.167C43.034 126.233 43.568 126.267 43.937 126.267H45.811L46.845 126.314C47.068 126.314 48.273 126.364 48.609 126.411C49.218 126.462 49.656 126.564 49.928 126.915C50.075 127.247 50.075 127.265 50.075 127.753C50.075 128.056 50.075 128.434 49.938 128.677C49.694 129.058 49.405 129.143 48.852 129.191C48.473 129.222 48.05 129.211 47.644 129.201C47.436 129.196 47.232 129.19 47.04 129.19H45.731C44.685 129.19 43.603 129.19 42.566 129.451C41.739 129.725 41.207 130.334 41.207 131.001V131.339L41.218 131.432C41.453 132.316 42.555 132.894 43.206 132.953C44.21 133.102 45.205 133.148 46.166 133.102H47.087C47.809 133.102 49.017 133.102 49.586 133.288C49.725 133.316 49.848 133.4 49.96 133.548C50.114 133.743 50.137 133.783 50.174 134.036L50.198 134.304C50.237 134.709 50.269 135.057 50.269 135.362C50.269 135.956 50.314 136.37 50.591 137.3C50.821 137.82 51.27 138.267 51.809 138.506C52.022 138.588 52.262 138.631 52.505 138.631C52.849 138.631 53.18 138.545 53.493 138.37C54.353 137.778 54.697 136.811 54.76 136.376C54.775 136.25 54.791 136.152 54.806 136.052C54.84 135.842 54.873 135.63 54.902 135.226C54.956 134.907 54.956 134.691 54.955 134.61C55.102 132.418 55.102 130.723 55.102 128.578C55.102 127.898 55.075 127.555 55.042 127.119L54.997 126.519C54.977 126.42 54.957 126.293 54.937 126.166C54.907 125.98 54.878 125.798 54.856 125.724C54.653 124.054 53.665 122.934 52.144 122.654C50.942 122.43 50.297 122.409 49.225 122.371L48.847 122.357C47.676 122.308 47.138 122.308 46.797 122.308C45.85 122.308 44.796 122.371 44.221 122.41C43.889 122.463 43.589 122.503 43.297 122.542C42.775 122.61 42.282 122.675 41.644 122.812C40.836 123.083 40.334 123.676 40.334 124.363C40.334 124.425 40.334 124.613 40.401 124.816C40.71 125.739 41.746 126.022 42.305 126.167Z" fill="#FBBF28"/>
<path d="M54.478 142.924C54.141 142.801 53.833 142.781 53.536 142.76C53.316 142.744 53.107 142.731 52.9 142.675L51.304 142.66C50.659 142.66 50.02 142.536 49.428 142.291C49.338 142.261 49.239 142.192 49.133 142.086C48.58 141.534 48.553 141.19 48.511 140.643V139.771C48.511 139.087 48.386 138.469 48.135 137.916C47.794 137.233 47.256 136.857 46.622 136.857C46.495 136.857 46.365 136.874 46.273 136.896C45.803 136.949 45.321 137.07 45.007 137.573C44.444 138.342 44.45 139.253 44.453 139.919L44.455 140.035C44.442 140.196 44.436 140.327 44.431 140.44C44.415 140.768 44.409 140.917 44.272 141.326C44.172 141.689 43.919 141.975 43.458 142.232C43.028 142.499 42.148 142.546 41.192 142.47C40.868 142.446 40.538 142.42 40.206 142.42C39.565 142.42 38.621 142.474 37.818 142.97C37.378 143.285 37.135 143.733 37.135 144.23C37.135 144.74 37.342 145.136 37.773 145.444C38.381 145.864 39.075 145.996 39.746 146.123L40.082 146.186L40.444 146.213C40.896 146.25 41.288 146.281 41.804 146.281C42.221 146.281 42.524 146.295 42.8 146.309C43.036 146.32 43.253 146.329 43.501 146.329H49.56C49.956 146.329 50.452 146.329 50.869 146.281C51.904 146.281 52.726 146.218 53.501 146.069C53.601 146.036 53.71 146.005 53.823 145.973C54.223 145.859 54.676 145.73 55.094 145.402C55.376 145.12 55.538 144.745 55.538 144.374C55.538 143.509 54.78 143.087 54.478 142.924Z" fill="#FBBF28"/>
<path d="M50.4821 151.273C49.8371 150.979 49.148 150.895 48.58 150.852C46.858 150.905 45.0261 151.65 44.0181 152.707C43.0991 153.675 42.6121 154.816 42.6121 156.007C42.6121 157.288 43.166 158.548 44.17 159.553C45.081 160.463 46.316 161.101 47.718 161.354H48.2021C49.1301 161.354 50.165 161.023 50.985 160.459C51.81 159.84 52.4371 159.052 52.7971 158.179C53.0471 157.578 53.1631 156.965 53.1631 156.248C53.1631 154.129 52.1471 152.227 50.4821 151.273ZM47.92 154.715C48.421 154.719 49.0561 155.114 49.1611 155.64L49.1891 155.723C49.2031 155.762 49.2031 155.898 49.2031 156.007C49.2031 156.586 48.9071 157.105 48.3931 157.406C48.1031 157.596 47.3861 157.4 47.1841 157.01C46.9581 156.696 46.912 156.29 46.912 156.007C46.911 155.41 47.177 154.76 47.92 154.715Z" fill="#FBBF28"/>
<path d="M84.131 149.311C83.518 149.123 82.799 149.064 82.224 149.019L72.734 149.004C72.228 149.004 71.722 148.992 71.215 148.98C70.053 148.955 68.803 148.917 67.79 149.004L67.232 148.999C66.828 148.999 66.404 149.02 66.097 149.161C65.46 149.336 64.816 149.884 64.816 150.718C64.816 150.858 64.816 151.004 64.878 151.13C64.993 151.84 65.706 152.137 66.284 152.379L66.369 152.414C66.977 152.615 67.64 152.718 68.119 152.769L68.926 152.795C70.13 152.833 71.168 152.866 72.492 152.866C73.167 152.866 73.82 152.877 74.472 152.889C75.129 152.902 75.785 152.913 76.467 152.913H77.193C77.368 152.913 77.609 152.903 77.879 152.893C78.212 152.879 78.589 152.865 78.939 152.865H80.586C80.926 152.865 81.208 152.83 81.507 152.789C81.705 152.766 81.916 152.738 82.156 152.719C84.678 152.582 85.207 151.607 85.207 150.812C85.207 150.638 85.207 150.439 85.137 150.3C84.97 149.863 84.636 149.526 84.131 149.311Z" fill="#FBBF28"/>
<path d="M65.6 141.906C65.899 142.206 66.3129 142.35 66.8699 142.35C67.3099 142.35 67.772 142.2 68.22 142.032C69.002 141.702 69.481 141.226 70.035 140.678C70.183 140.53 70.3379 140.376 70.5149 140.211C70.6739 140.052 70.786 139.902 70.889 139.764C71.006 139.607 71.097 139.482 71.29 139.338C71.521 139.107 71.7589 138.889 71.9989 138.669C72.4109 138.292 72.838 137.901 73.23 137.448C73.465 137.212 73.6519 137.026 73.8639 136.854C74.2179 136.602 74.498 136.583 74.578 136.583C74.749 136.583 74.988 136.797 75.289 137.069L75.423 137.185C76.037 137.664 76.6629 138.262 77.3259 138.896C78.0499 139.586 78.796 140.301 79.583 140.913L79.785 141.082C80.32 141.535 81.0529 142.157 81.9899 142.157C82.4699 142.157 83.124 141.922 83.445 141.474C83.746 141.05 83.898 140.589 83.898 140.103C83.898 139.91 83.841 139.676 83.725 139.384C83.509 138.863 83.126 138.453 82.789 138.094C82.706 138.005 82.624 137.918 82.561 137.847C82.095 137.256 81.56 136.751 81.043 136.263C80.738 135.974 80.4379 135.69 80.1409 135.377C79.9059 135.168 79.664 134.968 79.428 134.769C78.841 134.279 78.286 133.816 77.849 133.279C77.132 132.449 76.7229 131.605 76.5289 130.565L76.4979 130.255C76.4539 129.791 76.3989 129.215 76.2779 128.773C76.2269 128.568 76.1769 128.416 76.1239 128.261L76.0759 128.165C75.6539 127.584 75.0839 127.292 74.3829 127.292L74.152 127.302C73.649 127.427 72.942 127.679 72.6 128.432C72.436 128.827 72.3749 129.363 72.3179 129.884C72.2819 130.201 72.2479 130.5 72.1929 130.722C71.9689 131.752 71.574 132.334 71.001 133.098C70.209 134.109 69.3579 134.941 68.4599 135.823C67.7739 136.495 67.066 137.189 66.29 138.054C66.178 138.211 66.077 138.323 65.976 138.435C65.859 138.566 65.7419 138.696 65.5899 138.914C65.3469 139.352 65.013 139.954 65.013 140.588C65.011 141.171 65.235 141.651 65.6 141.906Z" fill="#FBBF28"/>
<path d="M94.8239 131.137V131.526C94.8239 131.828 94.8359 132.304 94.8449 132.803C94.8589 133.352 94.8719 133.931 94.8719 134.355C94.9249 135.401 95.0839 136.907 95.8749 137.912C96.6249 138.8 97.4829 138.962 98.3129 139.119C98.4389 139.143 98.5649 139.167 98.7089 139.197C99.6579 139.346 100.345 139.346 101.14 139.346H101.77C102.805 139.346 103.621 139.346 104.621 139.295C105.037 139.25 105.516 139.2 106.001 139.194C106.174 139.164 106.353 139.139 106.532 139.116C107.24 139.02 107.971 138.922 108.521 138.455C108.941 138.154 109.155 137.764 109.155 137.293C109.155 135.995 108.243 135.677 107.341 135.534C106.656 135.447 105.702 135.465 104.79 135.5C104.385 135.516 103.989 135.531 103.612 135.531H102.838C102.414 135.531 101.835 135.531 101.238 135.482C101.003 135.482 100.723 135.447 100.398 135.404L100.313 135.394C100.188 135.344 100.072 135.309 99.9609 135.279C99.8019 135.235 99.7019 135.204 99.6499 135.15C99.2549 134.756 99.2509 133.726 99.6009 133.377C99.8829 133.094 100.416 133.094 100.803 133.094H105.018C105.144 133.094 105.273 133.096 105.401 133.099C106.089 133.115 106.816 133.132 107.396 132.77C108.047 132.475 108.584 131.622 108.315 130.888C108.076 130.109 107.505 129.638 106.669 129.526C105.735 129.392 104.736 129.329 103.613 129.329C103.013 129.329 102.195 129.329 101.579 129.376C101.454 129.376 101.342 129.384 101.235 129.39C101.064 129.398 100.864 129.402 100.745 129.388C100.525 129.333 100.313 129.329 100.125 129.329C99.9989 129.291 99.8539 129.223 99.6889 129.118C99.3679 128.972 99.2689 128.753 99.2669 128.155C99.2529 127.961 99.2529 127.313 99.8749 127.121C100.814 126.875 101.849 126.843 102.644 126.843H103.274C104.048 126.843 104.474 126.843 105.261 126.892C105.453 126.892 105.659 126.904 105.858 126.915C106.061 126.929 106.255 126.94 106.424 126.94C107.038 126.94 107.924 126.879 108.501 126.366C109.043 125.892 109.057 125.33 109.007 124.885C108.943 124.434 108.633 124 108.194 123.749C107.696 123.481 107.234 123.404 106.784 123.329C106.614 123.3 106.44 123.271 106.263 123.23L106.181 123.222C105.592 123.222 105.009 123.169 104.67 123.134C104.433 123.075 104.254 123.075 104.05 123.075H102.934C101.197 123.075 99.3469 123.114 97.5169 123.569C96.4949 123.826 95.6389 124.71 95.2299 125.935C95.0529 126.468 94.9329 127.099 94.8759 127.796C94.7849 128.497 94.8019 129.2 94.8199 129.88C94.8319 130.309 94.8439 130.727 94.8239 131.137Z" fill="#FBBF28"/>
<path d="M111.734 149.532C111.304 149.295 110.8 149.256 110.315 149.22L110.063 149.2C109.697 149.148 109.437 149.148 109.042 149.148H108.558C107.827 149.148 107.231 149.103 106.736 148.898C105.888 148.456 105.715 147.618 105.715 146.5V144.949C105.715 143.992 105.614 142.802 104.792 142.09C104.403 141.815 104.045 141.686 103.662 141.686C103.028 141.686 102.585 142.088 102.227 142.49C101.649 143.174 101.653 144.158 101.657 144.807L101.659 146.065C101.659 147.382 101.591 148.281 100.663 148.767C100.327 148.977 99.731 149.003 99.251 149.003H97.459C96.689 149.003 95.804 149.046 95.12 149.525C94.617 149.775 94.34 150.233 94.34 150.812C94.34 151.337 94.607 151.772 95.032 151.982C95.582 152.35 96.319 152.559 97.233 152.614C97.902 152.768 98.357 152.764 98.989 152.768C99.823 152.816 100.175 152.816 100.706 152.816H108.081L108.506 152.797C109.274 152.761 109.998 152.729 110.631 152.525C111.003 152.483 111.71 152.35 112.268 151.917C112.611 151.643 112.791 151.295 112.789 150.879C112.732 150.253 112.294 149.714 111.734 149.532Z" fill="#FBBF28"/>
<path d="M135.995 132.337C135.829 131.396 135.488 130.715 134.912 130.191C134.323 129.669 132.52 128.982 131.5 128.621C129.9 128.053 128.214 127.728 126.873 127.728C124.882 127.728 124.421 128.624 124.384 129.392C124.384 129.521 124.409 129.606 124.438 129.67C124.543 130.533 125.478 130.819 126.019 130.984C126.661 131.231 127.429 131.336 127.965 131.395C128.828 131.45 129.42 131.559 129.958 131.765C130.776 132.037 131.267 132.728 131.267 133.609C131.267 134.292 131.079 134.811 130.68 135.211C129.945 136.024 129.096 136.354 127.746 136.354C126.846 136.354 125.926 136.237 124.952 136.112L124.18 136.017C123.834 135.995 123.471 135.939 123.087 135.878C122.591 135.804 122.08 135.723 121.59 135.723C120.441 135.723 119.545 136.275 118.994 137.327C118.355 138.606 117.987 140.132 117.987 141.51C117.987 142.244 118.125 143.003 118.397 143.766C119.07 145.603 120.65 146.869 123.088 147.521C124.831 148.032 126.679 148.173 128.311 148.3L129.103 148.36H129.857L129.884 148.356C130.994 148.181 131.317 147.463 131.251 146.862C131.191 146.072 130.458 145.711 130.021 145.497L129.905 145.44C129.344 145.234 128.785 145.132 128.242 145.034C127.859 144.966 127.499 144.899 127.138 144.795L127.049 144.777C125.905 144.549 124.721 144.313 124.035 143.498C123.508 142.928 123.063 141.661 123.063 140.735C123.063 140.408 123.111 140.153 123.21 139.986C123.373 139.694 123.902 139.54 124.74 139.54C125.959 139.54 127.421 139.806 128.296 139.965L128.644 140.026C128.945 140.044 129.264 140.087 129.593 140.13C130.454 140.241 131.438 140.37 132.329 140.115C133.412 139.88 134.178 139.334 134.753 138.376C135.127 137.628 135.364 136.814 135.595 136.026L135.646 135.849C135.881 135.097 136.099 134.265 136.099 133.271C136.099 133.038 136.062 132.784 136.017 132.488L135.995 132.337Z" fill="#FBBF28"/>
<path d="M146.039 132.102L146.033 131.961V131.563C146.039 130.548 146.043 129.748 145.734 128.74C145.509 127.662 144.412 127.098 143.447 127.098C142.865 127.098 142.341 127.328 141.886 127.786L141.836 127.85C141.211 128.859 141.159 130.217 141.116 131.31L141.105 131.623C141.105 132.065 141.089 132.451 141.078 132.803C141.066 133.109 141.057 133.389 141.057 133.657C141.057 133.958 141.045 134.246 141.034 134.543C141.022 134.874 141.009 135.214 141.009 135.598V141.703C141.009 142.206 141.046 142.795 141.082 143.364C141.119 143.927 141.154 144.457 141.154 144.902C141.154 145.665 141.243 146.554 141.397 147.315C141.469 147.959 141.611 148.461 141.829 148.854C142.148 149.428 142.609 149.708 143.351 149.765H143.723L143.756 149.758C144.726 149.577 145.374 148.695 145.591 147.877C145.797 146.796 145.892 145.984 146.034 144.077C146.034 143.396 146.059 142.704 146.083 142.018C146.106 141.335 146.132 140.657 146.132 140.005V135.256C146.131 134.187 146.086 133.175 146.039 132.102Z" fill="#FBBF28"/>
</svg>
