<svg width="126" height="137" viewBox="0 0 126 137" fill="none" xmlns="http://www.w3.org/2000/svg">
<path d="M95.9224 13.1734C93.7866 10.9017 91.4279 9.44658 89.5337 8.27862C88.1816 7.4451 86.784 6.58201 86.5357 5.96298C86.4386 5.72145 86.344 5.47233 86.2486 5.21983C85.4564 3.13136 84.3695 0.271864 81.0962 0.0218901C77.1879 -0.280443 75.4913 2.60692 74.461 5.09906C74.151 5.84898 72.3218 6.68927 70.5534 7.50168C66.3604 9.42716 60.025 12.3373 57.4467 20.2579C55.2501 27.0056 56.6072 32.0515 57.5049 35.3907C57.95 37.0434 58.3334 38.4706 58.0294 39.207C57.5041 40.4822 56.0389 41.3233 53.8204 42.5952C50.9009 44.2681 46.9039 46.5609 42.3342 51.4608C35.1568 59.1542 33.7726 71.8134 38.9072 79.6901L39.9772 81.168C39.9645 81.4391 39.8683 81.9483 39.8007 82.3038C39.4916 83.9295 39.0254 86.3845 40.8859 87.9553C41.6823 88.6275 42.6644 88.9687 43.8028 88.9687C45.029 88.9687 46.2426 88.5794 47.3126 88.2365C48.022 88.0076 48.7575 87.772 49.179 87.772C49.2448 87.772 49.2744 87.7796 49.2651 87.7737L49.4095 87.8294L49.418 87.8328C49.972 88.0575 50.4812 88.2475 50.9735 88.4155C54.5829 89.646 58.2312 90.2709 61.8162 90.2709C61.8179 90.2709 61.8178 90.2709 61.8187 90.2709C73.1562 90.2709 84.0486 83.677 89.5683 73.4745C94.0772 65.1418 93.2107 56.1934 92.6364 50.2717C92.5537 49.4281 92.4776 48.6401 92.4227 47.9189C92.2733 45.925 93.4666 44.4657 95.1201 42.4457C96.9282 40.2373 99.1805 37.4876 100.418 33.0083C102.434 25.7253 100.752 18.3097 95.9224 13.1734Z" fill="#FBBF28"/>
<path d="M77.4169 45.909C86.6453 45.909 94.1263 38.4279 94.1263 29.1996C94.1263 19.9712 86.6453 12.4902 77.4169 12.4902C68.1886 12.4902 60.7075 19.9712 60.7075 29.1996C60.7075 38.4279 68.1886 45.909 77.4169 45.909Z" fill="white"/>
<path d="M69.5258 30.5085C70.5414 30.6439 71.4789 29.8976 71.6196 28.8417C71.7603 27.7858 71.051 26.8201 70.0354 26.6847C69.0197 26.5494 68.0822 27.2956 67.9415 28.3515C67.8008 29.4074 68.5101 30.3731 69.5258 30.5085Z" fill="#755726"/>
<path d="M84.6809 32.5665C85.6971 32.7017 86.6348 31.9553 86.7753 30.8993C86.9159 29.8433 86.2059 28.8776 85.1897 28.7424C84.1734 28.6072 83.2357 29.3536 83.0952 30.4096C82.9547 31.4656 83.6646 32.4313 84.6809 32.5665Z" fill="#755726"/>
<path d="M76.7861 37.9521C76.6113 37.9521 76.4331 37.9411 76.2558 37.9175C74.5558 37.6903 73.1834 36.4075 72.844 34.7235C72.7696 34.3469 73.012 33.9803 73.3887 33.9035C73.7653 33.8309 74.1318 34.0707 74.2078 34.4474C74.4299 35.5503 75.3277 36.3906 76.4407 36.5384C77.5546 36.6912 78.6398 36.1111 79.1414 35.1044C79.3129 34.7607 79.7301 34.6222 80.0738 34.7936C80.4175 34.9642 80.556 35.3814 80.3845 35.7251C79.6971 37.1025 78.2961 37.9521 76.7861 37.9521Z" fill="#755726"/>
<path d="M69.3397 37.8769C69.8549 34.0082 67.1381 30.4537 63.2669 29.9394C62.3979 29.8237 61.5466 29.8794 60.7393 30.0669C60.9859 34.9161 63.3395 39.3142 67.0013 42.2438C68.2368 41.1553 69.1058 39.6377 69.3397 37.8769Z" fill="#FFE0B0"/>
<path d="M93.287 34.3992C92.5574 34.0074 91.75 33.7312 90.8793 33.6155C87.0115 33.0995 83.457 35.818 82.9427 39.6867C82.7079 41.4483 83.1487 43.1407 84.0583 44.5156C88.3593 42.645 91.7813 39.0153 93.287 34.3992Z" fill="#FFE0B0"/>
<path d="M86.3086 70.6927C86.2014 70.0619 85.6035 69.6363 84.9735 69.7435C84.145 69.8837 83.3258 69.9774 82.5168 70.0391C84.9464 64.7482 85.1685 60.1094 85.1761 59.889C85.2023 59.2505 84.7032 58.7109 84.0656 58.6855C83.4381 58.672 82.8867 59.1568 82.8613 59.796C82.858 59.8484 82.6241 64.8133 79.9031 70.1151C77.7867 70.0771 75.7911 69.8085 73.9721 69.42C75.6248 67.1365 76.2421 65.3368 76.3037 65.1502C76.5014 64.543 76.1712 63.8936 75.5657 63.6926C74.9627 63.4933 74.304 63.8227 74.103 64.429C74.0422 64.6089 73.3767 66.5048 71.534 68.8086C67.0429 67.5039 64.1209 65.6932 64.0677 65.6603C63.5272 65.3174 62.8136 65.4779 62.4699 66.0184C62.127 66.5589 62.2883 67.275 62.828 67.6179C63.0391 67.7513 65.6799 69.3871 69.7909 70.7197C68.5537 71.9105 66.9922 73.1122 65.0431 74.1772C62.0333 73.0531 60.1821 71.9046 60.1408 71.8776C59.6003 71.5355 58.8858 71.6943 58.5421 72.2365C58.2001 72.7761 58.3605 73.4923 58.9002 73.8351C59.0387 73.923 60.2142 74.6535 62.1541 75.5199C60.2733 76.2555 58.1215 76.8551 55.6471 77.2326C55.0146 77.3288 54.5797 77.9192 54.6759 78.5509C54.7638 79.126 55.257 79.5364 55.8194 79.5364C55.8777 79.5364 55.9368 79.5313 55.9951 79.5229C59.6543 78.9672 62.6827 77.9538 65.1884 76.7149C67.3148 77.4496 69.8855 78.1219 72.756 78.4504C68.8577 81.1807 63.974 82.6906 58.1274 82.9347C57.4882 82.9626 56.9924 83.503 57.0186 84.1415C57.0448 84.7639 57.5583 85.2512 58.1756 85.2512C58.1925 85.2512 58.2085 85.2512 58.2254 85.2503C66.581 84.9007 72.2991 82.0953 76.1982 78.6581C76.2708 78.6581 76.3426 78.664 76.4152 78.664C78.0291 78.664 79.7096 78.5382 81.4333 78.246C82.0641 78.1404 82.4881 77.5425 82.3825 76.9125C82.2752 76.28 81.674 75.8543 81.0473 75.9616C80.2071 76.1052 79.3761 76.1989 78.5594 76.2597C79.6556 74.982 80.5516 73.6814 81.2787 72.429C82.6021 72.3893 83.9668 72.2677 85.3594 72.0304C85.9903 71.9206 86.4159 71.3236 86.3086 70.6927ZM67.9642 75.1272C69.7487 73.9483 71.1801 72.6739 72.3168 71.4401C74.2119 71.908 76.3181 72.2686 78.5839 72.3952C77.633 73.8529 76.5504 75.1534 75.352 76.3112C72.6361 76.2031 70.127 75.7294 67.9642 75.1272Z" fill="#CE9328"/>
<path d="M83.0806 16.6975C82.9573 16.6494 82.7943 16.7043 82.7039 16.7997C82.0528 17.4753 80.8249 17.6366 80.1366 17.1248C79.3858 16.5632 79.2034 15.9189 79.1815 15.4772C79.1502 14.848 79.4289 14.1995 79.9272 13.7409C80.4432 13.2722 81.1585 13.0476 81.916 13.1252C81.8037 13.0932 82.1507 13.1877 82.4311 13.2756L82.4607 13.2663C82.2132 12.4344 81.4084 11.921 81.4084 11.921C80.8578 11.5815 80.2008 11.3754 79.4644 11.356C78.0127 11.3138 76.2164 12.0308 75.4876 13.7215C74.8188 15.2661 74.8483 16.8546 75.5687 18.08C76.2544 19.2437 77.4882 19.9683 79.0463 20.1186C79.1747 20.1313 79.3031 20.138 79.4281 20.1423C80.9575 20.1853 82.2622 19.5275 82.9184 18.3815C83.1743 17.9356 83.3077 17.4483 83.306 16.9711C83.306 16.8394 83.2005 16.7465 83.0806 16.6975Z" fill="#755726"/>
<path d="M27.4152 107.069C27.4143 107.069 27.4143 107.069 27.4135 107.069C27.2724 107.061 27.128 107.055 26.9845 107.051C26.5073 107.034 25.9677 107.017 25.7667 106.84C25.3698 106.545 25.2676 106.109 25.2287 105.501L25.211 105.177C25.1814 104.636 25.1519 104.075 24.9762 103.52C24.885 103.112 24.6646 102.762 24.3192 102.467C24.0658 102.212 23.7128 102.091 23.2416 102.091C22.8852 102.091 22.6293 102.151 22.3988 102.291C21.7882 102.619 21.5129 103.438 21.4597 104.087C21.442 104.242 21.4183 104.402 21.393 104.568C21.3567 104.807 21.3187 105.06 21.2942 105.333C21.2519 105.878 21.252 106.429 21.252 106.96V108.123C21.2731 108.696 21.2731 109.278 21.2731 109.865C21.2731 110.461 21.2731 111.061 21.2925 111.672C21.3119 111.958 21.322 112.192 21.3322 112.413C21.344 112.669 21.3533 112.91 21.3778 113.216C21.3997 113.372 21.4327 113.503 21.4656 113.637C21.4943 113.75 21.5222 113.866 21.5425 113.998L21.5838 114.128C21.6962 114.431 21.795 114.696 22.0154 114.927C22.2907 115.336 22.7704 115.441 23.185 115.486C23.2771 115.504 23.3683 115.512 23.4578 115.512C24.1469 115.512 24.7871 115.011 24.999 114.324C25.1544 113.973 25.1798 113.363 25.2093 112.656L25.2287 112.201C25.2794 111.264 25.3748 110.673 25.5057 110.464C25.7033 110.177 26.2126 110.131 26.7522 110.082C26.9566 110.064 27.1627 110.047 27.3569 110.015L27.4523 110.001C27.742 109.961 28.1397 109.909 28.4657 109.745C29.0147 109.501 29.3035 109.077 29.3035 108.522L29.3009 108.313C29.214 107.746 28.8154 107.069 27.4152 107.069Z" fill="#FBBF28"/>
<path d="M23.0059 122.038C21.3355 121.203 18.6922 121.923 17.466 123.211C16.6848 124.033 16.271 125.002 16.271 126.011C16.271 127.145 16.7422 128.218 17.5529 128.941C18.3611 129.75 19.372 130.275 20.5586 130.501C20.692 130.553 20.8431 130.553 21.0593 130.553C21.8532 130.553 22.6453 130.286 23.4113 129.76C24.173 129.236 24.7549 128.514 24.9635 127.85C25.1974 127.24 25.2295 126.685 25.2295 126.178C25.2304 124.413 24.3841 122.831 23.0059 122.038ZM20.2055 125.201C20.3601 125.027 20.5746 124.929 20.828 124.915L20.8119 124.614L20.8533 124.915C21.181 124.915 21.7155 125.274 21.9089 125.703V125.97C21.9089 126.447 21.6708 126.885 21.2544 127.178C21.1362 127.214 21.0272 127.232 20.936 127.232C20.6472 127.232 20.3187 127.063 20.1954 126.824C20.0037 126.557 19.9632 126.212 19.9623 125.952C19.9446 125.666 20.0333 125.394 20.2055 125.201Z" fill="#FBBF28"/>
<path d="M17.4936 116.218C17.4936 115.733 17.3087 115.392 16.9286 115.174C16.6398 115.009 16.2944 114.929 15.8739 114.929H13.0937C12.4401 114.887 11.9849 114.769 11.7375 114.307C11.4765 113.818 11.4807 113.109 11.4849 112.538V112.351C11.4849 112.18 11.4849 111.895 11.5179 111.765L11.5272 111.692C11.5272 111.582 11.5246 111.498 11.5221 111.429C11.5162 111.228 11.5162 111.198 11.6023 110.93C11.7231 110.358 11.9469 110.181 12.6385 110.138C13.0304 110.064 13.4552 110.054 13.8175 110.054L14.6671 110.059C15.0319 110.026 15.6154 110.123 16.2184 109.922C16.6238 109.787 17.084 109.633 17.3053 109.133C17.5671 108.507 17.3593 107.764 16.8518 107.482C16.6221 107.345 16.4414 107.253 16.2784 107.202C15.1189 106.901 13.8479 106.863 12.8691 106.863C12.4072 106.863 11.9106 106.904 11.4326 106.947C11.11 106.988 10.7908 107.065 10.4699 107.145C9.98595 107.066 9.45055 107.069 9.03758 106.988C8.03093 106.863 7.01667 106.863 6.03704 106.863C5.04559 106.863 4.15716 106.993 3.1598 107.285C2.77724 107.39 2.07884 107.67 1.69712 108.381C1.38465 108.962 1.21321 109.454 1.08822 110.662C0.962391 111.548 0.962402 111.981 0.962402 112.844L0.965779 114.247C0.984358 114.372 1.00208 114.501 1.01897 114.631C1.11525 115.365 1.22505 116.197 1.72753 116.777C2.30602 117.509 3.12518 117.668 3.78305 117.793C3.91395 117.819 4.04062 117.843 4.17574 117.874C4.90117 118.003 5.52781 118.003 6.08096 118.003H6.61468C6.9491 118.003 7.2126 118.003 7.47862 117.961C7.64752 117.961 7.9034 117.961 8.36957 117.918C8.82813 117.877 9.20395 117.834 9.5029 117.793C9.72585 117.756 9.94712 117.717 10.1405 117.681C10.4108 117.759 10.6886 117.835 10.9614 117.874C11.6479 118.003 12.3252 118.003 12.8691 118.003C13.6798 118.003 14.8858 117.977 15.9879 117.747C16.1981 117.693 16.4329 117.592 16.6128 117.483C17.1491 117.245 17.4936 116.75 17.4936 116.218ZM7.87976 114.241C7.90848 114.473 7.93804 114.708 7.9676 114.958C7.79954 114.969 7.63232 114.969 7.43893 114.969H6.98626C6.89252 114.969 6.81905 114.964 6.79624 114.956L6.65774 114.929H6.34528C5.67052 114.889 5.20857 114.773 4.98309 114.294C4.68835 113.803 4.69258 113.092 4.69596 112.521L4.69681 112.351C4.69681 112.18 4.69681 111.895 4.7365 111.719C4.7517 111.556 4.7517 111.448 4.7517 111.36C4.7517 111.218 4.75171 111.18 4.83616 110.991L4.85559 110.93C4.98818 110.302 5.22039 110.177 5.86053 110.135C6.36217 110.019 6.62567 110.019 7.1518 110.019H8.04105C8.01402 110.212 7.98785 110.43 7.96252 110.662C7.87638 111.268 7.86793 111.661 7.85948 112.117C7.85441 112.328 7.85019 112.557 7.84513 112.771C7.7953 112.972 7.79531 113.123 7.79531 113.175C7.79446 113.565 7.83669 113.908 7.87976 114.241Z" fill="#FBBF28"/>
<path d="M36.8847 107.125C37.5038 107.18 37.9573 107.21 38.2706 107.21H39.8608L40.7391 107.251C40.9282 107.251 41.9518 107.292 42.2364 107.332C42.7541 107.376 43.1256 107.463 43.357 107.76C43.4812 108.042 43.4812 108.058 43.4812 108.472C43.4812 108.728 43.4812 109.049 43.3646 109.256C43.1577 109.58 42.9128 109.652 42.4424 109.693C42.1207 109.719 41.7618 109.71 41.4164 109.701C41.2407 109.697 41.0676 109.692 40.9038 109.692H39.7932C38.9048 109.692 37.986 109.692 37.1051 109.913C36.4034 110.146 35.9516 110.663 35.9516 111.23V111.517L35.9617 111.596C36.161 112.346 37.0967 112.837 37.6498 112.888C38.5028 113.013 39.3473 113.052 40.164 113.013H40.946C41.5591 113.013 42.5843 113.013 43.0674 113.172C43.1856 113.196 43.2903 113.267 43.3849 113.393C43.5158 113.558 43.5352 113.592 43.5665 113.806L43.5868 114.035C43.6197 114.378 43.6467 114.674 43.6467 114.933C43.6467 115.436 43.6847 115.789 43.9203 116.578C44.1154 117.019 44.4963 117.399 44.9548 117.602C45.1356 117.671 45.3399 117.708 45.546 117.708C45.8382 117.708 46.1194 117.635 46.3846 117.487C47.1151 116.984 47.4073 116.163 47.4597 115.794C47.4732 115.686 47.4858 115.603 47.4993 115.518C47.5281 115.34 47.5559 115.16 47.5813 114.817C47.6269 114.546 47.6269 114.362 47.626 114.294C47.751 112.432 47.751 110.993 47.751 109.173C47.751 108.595 47.729 108.304 47.7003 107.933L47.6623 107.425C47.6446 107.34 47.6285 107.232 47.6108 107.126C47.5846 106.967 47.5601 106.812 47.5416 106.75C47.3693 105.331 46.5307 104.381 45.2386 104.143C44.2184 103.953 43.6704 103.934 42.76 103.902L42.4391 103.89C41.4451 103.849 40.9882 103.849 40.6985 103.849C39.8946 103.849 38.9994 103.902 38.5121 103.935C38.23 103.981 37.975 104.014 37.7276 104.047C37.2842 104.105 36.8653 104.161 36.324 104.276C35.6374 104.507 35.2109 105.01 35.2109 105.594C35.2109 105.647 35.2109 105.806 35.2675 105.978C35.5301 106.762 36.4101 107.001 36.8847 107.125Z" fill="#FBBF28"/>
<path d="M47.2197 121.353C46.9334 121.248 46.6733 121.231 46.42 121.214C46.2333 121.2 46.056 121.189 45.8803 121.141L44.5249 121.129C43.9777 121.129 43.4346 121.024 42.9321 120.816C42.8553 120.79 42.7708 120.731 42.6813 120.642C42.2118 120.172 42.189 119.88 42.1535 119.416V118.676C42.1535 118.095 42.0471 117.57 41.8343 117.1C41.5446 116.52 41.0886 116.202 40.5498 116.202C40.4417 116.202 40.3311 116.217 40.2534 116.235C39.8539 116.28 39.4452 116.382 39.1792 116.81C38.7012 117.462 38.7062 118.235 38.7088 118.802L38.7105 118.9C38.6995 119.037 38.6936 119.147 38.6902 119.243C38.6767 119.521 38.6708 119.648 38.5551 119.996C38.4698 120.304 38.2561 120.546 37.8634 120.765C37.4986 120.992 36.752 121.032 35.9396 120.968C35.6643 120.947 35.3839 120.925 35.1027 120.925C34.5589 120.925 33.7574 120.971 33.0759 121.392C32.7018 121.66 32.4966 122.04 32.4966 122.462C32.4966 122.895 32.6722 123.232 33.0379 123.493C33.5539 123.849 34.1434 123.962 34.7126 124.069L34.998 124.123L35.3054 124.147C35.6897 124.177 36.0224 124.204 36.4607 124.204C36.8145 124.204 37.0721 124.215 37.3061 124.228C37.5062 124.236 37.6911 124.245 37.9014 124.245H43.0453C43.3823 124.245 43.802 124.245 44.1558 124.204C45.035 124.204 45.7325 124.151 46.3913 124.023C46.4765 123.995 46.5686 123.969 46.6649 123.942C47.0035 123.845 47.3886 123.736 47.7441 123.457C47.9831 123.218 48.1208 122.899 48.1208 122.584C48.1191 121.85 47.4756 121.491 47.2197 121.353Z" fill="#FBBF28"/>
<path d="M43.827 128.441C43.2797 128.191 42.6937 128.12 42.2114 128.084C40.7496 128.128 39.194 128.761 38.3377 129.659C37.5574 130.481 37.1436 131.45 37.1436 132.46C37.1436 133.548 37.614 134.618 38.4669 135.471C39.2405 136.243 40.2893 136.785 41.4793 137H41.8905C42.6785 137 43.5576 136.72 44.2526 136.241C44.9536 135.716 45.4856 135.046 45.7913 134.304C46.0033 133.795 46.1021 133.274 46.1021 132.665C46.1029 130.866 45.2407 129.252 43.827 128.441ZM41.6515 131.364C42.0772 131.368 42.616 131.702 42.7046 132.149L42.7283 132.22C42.7401 132.253 42.7401 132.369 42.7401 132.461C42.7401 132.953 42.4885 133.393 42.0527 133.65C41.8061 133.811 41.1972 133.644 41.0258 133.313C40.8341 133.046 40.7944 132.702 40.7944 132.461C40.7952 131.955 41.0199 131.402 41.6515 131.364Z" fill="#FBBF28"/>
<path d="M72.3974 126.776C71.8772 126.616 71.2658 126.566 70.7776 126.528L62.7202 126.515C62.2912 126.515 61.8605 126.505 61.4306 126.495C60.4451 126.473 59.3827 126.442 58.523 126.515L58.0492 126.511C57.7055 126.511 57.3457 126.529 57.0848 126.648C56.5435 126.797 55.9971 127.263 55.9971 127.97C55.9971 128.089 55.9971 128.213 56.0494 128.32C56.1466 128.922 56.7529 129.176 57.2436 129.38L57.3162 129.41C57.833 129.581 58.3955 129.668 58.8017 129.711L59.4874 129.733C60.5093 129.765 61.3909 129.794 62.515 129.794C63.0875 129.794 63.6424 129.804 64.1964 129.813C64.7538 129.824 65.3103 129.834 65.8905 129.834H66.5061C66.6547 129.834 66.86 129.825 67.0888 129.817C67.3709 129.805 67.6918 129.793 67.9882 129.793H69.3859C69.6755 129.793 69.9145 129.763 70.1687 129.728C70.3368 129.709 70.515 129.685 70.7194 129.669C72.861 129.553 73.3095 128.725 73.3095 128.05C73.3095 127.901 73.3094 127.732 73.2503 127.615C73.1101 127.245 72.8264 126.958 72.3974 126.776Z" fill="#FBBF28"/>
<path d="M56.6633 120.488C56.9174 120.743 57.2688 120.866 57.7408 120.866C58.115 120.866 58.5068 120.738 58.886 120.595C59.5498 120.315 59.9568 119.911 60.4272 119.446C60.5531 119.32 60.6848 119.189 60.8343 119.049C60.9694 118.914 61.064 118.787 61.151 118.67C61.2498 118.537 61.3275 118.43 61.4921 118.308C61.6881 118.112 61.8899 117.927 62.0934 117.74C62.4439 117.419 62.8062 117.088 63.1381 116.702C63.3382 116.502 63.497 116.344 63.6769 116.199C63.9767 115.984 64.2157 115.968 64.2832 115.968C64.4285 115.968 64.6312 116.15 64.8871 116.381L65.0011 116.479C65.523 116.886 66.055 117.394 66.6174 117.933C67.2322 118.518 67.8665 119.126 68.5345 119.644L68.7067 119.788C69.1602 120.172 69.7827 120.701 70.579 120.701C70.9861 120.701 71.5418 120.501 71.8137 120.121C72.0696 119.761 72.1979 119.369 72.1979 118.957C72.1979 118.792 72.1498 118.594 72.051 118.346C71.8678 117.904 71.5426 117.555 71.2572 117.25C71.1862 117.175 71.117 117.101 71.0638 117.041C70.6669 116.538 70.2134 116.11 69.7751 115.696C69.515 115.45 69.2616 115.209 69.0091 114.942C68.8098 114.766 68.6046 114.596 68.4027 114.427C67.9045 114.011 67.4341 113.617 67.0625 113.162C66.4528 112.457 66.1065 111.74 65.9418 110.857L65.9148 110.595C65.8777 110.201 65.8312 109.711 65.7282 109.337C65.6851 109.162 65.642 109.032 65.5981 108.901L65.5568 108.82C65.1987 108.327 64.7148 108.078 64.1194 108.078L63.9226 108.087C63.4953 108.194 62.8957 108.408 62.6052 109.046C62.4659 109.381 62.4144 109.837 62.3654 110.28C62.335 110.548 62.3063 110.803 62.259 110.991C62.0689 111.867 61.7328 112.36 61.2472 113.009C60.575 113.867 59.8521 114.574 59.0895 115.322C58.5076 115.893 57.9064 116.482 57.2468 117.217C57.1522 117.35 57.0661 117.445 56.9799 117.54C56.8811 117.652 56.7815 117.762 56.6523 117.946C56.4462 118.317 56.1616 118.83 56.1616 119.368C56.1625 119.864 56.3533 120.273 56.6633 120.488Z" fill="#FBBF28"/>
<path d="M81.4766 111.345V111.675C81.4766 111.931 81.4867 112.335 81.4943 112.76C81.5061 113.225 81.5171 113.717 81.5171 114.078C81.5619 114.966 81.697 116.244 82.3692 117.097C83.0068 117.852 83.7339 117.988 84.4391 118.122C84.5464 118.142 84.6536 118.162 84.7752 118.188C85.5817 118.314 86.1644 118.314 86.8392 118.314H87.3738C88.252 118.314 88.9454 118.314 89.7941 118.271C90.1471 118.233 90.5525 118.19 90.9663 118.185C91.1132 118.16 91.2653 118.139 91.4173 118.119C92.0177 118.038 92.6384 117.955 93.1054 117.558C93.4627 117.302 93.6442 116.972 93.6442 116.571C93.6442 115.469 92.8698 115.199 92.1038 115.077C91.5228 115.004 90.7129 115.019 89.9385 115.049C89.5957 115.062 89.2579 115.075 88.9378 115.075H88.2808C87.921 115.075 87.4286 115.075 86.9228 115.034C86.7235 115.034 86.4845 115.004 86.2092 114.968L86.1366 114.959C86.031 114.916 85.9322 114.886 85.8376 114.86C85.7033 114.823 85.618 114.798 85.5733 114.751C85.2388 114.417 85.2355 113.542 85.5319 113.246C85.7709 113.006 86.2235 113.006 86.5529 113.006H90.1311C90.2383 113.006 90.3481 113.008 90.457 113.01C91.0406 113.023 91.6588 113.038 92.1503 112.731C92.7034 112.48 93.1586 111.755 92.9315 111.133C92.7288 110.471 92.2432 110.07 91.5338 109.975C90.7417 109.862 89.8929 109.808 88.9386 109.808C88.4294 109.808 87.7352 109.808 87.2116 109.848C87.1061 109.848 87.0106 109.855 86.9194 109.86C86.7742 109.867 86.6044 109.87 86.5031 109.858C86.3164 109.812 86.1366 109.809 85.9769 109.808C85.8697 109.776 85.7472 109.718 85.6071 109.629C85.3351 109.505 85.2507 109.32 85.249 108.811C85.2372 108.647 85.2372 108.096 85.7658 107.933C86.5622 107.724 87.4405 107.697 88.1161 107.697H88.6515C89.3077 107.697 89.67 107.697 90.3388 107.739C90.5018 107.739 90.6766 107.749 90.8455 107.758C91.017 107.77 91.1816 107.779 91.3252 107.779C91.8471 107.779 92.5987 107.728 93.0885 107.292C93.5488 106.889 93.5615 106.413 93.5184 106.034C93.4643 105.652 93.2009 105.284 92.8284 105.07C92.4053 104.842 92.0126 104.777 91.6318 104.714C91.4865 104.689 91.3387 104.664 91.1892 104.629L91.12 104.622C90.62 104.622 90.1243 104.578 89.8372 104.548C89.6354 104.498 89.4842 104.498 89.3102 104.498H88.3627C86.889 104.498 85.3174 104.531 83.7635 104.917C82.8953 105.135 82.1691 105.885 81.822 106.926C81.6717 107.379 81.5695 107.914 81.5222 108.506C81.4445 109.102 81.4597 109.699 81.474 110.276C81.4833 110.641 81.4935 110.997 81.4766 111.345Z" fill="#FBBF28"/>
<path d="M95.8348 126.963C95.47 126.762 95.0426 126.729 94.6297 126.699L94.4152 126.682C94.1044 126.637 93.8831 126.637 93.5487 126.637H93.1374C92.5176 126.637 92.0117 126.599 91.5911 126.425C90.8708 126.049 90.7247 125.338 90.7247 124.389V123.072C90.7247 122.258 90.6385 121.248 89.9401 120.644C89.6099 120.411 89.3059 120.301 88.9808 120.301C88.442 120.301 88.0662 120.643 87.7622 120.983C87.2723 121.564 87.2757 122.4 87.2791 122.951L87.2808 124.019C87.2808 125.138 87.2233 125.902 86.4354 126.314C86.15 126.493 85.645 126.515 85.2371 126.515H83.7144C83.0616 126.515 82.31 126.551 81.7281 126.957C81.3008 127.17 81.0669 127.558 81.0669 128.051C81.0669 128.497 81.2932 128.866 81.6538 129.044C82.1217 129.356 82.7466 129.534 83.5227 129.581C84.0911 129.711 84.477 129.708 85.0141 129.711C85.7218 129.752 86.0208 129.752 86.4717 129.752H92.7338L93.0952 129.736C93.7472 129.705 94.362 129.678 94.8999 129.505C95.2158 129.47 95.8162 129.356 96.29 128.988C96.5805 128.756 96.7333 128.461 96.7317 128.107C96.6818 127.576 96.3111 127.118 95.8348 126.963Z" fill="#FBBF28"/>
<path d="M116.435 112.363C116.294 111.564 116.003 110.986 115.515 110.542C115.014 110.099 113.485 109.516 112.618 109.209C111.259 108.727 109.827 108.451 108.689 108.451C106.998 108.451 106.607 109.212 106.575 109.864C106.575 109.973 106.597 110.047 106.622 110.101C106.711 110.833 107.506 111.076 107.964 111.216C108.51 111.426 109.161 111.515 109.617 111.565C110.349 111.612 110.852 111.704 111.309 111.879C112.004 112.111 112.42 112.697 112.42 113.445C112.42 114.025 112.26 114.466 111.921 114.806C111.298 115.494 110.575 115.774 109.43 115.774C108.666 115.774 107.885 115.676 107.057 115.569L106.402 115.488C106.108 115.47 105.8 115.422 105.474 115.37C105.053 115.308 104.618 115.239 104.203 115.239C103.227 115.239 102.466 115.708 102 116.6C101.456 117.687 101.144 118.981 101.144 120.151C101.144 120.775 101.261 121.42 101.492 122.067C102.064 123.627 103.406 124.701 105.476 125.255C106.955 125.689 108.525 125.809 109.91 125.916L110.582 125.967H111.222L111.246 125.964C112.188 125.815 112.461 125.207 112.406 124.696C112.355 124.024 111.732 123.718 111.362 123.536L111.262 123.488C110.787 123.313 110.311 123.226 109.851 123.143C109.525 123.085 109.22 123.028 108.913 122.94L108.837 122.925C107.867 122.731 106.861 122.531 106.279 121.839C105.832 121.355 105.453 120.279 105.453 119.493C105.453 119.216 105.494 118.999 105.579 118.857C105.716 118.609 106.165 118.478 106.877 118.478C107.913 118.478 109.153 118.705 109.896 118.84L110.192 118.891C110.449 118.906 110.719 118.943 110.998 118.979C111.729 119.074 112.564 119.183 113.321 118.967C114.241 118.767 114.89 118.303 115.38 117.489C115.697 116.855 115.898 116.164 116.094 115.495L116.137 115.345C116.338 114.706 116.523 114 116.523 113.156C116.523 112.958 116.491 112.742 116.453 112.491L116.435 112.363Z" fill="#FBBF28"/>
<path d="M124.962 112.164L124.957 112.045V111.706C124.962 110.844 124.966 110.165 124.703 109.309C124.51 108.394 123.581 107.915 122.761 107.915C122.267 107.915 121.822 108.111 121.436 108.499L121.393 108.553C120.863 109.41 120.818 110.564 120.781 111.491L120.771 111.756C120.771 112.132 120.758 112.459 120.749 112.759C120.739 113.018 120.73 113.256 120.73 113.484C120.73 113.739 120.72 113.983 120.711 114.236C120.702 114.517 120.69 114.806 120.69 115.132V120.316C120.69 120.743 120.721 121.243 120.753 121.727C120.784 122.203 120.814 122.655 120.814 123.033C120.814 123.68 120.89 124.435 121.02 125.081C121.081 125.628 121.202 126.054 121.387 126.389C121.658 126.876 122.049 127.113 122.68 127.162H122.995L123.022 127.156C123.847 127.003 124.396 126.254 124.581 125.559C124.756 124.641 124.837 123.952 124.957 122.333C124.957 121.755 124.978 121.167 124.999 120.585C125.018 120.005 125.04 119.429 125.04 118.877V114.845C125.04 113.935 125.002 113.074 124.962 112.164Z" fill="#FBBF28"/>
</svg>
