<svg width="19" height="17" viewBox="0 0 19 17" fill="none" xmlns="http://www.w3.org/2000/svg">
<path d="M13.9062 7.875C13.4062 8 12.9271 7.97917 12.4688 7.8125C12.0104 7.64583 11.5938 7.39583 11.2188 7.0625C10.8854 6.72917 10.5938 6.33333 10.3438 5.875C10.1354 5.41667 10.0312 4.91667 10.0312 4.375C10.0312 3.375 10.4062 2.54167 11.1562 1.875C11.9062 1.16667 12.8229 0.8125 13.9062 0.8125C15.3646 0.8125 16.4479 1.35417 17.1562 2.4375C17.8646 3.47917 18.2188 4.8125 18.2188 6.4375C18.2188 8.6875 17.6771 10.6667 16.5938 12.375C15.5521 14.0833 13.9062 15.3542 11.6562 16.1875L10.7188 14.9375C12.3854 14.2292 13.6146 13.3125 14.4062 12.1875C15.1979 11.0625 15.5938 9.8125 15.5938 8.4375C15.5938 7.97917 15.4896 7.70833 15.2812 7.625C15.1146 7.54167 14.9062 7.54167 14.6562 7.625L13.9062 7.875ZM3.90625 7.875C3.40625 8 2.92708 7.97917 2.46875 7.8125C2.01042 7.64583 1.59375 7.39583 1.21875 7.0625C0.885417 6.72917 0.59375 6.33333 0.34375 5.875C0.135417 5.41667 0.03125 4.91667 0.03125 4.375C0.03125 3.375 0.40625 2.54167 1.15625 1.875C1.90625 1.16667 2.82292 0.8125 3.90625 0.8125C5.36458 0.8125 6.44792 1.35417 7.15625 2.4375C7.86458 3.47917 8.21875 4.8125 8.21875 6.4375C8.21875 8.6875 7.67708 10.6667 6.59375 12.375C5.55208 14.0833 3.90625 15.3542 1.65625 16.1875L0.78125 14.9375C2.40625 14.2292 3.61458 13.3125 4.40625 12.1875C5.19792 11.0625 5.59375 9.8125 5.59375 8.4375C5.59375 7.97917 5.48958 7.70833 5.28125 7.625C5.11458 7.54167 4.90625 7.54167 4.65625 7.625L3.90625 7.875Z" fill="#FFB800"/>
</svg>
