<svg width="262" height="189" viewBox="0 0 262 189" fill="none" xmlns="http://www.w3.org/2000/svg">
<path d="M159.755 42.2928C160.823 43.7829 162.541 46.694 157.615 48.7481M152.516 57.9401C153.584 59.4302 155.416 61.6436 150.491 63.6977M160.474 55.3114C161.542 56.8014 162.107 58.4474 159.377 59.7887M150.724 99.2112C151.424 100.76 151.999 104.08 148.699 104.969M142.786 114.743C143.487 116.292 144.062 119.612 140.762 120.501M151.734 112.636C152.434 114.185 152.263 115.948 149.648 116.592M166.645 61.3461C164.677 66.038 159.927 76.0044 156.676 78.3348C153.425 80.6651 153.787 88.6081 154.374 92.2883C156.957 96.1783 161.383 105.843 158.419 113.381C154.715 122.803 142.646 135.145 131.645 125.805C120.644 116.465 125.161 106.461 128.635 98.4338C131.304 95.2907 136.37 86.7382 135.285 77.6726C133.93 66.3407 126.547 65.481 130.941 51.8728C135.336 38.2645 143.464 32.4387 153.929 34.1651C164.394 35.8915 172.444 49.6965 166.645 61.3461Z" stroke="#FBB503" stroke-width="3"/>
<path d="M106.816 97.7548C105.52 96.4585 103.351 93.8658 107.877 91.0373M111.412 81.1378C110.116 79.8415 107.947 77.9559 112.473 75.1274M103.987 85.0269C102.691 83.7306 101.866 82.1985 104.341 80.4307M106.462 40.1255C105.52 38.7113 104.412 35.5293 107.523 34.1151M111.766 23.5085C110.823 22.0942 109.715 18.9123 112.826 17.4981M103.28 27.0439C102.337 25.6297 102.22 23.8619 104.695 22.8013M96.9165 80.0771C98.095 75.1274 101.159 64.5208 103.988 61.6923C106.816 58.8639 105.166 51.0857 103.988 47.5502C100.806 44.1325 94.8659 35.3172 96.563 27.3977C98.6843 17.4982 108.584 3.35603 120.958 10.7807C133.333 18.2053 130.504 28.8119 128.383 37.2971C126.261 40.8327 122.655 50.0958 125.201 58.8639C128.383 69.824 135.807 69.4705 133.686 83.6126C131.565 97.7548 124.494 104.826 113.887 104.826C103.28 104.826 93.0912 92.5153 96.9165 80.0771Z" stroke="#FBB503" stroke-width="3"/>
<path d="M99.1126 145.024C99.2566 145.072 99.3606 145.176 99.4246 145.336C99.5046 145.496 99.5286 145.648 99.4966 145.792C99.7046 145.952 99.8006 146.12 99.7846 146.296C99.7846 146.584 99.5926 146.888 99.2086 147.208C99.2566 147.352 99.2806 147.496 99.2806 147.64C99.2806 147.864 99.2246 148.072 99.1126 148.264C99.0006 148.456 98.8646 148.592 98.7046 148.672C98.6566 149.248 98.4886 149.632 98.2006 149.824C98.1526 150 97.9926 150.16 97.7206 150.304C97.4486 150.432 97.2006 150.496 96.9766 150.496C96.8646 150.592 96.6646 150.688 96.3766 150.784C96.0886 150.864 95.8726 150.88 95.7286 150.832C95.5366 151.088 95.2726 151.216 94.9366 151.216C94.8086 151.216 94.7206 151.208 94.6726 151.192C94.5766 151.24 94.4486 151.264 94.2886 151.264C94.1126 151.264 93.9206 151.224 93.7126 151.144C93.4566 151.304 92.9366 151.384 92.1526 151.384C92.2166 151.608 92.2486 151.768 92.2486 151.864C92.2486 152.056 92.1846 152.224 92.0566 152.368C92.2326 152.592 92.3206 152.968 92.3206 153.496C92.3206 153.912 92.2806 154.224 92.2006 154.432C92.3926 154.688 92.4886 155.016 92.4886 155.416C92.4886 155.768 92.4086 156.104 92.2486 156.424C92.3446 156.552 92.4166 156.736 92.4646 156.976C92.5126 157.216 92.5366 157.464 92.5366 157.72C92.5366 158.104 92.4886 158.36 92.3926 158.488C92.4246 158.712 92.4406 158.88 92.4406 158.992C92.4406 159.664 92.0726 160 91.3366 160C91.0006 160 90.7446 159.832 90.5686 159.496C90.4086 159.144 90.3286 158.736 90.3286 158.272C90.3286 157.808 90.3926 157.448 90.5206 157.192C90.3606 156.904 90.2806 156.552 90.2806 156.136C90.2806 155.96 90.2966 155.744 90.3286 155.488C90.1846 155.296 90.1126 154.904 90.1126 154.312C90.1126 153.816 90.1606 153.496 90.2566 153.352C90.1766 153.144 90.1366 152.848 90.1366 152.464C90.1366 152.096 90.1766 151.832 90.2566 151.672C90.1766 151.48 90.1366 151.32 90.1366 151.192C90.1366 151.064 90.1606 150.944 90.2086 150.832C90.0646 150.608 89.9926 150.336 89.9926 150.016C89.9926 149.792 90.0246 149.624 90.0886 149.512C90.0246 149.368 89.9926 149.216 89.9926 149.056C89.9926 148.88 90.0246 148.736 90.0886 148.624C89.9286 148.384 89.8486 148.192 89.8486 148.048C89.8486 147.888 89.9126 147.72 90.0406 147.544C89.9446 147.352 89.8966 147.176 89.8966 147.016C89.8966 146.76 89.9926 146.552 90.1846 146.392C89.9286 146.152 89.8006 145.864 89.8006 145.528C89.8006 145.464 89.8166 145.336 89.8486 145.144C89.6566 145.016 89.5606 144.776 89.5606 144.424C89.5606 144.168 89.6166 143.928 89.7286 143.704C89.8406 143.48 89.9766 143.368 90.1366 143.368C90.1526 143.176 90.2486 143.032 90.4246 142.936C90.6166 142.824 90.8326 142.768 91.0726 142.768C91.2966 142.768 91.4966 142.816 91.6726 142.912C91.8646 142.992 91.9766 143.104 92.0086 143.248C92.3286 143.104 92.5766 143.032 92.7526 143.032C92.8486 143.032 92.9126 143.048 92.9446 143.08C92.9926 143.064 93.1046 143.032 93.2806 142.984C93.4566 142.92 93.6166 142.888 93.7606 142.888C93.9686 142.888 94.1766 142.952 94.3846 143.08C94.4806 143 94.6166 142.936 94.7926 142.888C94.9686 142.84 95.1526 142.816 95.3446 142.816C95.5206 142.816 95.6646 142.84 95.7766 142.888C95.8406 142.872 95.9286 142.864 96.0406 142.864C96.2806 142.864 96.5206 142.928 96.7606 143.056C97.0006 143.184 97.1846 143.328 97.3126 143.488C97.6006 143.472 97.8246 143.528 97.9846 143.656C98.1606 143.768 98.3046 143.984 98.4166 144.304C98.5926 144.352 98.7606 144.448 98.9206 144.592C99.0966 144.736 99.1606 144.88 99.1126 145.024ZM91.9126 149.512C92.0086 149.432 92.1686 149.392 92.3926 149.392C92.6646 149.392 92.8406 149.432 92.9206 149.512C93.0326 149.4 93.2486 149.344 93.5686 149.344C93.8886 149.344 94.0966 149.4 94.1926 149.512C94.3046 149.432 94.4726 149.392 94.6966 149.392C94.8406 149.392 94.9526 149.416 95.0326 149.464C95.2086 149.272 95.4006 149.176 95.6086 149.176C95.7206 149.176 95.8086 149.184 95.8726 149.2C95.9046 149.072 96.0806 148.928 96.4006 148.768C96.7206 148.592 96.9686 148.528 97.1446 148.576C97.1446 148.448 97.1926 148.28 97.2886 148.072C97.3846 147.864 97.4806 147.728 97.5766 147.664C97.5126 147.6 97.4806 147.472 97.4806 147.28C97.4806 147.056 97.5126 146.808 97.5766 146.536C97.6566 146.248 97.7366 146.064 97.8166 145.984C97.1766 145.632 96.8486 145.304 96.8326 145C96.5766 144.952 96.2806 144.824 95.9446 144.616C95.4966 144.84 95.1206 144.952 94.8166 144.952C94.6406 144.952 94.3926 144.912 94.0726 144.832C93.7526 145.04 93.4086 145.144 93.0406 145.144C92.8166 145.144 92.6326 145.096 92.4886 145C92.4726 145.048 92.3606 145.104 92.1526 145.168C91.9606 145.232 91.8246 145.256 91.7446 145.24C91.7606 145.4 91.8166 145.6 91.9126 145.84C92.0246 146.112 92.0806 146.352 92.0806 146.56C92.0806 146.768 92.0086 146.968 91.8646 147.16C91.9286 147.288 91.9606 147.504 91.9606 147.808C91.9606 148.064 91.9286 148.248 91.8646 148.36C92.0086 148.504 92.0806 148.712 92.0806 148.984C92.0806 149.16 92.0246 149.336 91.9126 149.512ZM110.435 143.152C110.595 143.04 110.803 142.984 111.059 142.984C111.427 142.984 111.795 143.104 112.163 143.344C112.339 143.344 112.483 143.416 112.595 143.56C112.707 143.704 112.763 143.88 112.763 144.088C112.763 144.36 112.683 144.6 112.523 144.808C112.363 145.016 112.139 145.12 111.851 145.12C111.643 145.12 111.419 145.056 111.179 144.928C111.051 145.056 110.883 145.12 110.675 145.12C110.451 145.12 110.219 145.04 109.979 144.88C109.819 144.96 109.579 145 109.259 145C108.795 145 108.435 144.928 108.179 144.784C107.939 144.896 107.691 144.952 107.435 144.952C107.227 144.952 107.027 144.92 106.835 144.856C106.627 144.936 106.427 144.976 106.235 144.976C105.979 144.976 105.723 144.904 105.467 144.76C105.179 144.92 104.923 145.016 104.699 145.048C104.811 145.32 104.867 145.616 104.867 145.936C104.867 146.336 104.779 146.656 104.603 146.896C104.795 147.2 104.891 147.536 104.891 147.904C104.891 148.192 104.819 148.48 104.675 148.768C104.819 148.928 104.891 149.128 104.891 149.368C104.891 149.528 104.835 149.72 104.723 149.944C104.867 149.864 105.043 149.824 105.251 149.824C105.411 149.824 105.523 149.84 105.587 149.872C105.763 149.744 105.955 149.68 106.163 149.68C106.371 149.68 106.579 149.768 106.787 149.944C106.979 149.896 107.139 149.872 107.267 149.872C107.347 149.872 107.483 149.888 107.675 149.92C107.867 149.888 108.003 149.872 108.083 149.872C108.355 149.872 108.555 149.936 108.683 150.064C108.811 149.984 108.955 149.944 109.115 149.944C109.307 149.944 109.427 149.984 109.475 150.064C109.619 150.016 109.731 149.992 109.811 149.992C109.923 149.992 110.075 150.024 110.267 150.088C110.475 149.976 110.675 149.92 110.867 149.92C111.139 149.92 111.371 150.024 111.563 150.232C111.755 150.424 111.851 150.64 111.851 150.88C111.851 151.088 111.779 151.264 111.635 151.408C111.491 151.552 111.267 151.632 110.963 151.648C110.819 151.84 110.579 151.936 110.243 151.936C109.939 151.936 109.667 151.856 109.427 151.696C109.267 151.856 109.035 151.936 108.731 151.936C108.459 151.936 108.235 151.872 108.059 151.744C107.931 151.84 107.795 151.888 107.651 151.888C107.555 151.888 107.475 151.856 107.411 151.792C107.235 151.952 106.995 152.032 106.691 152.032C106.467 152.032 106.259 151.984 106.067 151.888C105.907 151.968 105.771 152.008 105.659 152.008C105.499 152.008 105.339 151.952 105.179 151.84C105.067 151.904 104.979 151.944 104.915 151.96C104.851 151.976 104.763 151.976 104.651 151.96C104.795 152.248 104.867 152.472 104.867 152.632C104.867 152.776 104.819 152.944 104.723 153.136C104.835 153.264 104.891 153.424 104.891 153.616C104.891 153.76 104.851 153.912 104.771 154.072C104.883 154.2 104.939 154.368 104.939 154.576C104.939 154.768 104.883 154.928 104.771 155.056C104.867 155.248 104.915 155.4 104.915 155.512C104.915 155.608 104.851 155.768 104.723 155.992C104.787 156.056 104.819 156.144 104.819 156.256C104.819 156.4 104.771 156.496 104.675 156.544C104.835 156.688 104.915 156.872 104.915 157.096C104.915 157.176 104.899 157.312 104.867 157.504L105.011 157.48C105.187 157.48 105.371 157.56 105.563 157.72C105.803 157.544 106.115 157.456 106.499 157.456C106.643 157.456 106.795 157.472 106.955 157.504C107.051 157.392 107.187 157.304 107.363 157.24C107.539 157.176 107.731 157.144 107.939 157.144C108.275 157.144 108.531 157.216 108.707 157.36C108.803 157.2 108.971 157.072 109.211 156.976C109.451 156.88 109.691 156.832 109.931 156.832C110.107 156.832 110.251 156.856 110.363 156.904C110.539 156.808 110.699 156.76 110.843 156.76C111.099 156.76 111.323 156.864 111.515 157.072C111.707 157.28 111.803 157.52 111.803 157.792C111.803 158.128 111.651 158.392 111.347 158.584C111.283 158.712 111.155 158.824 110.963 158.92C110.771 159 110.563 159.04 110.339 159.04C110.115 159.04 109.939 159 109.811 158.92C109.683 159.048 109.515 159.16 109.307 159.256C109.099 159.336 108.891 159.376 108.683 159.376C108.363 159.376 108.115 159.288 107.939 159.112C107.667 159.4 107.315 159.544 106.883 159.544C106.803 159.544 106.667 159.528 106.475 159.496C106.155 159.688 105.843 159.784 105.539 159.784C105.299 159.784 105.091 159.72 104.915 159.592C104.739 159.864 104.483 160 104.147 160C103.859 160 103.603 159.888 103.379 159.664C103.171 159.44 103.099 159.176 103.163 158.872C103.067 158.776 102.995 158.632 102.947 158.44C102.899 158.248 102.875 158.056 102.875 157.864C102.875 157.72 102.883 157.616 102.899 157.552C102.691 157.344 102.587 156.992 102.587 156.496C102.587 156.288 102.611 156.096 102.659 155.92C102.707 155.728 102.763 155.592 102.827 155.512C102.747 155.352 102.707 155.184 102.707 155.008C102.707 154.928 102.723 154.824 102.755 154.696C102.611 154.552 102.539 154.36 102.539 154.12C102.539 153.896 102.595 153.72 102.707 153.592C102.627 153.432 102.587 153.288 102.587 153.16C102.587 152.984 102.643 152.816 102.755 152.656C102.627 152.368 102.563 152.088 102.563 151.816C102.563 151.48 102.667 151.16 102.875 150.856C102.779 150.648 102.691 150.392 102.611 150.088C102.547 149.784 102.515 149.496 102.515 149.224C102.515 148.712 102.635 148.36 102.875 148.168C102.795 147.816 102.755 147.632 102.755 147.616C102.659 147.232 102.611 146.96 102.611 146.8C102.611 146.56 102.667 146.272 102.779 145.936C102.699 145.824 102.635 145.64 102.587 145.384C102.539 145.128 102.523 144.944 102.539 144.832C102.347 144.64 102.251 144.408 102.251 144.136C102.251 143.928 102.315 143.736 102.443 143.56C102.587 143.368 102.771 143.24 102.995 143.176C103.107 143.064 103.259 142.976 103.451 142.912C103.643 142.832 103.843 142.792 104.051 142.792C104.323 142.792 104.555 142.864 104.747 143.008C105.019 142.928 105.291 142.888 105.563 142.888C105.947 142.888 106.259 142.976 106.499 143.152C106.643 143.088 106.811 143.056 107.003 143.056C107.179 143.056 107.315 143.096 107.411 143.176C107.507 143.096 107.739 143.056 108.107 143.056C108.587 143.056 108.963 143.136 109.235 143.296C109.411 143.12 109.627 143.032 109.883 143.032C110.043 143.032 110.227 143.072 110.435 143.152ZM127.344 157.408C127.344 157.408 127.48 157.464 127.752 157.576C128.04 157.688 128.152 158.064 128.088 158.704C128.152 158.832 128.184 158.976 128.184 159.136C128.184 159.392 128.08 159.6 127.872 159.76C127.664 159.92 127.424 160 127.152 160C126.912 160 126.704 159.928 126.528 159.784C126.368 159.624 126.288 159.4 126.288 159.112C126.112 159.08 125.928 158.944 125.736 158.704C125.56 158.448 125.472 158.192 125.472 157.936C125.472 157.872 125.488 157.776 125.52 157.648C125.36 157.568 125.216 157.408 125.088 157.168C124.976 156.912 124.896 156.648 124.848 156.376C124.8 156.104 124.784 155.912 124.8 155.8C124.592 155.704 124.424 155.472 124.296 155.104C124.184 154.72 124.144 154.392 124.176 154.12C124.064 154.168 123.928 154.192 123.768 154.192C123.448 154.192 123.152 154.096 122.88 153.904C122.672 154.112 122.36 154.216 121.944 154.216C121.56 154.216 121.288 154.12 121.128 153.928C120.92 154.104 120.696 154.192 120.456 154.192C120.264 154.192 120.112 154.152 120 154.072C119.888 154.152 119.72 154.192 119.496 154.192C119.304 154.192 119.112 154.16 118.92 154.096C118.728 154.032 118.576 153.944 118.464 153.832C118.448 153.832 118.408 153.848 118.344 153.88C118.44 154.184 118.488 154.456 118.488 154.696C118.488 155.064 118.304 155.384 117.936 155.656C118 155.784 118.032 155.936 118.032 156.112C118.032 156.464 117.912 156.8 117.672 157.12C117.432 157.44 117.2 157.616 116.976 157.648C117.04 157.792 117.072 157.96 117.072 158.152C117.072 158.584 116.928 158.984 116.64 159.352C116.352 159.704 116 159.88 115.584 159.88C115.472 159.88 115.384 159.872 115.32 159.856C115.112 159.856 114.952 159.792 114.84 159.664C114.728 159.536 114.672 159.368 114.672 159.16C114.672 159.016 114.712 158.848 114.792 158.656C114.776 158.592 114.768 158.496 114.768 158.368C114.768 158.048 114.928 157.768 115.248 157.528C115.232 157.48 115.224 157.408 115.224 157.312C115.224 157.072 115.28 156.832 115.392 156.592C115.52 156.336 115.68 156.168 115.872 156.088C115.856 156.056 115.848 155.984 115.848 155.872C115.848 155.6 115.912 155.288 116.04 154.936C116.168 154.568 116.312 154.36 116.472 154.312C116.44 153.608 116.672 152.896 117.168 152.176C117.168 151.808 117.224 151.464 117.336 151.144C117.448 150.808 117.648 150.568 117.936 150.424C117.952 150.12 118.024 149.816 118.152 149.512C118.28 149.208 118.424 148.952 118.584 148.744C118.536 148.568 118.512 148.408 118.512 148.264C118.512 148.04 118.552 147.864 118.632 147.736C118.728 147.592 118.832 147.504 118.944 147.472C118.928 147.408 118.92 147.312 118.92 147.184C118.92 146.832 119.048 146.552 119.304 146.344L119.28 146.2C119.28 145.96 119.376 145.744 119.568 145.552C119.552 145.488 119.544 145.4 119.544 145.288C119.544 145 119.616 144.712 119.76 144.424C119.904 144.136 120.064 143.944 120.24 143.848C120.528 143.448 120.832 143.248 121.152 143.248C121.296 143.248 121.48 143.296 121.704 143.392C122.168 143.408 122.504 143.768 122.712 144.472C122.856 144.648 122.96 144.856 123.024 145.096C123.088 145.32 123.112 145.528 123.096 145.72C123.24 145.816 123.344 145.944 123.408 146.104C123.488 146.264 123.52 146.432 123.504 146.608C123.664 146.752 123.8 146.976 123.912 147.28C124.04 147.584 124.104 147.872 124.104 148.144C124.104 148.272 124.096 148.36 124.08 148.408C124.192 148.52 124.288 148.68 124.368 148.888C124.464 149.096 124.512 149.288 124.512 149.464C124.512 149.56 124.504 149.632 124.488 149.68C124.696 149.824 124.864 150.048 124.992 150.352C125.136 150.656 125.232 150.96 125.28 151.264C125.344 151.552 125.36 151.752 125.328 151.864C125.36 151.912 125.448 152.032 125.592 152.224C125.736 152.4 125.848 152.584 125.928 152.776C126.008 152.952 126.048 153.12 126.048 153.28C126.048 153.424 126.032 153.528 126 153.592C126.064 153.672 126.136 153.768 126.216 153.88C126.296 153.976 126.36 154.064 126.408 154.144C126.456 154.224 126.48 154.32 126.48 154.432C126.48 154.544 126.472 154.624 126.456 154.672C126.584 154.8 126.696 154.968 126.792 155.176C126.888 155.384 126.936 155.584 126.936 155.776C126.936 155.936 126.904 156.056 126.84 156.136C127.016 156.264 127.152 156.448 127.248 156.688C127.344 156.928 127.376 157.168 127.344 157.408ZM122.928 152.2C122.96 152.104 123.032 152.048 123.144 152.032C123.256 152 123.352 152.008 123.432 152.056C123.4 151.96 123.384 151.888 123.384 151.84C123.384 151.712 123.416 151.616 123.48 151.552C123.336 151.44 123.216 151.296 123.12 151.12C123.04 150.944 123.008 150.768 123.024 150.592C122.912 150.56 122.808 150.48 122.712 150.352C122.632 150.208 122.592 150.056 122.592 149.896C122.592 149.848 122.608 149.76 122.64 149.632C122.304 149.424 122.136 149.112 122.136 148.696C122.136 148.536 122.16 148.352 122.208 148.144C122.192 148.128 122.152 148.096 122.088 148.048C122.024 147.984 122 147.888 122.016 147.76C121.696 147.664 121.544 147.408 121.56 146.992C121.432 146.928 121.328 146.808 121.248 146.632C121.28 147 121.136 147.288 120.816 147.496C120.832 147.672 120.8 147.872 120.72 148.096C120.64 148.32 120.544 148.488 120.432 148.6C120.448 148.664 120.456 148.768 120.456 148.912C120.456 149.28 120.304 149.768 120 150.376C119.92 150.552 119.856 150.712 119.808 150.856C119.744 151.016 119.672 151.176 119.592 151.336C119.528 151.496 119.44 151.616 119.328 151.696C119.328 151.856 119.296 152 119.232 152.128L119.424 152.104C119.584 152.104 119.704 152.144 119.784 152.224C119.832 152.144 119.928 152.104 120.072 152.104C120.168 152.104 120.24 152.128 120.288 152.176C120.48 152.032 120.72 151.96 121.008 151.96C121.216 151.96 121.408 151.992 121.584 152.056C121.76 152.12 121.904 152.208 122.016 152.32C122.176 152.144 122.344 152.056 122.52 152.056C122.632 152.056 122.768 152.104 122.928 152.2ZM143.698 157.336C143.794 157.432 143.842 157.552 143.842 157.696C143.842 157.808 143.802 157.904 143.722 157.984C143.802 158.128 143.842 158.272 143.842 158.416C143.842 158.544 143.81 158.672 143.746 158.8C143.778 158.992 143.794 159.112 143.794 159.16C143.794 159.384 143.666 159.592 143.41 159.784C143.218 159.928 143.002 160 142.762 160C142.458 160 142.186 159.896 141.946 159.688C141.722 159.656 141.53 159.536 141.37 159.328C141.226 159.104 141.178 158.856 141.226 158.584C141.146 158.52 141.05 158.456 140.938 158.392C140.826 158.312 140.73 158.232 140.65 158.152C140.586 158.056 140.538 157.944 140.506 157.816C140.314 157.752 140.162 157.64 140.05 157.48C139.938 157.304 139.882 157.112 139.882 156.904C139.882 156.824 139.89 156.76 139.906 156.712C139.698 156.68 139.522 156.584 139.378 156.424C139.25 156.248 139.178 156.056 139.162 155.848C138.842 155.688 138.61 155.552 138.466 155.44C138.322 155.328 138.234 155.152 138.202 154.912C138.042 154.832 137.882 154.672 137.722 154.432C137.562 154.192 137.466 153.976 137.434 153.784C137.146 153.64 136.978 153.4 136.93 153.064C136.786 153 136.626 152.848 136.45 152.608C136.274 152.352 136.178 152.128 136.162 151.936C135.938 151.856 135.722 151.672 135.514 151.384C135.306 151.08 135.186 150.776 135.154 150.472C135.026 150.408 134.874 150.248 134.698 149.992C134.522 149.72 134.41 149.496 134.362 149.32C134.234 149.192 134.09 148.984 133.93 148.696C133.77 148.392 133.666 148.128 133.618 147.904C133.49 147.808 133.354 147.632 133.21 147.376C133.066 147.12 132.97 146.896 132.922 146.704C132.954 146.8 132.97 146.936 132.97 147.112C132.97 147.32 132.946 147.448 132.898 147.496C132.994 147.88 133.042 148.2 133.042 148.456C133.042 148.552 133.026 148.664 132.994 148.792C133.058 148.936 133.09 149.152 133.09 149.44C133.09 149.696 133.066 149.896 133.018 150.04C133.114 150.152 133.162 150.344 133.162 150.616C133.162 150.856 133.122 151.056 133.042 151.216C133.138 151.376 133.186 151.536 133.186 151.696C133.186 151.872 133.138 152.056 133.042 152.248C132.962 152.44 132.914 152.56 132.898 152.608C133.042 152.816 133.114 153.168 133.114 153.664C133.114 153.952 133.074 154.2 132.994 154.408C133.122 154.616 133.186 154.824 133.186 155.032C133.186 155.256 133.098 155.576 132.922 155.992C133.082 156.152 133.162 156.376 133.162 156.664C133.162 156.984 133.074 157.304 132.898 157.624C132.914 157.768 132.938 157.968 132.97 158.224C133.018 158.48 133.042 158.688 133.042 158.848C133.042 159.536 132.722 159.88 132.082 159.88C131.826 159.88 131.61 159.792 131.434 159.616C131.274 159.44 131.178 159.224 131.146 158.968C131.05 158.744 131.002 158.504 131.002 158.248C131.002 157.992 131.042 157.76 131.122 157.552C131.042 157.264 131.002 156.992 131.002 156.736C131.002 156.528 131.026 156.352 131.074 156.208C131.026 156.032 131.002 155.88 131.002 155.752C131.002 155.512 131.05 155.272 131.146 155.032C131.018 154.824 130.954 154.56 130.954 154.24C130.954 153.888 131.034 153.616 131.194 153.424C131.066 153.12 131.002 152.832 131.002 152.56C131.002 152.24 131.074 151.952 131.218 151.696C131.154 151.536 131.122 151.408 131.122 151.312C131.122 151.264 131.138 151.176 131.17 151.048C130.962 150.84 130.858 150.504 130.858 150.04C130.858 149.8 130.882 149.568 130.93 149.344C130.994 149.12 131.066 148.96 131.146 148.864C130.97 148.544 130.882 148.136 130.882 147.64C130.882 147.32 130.93 147.064 131.026 146.872C130.93 146.696 130.882 146.472 130.882 146.2C130.882 145.864 130.946 145.592 131.074 145.384C131.026 145.256 131.002 145.072 131.002 144.832C131.002 144.608 131.026 144.456 131.074 144.376C131.074 143.976 131.202 143.664 131.458 143.44C131.714 143.216 132.018 143.104 132.37 143.104C132.722 143.104 133.018 143.224 133.258 143.464C133.514 143.704 133.626 144.024 133.594 144.424C133.962 144.472 134.306 144.696 134.626 145.096C134.946 145.496 135.098 145.928 135.082 146.392C135.29 146.536 135.49 146.752 135.682 147.04C135.89 147.328 136.002 147.592 136.018 147.832C136.226 147.992 136.45 148.28 136.69 148.696C136.93 149.112 137.058 149.48 137.074 149.8C137.266 149.816 137.466 150 137.674 150.352C137.898 150.704 138.026 151 138.058 151.24C138.218 151.304 138.378 151.464 138.538 151.72C138.698 151.976 138.778 152.2 138.778 152.392C138.906 152.424 139.018 152.552 139.114 152.776C139.226 153 139.266 153.176 139.234 153.304C139.634 153.464 139.874 153.744 139.954 154.144C140.13 154.128 140.322 154.232 140.53 154.456C140.738 154.68 140.866 154.904 140.914 155.128C141.074 155.192 141.242 155.336 141.418 155.56C141.61 155.768 141.73 155.968 141.778 156.16C141.73 155.92 141.706 155.744 141.706 155.632C141.706 155.52 141.746 155.424 141.826 155.344C141.666 155.168 141.586 154.912 141.586 154.576C141.586 154.4 141.61 154.256 141.658 154.144C141.546 153.952 141.49 153.776 141.49 153.616C141.49 153.472 141.53 153.32 141.609 153.16C141.45 153.016 141.37 152.768 141.37 152.416C141.37 152.256 141.394 152.128 141.442 152.032C141.314 151.776 141.25 151.488 141.25 151.168C141.25 151.072 141.266 150.928 141.298 150.736C141.122 150.528 141.034 150.192 141.034 149.728C141.034 149.344 141.098 149.064 141.226 148.888C141.146 148.776 141.074 148.624 141.01 148.432C140.962 148.224 140.938 148.032 140.938 147.856C140.938 147.552 141.002 147.32 141.13 147.16C140.986 147.016 140.914 146.816 140.914 146.56C140.914 146.384 140.954 146.16 141.034 145.888C140.874 145.648 140.794 145.36 140.794 145.024C140.794 144.768 140.842 144.568 140.938 144.424C140.858 144.216 140.818 144.032 140.818 143.872C140.818 143.552 140.978 143.328 141.298 143.2C141.474 143.136 141.634 143.104 141.778 143.104C142.05 143.104 142.242 143.208 142.354 143.416C142.482 143.624 142.546 143.872 142.546 144.16C142.546 144.32 142.538 144.432 142.522 144.496C142.65 144.592 142.754 144.768 142.834 145.024C142.914 145.28 142.954 145.544 142.954 145.816C142.954 146.056 142.922 146.232 142.858 146.344C142.97 146.6 143.026 146.936 143.026 147.352C143.026 147.704 142.986 147.952 142.906 148.096C143.002 148.288 143.049 148.568 143.049 148.936C143.049 149.224 143.018 149.432 142.954 149.56C143.034 149.688 143.098 149.864 143.146 150.088C143.21 150.296 143.242 150.496 143.242 150.688C143.242 150.96 143.186 151.152 143.074 151.264C143.186 151.36 143.274 151.52 143.338 151.744C143.402 151.968 143.434 152.2 143.434 152.44C143.434 152.648 143.41 152.824 143.362 152.968C143.49 153.176 143.554 153.424 143.554 153.712C143.554 153.952 143.514 154.12 143.434 154.216C143.482 154.312 143.522 154.472 143.554 154.696C143.586 154.92 143.586 155.08 143.554 155.176C143.714 155.288 143.794 155.52 143.794 155.872C143.794 156.144 143.738 156.36 143.626 156.52C143.706 156.728 143.746 156.896 143.746 157.024C143.746 157.072 143.73 157.176 143.698 157.336ZM159.412 147.856C159.492 147.92 159.556 148.024 159.604 148.168C159.652 148.296 159.676 148.432 159.676 148.576C159.676 148.832 159.62 149 159.508 149.08C159.652 149.24 159.724 149.424 159.724 149.632C159.724 149.856 159.628 150.04 159.436 150.184C159.532 150.248 159.58 150.352 159.58 150.496C159.58 150.608 159.548 150.728 159.484 150.856C159.42 150.968 159.34 151.064 159.244 151.144C159.292 151.336 159.316 151.488 159.316 151.6C159.316 151.776 159.284 151.944 159.22 152.104C159.172 152.264 159.1 152.376 159.004 152.44C159.148 152.552 159.22 152.728 159.22 152.968C159.22 153.144 159.172 153.328 159.076 153.52C158.996 153.696 158.884 153.832 158.74 153.928C158.756 154.424 158.596 154.88 158.26 155.296C158.228 155.536 158.14 155.76 157.996 155.968C157.852 156.176 157.684 156.304 157.492 156.352C157.508 156.416 157.516 156.512 157.516 156.64C157.516 157.184 157.148 157.584 156.412 157.84L156.436 157.936C156.436 158.064 156.388 158.184 156.292 158.296C156.196 158.408 156.092 158.472 155.98 158.488C155.836 158.856 155.452 159.112 154.828 159.256C154.748 159.432 154.62 159.576 154.444 159.688C154.268 159.784 154.068 159.824 153.844 159.808C153.604 159.936 153.348 160 153.076 160C152.74 160 152.428 159.888 152.14 159.664C151.98 159.76 151.748 159.808 151.444 159.808C151.076 159.808 150.716 159.728 150.364 159.568C150.028 159.408 149.812 159.2 149.716 158.944C149.268 158.848 149.028 158.576 148.996 158.128C148.58 157.792 148.364 157.464 148.348 157.144C148.124 157.128 147.924 156.976 147.748 156.688C147.572 156.384 147.484 156.08 147.484 155.776C147.484 155.616 147.508 155.488 147.556 155.392C147.444 155.312 147.348 155.184 147.268 155.008C147.204 154.832 147.172 154.64 147.172 154.432C147.172 154.224 147.204 154.032 147.268 153.856C147.108 153.664 147.028 153.464 147.028 153.256C147.028 153.208 147.044 153.12 147.076 152.992C146.916 152.832 146.836 152.568 146.836 152.2C146.836 151.944 146.876 151.736 146.956 151.576C146.828 151.4 146.764 151.176 146.764 150.904C146.764 150.648 146.828 150.432 146.956 150.256C146.812 150.08 146.74 149.848 146.74 149.56C146.74 149.288 146.796 149.088 146.908 148.96C146.78 148.784 146.716 148.552 146.716 148.264C146.716 147.928 146.804 147.672 146.98 147.496C146.82 147.32 146.74 147 146.74 146.536C146.74 146.168 146.796 145.904 146.908 145.744C146.748 145.504 146.668 145.28 146.668 145.072C146.668 144.848 146.748 144.616 146.908 144.376C146.828 144.184 146.788 144.024 146.788 143.896C146.788 143.56 146.964 143.288 147.316 143.08C147.476 143 147.628 142.96 147.772 142.96C148.044 142.96 148.276 143.064 148.468 143.272C148.676 143.48 148.78 143.728 148.78 144.016C148.78 144.112 148.772 144.184 148.756 144.232C148.932 144.408 149.02 144.624 149.02 144.88C149.02 145.12 148.932 145.344 148.756 145.552C148.772 145.616 148.804 145.728 148.852 145.888C148.9 146.048 148.924 146.192 148.924 146.32C148.924 146.496 148.876 146.648 148.78 146.776C148.876 146.968 148.924 147.256 148.924 147.64C148.924 147.992 148.876 148.24 148.78 148.384C148.876 148.544 148.924 148.84 148.924 149.272C148.924 149.672 148.876 149.944 148.78 150.088C148.892 150.424 148.948 150.688 148.948 150.88C148.948 151.104 148.892 151.296 148.78 151.456C148.86 151.6 148.884 151.768 148.852 151.96C148.964 152.056 149.052 152.184 149.116 152.344C149.196 152.488 149.236 152.648 149.236 152.824C149.236 152.904 149.204 153.04 149.14 153.232C149.268 153.552 149.332 153.808 149.332 154C149.332 154.144 149.3 154.272 149.236 154.384C149.316 154.432 149.38 154.52 149.428 154.648C149.492 154.76 149.524 154.88 149.524 155.008C149.524 155.12 149.5 155.224 149.452 155.32C149.644 155.336 149.804 155.456 149.932 155.68C150.076 155.888 150.132 156.096 150.1 156.304C150.42 156.384 150.644 156.72 150.772 157.312C150.916 157.344 151.116 157.44 151.372 157.6C151.628 157.744 151.796 157.872 151.876 157.984C152.052 157.808 152.276 157.72 152.548 157.72C152.756 157.72 152.956 157.768 153.148 157.864C153.212 157.672 153.412 157.504 153.748 157.36C154.1 157.2 154.372 157.136 154.564 157.168C154.612 156.96 154.724 156.76 154.9 156.568C155.076 156.376 155.284 156.224 155.524 156.112C155.54 155.792 155.644 155.48 155.836 155.176C156.044 154.872 156.268 154.656 156.508 154.528C156.492 154.48 156.484 154.392 156.484 154.264C156.484 154.024 156.54 153.768 156.652 153.496C156.764 153.208 156.9 153.016 157.06 152.92C156.948 152.76 156.892 152.56 156.892 152.32C156.892 152.096 156.932 151.872 157.012 151.648C157.092 151.424 157.18 151.264 157.276 151.168C157.212 151.04 157.18 150.88 157.18 150.688C157.18 150.304 157.292 150.024 157.516 149.848C157.42 149.672 157.372 149.472 157.372 149.248C157.372 148.88 157.452 148.592 157.612 148.384C157.516 148.192 157.468 147.952 157.468 147.664C157.468 147.472 157.5 147.344 157.564 147.28C157.452 147.104 157.396 146.872 157.396 146.584C157.396 146.424 157.42 146.296 157.468 146.2C157.388 146.136 157.316 146.04 157.252 145.912C157.204 145.784 157.18 145.648 157.18 145.504C157.18 145.28 157.244 145.12 157.372 145.024C157.132 144.896 157.012 144.656 157.012 144.304C157.012 144.08 157.068 143.888 157.18 143.728C157.148 143.536 157.132 143.416 157.132 143.368C157.132 143.112 157.212 142.92 157.372 142.792C157.532 142.648 157.724 142.576 157.948 142.576C158.188 142.576 158.404 142.664 158.596 142.84C158.804 143 158.908 143.224 158.908 143.512C158.908 143.672 158.876 143.84 158.812 144.016C159.052 144.144 159.172 144.4 159.172 144.784C159.172 144.976 159.156 145.12 159.124 145.216C159.284 145.392 159.364 145.656 159.364 146.008C159.364 146.248 159.324 146.432 159.244 146.56C159.42 146.784 159.508 147.056 159.508 147.376C159.508 147.568 159.476 147.728 159.412 147.856ZM171.199 143.248C171.423 143.104 171.679 143.032 171.967 143.032C172.191 143.032 172.375 143.08 172.519 143.176C172.839 143.112 173.103 143.192 173.311 143.416C173.535 143.624 173.647 143.872 173.647 144.16C173.647 144.4 173.559 144.6 173.383 144.76C173.223 144.92 172.983 145 172.663 145C172.455 145 172.295 144.984 172.183 144.952C172.007 145.096 171.759 145.168 171.439 145.168C171.087 145.168 170.767 145.096 170.479 144.952C170.383 145.016 170.207 145.072 169.951 145.12C169.695 145.168 169.447 145.192 169.207 145.192C169.047 145.192 168.903 145.176 168.775 145.144C168.903 145.352 168.967 145.616 168.967 145.936C168.967 146.272 168.895 146.504 168.751 146.632C168.991 146.92 169.111 147.296 169.111 147.76C169.111 148.064 169.047 148.344 168.919 148.6C169.079 149.032 169.159 149.456 169.159 149.872C169.159 150.144 169.127 150.384 169.063 150.592C169.143 150.688 169.207 150.84 169.255 151.048C169.319 151.256 169.351 151.464 169.351 151.672C169.351 151.912 169.303 152.12 169.207 152.296C169.447 152.52 169.567 152.872 169.567 153.352C169.567 153.672 169.527 153.928 169.447 154.12C169.591 154.344 169.663 154.632 169.663 154.984C169.663 155.192 169.623 155.376 169.543 155.536C169.623 155.68 169.663 155.88 169.663 156.136C169.663 156.376 169.631 156.56 169.567 156.688C169.727 156.848 169.807 157.104 169.807 157.456C169.807 157.6 169.783 157.736 169.735 157.864C169.943 158.104 170.031 158.344 169.999 158.584C170.079 158.776 170.119 158.936 170.119 159.064C170.119 159.336 170.015 159.56 169.807 159.736C169.599 159.912 169.359 160 169.087 160C168.879 160 168.695 159.944 168.535 159.832C168.391 159.704 168.295 159.512 168.247 159.256C168.135 159.144 168.047 158.984 167.983 158.776C167.919 158.568 167.887 158.368 167.887 158.176C167.887 158.064 167.903 157.944 167.935 157.816C167.759 157.64 167.671 157.328 167.671 156.88C167.671 156.672 167.687 156.528 167.719 156.448C167.575 156.224 167.503 156.032 167.503 155.872C167.503 155.648 167.591 155.448 167.767 155.272C167.543 155.112 167.431 154.864 167.431 154.528C167.431 154.256 167.495 154.048 167.623 153.904C167.399 153.776 167.287 153.44 167.287 152.896C167.287 152.592 167.319 152.352 167.383 152.176C167.303 152.08 167.231 151.936 167.167 151.744C167.119 151.536 167.095 151.328 167.095 151.12C167.095 150.896 167.127 150.728 167.191 150.616C167.047 150.328 166.975 149.984 166.975 149.584C166.975 149.344 167.007 149 167.071 148.552C166.959 148.248 166.903 147.92 166.903 147.568C166.903 147.248 166.951 146.984 167.047 146.776C166.855 146.584 166.759 146.232 166.759 145.72C166.759 145.48 166.783 145.264 166.831 145.072C166.655 145.168 166.479 145.216 166.303 145.216C166.127 145.216 165.959 145.176 165.799 145.096C165.687 145.16 165.535 145.192 165.343 145.192C165.023 145.192 164.799 145.12 164.671 144.976C164.591 145.056 164.471 145.12 164.311 145.168C164.151 145.216 163.983 145.24 163.807 145.24C163.407 145.24 163.135 145.144 162.991 144.952C162.895 144.968 162.767 144.976 162.607 144.976C162.207 144.976 161.911 144.904 161.719 144.76C161.527 144.616 161.431 144.424 161.431 144.184C161.431 143.912 161.559 143.656 161.815 143.416C162.071 143.16 162.375 143.032 162.727 143.032C162.887 143.032 163.071 143.072 163.279 143.152C163.407 143.008 163.655 142.936 164.023 142.936C164.327 142.936 164.559 142.992 164.719 143.104C164.847 142.992 165.071 142.936 165.391 142.936C165.599 142.936 165.799 142.96 165.991 143.008C166.199 143.056 166.351 143.12 166.447 143.2C166.559 143.04 166.855 142.96 167.335 142.96C167.767 142.96 168.039 143.032 168.151 143.176C168.279 143.048 168.503 142.984 168.823 142.984C169.127 142.984 169.319 143.056 169.399 143.2C169.591 143.056 169.871 142.984 170.239 142.984C170.655 142.984 170.975 143.072 171.199 143.248ZM98.7295 181.168C98.7775 181.328 98.8015 181.488 98.8015 181.648C98.8015 181.968 98.6735 182.184 98.4175 182.296C98.4495 182.536 98.3535 182.776 98.1295 183.016C97.9055 183.256 97.6975 183.376 97.5055 183.376C97.4255 183.52 97.1855 183.656 96.7855 183.784C96.3855 183.912 96.0175 183.976 95.6815 183.976C95.4415 183.976 95.2575 183.928 95.1295 183.832C94.9055 183.944 94.5855 184 94.1695 184C93.8015 184 93.4655 183.944 93.1615 183.832C92.8735 183.72 92.6975 183.552 92.6335 183.328C92.3135 183.376 91.9535 183.28 91.5535 183.04C91.1695 182.8 90.9215 182.552 90.8095 182.296C90.5215 182.216 90.2815 182.064 90.0895 181.84C89.9135 181.616 89.8175 181.352 89.8015 181.048C89.7055 180.904 89.6575 180.76 89.6575 180.616C89.6575 180.392 89.7295 180.192 89.8735 180.016C90.0335 179.84 90.2175 179.752 90.4255 179.752C90.6335 179.752 90.8335 179.88 91.0255 180.136C91.3135 180.104 91.5695 180.2 91.7935 180.424C92.0335 180.648 92.1535 180.872 92.1535 181.096C92.2015 181.096 92.3215 181.112 92.5135 181.144C92.7215 181.16 92.9055 181.216 93.0655 181.312C93.2255 181.408 93.3375 181.544 93.4015 181.72C93.6895 181.72 93.9695 181.76 94.2415 181.84C94.5295 181.904 94.6975 181.984 94.7455 182.08C94.8735 182 95.0575 181.936 95.2975 181.888C95.5535 181.824 95.7695 181.792 95.9455 181.792C95.9935 181.728 96.1135 181.664 96.3055 181.6C96.4975 181.536 96.6575 181.496 96.7855 181.48C96.7055 181.368 96.6655 181.2 96.6655 180.976C96.6655 180.64 96.7695 180.4 96.9775 180.256C96.7855 180.192 96.6335 180.096 96.5215 179.968C96.4095 179.824 96.3615 179.664 96.3775 179.488C96.2495 179.52 96.1535 179.536 96.0895 179.536C95.7855 179.536 95.5375 179.416 95.3455 179.176C95.0255 179.208 94.7055 179.136 94.3855 178.96C94.0815 178.784 93.8575 178.552 93.7135 178.264C93.6015 178.312 93.4815 178.336 93.3535 178.336C93.0815 178.336 92.7935 178.256 92.4895 178.096C92.2015 177.92 92.0175 177.752 91.9375 177.592C91.7135 177.656 91.4495 177.584 91.1455 177.376C90.8415 177.168 90.6895 176.936 90.6895 176.68C90.4975 176.584 90.3455 176.424 90.2335 176.2C90.1215 175.96 90.0655 175.744 90.0655 175.552C90.0655 175.408 90.0975 175.312 90.1615 175.264C90.0815 175.104 90.0415 174.944 90.0415 174.784C90.0415 174.496 90.1375 174.248 90.3295 174.04C90.2815 173.864 90.2575 173.704 90.2575 173.56C90.2575 173.288 90.3135 173.064 90.4255 172.888C90.5535 172.696 90.7055 172.616 90.8815 172.648C90.8495 172.392 90.9055 172.168 91.0495 171.976C91.2095 171.784 91.4015 171.648 91.6255 171.568C91.8655 171.472 92.0735 171.44 92.2495 171.472C92.3455 171.328 92.4735 171.216 92.6335 171.136C92.7935 171.056 92.9535 171.016 93.1135 171.016C93.3855 171.016 93.5775 171.096 93.6895 171.256C93.7055 171.176 93.7615 171.112 93.8575 171.064C93.9695 171.016 94.0975 170.992 94.2415 170.992C94.3695 170.992 94.4975 171.016 94.6255 171.064C94.7535 171.112 94.8495 171.168 94.9135 171.232C95.0095 171.136 95.1775 171.088 95.4175 171.088C95.6095 171.088 95.8015 171.128 95.9935 171.208C96.1855 171.272 96.3135 171.368 96.3775 171.496C96.4735 171.448 96.5775 171.424 96.6895 171.424C96.8815 171.424 97.0575 171.496 97.2175 171.64C97.3935 171.768 97.5135 171.936 97.5775 172.144C97.8175 172.112 98.0655 172.192 98.3215 172.384C98.5775 172.576 98.6735 172.768 98.6095 172.96C99.0415 173.2 99.2575 173.528 99.2575 173.944C99.2575 174.2 99.1695 174.424 98.9935 174.616C98.8175 174.808 98.5935 174.904 98.3215 174.904C98.0815 174.888 97.8815 174.824 97.7215 174.712C97.5615 174.6 97.4655 174.464 97.4335 174.304C97.2255 174.272 97.0255 174.192 96.8335 174.064C96.6575 173.92 96.5615 173.736 96.5455 173.512C96.2415 173.544 96.0095 173.512 95.8495 173.416C95.7055 173.32 95.5775 173.168 95.4655 172.96C95.3535 173.04 95.2095 173.08 95.0335 173.08C94.8575 173.08 94.6655 173.032 94.4575 172.936C94.3455 173.032 94.2015 173.112 94.0255 173.176C93.8655 173.24 93.7055 173.272 93.5455 173.272C93.3695 173.272 93.2175 173.232 93.0895 173.152C93.1215 173.344 93.0735 173.496 92.9455 173.608C92.8175 173.72 92.6415 173.76 92.4175 173.728C92.4655 173.84 92.4895 173.96 92.4895 174.088C92.4895 174.376 92.3615 174.616 92.1055 174.808C92.2815 174.888 92.4095 175.024 92.4895 175.216C92.5695 175.392 92.6015 175.568 92.5855 175.744L92.7775 175.72C93.2575 175.72 93.5615 175.872 93.6895 176.176L93.8815 176.152C94.1375 176.152 94.3775 176.216 94.6015 176.344C94.8415 176.472 95.0175 176.688 95.1295 176.992C95.3855 176.976 95.6335 177.008 95.8735 177.088C96.1135 177.152 96.2815 177.28 96.3775 177.472C96.5055 177.424 96.6255 177.4 96.7375 177.4C97.0095 177.4 97.2495 177.48 97.4575 177.64C97.6815 177.8 97.8015 177.984 97.8175 178.192C97.9615 178.192 98.0895 178.272 98.2015 178.432C98.3295 178.592 98.3775 178.776 98.3455 178.984C98.4575 178.968 98.5615 179.032 98.6575 179.176C98.7535 179.304 98.8015 179.456 98.8015 179.632C98.8015 179.728 98.7775 179.816 98.7295 179.896C98.9535 180.056 99.0655 180.272 99.0655 180.544C99.0655 180.688 99.0335 180.816 98.9695 180.928C98.9215 181.04 98.8415 181.12 98.7295 181.168ZM115.832 181.936C115.848 181.856 115.888 181.8 115.952 181.768C116.032 181.736 116.12 181.712 116.216 181.696C116.28 181.68 116.36 181.672 116.456 181.672C116.728 181.672 116.944 181.776 117.104 181.984C117.28 182.176 117.368 182.408 117.368 182.68C117.368 182.888 117.312 183.072 117.2 183.232C117.088 183.376 116.92 183.48 116.696 183.544C116.36 183.832 115.96 183.952 115.496 183.904C115.368 184.016 115.2 184.072 114.992 184.072C114.704 184.072 114.44 183.968 114.2 183.76C114.04 183.728 113.848 183.648 113.624 183.52C113.4 183.376 113.288 183.248 113.288 183.136C113.064 183.104 112.832 182.976 112.592 182.752C112.368 182.528 112.288 182.256 112.352 181.936C112.176 181.744 112.072 181.544 112.04 181.336C111.848 181.24 111.704 181.096 111.608 180.904C111.528 180.712 111.504 180.512 111.536 180.304C111.328 180.112 111.224 179.824 111.224 179.44C111.224 179.296 111.24 179.112 111.272 178.888C111.048 178.712 110.936 178.472 110.936 178.168C110.936 177.896 111.024 177.672 111.2 177.496C111.008 177.304 110.912 177.056 110.912 176.752C110.912 176.64 110.944 176.504 111.008 176.344C110.912 176.152 110.864 175.96 110.864 175.768C110.864 175.512 110.936 175.312 111.08 175.168C110.984 174.976 110.936 174.768 110.936 174.544C110.936 174.352 110.96 174.184 111.008 174.04C111.072 173.88 111.144 173.76 111.224 173.68C111.048 173.472 110.96 173.248 110.96 173.008C110.96 172.88 110.984 172.744 111.032 172.6C110.888 172.648 110.728 172.672 110.552 172.672C110.28 172.672 110.08 172.616 109.952 172.504C109.76 172.552 109.592 172.576 109.448 172.576C109.16 172.576 108.864 172.488 108.56 172.312C108.4 172.408 108.232 172.456 108.056 172.456C107.8 172.456 107.592 172.352 107.432 172.144C107.256 171.92 107.168 171.672 107.168 171.4C107.168 171.16 107.248 170.96 107.408 170.8C107.552 170.624 107.768 170.528 108.056 170.512C108.248 170.432 108.424 170.392 108.584 170.392C108.904 170.392 109.184 170.472 109.424 170.632C109.632 170.552 109.864 170.512 110.12 170.512C110.344 170.512 110.52 170.552 110.648 170.632C110.664 170.568 110.728 170.512 110.84 170.464C110.968 170.4 111.072 170.376 111.152 170.392C111.088 170.248 111.056 170.056 111.056 169.816C111.056 169.528 111.12 169.376 111.248 169.36C111.136 169.2 111.08 168.968 111.08 168.664C111.08 168.248 111.184 167.96 111.392 167.8C111.376 167.48 111.44 167.24 111.584 167.08C111.728 166.92 111.912 166.84 112.136 166.84C112.36 166.84 112.568 166.92 112.76 167.08C112.952 167.224 113.048 167.416 113.048 167.656C113.048 167.816 112.984 168 112.856 168.208C113.016 168.352 113.096 168.592 113.096 168.928C113.096 169.072 113.072 169.224 113.024 169.384C112.992 169.528 112.944 169.64 112.88 169.72C112.976 169.784 113.024 169.912 113.024 170.104C113.024 170.264 112.984 170.48 112.904 170.752C113.048 170.704 113.2 170.68 113.36 170.68C113.6 170.68 113.784 170.736 113.912 170.848C114.072 170.768 114.2 170.728 114.296 170.728C114.456 170.728 114.584 170.792 114.68 170.92C114.792 170.84 114.928 170.8 115.088 170.8C115.312 170.8 115.488 170.888 115.616 171.064C115.92 171.064 116.144 171.136 116.288 171.28C116.448 171.408 116.528 171.576 116.528 171.784C116.528 172.04 116.424 172.288 116.216 172.528C116.024 172.752 115.8 172.864 115.544 172.864C115.4 172.864 115.256 172.816 115.112 172.72C114.952 172.848 114.744 172.912 114.488 172.912C114.248 172.912 114.048 172.856 113.888 172.744C113.68 172.824 113.528 172.864 113.432 172.864C113.304 172.864 113.152 172.808 112.976 172.696C113.12 172.888 113.192 173.096 113.192 173.32C113.192 173.56 113.096 173.776 112.904 173.968C113.048 174.16 113.12 174.4 113.12 174.688C113.12 174.944 113.048 175.184 112.904 175.408C113.096 175.536 113.192 175.744 113.192 176.032C113.192 176.272 113.12 176.48 112.976 176.656C113.136 176.832 113.216 177.144 113.216 177.592C113.216 177.784 113.192 177.944 113.144 178.072C113.256 178.232 113.312 178.4 113.312 178.576C113.312 178.672 113.288 178.8 113.24 178.96C113.208 179.104 113.184 179.224 113.168 179.32C113.36 179.544 113.456 179.76 113.456 179.968C113.728 180.176 113.864 180.424 113.864 180.712C114.184 180.888 114.344 181.184 114.344 181.6C114.376 181.648 114.408 181.68 114.44 181.696C114.472 181.712 114.496 181.728 114.512 181.744L114.68 181.72C114.92 181.72 115.112 181.792 115.256 181.936C115.384 181.904 115.488 181.888 115.568 181.888C115.616 181.888 115.704 181.904 115.832 181.936ZM133.032 183.712C132.84 183.904 132.544 184 132.144 184C131.84 184 131.592 183.952 131.4 183.856C131.112 183.92 130.856 183.952 130.632 183.952C130.008 183.952 129.56 183.792 129.288 183.472C129.224 183.488 129.136 183.496 129.024 183.496C128.656 183.496 128.376 183.328 128.184 182.992C128.024 183.008 127.816 182.928 127.56 182.752C127.32 182.56 127.216 182.376 127.248 182.2C126.992 182.136 126.776 181.984 126.6 181.744C126.44 181.488 126.368 181.2 126.384 180.88C126.208 180.816 126.072 180.688 125.976 180.496C125.88 180.304 125.832 180.088 125.832 179.848C125.832 179.592 125.872 179.408 125.952 179.296C125.776 179.024 125.688 178.712 125.688 178.36C125.688 177.992 125.8 177.696 126.024 177.472C125.848 177.344 125.76 177.152 125.76 176.896C125.76 176.736 125.8 176.576 125.88 176.416C125.96 176.256 126.064 176.144 126.192 176.08C126.16 175.856 126.184 175.648 126.264 175.456C126.36 175.248 126.488 175.096 126.648 175C126.616 174.952 126.6 174.88 126.6 174.784C126.6 174.64 126.648 174.496 126.744 174.352C126.856 174.208 126.976 174.12 127.104 174.088C127.088 174.04 127.08 173.976 127.08 173.896C127.08 173.56 127.208 173.272 127.464 173.032C127.72 172.776 127.968 172.664 128.208 172.696C128.208 172.472 128.304 172.288 128.496 172.144C128.704 171.984 128.968 171.904 129.288 171.904C129.432 171.904 129.544 171.912 129.624 171.928C129.736 171.688 129.928 171.496 130.2 171.352C130.472 171.192 130.752 171.112 131.04 171.112C131.232 171.112 131.392 171.152 131.52 171.232C131.744 171.04 132.024 170.944 132.36 170.944C132.632 170.944 132.872 171.008 133.08 171.136C133.304 171.264 133.44 171.44 133.488 171.664C133.744 171.664 134.016 171.76 134.304 171.952C134.592 172.128 134.76 172.312 134.808 172.504C135.192 172.616 135.56 172.864 135.912 173.248C136.28 173.616 136.464 173.992 136.464 174.376C136.464 174.44 136.448 174.536 136.416 174.664C137.104 174.808 137.416 175.504 137.352 176.752C137.496 176.992 137.568 177.248 137.568 177.52C137.568 177.84 137.464 178.16 137.256 178.48C137.304 178.624 137.328 178.76 137.328 178.888C137.328 179.08 137.288 179.264 137.208 179.44C137.128 179.616 137.024 179.752 136.896 179.848C136.912 180.104 136.864 180.312 136.752 180.472C136.656 180.632 136.472 180.848 136.2 181.12C136.216 181.184 136.224 181.28 136.224 181.408C136.224 181.888 135.952 182.2 135.408 182.344C135.36 182.6 135.224 182.808 135 182.968C134.792 183.128 134.536 183.208 134.232 183.208C133.976 183.56 133.664 183.736 133.296 183.736C133.184 183.736 133.096 183.728 133.032 183.712ZM130.776 182.032C130.904 181.92 131.12 181.864 131.424 181.864C131.648 181.864 131.768 181.896 131.784 181.96C131.912 181.816 132.072 181.704 132.264 181.624C132.456 181.544 132.632 181.512 132.792 181.528C133.064 181.256 133.36 181.12 133.68 181.12C133.792 181.12 133.872 181.128 133.92 181.144C133.904 181 133.944 180.864 134.04 180.736C134.136 180.592 134.248 180.496 134.376 180.448C134.376 180.24 134.424 180.064 134.52 179.92C134.632 179.76 134.768 179.64 134.928 179.56C134.928 179.24 134.992 178.984 135.12 178.792C135.072 178.664 135.048 178.536 135.048 178.408C135.048 178.232 135.088 178.064 135.168 177.904C135.248 177.728 135.36 177.584 135.504 177.472C135.344 177.328 135.264 177.152 135.264 176.944C135.264 176.752 135.32 176.56 135.432 176.368C135.112 176.176 134.896 175.992 134.784 175.816C134.688 175.624 134.64 175.28 134.64 174.784C134.496 174.8 134.344 174.72 134.184 174.544C134.04 174.368 133.952 174.168 133.92 173.944C133.744 173.992 133.528 173.944 133.272 173.8C133.032 173.64 132.912 173.44 132.912 173.2C132.784 173.264 132.632 173.296 132.456 173.296C132.12 173.296 131.848 173.176 131.64 172.936C131.464 173.112 131.232 173.256 130.944 173.368C130.672 173.464 130.432 173.496 130.224 173.464C130.208 173.624 130.064 173.816 129.792 174.04C129.536 174.248 129.304 174.384 129.096 174.448C129.144 174.544 129.168 174.656 129.168 174.784C129.168 174.944 129.128 175.104 129.048 175.264C128.968 175.424 128.856 175.56 128.712 175.672C128.728 175.896 128.672 176.112 128.544 176.32C128.432 176.528 128.272 176.672 128.064 176.752C128.096 176.88 128.112 176.984 128.112 177.064C128.112 177.288 128.056 177.464 127.944 177.592C127.992 177.704 128.016 177.816 128.016 177.928C128.016 178.104 127.928 178.296 127.752 178.504C128.152 178.776 128.352 179.168 128.352 179.68C128.352 179.952 128.304 180.184 128.208 180.376C128.368 180.392 128.48 180.44 128.544 180.52C128.608 180.6 128.664 180.728 128.712 180.904C129.112 180.952 129.408 181.144 129.6 181.48C129.776 181.48 129.992 181.536 130.248 181.648C130.52 181.76 130.696 181.888 130.776 182.032ZM149.482 182.872C149.546 183.224 149.474 183.504 149.266 183.712C149.074 183.904 148.834 184 148.546 184C148.29 184 148.066 183.92 147.874 183.76C147.682 183.584 147.586 183.344 147.586 183.04C147.586 182.848 147.634 182.632 147.73 182.392C147.634 182.168 147.586 181.936 147.586 181.696C147.586 181.504 147.626 181.344 147.706 181.216C147.61 181.152 147.538 181.056 147.49 180.928C147.442 180.8 147.418 180.656 147.418 180.496C147.418 180.336 147.45 180.16 147.514 179.968C147.37 179.792 147.298 179.584 147.298 179.344C147.298 179.04 147.41 178.792 147.634 178.6C147.618 178.552 147.61 178.472 147.61 178.36C147.61 178.2 147.626 178.088 147.658 178.024C147.482 177.8 147.394 177.48 147.394 177.064C147.394 176.776 147.45 176.552 147.562 176.392C147.45 176.296 147.354 176.168 147.274 176.008C147.194 175.832 147.154 175.656 147.154 175.48C147.154 175.288 147.21 175.104 147.322 174.928C147.242 174.736 147.202 174.568 147.202 174.424C147.202 174.184 147.274 173.96 147.418 173.752C147.226 173.56 147.13 173.36 147.13 173.152C147.13 172.992 147.186 172.776 147.298 172.504C147.186 172.28 147.13 172.04 147.13 171.784C147.13 171.448 147.25 171.24 147.49 171.16C147.506 170.936 147.586 170.752 147.73 170.608C147.874 170.464 148.05 170.392 148.258 170.392C148.498 170.392 148.706 170.512 148.882 170.752C149.074 170.976 149.17 171.304 149.17 171.736C149.17 171.912 149.162 172.056 149.146 172.168C149.21 172.136 149.274 172.088 149.338 172.024C149.402 171.944 149.482 171.888 149.578 171.856C149.674 171.824 149.818 171.808 150.01 171.808C150.042 171.728 150.146 171.648 150.322 171.568C150.514 171.488 150.698 171.448 150.874 171.448C151.002 171.448 151.09 171.464 151.138 171.496C151.266 171.432 151.394 171.4 151.522 171.4C151.714 171.4 151.922 171.536 152.146 171.808C152.53 171.776 152.81 171.864 152.986 172.072C153.242 172.056 153.466 172.088 153.658 172.168C153.85 172.248 154.002 172.416 154.114 172.672C154.418 172.864 154.57 173.12 154.57 173.44C154.57 173.712 154.45 173.968 154.21 174.208C153.986 174.432 153.738 174.544 153.466 174.544C153.162 174.544 152.906 174.384 152.698 174.064C152.522 174.064 152.386 174.048 152.29 174.016C152.194 173.984 152.098 173.912 152.002 173.8C151.906 173.832 151.826 173.848 151.762 173.848C151.618 173.848 151.466 173.808 151.306 173.728C151.082 173.872 150.842 173.936 150.586 173.92C150.49 174.144 150.242 174.256 149.842 174.256C149.858 174.304 149.866 174.384 149.866 174.496C149.866 174.704 149.818 174.912 149.722 175.12C149.642 175.312 149.538 175.456 149.41 175.552C149.538 175.856 149.602 176.16 149.602 176.464C149.602 176.736 149.538 176.944 149.41 177.088C149.458 177.152 149.506 177.232 149.554 177.328C149.618 177.424 149.666 177.512 149.698 177.592C149.73 177.72 149.746 177.816 149.746 177.88C149.746 177.992 149.706 178.144 149.626 178.336C149.706 178.528 149.746 178.672 149.746 178.768C149.746 178.896 149.69 179.072 149.578 179.296C149.674 179.456 149.722 179.632 149.722 179.824C149.722 180.048 149.666 180.24 149.554 180.4C149.666 180.656 149.722 180.92 149.722 181.192C149.722 181.4 149.674 181.592 149.578 181.768C149.658 181.928 149.698 182.088 149.698 182.248C149.698 182.472 149.626 182.68 149.482 182.872ZM171.34 179.584C171.276 179.792 171.14 179.976 170.932 180.136C170.964 180.776 170.796 181.176 170.428 181.336C170.396 181.592 170.284 181.864 170.092 182.152C169.9 182.44 169.692 182.632 169.468 182.728C169.468 182.792 169.452 182.928 169.42 183.136C169.404 183.328 169.356 183.488 169.276 183.616C169.212 183.744 169.108 183.872 168.964 184C169.044 184.56 168.78 185.12 168.172 185.68C168.156 186.064 168.028 186.368 167.788 186.592C167.564 186.832 167.292 186.976 166.972 187.024C166.94 187.248 166.772 187.464 166.468 187.672C166.18 187.896 165.9 188.008 165.628 188.008C165.564 188.184 165.3 188.36 164.836 188.536C164.388 188.728 164.092 188.776 163.948 188.68C163.564 188.712 163.26 188.616 163.036 188.392C162.812 188.168 162.7 187.904 162.7 187.6C162.7 187.376 162.764 187.184 162.892 187.024C163.02 186.864 163.204 186.784 163.444 186.784C163.524 186.784 163.588 186.792 163.636 186.808C164.084 186.472 164.444 186.304 164.716 186.304C164.812 186.304 164.884 186.312 164.932 186.328C164.964 186.136 165.076 185.952 165.268 185.776C165.46 185.616 165.684 185.488 165.94 185.392C165.94 185.232 166.004 185.064 166.132 184.888C166.26 184.712 166.412 184.568 166.588 184.456C166.556 184.36 166.54 184.288 166.54 184.24C166.54 184 166.644 183.736 166.852 183.448C167.06 183.144 167.268 182.952 167.476 182.872C167.108 182.68 166.924 182.384 166.924 181.984C166.764 181.968 166.612 181.856 166.468 181.648C166.34 181.44 166.276 181.216 166.276 180.976C166.276 180.832 166.316 180.696 166.396 180.568C166.156 180.488 165.972 180.36 165.844 180.184C165.732 180.008 165.676 179.8 165.676 179.56C165.676 179.384 165.708 179.208 165.772 179.032C165.548 178.904 165.372 178.768 165.244 178.624C165.132 178.48 165.084 178.312 165.1 178.12C164.86 177.96 164.74 177.712 164.74 177.376C164.74 177.216 164.764 177.064 164.812 176.92C164.412 176.488 164.212 176.024 164.212 175.528C164.212 175.384 164.22 175.272 164.236 175.192C164.012 175.08 163.844 174.928 163.732 174.736C163.62 174.528 163.564 174.296 163.564 174.04C163.564 173.8 163.612 173.576 163.708 173.368C163.292 173.08 163.084 172.76 163.084 172.408C163.084 172.008 163.26 171.688 163.612 171.448C163.756 171.352 163.916 171.304 164.092 171.304C164.332 171.304 164.548 171.392 164.74 171.568C164.948 171.744 165.1 171.96 165.196 172.216C165.34 172.344 165.46 172.544 165.556 172.816C165.652 173.088 165.7 173.344 165.7 173.584C165.7 173.728 165.692 173.824 165.676 173.872C166.156 174.384 166.396 174.88 166.396 175.36C166.396 175.424 166.38 175.536 166.348 175.696C166.556 175.808 166.708 175.976 166.804 176.2C166.9 176.408 166.932 176.624 166.9 176.848C167.06 176.976 167.172 177.136 167.236 177.328C167.316 177.52 167.34 177.712 167.308 177.904C167.452 177.904 167.58 178.016 167.692 178.24C167.82 178.448 167.868 178.664 167.836 178.888C168.044 179 168.18 179.152 168.244 179.344C168.308 179.52 168.324 179.736 168.292 179.992C168.5 180.056 168.604 180.256 168.604 180.592C168.652 180.32 168.708 180.12 168.772 179.992C168.836 179.864 168.932 179.728 169.06 179.584C169.028 179.424 169.012 179.32 169.012 179.272C169.012 179.096 169.044 178.96 169.108 178.864C169.172 178.752 169.26 178.688 169.372 178.672C169.308 178.368 169.388 178.072 169.612 177.784C169.564 177.688 169.54 177.592 169.54 177.496C169.54 177.384 169.588 177.264 169.684 177.136C169.796 176.992 169.868 176.896 169.9 176.848C169.804 176.56 169.756 176.32 169.756 176.128C169.756 175.968 169.788 175.816 169.852 175.672C169.916 175.528 170.02 175.352 170.164 175.144C170.068 174.952 170.02 174.664 170.02 174.28C170.02 173.768 170.124 173.304 170.332 172.888C170.268 172.664 170.236 172.488 170.236 172.36C170.236 172.168 170.284 172 170.38 171.856C170.38 171.472 170.5 171.168 170.74 170.944C170.98 170.72 171.252 170.608 171.556 170.608C171.812 170.608 172.028 170.704 172.204 170.896C172.396 171.072 172.484 171.328 172.468 171.664C172.58 171.888 172.636 172.16 172.636 172.48C172.636 173.056 172.5 173.56 172.228 173.992C172.292 174.2 172.324 174.424 172.324 174.664C172.324 175.064 172.18 175.448 171.892 175.816C171.908 175.944 171.94 176.096 171.988 176.272C172.036 176.448 172.06 176.592 172.06 176.704C172.06 176.944 171.98 177.152 171.82 177.328C171.9 177.552 171.732 178.024 171.316 178.744C171.38 178.936 171.412 179.088 171.412 179.2C171.412 179.328 171.388 179.456 171.34 179.584Z" fill="#FBB503"/>
</svg>
