<svg width="105" height="42" viewBox="0 0 105 42" fill="none" xmlns="http://www.w3.org/2000/svg">
<path d="M27.9599 6.12886C26.9658 5.07223 25.8684 4.39524 24.9868 3.85179C24.3578 3.46428 23.7078 3.06229 23.592 2.77478C23.5466 2.66228 23.5032 2.54582 23.4584 2.42871C23.0893 1.45631 22.5847 0.126654 21.0616 0.0102021C19.2431 -0.130593 18.4536 1.21288 17.9747 2.3728C17.8306 2.72084 16.9792 3.1123 16.1562 3.48994C14.2054 4.38603 11.258 5.74003 10.0586 9.42504C9.03682 12.564 9.66776 14.9114 10.0862 16.4654C10.2928 17.2339 10.4711 17.8984 10.3296 18.2418C10.0849 18.834 9.40328 19.2261 8.371 19.8175C7.01305 20.5965 5.1531 21.663 3.0267 23.9421C-0.312244 27.5218 -0.956351 33.4115 1.43256 37.0761L1.92995 37.7637C1.92469 37.8906 1.87929 38.1268 1.84771 38.292C1.70429 39.0473 1.48652 40.192 2.353 40.9223C2.72341 41.2348 3.18066 41.3941 3.71028 41.3941C4.2807 41.3941 4.84519 41.2125 5.34324 41.0526C5.67351 40.946 6.01564 40.8375 6.2117 40.8375C6.24196 40.8375 6.25578 40.8401 6.25183 40.8375L6.31894 40.8638L6.32289 40.8657C6.5808 40.9697 6.81765 41.0579 7.04661 41.1368C8.72628 41.7079 10.4237 42 12.0915 42C12.0922 42 12.0922 42 12.0922 42C17.3674 42 22.4354 38.9321 25.0039 34.1846C27.1013 30.3081 26.698 26.1454 26.4303 23.3907C26.3921 22.9973 26.3572 22.6308 26.3316 22.2959C26.2618 21.3676 26.8171 20.6886 27.5869 19.7485C28.4284 18.7208 29.4758 17.4418 30.0521 15.3575C30.989 11.9686 30.2067 8.51842 27.9599 6.12886Z" fill="#FBBF28"/>
<path d="M19.3498 21.3597C23.6437 21.3597 27.1245 17.8789 27.1245 13.5851C27.1245 9.29124 23.6437 5.81042 19.3498 5.81042C15.056 5.81042 11.5752 9.29124 11.5752 13.5851C11.5752 17.8789 15.056 21.3597 19.3498 21.3597Z" fill="white"/>
<path d="M15.6787 14.2003C16.1512 14.2634 16.5875 13.9162 16.653 13.425C16.7186 12.9337 16.3887 12.4843 15.9162 12.4213C15.4436 12.3582 15.0074 12.7053 14.9418 13.1966C14.8763 13.6878 15.2062 14.1372 15.6787 14.2003Z" fill="#755726"/>
<path d="M22.7372 15.136C23.2097 15.1988 23.6457 14.8517 23.711 14.3608C23.7762 13.8698 23.4459 13.4209 22.9734 13.3581C22.5008 13.2953 22.0648 13.6424 21.9996 14.1334C21.9343 14.6243 22.2646 15.0732 22.7372 15.136Z" fill="#755726"/>
<path d="M19.0564 17.6569C18.9748 17.6569 18.8919 17.6517 18.8097 17.6411C18.0182 17.5352 17.38 16.9385 17.2221 16.1549C17.1873 15.9799 17.3004 15.8095 17.4748 15.7733C17.6504 15.7397 17.8202 15.8516 17.8557 16.0266C17.959 16.5398 18.3768 16.9312 18.8946 16.9996C19.4137 17.07 19.9176 16.8003 20.1519 16.3325C20.2315 16.172 20.4262 16.1075 20.5854 16.1878C20.746 16.2667 20.8098 16.4608 20.7302 16.6207C20.4104 17.2622 19.7578 17.6569 19.0564 17.6569Z" fill="#755726"/>
<path d="M15.5918 17.6221C15.8313 15.8227 14.5668 14.168 12.766 13.9292C12.3614 13.8746 11.9653 13.9009 11.5903 13.9884C11.7055 16.2444 12.8002 18.2912 14.5029 19.6544C15.078 19.1478 15.4826 18.4412 15.5918 17.6221Z" fill="#FFE0B0"/>
<path d="M26.7333 16.0042C26.3938 15.8213 26.0181 15.6937 25.6135 15.6391C23.8134 15.399 22.1594 16.6641 21.9206 18.4629C21.8114 19.2833 22.0166 20.0702 22.4403 20.7103C24.4404 19.8406 26.0326 18.1517 26.7333 16.0042Z" fill="#FFE0B0"/>
<path d="M23.4867 32.8898C23.4374 32.5963 23.1591 32.3983 22.8657 32.4483C22.4801 32.5147 22.0985 32.5575 21.7229 32.5858C22.8532 30.1239 22.9564 27.9652 22.9597 27.8632C22.9722 27.5672 22.7407 27.3145 22.4433 27.3034C22.1512 27.2968 21.8952 27.5224 21.8827 27.8205C21.8814 27.8448 21.7722 30.1541 20.507 32.622C19.5221 32.6042 18.5938 32.4786 17.747 32.2976C18.5155 31.2351 18.8037 30.3982 18.832 30.3114C18.9247 30.0285 18.7708 29.7265 18.4885 29.6324C18.2082 29.5403 17.9023 29.6923 17.8082 29.9752C17.7806 30.0587 17.4707 30.941 16.6134 32.0128C14.5239 31.4055 13.164 30.5634 13.1396 30.5476C12.8883 30.3884 12.5554 30.4627 12.3962 30.714C12.2369 30.9653 12.3113 31.2996 12.5626 31.4588C12.6607 31.5206 13.8897 32.2818 15.8016 32.9016C15.2266 33.4549 14.4995 34.0148 13.5929 34.5102C12.1929 33.9858 11.3317 33.4523 11.3126 33.4398C11.0606 33.2812 10.7283 33.3549 10.5685 33.6069C10.4093 33.8582 10.4843 34.1911 10.7356 34.3503C10.8001 34.3911 11.3468 34.7306 12.2495 35.1346C11.3744 35.4774 10.3731 35.7563 9.22171 35.9313C8.92762 35.9761 8.72563 36.2504 8.76971 36.5452C8.81116 36.8116 9.04013 37.0031 9.30198 37.0031C9.32961 37.0031 9.35659 37.0011 9.38422 36.9972C11.0863 36.7373 12.4955 36.2669 13.6613 35.6905C14.6509 36.0326 15.8463 36.3451 17.1826 36.4978C15.3693 37.7689 13.0969 38.4709 10.3764 38.5854C10.079 38.5979 9.84805 38.8485 9.86056 39.1453C9.87306 39.4354 10.1119 39.6617 10.3981 39.6617C10.406 39.6617 10.4139 39.6617 10.4218 39.6617C14.3088 39.4992 16.97 38.1939 18.7839 36.5952C18.8181 36.5965 18.851 36.5978 18.8846 36.5978C19.6359 36.5978 20.4175 36.5392 21.2195 36.4031C21.5136 36.3544 21.711 36.0767 21.661 35.782C21.611 35.4892 21.332 35.2912 21.0399 35.3405C20.6491 35.4076 20.2629 35.4504 19.882 35.4787C20.3925 34.8852 20.809 34.2799 21.1472 33.697C21.7637 33.6779 22.3979 33.6214 23.0466 33.5115C23.3387 33.4615 23.5367 33.1832 23.4867 32.8898ZM14.9522 34.953C15.7831 34.4036 16.4483 33.8115 16.9773 33.2371C17.8595 33.4549 18.8392 33.6227 19.8932 33.6826C19.4511 34.3602 18.9471 34.9642 18.3892 35.5043C17.126 35.4537 15.9582 35.2333 14.9522 34.953Z" fill="#CE9328"/>
<path d="M21.9845 7.76834C21.9279 7.74597 21.8516 7.77097 21.8095 7.81571C21.5068 8.13019 20.9351 8.2052 20.6154 7.96704C20.266 7.70584 20.1805 7.40584 20.1706 7.19991C20.1561 6.90714 20.2864 6.60515 20.518 6.39132C20.7581 6.17355 21.091 6.0696 21.4437 6.10447C21.3917 6.08999 21.5536 6.13406 21.6832 6.1742L21.697 6.17026C21.5825 5.78275 21.2075 5.54392 21.2075 5.54392C20.9516 5.38602 20.6456 5.29061 20.3028 5.28074C19.6278 5.26166 18.7923 5.59523 18.4521 6.38144C18.1403 7.10055 18.1547 7.8394 18.4903 8.40916C18.8081 8.95128 19.3831 9.28815 20.1081 9.35789C20.168 9.36381 20.2278 9.3671 20.2857 9.36907C20.997 9.38947 21.6042 9.08287 21.9095 8.5493C22.0279 8.34206 22.0904 8.11441 22.0891 7.89269C22.0891 7.83413 22.0404 7.79137 21.9845 7.76834Z" fill="#755726"/>
<path d="M48.5773 20.1866C48.5766 20.1866 48.5766 20.1866 48.5773 20.1866C48.4963 20.1827 48.4135 20.1794 48.3319 20.1761C48.0595 20.1669 47.7516 20.1563 47.6378 20.0557C47.4114 19.8873 47.3529 19.6386 47.3312 19.2925L47.3206 19.1076C47.3035 18.7991 47.2864 18.48 47.1864 18.1622C47.1344 17.9293 47.0088 17.7299 46.8114 17.5608C46.6673 17.4168 46.4654 17.3464 46.1963 17.3464C45.993 17.3464 45.8469 17.3819 45.716 17.4615C45.3679 17.6477 45.2107 18.1155 45.1804 18.4852C45.1706 18.5734 45.1567 18.6642 45.1423 18.7596C45.1219 18.8964 45.1002 19.0405 45.0857 19.1951C45.062 19.5076 45.062 19.8215 45.062 20.1241V20.7873C45.0745 21.1136 45.0745 21.4465 45.0745 21.7808C45.0745 22.1209 45.0745 22.463 45.0863 22.8111C45.0975 22.9729 45.1028 23.1071 45.1087 23.2341C45.1153 23.3802 45.1212 23.5163 45.135 23.6913C45.1475 23.7802 45.166 23.8552 45.185 23.9315C45.2015 23.996 45.2173 24.0611 45.2285 24.1374L45.2522 24.2118C45.3166 24.3848 45.3726 24.5348 45.4989 24.6664C45.6555 24.8999 45.9291 24.9605 46.166 24.9855C46.2186 24.996 46.2706 25 46.3219 25C46.7154 25 47.0799 24.7138 47.2003 24.3236C47.2891 24.1216 47.3035 23.7749 47.3206 23.3716L47.3325 23.1117C47.3608 22.5768 47.4154 22.2413 47.4897 22.1222C47.6029 21.9584 47.893 21.9321 48.2009 21.9038C48.3167 21.8933 48.4345 21.8834 48.545 21.8663L48.5996 21.859C48.7648 21.8367 48.9918 21.8051 49.178 21.713C49.4905 21.5729 49.6556 21.3314 49.6556 21.0143L49.6543 20.8945C49.6036 20.5735 49.376 20.1866 48.5773 20.1866Z" fill="#FBBF28"/>
<path d="M46.0629 28.7232C45.1109 28.2468 43.603 28.6574 42.9043 29.3916C42.4589 29.86 42.2227 30.4134 42.2227 30.989C42.2227 31.6358 42.4917 32.2476 42.9543 32.6602C43.4148 33.1214 43.9918 33.42 44.6682 33.549C44.7445 33.5779 44.83 33.5779 44.9537 33.5779C45.4063 33.5779 45.8583 33.426 46.2952 33.126C46.7301 32.8266 47.0617 32.4161 47.1801 32.0371C47.3136 31.6884 47.3321 31.3733 47.3321 31.0825C47.3314 30.0765 46.8485 29.1751 46.0629 28.7232ZM44.4662 30.5259C44.5543 30.4278 44.6767 30.3712 44.8215 30.3627L44.8122 30.1916L44.8359 30.3627C45.0228 30.3627 45.3274 30.5673 45.4379 30.8114V30.9647C45.4379 31.2358 45.3017 31.4864 45.0649 31.6529C44.9971 31.6739 44.9353 31.6838 44.8826 31.6838C44.7181 31.6838 44.5306 31.5877 44.4602 31.4502C44.3504 31.2982 44.3273 31.1022 44.3273 30.9548C44.3175 30.7923 44.3681 30.6357 44.4662 30.5259Z" fill="#FBBF28"/>
<path d="M42.9199 25.4045C42.9199 25.1269 42.8146 24.9322 42.5981 24.8085C42.433 24.7144 42.2363 24.6683 41.9961 24.6683H40.4112C40.0382 24.646 39.7789 24.5769 39.6375 24.3144C39.4888 24.0348 39.4914 23.6295 39.4934 23.3051V23.1979C39.4934 23.1012 39.4934 22.938 39.5118 22.865L39.5171 22.8235C39.5171 22.7604 39.5158 22.7123 39.5145 22.6729C39.5112 22.559 39.5112 22.5413 39.5599 22.3886C39.6283 22.063 39.7559 21.961 40.15 21.9366C40.3737 21.8945 40.6158 21.8899 40.8231 21.8899L41.3073 21.8926C41.5152 21.8728 41.8481 21.9287 42.1922 21.8136C42.4231 21.736 42.6856 21.6491 42.8113 21.3643C42.9606 21.0063 42.8422 20.5833 42.5527 20.4221C42.4218 20.3445 42.3192 20.2925 42.2264 20.2622C41.5652 20.0912 40.8402 20.0695 40.2822 20.0695C40.0191 20.0695 39.7362 20.0925 39.4631 20.1175C39.2789 20.1405 39.0967 20.1846 38.9144 20.23C38.6388 20.1846 38.3335 20.1866 38.0979 20.1412C37.5236 20.0695 36.9459 20.0695 36.3874 20.0695C35.8222 20.0695 35.3156 20.1445 34.7465 20.3103C34.5281 20.3688 34.13 20.53 33.9123 20.934C33.734 21.2656 33.6366 21.5458 33.5649 22.236C33.4932 22.7413 33.4932 22.988 33.4932 23.4808L33.4951 24.2802C33.5057 24.3519 33.5155 24.4262 33.5254 24.4992C33.58 24.917 33.6425 25.3927 33.9294 25.723C34.259 26.1401 34.7261 26.2302 35.1011 26.302C35.1761 26.3171 35.2478 26.3309 35.3255 26.3493C35.7393 26.4217 36.0959 26.4217 36.4117 26.4217H36.7163C36.9065 26.4217 37.0571 26.4217 37.2091 26.3987C37.3052 26.3987 37.4512 26.3987 37.717 26.3737C37.9782 26.35 38.1927 26.3256 38.3631 26.302C38.4894 26.2816 38.6164 26.2598 38.7263 26.2395C38.8809 26.2822 39.0394 26.3256 39.1947 26.3493C39.5862 26.4217 39.9724 26.4217 40.2822 26.4217C40.7448 26.4217 41.4323 26.4066 42.0606 26.277C42.181 26.246 42.3139 26.1881 42.4172 26.125C42.7231 25.9901 42.9199 25.7072 42.9199 25.4045ZM37.4374 24.2762C37.4538 24.4098 37.471 24.5433 37.4874 24.6854C37.3914 24.6914 37.2959 24.6914 37.1861 24.6914H36.9275C36.8736 24.6914 36.8321 24.6887 36.8189 24.6848L36.74 24.669H36.5624C36.1775 24.6466 35.9143 24.5815 35.7854 24.3065C35.6176 24.0275 35.6196 23.6209 35.6215 23.2966V23.1985C35.6215 23.1018 35.6215 22.9387 35.6446 22.8387C35.6531 22.7459 35.6531 22.6834 35.6531 22.6334C35.6531 22.5525 35.6531 22.5307 35.7012 22.4242L35.7123 22.3886C35.788 22.0307 35.9209 21.959 36.286 21.9353C36.5722 21.8702 36.7222 21.8702 37.0223 21.8702H37.5295C37.5144 21.9801 37.4999 22.1044 37.4848 22.2367C37.4361 22.5814 37.4308 22.8064 37.4255 23.0656C37.4229 23.1867 37.4203 23.3163 37.4177 23.4393C37.3894 23.5532 37.3894 23.6393 37.3894 23.6683C37.3887 23.8913 37.4131 24.0867 37.4374 24.2762Z" fill="#FBBF28"/>
<path d="M53.9771 20.2189C54.3304 20.2511 54.589 20.2662 54.7673 20.2662H55.6745L56.1752 20.2906C56.2831 20.2906 56.8667 20.3143 57.0292 20.3373C57.3246 20.361 57.5358 20.4123 57.668 20.5807C57.7391 20.7419 57.7391 20.7498 57.7391 20.9867C57.7391 21.1334 57.7391 21.3156 57.672 21.4334C57.5542 21.6183 57.4141 21.6591 57.1463 21.6828C56.9634 21.6979 56.7581 21.692 56.5614 21.6874C56.4614 21.6847 56.3621 21.6828 56.2693 21.6828H55.6357C55.1285 21.6828 54.6048 21.6828 54.1028 21.8078C53.7034 21.9413 53.4448 22.2361 53.4448 22.5584V22.7229L53.4508 22.767C53.5646 23.1953 54.0975 23.4749 54.4133 23.5032C54.8995 23.5756 55.3811 23.5986 55.8469 23.5756H56.293C56.6423 23.5756 57.2272 23.5756 57.5022 23.6664C57.57 23.6795 57.6292 23.721 57.6838 23.792C57.7582 23.8861 57.7694 23.9059 57.7871 24.0282L57.799 24.1585C57.8174 24.3539 57.8338 24.523 57.8338 24.6697C57.8338 24.9572 57.8549 25.1572 57.9891 25.6092C58.1009 25.8592 58.3174 26.0757 58.5786 26.1915C58.6812 26.231 58.7977 26.252 58.9155 26.252C59.0826 26.252 59.2424 26.2105 59.3944 26.127C59.8102 25.8401 59.9773 25.3724 60.0076 25.1612C60.0148 25.1 60.0227 25.0526 60.03 25.0046C60.0464 24.9019 60.0629 24.7993 60.0767 24.6046C60.1023 24.4493 60.1023 24.3447 60.1017 24.3059C60.1727 23.244 60.1727 22.4229 60.1727 21.3847C60.1727 21.0558 60.1596 20.8893 60.1444 20.6774L60.1227 20.3886C60.1122 20.3399 60.103 20.2787 60.0931 20.2176C60.0793 20.1274 60.0642 20.0386 60.0536 20.0031C59.9563 19.1945 59.4773 18.6524 58.7411 18.5168C58.1588 18.4083 57.8463 18.3977 57.3279 18.3793L57.145 18.3734C56.5779 18.3491 56.3173 18.3491 56.1522 18.3491C55.6936 18.3491 55.1831 18.3793 54.9048 18.3984C54.7442 18.4241 54.5988 18.4438 54.4574 18.4622C54.2041 18.4958 53.9659 18.5267 53.6574 18.5932C53.2652 18.7234 53.0225 19.0116 53.0225 19.3438C53.0225 19.3734 53.0224 19.4662 53.0547 19.5629C53.2047 20.0116 53.7067 20.1485 53.9771 20.2189Z" fill="#FBBF28"/>
<path d="M59.8715 28.3322C59.7077 28.273 59.5583 28.2625 59.4156 28.252C59.309 28.2447 59.2083 28.2388 59.107 28.2105L58.3339 28.2039C58.0221 28.2039 57.7129 28.1434 57.426 28.0257C57.3826 28.0099 57.3339 27.977 57.2819 27.9256C57.0148 27.6585 57.0023 27.4908 56.9813 27.2263V26.8045C56.9813 26.4743 56.9207 26.1743 56.7997 25.9065C56.6339 25.5762 56.374 25.3933 56.0674 25.3933C56.0056 25.3933 55.9431 25.4019 55.8977 25.413C55.67 25.4374 55.4371 25.4966 55.2851 25.7407C55.0128 26.1124 55.0154 26.5532 55.0167 26.8763L55.0174 26.9328C55.0114 27.0098 55.0081 27.073 55.0062 27.1282C54.9983 27.2861 54.9943 27.3592 54.9286 27.5565C54.8805 27.7342 54.7582 27.8717 54.5345 27.9954C54.3266 28.125 53.9002 28.148 53.437 28.1112C53.2804 28.0987 53.1206 28.0862 52.9601 28.0862C52.6489 28.0862 52.1929 28.1138 51.8034 28.354C51.5903 28.5059 51.4731 28.723 51.4731 28.9632C51.4731 29.2099 51.5731 29.402 51.7824 29.5507C52.0758 29.754 52.412 29.8178 52.7364 29.8797L52.8995 29.9106L53.0758 29.9244C53.2949 29.9415 53.4844 29.9573 53.7344 29.9573C53.9364 29.9573 54.0831 29.9639 54.2154 29.9705C54.3305 29.9764 54.4351 29.9797 54.5555 29.9797H57.4892C57.6813 29.9797 57.9201 29.9797 58.1227 29.9573C58.6241 29.9573 59.0215 29.9264 59.3978 29.8547C59.4452 29.8382 59.4978 29.8237 59.5524 29.808C59.7465 29.7533 59.9656 29.6909 60.1689 29.5316C60.3057 29.3948 60.384 29.2145 60.384 29.0342C60.384 28.6151 60.0176 28.4105 59.8715 28.3322Z" fill="#FBBF28"/>
<path d="M57.9353 32.374C57.6235 32.2319 57.2899 32.1917 57.0149 32.1707C56.1813 32.197 55.2944 32.5575 54.8063 33.0694C54.3615 33.5372 54.126 34.0898 54.126 34.6661C54.126 35.2859 54.3937 35.8971 54.88 36.3833C55.3208 36.8248 55.9195 37.1334 56.5978 37.2557H56.832C57.2814 37.2557 57.782 37.0945 58.1794 36.8228C58.5788 36.5221 58.8821 36.1406 59.0564 35.7169C59.1775 35.4274 59.2341 35.1293 59.2341 34.7826C59.2334 33.7576 58.742 32.8371 57.9353 32.374ZM56.6958 34.0411C56.9386 34.0431 57.2452 34.2339 57.2959 34.4898L57.3097 34.53C57.3169 34.5477 57.3169 34.6155 57.3169 34.6668C57.3169 34.9471 57.1728 35.1991 56.9248 35.3445C56.784 35.4379 56.4373 35.3425 56.3386 35.1524C56.2294 35.0004 56.207 34.8043 56.207 34.6668C56.207 34.378 56.3353 34.0628 56.6958 34.0411Z" fill="#FBBF28"/>
<path d="M74.2278 31.4252C73.9311 31.3338 73.5837 31.3055 73.3041 31.2831L68.7098 31.2766C68.4651 31.2766 68.2203 31.2713 67.9749 31.2654C67.4131 31.2516 66.8071 31.2345 66.3163 31.2766L66.0466 31.2739C65.8512 31.2739 65.6459 31.2851 65.4966 31.3529C65.1886 31.4377 64.8774 31.7035 64.8774 32.1069C64.8774 32.1746 64.8775 32.245 64.9071 32.3062C64.9623 32.6509 65.3077 32.795 65.588 32.9108L65.6294 32.9286C65.9242 33.0253 66.2453 33.0753 66.4762 33.101L66.8676 33.1135C67.4499 33.1319 67.9519 33.1483 68.5934 33.1483C68.921 33.1483 69.2375 33.1542 69.5526 33.1602C69.8704 33.1661 70.1882 33.1714 70.5178 33.1714H70.8698C70.9533 33.1714 71.0718 33.1674 71.202 33.1622C71.3626 33.1562 71.5455 33.1483 71.7146 33.1483H72.5126C72.6764 33.1483 72.8133 33.1306 72.9587 33.1115C73.0541 33.099 73.1554 33.0858 73.2725 33.0766C74.493 33.0115 74.7502 32.5391 74.7502 32.1529C74.7502 32.0694 74.7502 31.974 74.7153 31.9055C74.6344 31.6917 74.4719 31.5285 74.2278 31.4252Z" fill="#FBBF28"/>
<path d="M65.2559 27.8402C65.4013 27.9843 65.6013 28.0547 65.8711 28.0547C66.0836 28.0547 66.3079 27.9823 66.5244 27.9008C66.9027 27.7402 67.1349 27.5106 67.4034 27.2441C67.4751 27.1731 67.5501 27.0994 67.6356 27.0185C67.7126 26.9408 67.7665 26.8685 67.8165 26.8014C67.8731 26.7251 67.9172 26.6658 68.0113 26.5961C68.1231 26.4843 68.2383 26.379 68.354 26.2717C68.5541 26.0902 68.7606 25.9 68.9495 25.6816C69.0639 25.5671 69.1541 25.4763 69.2567 25.3947C69.4284 25.2711 69.5646 25.2618 69.6028 25.2618C69.6857 25.2618 69.8015 25.3651 69.9475 25.4967L70.0127 25.5526C70.31 25.7855 70.6127 26.0744 70.9338 26.3816C71.2831 26.7165 71.6456 27.0619 72.0266 27.358L72.1246 27.4402C72.3838 27.6586 72.7378 27.9606 73.1917 27.9606C73.4246 27.9606 73.7404 27.8468 73.8951 27.6297C74.0411 27.4244 74.1148 27.2021 74.1148 26.9659C74.1148 26.8724 74.0878 26.7599 74.0312 26.6185C73.926 26.3652 73.7418 26.1671 73.5779 25.9935C73.5378 25.95 73.499 25.9079 73.4674 25.8737C73.2417 25.5875 72.9832 25.3434 72.7338 25.1066C72.5851 24.9664 72.4397 24.8296 72.297 24.6776C72.1825 24.577 72.066 24.4796 71.9509 24.3835C71.6673 24.1453 71.3982 23.9223 71.1871 23.6618C70.8397 23.2598 70.641 22.8519 70.5476 22.3486L70.5331 22.1979C70.5114 21.9736 70.4851 21.6953 70.4259 21.4808C70.4015 21.3808 70.3772 21.3077 70.3528 21.2334L70.3285 21.1867C70.1245 20.9064 69.8488 20.7643 69.508 20.7643L69.3962 20.7696C69.1534 20.8294 68.8107 20.9525 68.6449 21.3156C68.5659 21.5077 68.5363 21.7676 68.508 22.0189C68.4916 22.1722 68.4738 22.3176 68.4481 22.4249C68.3396 22.9236 68.1481 23.2065 67.8705 23.5762C67.4869 24.0651 67.0751 24.4684 66.6402 24.8954C66.3086 25.2197 65.9658 25.5566 65.5895 25.975C65.5355 26.052 65.4862 26.1059 65.4375 26.1592C65.3809 26.2224 65.3243 26.2862 65.2513 26.3908C65.1329 26.6027 64.9717 26.8954 64.9717 27.202C64.971 27.483 65.0796 27.7165 65.2559 27.8402Z" fill="#FBBF28"/>
<path d="M79.4057 22.6248V22.8137C79.4057 22.9591 79.4103 23.1893 79.4162 23.4315C79.4228 23.6979 79.4294 23.9775 79.4294 24.1828C79.4544 24.6894 79.532 25.4184 79.9149 25.9059C80.2781 26.3349 80.6939 26.4138 81.0959 26.4895C81.157 26.5013 81.2182 26.5132 81.288 26.527C81.7465 26.5993 82.0795 26.5994 82.4643 26.5994H82.7696C83.2703 26.5994 83.6657 26.5993 84.1493 26.5763C84.3513 26.5533 84.5822 26.5289 84.8177 26.527C84.9026 26.5118 84.9888 26.4993 85.0756 26.4882C85.4184 26.4421 85.7717 26.3934 86.0375 26.1678C86.2421 26.023 86.3448 25.8335 86.3448 25.6052C86.3448 24.9769 85.904 24.823 85.4664 24.7545C85.1348 24.7131 84.673 24.721 84.2322 24.7374C84.0368 24.746 83.844 24.7526 83.6617 24.7526H83.2867C83.0815 24.7526 82.8012 24.7526 82.5124 24.7289C82.3986 24.7289 82.263 24.7131 82.1051 24.6914L82.0643 24.6868C82.0038 24.6631 81.9466 24.646 81.8933 24.6315C81.8169 24.6111 81.7683 24.5947 81.7426 24.5683C81.5525 24.3795 81.5498 23.8795 81.7189 23.7098C81.8564 23.5729 82.1137 23.5729 82.3018 23.5729H84.3434C84.4045 23.5729 84.4671 23.5736 84.5282 23.5755C84.8611 23.5828 85.2138 23.5907 85.4934 23.4157C85.8099 23.2729 86.0684 22.8591 85.9395 22.5051C85.823 22.1268 85.5467 21.8992 85.1421 21.8452C84.6901 21.7801 84.2065 21.7492 83.6624 21.7492C83.3729 21.7492 82.9755 21.7492 82.6775 21.7715C82.617 21.7715 82.563 21.7755 82.5111 21.7781C82.4275 21.7821 82.3321 21.7847 82.2735 21.7774C82.1683 21.7511 82.0656 21.7492 81.9729 21.7492C81.913 21.7307 81.8433 21.6972 81.7637 21.6465C81.6071 21.5761 81.559 21.4702 81.559 21.1814C81.5518 21.0873 81.5525 20.7728 81.8531 20.68C82.3064 20.561 82.8078 20.5452 83.1933 20.5452H83.4986C83.8736 20.5452 84.0802 20.5452 84.4605 20.5688C84.5546 20.5688 84.6539 20.5754 84.75 20.58C84.8467 20.5866 84.9408 20.5932 85.0236 20.5932C85.3204 20.5932 85.75 20.5643 86.0283 20.3156C86.2915 20.0853 86.2974 19.8136 86.2737 19.5978C86.2421 19.38 86.0928 19.1701 85.879 19.0484C85.6382 18.9188 85.4145 18.8819 85.1973 18.8451C85.1144 18.8306 85.0302 18.8168 84.944 18.7971L84.9052 18.7931C84.6197 18.7931 84.3374 18.7668 84.173 18.7504C84.0585 18.7227 83.9723 18.7227 83.8736 18.7227H83.3335C82.492 18.7227 81.5959 18.7418 80.711 18.9622C80.2156 19.0859 79.8017 19.5135 79.6031 20.107C79.5169 20.3655 79.4596 20.6708 79.4313 21.0077C79.3872 21.3478 79.3958 21.6886 79.4044 22.0169C79.4096 22.2235 79.4149 22.4262 79.4057 22.6248Z" fill="#FBBF28"/>
<path d="M87.5924 31.5324C87.3839 31.4173 87.1405 31.3989 86.9056 31.3811L86.7819 31.3719C86.6056 31.3469 86.4799 31.3469 86.2885 31.3469H86.0542C85.7003 31.3469 85.4114 31.3252 85.1713 31.2258C84.7621 31.0107 84.6779 30.6061 84.6779 30.0639V29.3132C84.6779 28.8494 84.6285 28.2731 84.2298 27.929C84.0423 27.7954 83.868 27.7336 83.6838 27.7336C83.3772 27.7336 83.1614 27.9283 82.989 28.1224C82.7087 28.4533 82.7113 28.9303 82.7127 29.2448V29.8547C82.7127 30.4922 82.6798 30.9271 82.2311 31.162C82.0686 31.264 81.781 31.2765 81.5488 31.2765H80.681C80.3073 31.2765 79.8796 31.2975 79.5474 31.5298C79.304 31.6515 79.1704 31.8719 79.1704 32.1515C79.1704 32.4068 79.2987 32.618 79.5053 32.7193C79.7718 32.8963 80.1297 32.9983 80.5718 33.0246C80.8955 33.0996 81.1159 33.097 81.4211 33.0996C81.8251 33.1233 81.9955 33.1233 82.2521 33.1233H85.8246L86.0305 33.1121C86.4016 33.0956 86.7529 33.0798 87.0595 32.9805C87.2391 32.9614 87.5813 32.8956 87.8517 32.6864C88.0175 32.5535 88.105 32.3857 88.1037 32.1831C88.0754 31.8805 87.8635 31.6199 87.5924 31.5324Z" fill="#FBBF28"/>
<path d="M99.3394 23.2059C99.2597 22.7513 99.094 22.4216 98.815 22.1683C98.5295 21.9144 97.6571 21.5828 97.1616 21.4078C96.3879 21.1321 95.5721 20.9749 94.9221 20.9749C93.9576 20.9749 93.7339 21.4091 93.7168 21.7808C93.7168 21.8427 93.7299 21.8841 93.7437 21.9157C93.7944 22.3335 94.247 22.4729 94.5089 22.5519C94.8201 22.6723 95.1905 22.723 95.451 22.7512C95.8695 22.7776 96.1557 22.8302 96.4169 22.9302C96.8136 23.0631 97.0491 23.396 97.0491 23.8223C97.0491 24.1526 96.959 24.4053 96.7656 24.598C96.4096 24.9915 95.9984 25.1513 95.3458 25.1513C94.9096 25.1513 94.4629 25.0954 93.9924 25.0349L93.6187 24.9882C93.451 24.9776 93.2753 24.9513 93.0891 24.9224C92.849 24.8855 92.6009 24.8474 92.3648 24.8474C91.8082 24.8474 91.3733 25.1145 91.1081 25.6224C90.7976 26.2422 90.6206 26.9797 90.6206 27.6475C90.6206 28.0034 90.6864 28.3705 90.8186 28.7396C91.1436 29.6305 91.9101 30.243 93.0904 30.5588C93.9332 30.8055 94.8293 30.8746 95.6195 30.9351L96.0024 30.9654H96.3682L96.3813 30.9634C96.9189 30.8779 97.0755 30.5311 97.0426 30.2397C97.013 29.8561 96.659 29.6818 96.4465 29.5778L96.3912 29.5502C96.1202 29.4502 95.8491 29.4022 95.5853 29.3541C95.4004 29.3206 95.2254 29.2897 95.0504 29.2383L95.0083 29.2298C94.4536 29.1192 93.8806 29.0048 93.5483 28.6107C93.2931 28.3337 93.0773 27.7205 93.0773 27.2731C93.0773 27.1139 93.1016 26.9909 93.1496 26.9093C93.2286 26.7692 93.4852 26.6935 93.8905 26.6935C94.48 26.6935 95.1892 26.8224 95.6122 26.8988L95.7807 26.9277C95.9267 26.9369 96.0813 26.9567 96.2399 26.9777C96.657 27.0323 97.1334 27.0948 97.565 26.9712C98.0893 26.8573 98.4597 26.5935 98.738 26.1284C98.9189 25.7672 99.0341 25.3737 99.1459 24.9908L99.1703 24.9053C99.2848 24.5421 99.39 24.1395 99.39 23.6579C99.39 23.544 99.3722 23.421 99.3499 23.2776L99.3394 23.2059Z" fill="#FBBF28"/>
<path d="M104.203 23.0926L104.2 23.0242V22.8315C104.203 22.3407 104.205 21.9525 104.056 21.4656C103.945 20.9432 103.415 20.6708 102.947 20.6708C102.667 20.6708 102.413 20.7827 102.192 21.0038L102.168 21.0347C101.864 21.5222 101.84 22.1801 101.819 22.7104L101.813 22.8611C101.813 23.0755 101.806 23.2617 101.8 23.4334C101.794 23.5802 101.789 23.717 101.789 23.8466C101.789 23.9914 101.784 24.1309 101.778 24.2749C101.772 24.4348 101.765 24.6006 101.765 24.7861V27.7422C101.765 27.985 101.783 28.2711 101.801 28.5461C101.819 28.8192 101.836 29.0758 101.836 29.2909C101.836 29.66 101.88 30.0909 101.954 30.46C101.989 30.7706 102.057 31.0147 102.163 31.2048C102.317 31.4825 102.54 31.618 102.9 31.645H103.08L103.095 31.6423C103.565 31.5548 103.879 31.1272 103.984 30.7311C104.083 30.2087 104.13 29.8159 104.199 28.8916C104.199 28.562 104.211 28.2271 104.222 27.8941C104.234 27.5639 104.245 27.2362 104.245 26.9204V24.6217C104.247 24.1019 104.226 23.6117 104.203 23.0926Z" fill="#FBBF28"/>
</svg>
