<svg width="10" height="14" viewBox="0 0 10 14" fill="none" xmlns="http://www.w3.org/2000/svg">
<g clip-path="url(#clip0)">
<path d="M1.01006 1.76842C0.812929 1.56842 0.703411 1.30526 0.714363 1.03158C0.714363 0.757894 0.82388 0.505262 1.03196 0.305262C1.2291 0.115788 1.50289 -1.61526e-06 1.78764 -1.59037e-06C2.07238 -1.56547e-06 2.34618 0.0947365 2.55426 0.28421L8.75296 6.2421C8.85152 6.33684 8.92818 6.45263 8.98294 6.57895C9.0377 6.70526 9.07056 6.8421 9.07056 6.97895C9.07056 7.11579 9.0377 7.25263 8.98294 7.38947C8.92818 7.51579 8.85152 7.63158 8.75296 7.72632L2.55426 13.6842C2.45569 13.7789 2.33522 13.8632 2.2038 13.9158C2.06143 13.9684 1.91906 14 1.77668 14C1.63431 14 1.48099 13.9789 1.34956 13.9263C1.21814 13.8737 1.09767 13.7895 0.988156 13.6947C0.88959 13.6 0.812928 13.4737 0.758169 13.3474C0.692458 13.2211 0.670555 13.0842 0.670555 12.9368C0.670555 12.8 0.70341 12.6632 0.758169 12.5368C0.812928 12.4105 0.900542 12.2947 1.01006 12.1895L6.43118 6.97895L5.40172 6L1.01006 1.76842Z" fill="#888888"/>
</g>
<defs>
<clipPath id="clip0">
<rect width="8.4" height="14" fill="white" transform="translate(9.07056 14) rotate(-180)"/>
</clipPath>
</defs>
</svg>
