<svg width="32" height="32" viewBox="0 0 32 32" fill="none" xmlns="http://www.w3.org/2000/svg">
<circle cx="15.5" cy="15.5" r="15.5" fill="white"/>
<path d="M15.523 31.0461C6.96296 31.0461 0 24.0824 0 15.523C0 6.96371 6.96296 0 15.523 0C24.0831 0 31.0461 6.96371 31.0461 15.523C31.0461 24.0824 24.0831 31.0461 15.523 31.0461ZM15.523 2.25266C8.20567 2.25266 2.25266 8.20567 2.25266 15.523C2.25266 22.8404 8.20567 28.7934 15.523 28.7934C22.8404 28.7934 28.7934 22.8404 28.7934 15.523C28.7934 8.20567 22.8404 2.25266 15.523 2.25266Z" fill="#555555"/>
<path d="M21.9747 23.2773C21.8267 23.2773 21.6802 23.2482 21.5435 23.1917C21.4068 23.1351 21.2826 23.0522 21.178 22.9476L8.27476 10.0437C8.16719 9.93976 8.08138 9.81548 8.02235 9.67806C7.96332 9.54064 7.93225 9.39285 7.93095 9.24329C7.92965 9.09374 7.95815 8.94543 8.01478 8.807C8.07141 8.66858 8.15505 8.54283 8.2608 8.43707C8.36656 8.33132 8.49231 8.24768 8.63073 8.19105C8.76916 8.13442 8.91747 8.10592 9.06702 8.10722C9.21657 8.10852 9.36437 8.13959 9.50179 8.19862C9.6392 8.25765 9.76349 8.34346 9.86739 8.45103L22.7713 21.355C22.9287 21.5126 23.0358 21.7132 23.0792 21.9317C23.1226 22.1501 23.1002 22.3765 23.0149 22.5822C22.9297 22.7879 22.7853 22.9637 22.6002 23.0874C22.415 23.2112 22.1973 23.2772 21.9747 23.2773Z" fill="#555555"/>
<path d="M9.07065 23.2774C8.84803 23.2772 8.63046 23.2111 8.44541 23.0873C8.26037 22.9635 8.11616 22.7877 8.03099 22.582C7.94583 22.3763 7.92352 22.15 7.9669 21.9316C8.01028 21.7133 8.11739 21.5127 8.27471 21.3552L21.1779 8.4512C21.3891 8.23991 21.6756 8.12116 21.9743 8.12109C22.2731 8.12102 22.5596 8.23963 22.7709 8.45083C22.9822 8.66202 23.101 8.94851 23.101 9.24725C23.1011 9.546 22.9825 9.83254 22.7713 10.0438L9.86734 22.9478C9.7627 23.0524 9.63848 23.1353 9.50178 23.1919C9.36509 23.2484 9.21859 23.2775 9.07065 23.2774Z" fill="#555555"/>
</svg>
