<svg width="32" height="32" viewBox="0 0 32 32" fill="none" xmlns="http://www.w3.org/2000/svg">
<path d="M15.5 31C24.0604 31 31 24.0604 31 15.5C31 6.93959 24.0604 0 15.5 0C6.93959 0 0 6.93959 0 15.5C0 24.0604 6.93959 31 15.5 31Z" fill="white"/>
<path d="M15.523 31.0461C6.96296 31.0461 0 24.0824 0 15.523C0 6.96371 6.96296 0 15.523 0C24.0831 0 31.0461 6.96371 31.0461 15.523C31.0461 24.0824 24.0831 31.0461 15.523 31.0461ZM15.523 2.25266C8.20567 2.25266 2.25266 8.20567 2.25266 15.523C2.25266 22.8404 8.20567 28.7934 15.523 28.7934C22.8404 28.7934 28.7934 22.8404 28.7934 15.523C28.7934 8.20567 22.8404 2.25266 15.523 2.25266Z" fill="#FFB800"/>
<path d="M21.9747 23.2775C21.8267 23.2775 21.6802 23.2484 21.5435 23.1919C21.4068 23.1353 21.2826 23.0524 21.178 22.9478L8.27476 10.0439C8.16719 9.94 8.08138 9.81572 8.02235 9.6783C7.96332 9.54088 7.93225 9.39309 7.93095 9.24353C7.92965 9.09398 7.95815 8.94567 8.01478 8.80724C8.07141 8.66882 8.15505 8.54307 8.2608 8.43731C8.36656 8.33156 8.49231 8.24792 8.63073 8.19129C8.76916 8.13466 8.91747 8.10616 9.06702 8.10746C9.21657 8.10876 9.36437 8.13983 9.50179 8.19886C9.6392 8.25789 9.76349 8.3437 9.86739 8.45127L22.7713 21.3552C22.9287 21.5128 23.0358 21.7134 23.0792 21.9319C23.1226 22.1503 23.1002 22.3767 23.0149 22.5824C22.9297 22.7881 22.7853 22.9639 22.6002 23.0876C22.415 23.2114 22.1973 23.2774 21.9747 23.2775Z" fill="#FFB800"/>
<path d="M9.07065 23.2774C8.84803 23.2772 8.63046 23.2111 8.44541 23.0873C8.26037 22.9635 8.11616 22.7877 8.03099 22.582C7.94583 22.3763 7.92352 22.15 7.9669 21.9316C8.01028 21.7133 8.11739 21.5127 8.27471 21.3552L21.1779 8.4512C21.3891 8.23991 21.6756 8.12116 21.9743 8.12109C22.2731 8.12102 22.5596 8.23963 22.7709 8.45083C22.9822 8.66202 23.101 8.94851 23.101 9.24725C23.1011 9.546 22.9825 9.83254 22.7713 10.0438L9.86734 22.9478C9.7627 23.0524 9.63848 23.1353 9.50178 23.1919C9.36509 23.2484 9.21859 23.2775 9.07065 23.2774Z" fill="#FFB800"/>
</svg>
