<svg xmlns="http://www.w3.org/2000/svg" xmlns:xlink="http://www.w3.org/1999/xlink" width="18" height="18" viewBox="0 0 18 18">
  <defs>
    <clipPath id="clip-path">
      <rect width="18" height="18" fill="none"/>
    </clipPath>
  </defs>
  <g id="반복_그리드_3" data-name="반복 그리드 3" clip-path="url(#clip-path)">
    <g>
      <circle id="타원_668" data-name="타원 668" cx="9" cy="9" r="9" fill="#60584c"/>
      <path id="패스_6022" data-name="패스 6022" d="M229.934,413.781l-.1-.057a1.755,1.755,0,0,0-1.38-.411,2.67,2.67,0,0,0-1.206.4s0-.009,0-.013a4.5,4.5,0,0,1,.035-.473,4.4,4.4,0,0,0,.036-.481,1.083,1.083,0,0,0-.076-.437.09.09,0,0,0-.086-.053,1.363,1.363,0,0,0-.556.174l-.042.088a3.437,3.437,0,0,1-.082.711s-.022.058-.022.058a8.334,8.334,0,0,0-.007,1.809c.007.052.111.13.192.158a1.258,1.258,0,0,0,.524-.1l.061-.009a.088.088,0,0,0,.077-.1l0-.149a1.523,1.523,0,0,1,1.131-1.062.8.8,0,0,1,.751.232.946.946,0,0,1-.122.728,1.567,1.567,0,0,1-.86.649,3.43,3.43,0,0,1-1.316.176l-.484-.313a7.051,7.051,0,0,0-1.38-.786,1.646,1.646,0,0,1-.313-.214l-.048-.038c-.266-.2-.772-.527-1.18-.787l-.219-.14c0-.015,0-.044,0-.044s.267-.159.267-.159a2.776,2.776,0,0,0,.559-.35c-.007.008.047-.027.047-.027l.887-.481a10.954,10.954,0,0,0,2.323-1.459s.025-.076.025-.076l.011-.068a.457.457,0,0,0,.008-.285.1.1,0,0,0-.069-.065,1.978,1.978,0,0,0-1.37.606,1.23,1.23,0,0,1-.286.189l-.071.038c-.512.279-1.666.964-2.27,1.334a18.83,18.83,0,0,1,.307-2.243l-.016-.088-.062-.111-.047-.08-.014,0a.39.39,0,0,0-.291-.017l-.121.042-.16.056a.087.087,0,0,0-.067.054,9.018,9.018,0,0,0-.586,2.643,14.116,14.116,0,0,0-1.37-.726l-.008,0-.031-.007a1,1,0,0,1-.319-.142l-.219-.135-.335-.205-.088-.019a1.047,1.047,0,0,0-.5.322.085.085,0,0,0-.015.052.258.258,0,0,0,.015.075l.015.066.016.04a4.812,4.812,0,0,0,.963.624l.46.233.705.369s.121.091.121.091l.083.046.014.008-1.281.82-.675.427a3.966,3.966,0,0,1-.388.179.549.549,0,0,0-.3.239l-.018.037.018.025.051.037s.069.043.069.043l.074.049.07.01a1.822,1.822,0,0,0,.622-.2c.3-.128,1.121-.6,1.47-.8l.15-.086a.336.336,0,0,0,.19-.089,1.885,1.885,0,0,1,.316-.183l.105-.056c0,.015,0,.038,0,.038a13.182,13.182,0,0,0,.194,2.344l0,.01.012.023a2.5,2.5,0,0,1,.181.538l.134.428s.038.04.038.04a.916.916,0,0,0,.463.117l.039,0,.024-.053a.924.924,0,0,0,.018-.2c0-.079-.006-.165-.014-.27l-.01-.155c-.049-.715-.1-1.749-.1-2.436,0-.019,0-.036,0-.055l.682.412a16.386,16.386,0,0,0,3.237,1.709.131.131,0,0,0,.125-.027l.133-.082.025-.009a.225.225,0,0,0,.089-.19,3.3,3.3,0,0,0,2.285-.956,1.325,1.325,0,0,0,.3-.829.685.685,0,0,0-.178-.508" transform="translate(-215.112 -404.772)" fill="#f8b500"/>
    </g>
  </g>
</svg>
