<svg xmlns="http://www.w3.org/2000/svg" width="18.142" height="18.143" viewBox="0 0 18.142 18.143">
  <g id="그룹_7829" data-name="그룹 7829" transform="translate(-137 -701)">
    <g id="그룹_7828" data-name="그룹 7828" transform="translate(-47.636 455.431)">
      <path id="패스_8533" data-name="패스 8533" d="M201.075,263.712H186.34a1.7,1.7,0,0,1-1.7-1.7V247.273a1.7,1.7,0,0,1,1.7-1.7h14.735a1.7,1.7,0,0,1,1.7,1.7v14.735a1.7,1.7,0,0,1-1.7,1.7" transform="translate(0 0)" fill="#fae100"/>
      <path id="패스_8534" data-name="패스 8534" d="M221.828,271.663a2.986,2.986,0,0,0-1.641-5.48h-5a.173.173,0,0,0-.173.173V276.97a.173.173,0,0,0,.173.174h5a2.986,2.986,0,0,0,1.641-5.481m-2.457,2.495h-.94v-4.989h.94Z" transform="translate(-25.083 -17.023)" fill="#1e1e1e"/>
    </g>
  </g>
</svg>
