<svg xmlns="http://www.w3.org/2000/svg" xmlns:xlink="http://www.w3.org/1999/xlink" width="18" height="17.997" viewBox="0 0 18 17.997">
  <defs>
    <clipPath id="clip-path">
      <rect width="18" height="17.997" fill="none"/>
    </clipPath>
  </defs>
  <g id="반복_그리드_1" data-name="반복 그리드 1" clip-path="url(#clip-path)">
    <g>
      <path id="패스_5985" data-name="패스 5985" d="M182.228,117.182a9,9,0,1,1-9-9A9,9,0,0,1,182.228,117.182Z" transform="translate(-164.228 -108.182)" fill="#df2534"/>
      <path id="패스_5987" data-name="패스 5987" d="M172.113,135.549a1.416,1.416,0,0,0-.945-.174,3.019,3.019,0,0,0,.928-2.041,1.6,1.6,0,0,0-.009-.194.934.934,0,0,0-.545-.877c-.313-.117-.886-.058-1.8.874l-.547.613a4.5,4.5,0,0,0-.833,1.961,11.467,11.467,0,0,0,.328,4.442,1.044,1.044,0,0,0,.545.686,1.237,1.237,0,0,0,1.047-.194l.084-.042.325-.145.316-.139.384-.169a2.735,2.735,0,0,0,.789-.43,2.281,2.281,0,0,0,.71-1.088,3.641,3.641,0,0,0,.134-.734,3.426,3.426,0,0,0-.037-.988A1.962,1.962,0,0,0,172.113,135.549Zm-2.921,1.151c0,.006.017.2.017.2a.1.1,0,0,0,.062.1.1.1,0,0,0,.113-.022,1.459,1.459,0,0,1,1.278-.4c.327.113.548.45.664,1a1.672,1.672,0,0,1-1.052,1.943l-.017.008-.634.311a.1.1,0,0,1-.075,0c-.039-.02-.05-.045-.077-.114a13.42,13.42,0,0,1-.417-4.825.827.827,0,0,1,.161-.375l.533-.568.059-.065c.289-.281.561-.422.708-.361.122.052.152.247.153.4a3.566,3.566,0,0,1-1.411,2.591A.207.207,0,0,0,169.193,136.7Z" transform="translate(-167.663 -128.581)" fill="#fff"/>
      <path id="패스_5988" data-name="패스 5988" d="M204.342,116.82c-.178-.611-.469-.739-.553-.767a4.861,4.861,0,0,0-2.324-.159,4.5,4.5,0,0,0-2.816,1.707,4.213,4.213,0,0,0-.758,3.277,4.1,4.1,0,0,0,1.735,2.768,5.292,5.292,0,0,0,4.082.631,5.022,5.022,0,0,0,2.254-1.058.918.918,0,0,0,.311-.717,2.6,2.6,0,0,0-.113-.678c-.034-.125-.089-.163-.177-.163-.064,0-.131.074-.144.089a3.346,3.346,0,0,1-1.93,1.02c-2.13.409-3.768-.585-4.174-2.535a2.9,2.9,0,0,1,.411-2.282,2.962,2.962,0,0,1,2.041-1.191,3.687,3.687,0,0,1,1.95.239S204.4,117.075,204.342,116.82Z" transform="translate(-192.737 -114.653)" fill="#fff"/>
    </g>
  </g>
</svg>
