<svg xmlns="http://www.w3.org/2000/svg" xmlns:xlink="http://www.w3.org/1999/xlink" width="18" height="18" viewBox="0 0 18 18">
  <defs>
    <clipPath id="clip-path">
      <rect width="18" height="18" fill="none"/>
    </clipPath>
  </defs>
  <g id="반복_그리드_2" data-name="반복 그리드 2" clip-path="url(#clip-path)">
    <g transform="translate(-1 -1)">
      <circle id="타원_668" data-name="타원 668" cx="9" cy="9" r="9" transform="translate(1 1)" fill="#e30413"/>
      <path id="패스_5906" data-name="패스 5906" d="M242.8,347.018a.481.481,0,1,1,.021,0H242.8" transform="translate(-234.312 -333.018)" fill="#fff"/>
      <path id="패스_5907" data-name="패스 5907" d="M244.88,298.635a.669.669,0,0,0-.505.2,2.52,2.52,0,0,0-.426,1.725,7.963,7.963,0,0,0,1.01,3.992,1.734,1.734,0,0,0,.4.39.862.862,0,0,0,.521.182,1.133,1.133,0,0,0,.2-.02,2.786,2.786,0,0,0,1.393-1.285.334.334,0,0,1,.286-.163.328.328,0,0,1,.179.054.347.347,0,0,1,.149.218.357.357,0,0,1-.043.263,3.339,3.339,0,0,1-1.822,1.6l-.016,0a1.823,1.823,0,0,1-.335.032,1.524,1.524,0,0,1-.89-.3,2.413,2.413,0,0,1-.556-.544c-1.075-1.429-1.148-4.108-1.153-4.409a3.235,3.235,0,0,1,.625-2.232,1.315,1.315,0,0,1,.977-.406h.063a1.317,1.317,0,0,1,.979.406,3.237,3.237,0,0,1,.625,2.232,7.4,7.4,0,0,1-.888,3.472.337.337,0,0,1-.29.17.326.326,0,0,1-.173-.05.357.357,0,0,1-.116-.479,6.222,6.222,0,0,0,.792-3.125,2.521,2.521,0,0,0-.426-1.725.667.667,0,0,0-.5-.2Z" transform="translate(-235.096 -291.938)" fill="#fff"/>
    </g>
  </g>
</svg>
