<svg xmlns="http://www.w3.org/2000/svg" xmlns:xlink="http://www.w3.org/1999/xlink" width="18" height="18" viewBox="0 0 18 18">
  <defs>
    <clipPath id="clip-path">
      <rect width="18" height="18" fill="none"/>
    </clipPath>
  </defs>
  <g id="반복_그리드_3" data-name="반복 그리드 3" transform="translate(0 0)" clip-path="url(#clip-path)">
    <g transform="translate(-134 -545.58)">
      <circle id="타원_668" data-name="타원 668" cx="9" cy="9" r="9" transform="translate(134 545.58)" fill="#008375"/>
      <path id="패스_5989" data-name="패스 5989" d="M61.267,203.993a1.735,1.735,0,0,0-.124-.423,2.081,2.081,0,0,0-.838-.971,1.883,1.883,0,0,0-1.941.012,1.708,1.708,0,0,0-.64.685,1.989,1.989,0,0,0-.121.3,2.105,2.105,0,0,0,.133,1.639.833.833,0,0,0,.392.342.569.569,0,0,0,.508-.04.539.539,0,0,0,.19-.568,1.491,1.491,0,0,1,.018-.793.625.625,0,0,1,.141-.226.527.527,0,0,1,.134-.092.564.564,0,0,1,.335-.055.644.644,0,0,1,.451.368,1.491,1.491,0,0,1,.122.587,8.841,8.841,0,0,1-.391,2.627c-.023.087-.047.173-.071.259-.02.067-.053.152-.011.216a.166.166,0,0,0,.078.06c.13.053.236-.027.323-.115a4.681,4.681,0,0,0,1.069-1.869,5.943,5.943,0,0,0,.2-.783,3.416,3.416,0,0,0,.039-1.161" transform="translate(83.704 351.325)" fill="#fff"/>
      <path id="패스_5990" data-name="패스 5990" d="M60.65,196.44a.223.223,0,0,0-.242-.214,1.169,1.169,0,0,0-.361.114,14.624,14.624,0,0,1-7.193.679c-.408-.059-.821-.141-1.231-.205-.256-.04-.51-.1-.769-.117a.927.927,0,0,0-.673.129.711.711,0,0,0-.085.842,1.9,1.9,0,0,0,.731.708,1.776,1.776,0,0,0,.96.327q1.365-.086,2.724-.263a18.225,18.225,0,0,0,4.611-.988,5.819,5.819,0,0,0,1.348-.756c.073-.056.179-.149.179-.255" transform="translate(88 354.826)" fill="#fff"/>
      <path id="패스_5991" data-name="패스 5991" d="M59.756,193.69a.889.889,0,0,0,1.779,0,.5.5,0,0,0-.048-.213c-.076-.162-.162-.24-.153-.434.011-.262-.324-.265-.5-.265a1.307,1.307,0,0,0-.583.117.9.9,0,0,0-.349.314.885.885,0,0,0-.141.46c0,.007,0,.014,0,.02" transform="translate(82.41 356.802)" fill="#fff"/>
    </g>
  </g>
</svg>
