<svg xmlns="http://www.w3.org/2000/svg" xmlns:xlink="http://www.w3.org/1999/xlink" width="18" height="18" viewBox="0 0 18 18">
  <defs>
    <clipPath id="clip-path">
      <rect width="18" height="18" fill="none"/>
    </clipPath>
  </defs>
  <g id="반복_그리드_4" data-name="반복 그리드 4" clip-path="url(#clip-path)">
    <g>
      <circle id="타원_668" data-name="타원 668" cx="9" cy="9" r="9" fill="#eee"/>
      <path id="패스_6004" data-name="패스 6004" d="M41.414,327.588a.205.205,0,0,0,.045-.12v-.6h-.352v0h-.178v.227h.124v.262a.119.119,0,0,1-.133.125s-.127,0-.127-.12v-.8c0-.12.127-.12.127-.12a.119.119,0,0,1,.133.126v.093h.406v-.2c0-.137-.171-.233-.171-.233a.666.666,0,0,0-.279-.066H40.8a.48.48,0,0,0-.282.09.278.278,0,0,0-.13.221v.986a.278.278,0,0,0,.13.221.481.481,0,0,0,.282.09H41a23.9,23.9,0,0,1-5.14,1.362c-4.413.7-8.163.313-8.377-.875-.113-.629.788-1.354,2.316-2a.279.279,0,0,0-.126.218v.221a.336.336,0,0,0,.139.272c.041.027.371.2.371.2a.227.227,0,0,1,.155.158.132.132,0,0,1-.139.15.138.138,0,0,1-.133-.15v-.1h-.434v.107a.373.373,0,0,0,.146.335.94.94,0,0,0,.447.1.782.782,0,0,0,.412-.12.32.32,0,0,0,.133-.224V327.2a.363.363,0,0,0-.209-.311l-.365-.179c-.136-.051-.12-.146-.12-.146,0-.12.127-.12.127-.12a.119.119,0,0,1,.133.126v.093h.406v-.2c0-.137-.171-.233-.171-.233a.667.667,0,0,0-.279-.066h-.206a.5.5,0,0,0-.089.011,24.035,24.035,0,0,1,5.092-1.342c4.413-.7,8.163-.313,8.377.875.106.591-.684,1.267-2.048,1.885Zm-5.172-1.13c0-.137-.171-.233-.171-.233a.667.667,0,0,0-.279-.066h-.206a.48.48,0,0,0-.282.09.277.277,0,0,0-.13.221v.221a.336.336,0,0,0,.139.272c.041.027.371.2.371.2a.226.226,0,0,1,.155.158.132.132,0,0,1-.139.15.138.138,0,0,1-.133-.15v-.1h-.434v.107a.373.373,0,0,0,.146.335.94.94,0,0,0,.447.1.782.782,0,0,0,.412-.12.32.32,0,0,0,.133-.224V327.2a.363.363,0,0,0-.209-.311l-.365-.179c-.136-.051-.12-.146-.12-.146,0-.12.127-.12.127-.12a.119.119,0,0,1,.133.126v.093h.406v-.2Zm-4.092-.26h-.7l-.266,1.482h.431l.184-1.165.184,1.165h.437l-.273-1.482Zm1.16,1.482v-1.117l.254,1.117h.431l.254-1.112v1.112c-.025.006.393,0,.393,0V326.2c0,.006-.666,0-.666,0l-.2.843-.2-.843h-.665v1.482Zm6.5-1.482H39.42v.9l-.437-.9h-.5v1.482h.393v-.885l.431.885h.507v0m-2.593-.341V326.2h-.45v1.129s-.025.436.564.436c.615,0,.577-.436.577-.436V326.2h-.45v1.141s0,.132-.12.132a.121.121,0,0,1-.12-.132Z" transform="translate(-26.471 -318.237)" fill="#003189"/>
    </g>
  </g>
</svg>
