<svg xmlns="http://www.w3.org/2000/svg" xmlns:xlink="http://www.w3.org/1999/xlink" width="18" height="18" viewBox="0 0 18 18">
  <defs>
    <clipPath id="clip-path">
      <path id="패스_6088" data-name="패스 6088" d="M75.027,340.14a8.866,8.866,0,1,0-8.862-8.866A8.867,8.867,0,0,0,75.027,340.14Z" transform="translate(-66.165 -322.408)" fill="none"/>
    </clipPath>
  </defs>
  <g id="그룹_5059" data-name="그룹 5059" transform="translate(0)">
    <path id="패스_6024" data-name="패스 6024" d="M75.164,340.163a8.878,8.878,0,1,0-9-8.877A8.941,8.941,0,0,0,75.164,340.163Z" transform="translate(-66.165 -322.408)" fill="#006abd"/>
    <g id="그룹_5040" data-name="그룹 5040" transform="translate(0 0.245)" clip-path="url(#clip-path)">
      <g id="그룹_5039" data-name="그룹 5039" transform="translate(-0.51 2.719)">
        <g id="그룹_5038" data-name="그룹 5038">
          <path id="패스_6025" data-name="패스 6025" d="M74.458,338.543c3.892,0,7.235,1.084,8.666,2.625a9.033,9.033,0,0,0,.739-3.585,9.41,9.41,0,0,0-18.816,0,8.967,8.967,0,0,0,.745,3.585C67.219,339.628,70.562,338.543,74.458,338.543Z" transform="translate(-65.046 -328.375)" fill="#006abd"/>
          <path id="패스_6026" data-name="패스 6026" d="M74.484,338.647c3.882,0,7.217,1.075,8.643,2.6a8.922,8.922,0,0,0,.737-3.556,9.387,9.387,0,0,0-18.767,0,8.857,8.857,0,0,0,.743,3.556C67.264,339.723,70.6,338.647,74.484,338.647Z" transform="translate(-65.074 -328.469)" fill="#006cbe"/>
          <path id="패스_6027" data-name="패스 6027" d="M74.51,338.751c3.873,0,7.2,1.067,8.621,2.584a8.809,8.809,0,0,0,.735-3.528,9.364,9.364,0,0,0-18.719,0,8.745,8.745,0,0,0,.741,3.528C67.308,339.818,70.634,338.751,74.51,338.751Z" transform="translate(-65.101 -328.563)" fill="#006ec0"/>
          <path id="패스_6028" data-name="패스 6028" d="M74.536,338.855c3.863,0,7.18,1.058,8.6,2.562a8.69,8.69,0,0,0,.733-3.5,9.341,9.341,0,0,0-18.67,0,8.627,8.627,0,0,0,.739,3.5C67.353,339.913,70.671,338.855,74.536,338.855Z" transform="translate(-65.129 -328.657)" fill="#0070c1"/>
          <path id="패스_6029" data-name="패스 6029" d="M74.562,338.959c3.853,0,7.162,1.049,8.577,2.541a8.57,8.57,0,0,0,.731-3.47,9.318,9.318,0,0,0-18.622,0,8.515,8.515,0,0,0,.737,3.47C67.4,340.008,70.707,338.959,74.562,338.959Z" transform="translate(-65.156 -328.751)" fill="#0072c3"/>
          <path id="패스_6030" data-name="패스 6030" d="M74.588,339.063c3.843,0,7.143,1.04,8.554,2.52a8.455,8.455,0,0,0,.73-3.442,9.3,9.3,0,0,0-18.574,0,8.408,8.408,0,0,0,.735,3.442C67.443,340.1,70.743,339.063,74.588,339.063Z" transform="translate(-65.184 -328.845)" fill="#0074c4"/>
          <path id="패스_6031" data-name="패스 6031" d="M74.614,339.167c3.833,0,7.125,1.031,8.532,2.5a8.338,8.338,0,0,0,.728-3.413,9.273,9.273,0,0,0-18.526,0,8.3,8.3,0,0,0,.733,3.413C67.487,340.2,70.779,339.167,74.614,339.167Z" transform="translate(-65.211 -328.94)" fill="#0076c6"/>
          <path id="패스_6032" data-name="패스 6032" d="M74.641,339.271c3.823,0,7.106,1.022,8.51,2.477a8.227,8.227,0,0,0,.726-3.384,9.251,9.251,0,0,0-18.477,0,8.181,8.181,0,0,0,.731,3.384C67.532,340.293,70.815,339.271,74.641,339.271Z" transform="translate(-65.239 -329.033)" fill="#0078c7"/>
          <path id="패스_6033" data-name="패스 6033" d="M74.667,339.375c3.813,0,7.088,1.013,8.488,2.456a8.11,8.11,0,0,0,.724-3.355,9.229,9.229,0,0,0-18.429,0,8.074,8.074,0,0,0,.729,3.355C67.577,340.388,70.852,339.375,74.667,339.375Z" transform="translate(-65.266 -329.127)" fill="#007ac9"/>
          <path id="패스_6034" data-name="패스 6034" d="M74.693,339.478c3.8,0,7.069,1,8.466,2.436a8,8,0,0,0,.723-3.326,9.207,9.207,0,0,0-18.381,0,7.969,7.969,0,0,0,.727,3.326C67.622,340.483,70.888,339.478,74.693,339.478Z" transform="translate(-65.294 -329.221)" fill="#007ccb"/>
          <path id="패스_6035" data-name="패스 6035" d="M74.719,339.583c3.793,0,7.051,1,8.443,2.414a7.882,7.882,0,0,0,.721-3.3c0-4.679-4.1-8.6-9.165-8.6s-9.168,3.917-9.168,8.6a7.861,7.861,0,0,0,.725,3.3C67.666,340.579,70.924,339.583,74.719,339.583Z" transform="translate(-65.321 -329.316)" fill="#007ecc"/>
          <path id="패스_6036" data-name="패스 6036" d="M74.745,339.686c3.783,0,7.033.987,8.421,2.393a7.776,7.776,0,0,0,.719-3.269c0-4.638-4.093-8.535-9.141-8.535s-9.143,3.9-9.143,8.535a7.748,7.748,0,0,0,.723,3.269C67.711,340.673,70.96,339.686,74.745,339.686Z" transform="translate(-65.349 -329.409)" fill="#0080ce"/>
          <path id="패스_6037" data-name="패스 6037" d="M74.771,339.79c3.773,0,7.014.978,8.4,2.371a7.661,7.661,0,0,0,.718-3.24c0-4.6-4.082-8.474-9.117-8.474s-9.119,3.876-9.119,8.474a7.64,7.64,0,0,0,.721,3.24C67.756,340.768,71,339.79,74.771,339.79Z" transform="translate(-65.376 -329.504)" fill="#0082cf"/>
          <path id="패스_6038" data-name="패스 6038" d="M74.8,339.894c3.763,0,7,.97,8.377,2.351a7.551,7.551,0,0,0,.716-3.212c0-4.557-4.071-8.412-9.093-8.412s-9.094,3.856-9.094,8.412a7.537,7.537,0,0,0,.719,3.212C67.8,340.864,71.033,339.894,74.8,339.894Z" transform="translate(-65.404 -329.598)" fill="#0084d1"/>
          <path id="패스_6039" data-name="패스 6039" d="M74.823,340c3.754,0,6.978.961,8.355,2.329a7.438,7.438,0,0,0,.714-3.183c0-4.516-4.06-8.351-9.069-8.351s-9.07,3.836-9.07,8.351a7.432,7.432,0,0,0,.717,3.183C67.845,340.958,71.069,340,74.823,340Z" transform="translate(-65.431 -329.691)" fill="#0087d2"/>
          <path id="패스_6040" data-name="패스 6040" d="M74.849,340.1c3.744,0,6.959.951,8.333,2.308a7.325,7.325,0,0,0,.713-3.154c0-4.475-4.049-8.29-9.045-8.29s-9.045,3.816-9.045,8.29a7.32,7.32,0,0,0,.714,3.154C67.89,341.053,71.106,340.1,74.849,340.1Z" transform="translate(-65.459 -329.785)" fill="#0089d4"/>
          <path id="패스_6041" data-name="패스 6041" d="M74.875,340.206c3.734,0,6.941.942,8.311,2.286a7.22,7.22,0,0,0,.711-3.125c0-4.434-4.038-8.229-9.021-8.229s-9.021,3.8-9.021,8.229a7.214,7.214,0,0,0,.713,3.125C67.935,341.149,71.141,340.206,74.875,340.206Z" transform="translate(-65.486 -329.88)" fill="#008cd6"/>
          <path id="패스_6042" data-name="패스 6042" d="M74.9,340.31c3.724,0,6.922.934,8.288,2.266a7.114,7.114,0,0,0,.709-3.1c0-4.393-4.028-8.168-9-8.168s-9,3.775-9,8.168a7.114,7.114,0,0,0,.71,3.1C67.98,341.244,71.178,340.31,74.9,340.31Z" transform="translate(-65.514 -329.974)" fill="#008ed7"/>
          <path id="패스_6043" data-name="패스 6043" d="M74.927,340.414c3.714,0,6.9.925,8.266,2.245a7,7,0,0,0,.708-3.068c0-4.352-4.017-8.107-8.974-8.107s-8.972,3.755-8.972,8.107a7.01,7.01,0,0,0,.709,3.068C68.024,341.339,71.214,340.414,74.927,340.414Z" transform="translate(-65.541 -330.067)" fill="#0090d9"/>
          <path id="패스_6044" data-name="패스 6044" d="M74.954,340.518c3.7,0,6.885.916,8.244,2.223A6.893,6.893,0,0,0,83.9,339.7c0-4.311-4.006-8.045-8.949-8.045s-8.948,3.734-8.948,8.045a6.9,6.9,0,0,0,.706,3.039C68.069,341.434,71.25,340.518,74.954,340.518Z" transform="translate(-65.569 -330.162)" fill="#0093da"/>
          <path id="패스_6045" data-name="패스 6045" d="M74.98,340.622c3.694,0,6.867.908,8.222,2.2a6.8,6.8,0,0,0,.7-3.01c0-4.27-3.995-7.984-8.926-7.984s-8.923,3.714-8.923,7.984a6.8,6.8,0,0,0,.7,3.01C68.114,341.529,71.287,340.622,74.98,340.622Z" transform="translate(-65.596 -330.256)" fill="#0095dc"/>
          <path id="패스_6046" data-name="패스 6046" d="M75.006,340.726c3.684,0,6.848.9,8.2,2.181a6.689,6.689,0,0,0,.7-2.981c0-4.229-3.984-7.923-8.9-7.923s-8.9,3.693-8.9,7.923a6.7,6.7,0,0,0,.7,2.981C68.159,341.624,71.323,340.726,75.006,340.726Z" transform="translate(-65.624 -330.35)" fill="#0098de"/>
          <path id="패스_6047" data-name="패스 6047" d="M75.032,340.829c3.675,0,6.83.889,8.177,2.16a6.586,6.586,0,0,0,.7-2.953c0-4.188-3.973-7.862-8.878-7.862s-8.874,3.673-8.874,7.862a6.6,6.6,0,0,0,.7,2.953C68.2,341.719,71.359,340.829,75.032,340.829Z" transform="translate(-65.651 -330.444)" fill="#009adf"/>
          <path id="패스_6048" data-name="패스 6048" d="M75.058,340.934c3.665,0,6.812.881,8.155,2.138a6.478,6.478,0,0,0,.7-2.923c0-4.148-3.962-7.8-8.854-7.8s-8.85,3.653-8.85,7.8a6.492,6.492,0,0,0,.7,2.923C68.248,341.814,71.4,340.934,75.058,340.934Z" transform="translate(-65.679 -330.538)" fill="#009de1"/>
          <path id="패스_6049" data-name="패스 6049" d="M75.085,341.037c3.655,0,6.793.872,8.133,2.117a6.377,6.377,0,0,0,.7-2.895c0-4.107-3.951-7.739-8.83-7.739s-8.826,3.632-8.826,7.739a6.391,6.391,0,0,0,.7,2.895C68.293,341.909,71.432,341.037,75.085,341.037Z" transform="translate(-65.706 -330.632)" fill="#00a0e3"/>
          <path id="패스_6050" data-name="패스 6050" d="M75.11,341.141c3.645,0,6.775.863,8.111,2.1a6.273,6.273,0,0,0,.7-2.866c0-4.066-3.94-7.678-8.806-7.678s-8.8,3.612-8.8,7.678A6.3,6.3,0,0,0,67,343.237C68.338,342,71.467,341.141,75.11,341.141Z" transform="translate(-65.734 -330.725)" fill="#00a2e4"/>
          <path id="패스_6051" data-name="패스 6051" d="M75.137,341.245c3.635,0,6.756.854,8.088,2.075a6.171,6.171,0,0,0,.694-2.837c0-4.025-3.929-7.617-8.782-7.617s-8.777,3.592-8.777,7.617a6.2,6.2,0,0,0,.691,2.837C68.383,342.1,71.5,341.245,75.137,341.245Z" transform="translate(-65.761 -330.82)" fill="#00a5e6"/>
          <path id="패스_6052" data-name="패스 6052" d="M75.163,341.349c3.625,0,6.738.845,8.066,2.054a6.068,6.068,0,0,0,.692-2.809c0-3.984-3.918-7.555-8.758-7.555s-8.753,3.572-8.753,7.555A6.1,6.1,0,0,0,67.1,343.4C68.427,342.195,71.54,341.349,75.163,341.349Z" transform="translate(-65.788 -330.914)" fill="#00a8e8"/>
          <path id="패스_6053" data-name="패스 6053" d="M75.189,341.453c3.615,0,6.72.837,8.044,2.033a5.964,5.964,0,0,0,.69-2.78c0-3.943-3.907-7.494-8.734-7.494s-8.728,3.551-8.728,7.494a6,6,0,0,0,.687,2.78C68.472,342.29,71.577,341.453,75.189,341.453Z" transform="translate(-65.816 -331.008)" fill="#00abe9"/>
          <path id="패스_6054" data-name="패스 6054" d="M75.215,341.557c3.605,0,6.7.827,8.022,2.011a5.867,5.867,0,0,0,.688-2.751c0-3.9-3.9-7.433-8.71-7.433s-8.7,3.531-8.7,7.433a5.9,5.9,0,0,0,.685,2.751C68.517,342.384,71.613,341.557,75.215,341.557Z" transform="translate(-65.843 -331.102)" fill="#00aeeb"/>
          <path id="패스_6055" data-name="패스 6055" d="M75.241,341.661c3.6,0,6.683.819,8,1.99a5.768,5.768,0,0,0,.687-2.723c0-3.861-3.885-7.372-8.686-7.372s-8.679,3.51-8.679,7.372a5.808,5.808,0,0,0,.683,2.723C68.562,342.48,71.649,341.661,75.241,341.661Z" transform="translate(-65.871 -331.196)" fill="#09b0ec"/>
          <path id="패스_6056" data-name="패스 6056" d="M75.267,341.765c3.586,0,6.664.81,7.977,1.969a5.668,5.668,0,0,0,.685-2.693c0-3.821-3.874-7.311-8.662-7.311s-8.655,3.49-8.655,7.311a5.707,5.707,0,0,0,.681,2.693C68.606,342.575,71.685,341.765,75.267,341.765Z" transform="translate(-65.898 -331.29)" fill="#16b3ee"/>
          <path id="패스_6057" data-name="패스 6057" d="M75.281,341.873c3.581,0,6.655.8,7.967,1.957a5.611,5.611,0,0,0,.684-2.676c0-3.8-3.869-7.266-8.651-7.266s-8.643,3.47-8.643,7.266a5.645,5.645,0,0,0,.68,2.676C68.63,342.678,71.7,341.873,75.281,341.873Z" transform="translate(-65.913 -331.376)" fill="#27b5ee"/>
          <path id="패스_6058" data-name="패스 6058" d="M75.3,341.982c3.576,0,6.646.8,7.955,1.944a5.555,5.555,0,0,0,.683-2.659c0-3.771-3.864-7.22-8.638-7.22s-8.632,3.45-8.632,7.22a5.583,5.583,0,0,0,.679,2.659C68.653,342.782,71.723,341.983,75.3,341.982Z" transform="translate(-65.927 -331.463)" fill="#34b7ef"/>
          <path id="패스_6059" data-name="패스 6059" d="M75.31,342.091c3.571,0,6.637.795,7.945,1.932a5.5,5.5,0,0,0,.682-2.641c0-3.746-3.858-7.176-8.626-7.176s-8.621,3.43-8.621,7.176a5.523,5.523,0,0,0,.679,2.641C68.676,342.885,71.742,342.091,75.31,342.091Z" transform="translate(-65.94 -331.548)" fill="#3fbaef"/>
          <path id="패스_6060" data-name="패스 6060" d="M75.324,342.2c3.565,0,6.627.789,7.933,1.919a5.442,5.442,0,0,0,.681-2.624c0-3.721-3.853-7.131-8.615-7.131s-8.609,3.41-8.609,7.131a5.463,5.463,0,0,0,.678,2.624C68.7,342.989,71.761,342.2,75.324,342.2Z" transform="translate(-65.954 -331.635)" fill="#49bcf0"/>
          <path id="패스_6061" data-name="패스 6061" d="M75.338,342.308c3.561,0,6.618.785,7.923,1.906a5.385,5.385,0,0,0,.68-2.606c0-3.7-3.848-7.086-8.6-7.086s-8.6,3.39-8.6,7.086a5.4,5.4,0,0,0,.677,2.606C68.722,343.093,71.78,342.309,75.338,342.308Z" transform="translate(-65.969 -331.721)" fill="#52bff1"/>
          <path id="패스_6062" data-name="패스 6062" d="M75.353,342.417c3.556,0,6.609.78,7.912,1.894a5.331,5.331,0,0,0,.679-2.589c0-3.672-3.843-7.041-8.59-7.041s-8.586,3.37-8.586,7.041a5.34,5.34,0,0,0,.676,2.589C68.745,343.2,71.8,342.418,75.353,342.417Z" transform="translate(-65.983 -331.807)" fill="#5bc1f1"/>
          <path id="패스_6063" data-name="패스 6063" d="M75.367,342.526c3.551,0,6.6.775,7.9,1.881a5.277,5.277,0,0,0,.678-2.572c0-3.647-3.837-7-8.579-7s-8.574,3.35-8.574,7a5.282,5.282,0,0,0,.675,2.572C68.768,343.3,71.818,342.527,75.367,342.526Z" transform="translate(-65.997 -331.894)" fill="#64c4f2"/>
          <path id="패스_6064" data-name="패스 6064" d="M75.381,342.634c3.546,0,6.591.769,7.89,1.869a5.219,5.219,0,0,0,.677-2.554c0-3.622-3.832-6.952-8.567-6.952s-8.563,3.329-8.563,6.952a5.224,5.224,0,0,0,.674,2.554C68.791,343.4,71.837,342.635,75.381,342.634Z" transform="translate(-66.011 -331.98)" fill="#6cc7f3"/>
          <path id="패스_6065" data-name="패스 6065" d="M75.4,342.743c3.541,0,6.582.764,7.879,1.856a5.163,5.163,0,0,0,.676-2.537c0-3.6-3.827-6.906-8.555-6.906s-8.551,3.31-8.551,6.906a5.163,5.163,0,0,0,.673,2.537C68.814,343.507,71.856,342.744,75.4,342.743Z" transform="translate(-66.025 -332.066)" fill="#74c9f3"/>
          <path id="패스_6066" data-name="패스 6066" d="M75.41,342.852c3.536,0,6.572.759,7.868,1.844a5.111,5.111,0,0,0,.675-2.52c0-3.572-3.822-6.861-8.543-6.861s-8.54,3.289-8.54,6.861a5.1,5.1,0,0,0,.672,2.52C68.838,343.611,71.875,342.852,75.41,342.852Z" transform="translate(-66.039 -332.152)" fill="#7bccf4"/>
          <path id="패스_6067" data-name="패스 6067" d="M75.424,342.96c3.531,0,6.563.754,7.857,1.831a5.057,5.057,0,0,0,.673-2.5c0-3.547-3.816-6.817-8.531-6.817s-8.528,3.27-8.528,6.817a5.046,5.046,0,0,0,.671,2.5C68.861,343.714,71.894,342.961,75.424,342.96Z" transform="translate(-66.053 -332.238)" fill="#83cff5"/>
          <path id="패스_6068" data-name="패스 6068" d="M75.438,343.069c3.526,0,6.554.749,7.846,1.818a5,5,0,0,0,.673-2.485c0-3.522-3.811-6.772-8.518-6.772s-8.517,3.25-8.517,6.772a4.986,4.986,0,0,0,.67,2.485C68.884,343.817,71.913,343.07,75.438,343.069Z" transform="translate(-66.067 -332.324)" fill="#8ad1f5"/>
          <path id="패스_6069" data-name="패스 6069" d="M75.452,343.178c3.521,0,6.545.744,7.835,1.806a4.945,4.945,0,0,0,.672-2.467c0-3.5-3.806-6.727-8.507-6.727s-8.505,3.229-8.505,6.727a4.93,4.93,0,0,0,.669,2.467C68.907,343.921,71.932,343.179,75.452,343.178Z" transform="translate(-66.081 -332.411)" fill="#91d4f6"/>
          <path id="패스_6070" data-name="패스 6070" d="M75.467,343.286c3.516,0,6.535.739,7.824,1.793a4.893,4.893,0,0,0,.671-2.45c0-3.473-3.8-6.682-8.495-6.682s-8.494,3.21-8.494,6.682a4.873,4.873,0,0,0,.668,2.45C68.93,344.025,71.951,343.287,75.467,343.286Z" transform="translate(-66.095 -332.497)" fill="#98d6f7"/>
          <path id="패스_6071" data-name="패스 6071" d="M75.481,343.4c3.511,0,6.526.734,7.814,1.78a4.839,4.839,0,0,0,.669-2.432c0-3.448-3.8-6.637-8.483-6.637S67,339.3,67,342.743a4.814,4.814,0,0,0,.668,2.432C68.953,344.129,71.97,343.4,75.481,343.4Z" transform="translate(-66.109 -332.583)" fill="#9fd9f7"/>
          <path id="패스_6072" data-name="패스 6072" d="M75.5,343.5c3.506,0,6.517.729,7.8,1.768a4.783,4.783,0,0,0,.668-2.415c0-3.422-3.79-6.592-8.471-6.592s-8.471,3.17-8.471,6.592a4.757,4.757,0,0,0,.667,2.415C68.976,344.232,71.988,343.5,75.5,343.5Z" transform="translate(-66.123 -332.669)" fill="#a5dcf8"/>
          <path id="패스_6073" data-name="패스 6073" d="M75.509,343.612c3.5,0,6.508.724,7.792,1.756a4.732,4.732,0,0,0,.668-2.4c0-3.4-3.785-6.547-8.459-6.547s-8.459,3.15-8.459,6.547a4.7,4.7,0,0,0,.666,2.4C69,344.336,72.008,343.614,75.509,343.612Z" transform="translate(-66.137 -332.755)" fill="#acdef8"/>
          <path id="패스_6074" data-name="패스 6074" d="M75.524,343.721c3.5,0,6.5.719,7.78,1.743a4.68,4.68,0,0,0,.667-2.381c0-3.373-3.779-6.5-8.447-6.5s-8.448,3.129-8.448,6.5a4.647,4.647,0,0,0,.665,2.381C69.023,344.439,72.027,343.723,75.524,343.721Z" transform="translate(-66.151 -332.842)" fill="#b2e1f9"/>
          <path id="패스_6075" data-name="패스 6075" d="M75.538,343.83c3.492,0,6.49.713,7.77,1.73a4.625,4.625,0,0,0,.665-2.363c0-3.348-3.774-6.458-8.435-6.458S67.1,339.848,67.1,343.2a4.587,4.587,0,0,0,.664,2.363C69.046,344.543,72.046,343.831,75.538,343.83Z" transform="translate(-66.165 -332.928)" fill="#b9e3f9"/>
          <path id="패스_6076" data-name="패스 6076" d="M75.553,343.938c3.487,0,6.48.708,7.758,1.718a4.572,4.572,0,0,0,.664-2.346c0-3.324-3.768-6.413-8.423-6.413s-8.425,3.089-8.425,6.413a4.533,4.533,0,0,0,.663,2.346C69.069,344.647,72.065,343.94,75.553,343.938Z" transform="translate(-66.179 -333.014)" fill="#bfe5fa"/>
          <path id="패스_6077" data-name="패스 6077" d="M75.566,344.047c3.482,0,6.471.7,7.748,1.706a4.52,4.52,0,0,0,.663-2.328c0-3.3-3.763-6.368-8.411-6.368s-8.413,3.069-8.413,6.368a4.478,4.478,0,0,0,.662,2.328C69.092,344.75,72.084,344.049,75.566,344.047Z" transform="translate(-66.193 -333.101)" fill="#c5e8fa"/>
          <path id="패스_6078" data-name="패스 6078" d="M75.581,344.156c3.477,0,6.462.7,7.737,1.692a4.468,4.468,0,0,0,.663-2.311c0-3.274-3.758-6.323-8.4-6.323s-8.4,3.049-8.4,6.323a4.421,4.421,0,0,0,.661,2.311C69.115,344.854,72.1,344.157,75.581,344.156Z" transform="translate(-66.207 -333.186)" fill="#cbeafb"/>
          <path id="패스_6079" data-name="패스 6079" d="M75.595,344.264c3.472,0,6.453.693,7.726,1.68a4.418,4.418,0,0,0,.661-2.294c0-3.248-3.753-6.278-8.387-6.278s-8.39,3.029-8.39,6.278a4.365,4.365,0,0,0,.66,2.294C69.138,344.957,72.121,344.267,75.595,344.264Z" transform="translate(-66.221 -333.273)" fill="#d1edfb"/>
          <path id="패스_6080" data-name="패스 6080" d="M75.61,344.373c3.467,0,6.443.688,7.715,1.668a4.364,4.364,0,0,0,.66-2.276c0-3.224-3.747-6.233-8.375-6.233s-8.379,3.009-8.379,6.233a4.313,4.313,0,0,0,.659,2.276C69.162,345.061,72.141,344.375,75.61,344.373Z" transform="translate(-66.235 -333.359)" fill="#d7effc"/>
          <path id="패스_6081" data-name="패스 6081" d="M75.623,344.482c3.462,0,6.435.683,7.7,1.655a4.315,4.315,0,0,0,.659-2.259c0-3.2-3.742-6.188-8.364-6.188s-8.367,2.989-8.367,6.188a4.262,4.262,0,0,0,.658,2.259C69.184,345.165,72.159,344.484,75.623,344.482Z" transform="translate(-66.249 -333.446)" fill="#ddf2fc"/>
          <path id="패스_6082" data-name="패스 6082" d="M75.638,344.59c3.457,0,6.425.678,7.693,1.642a4.262,4.262,0,0,0,.658-2.241c0-3.174-3.737-6.143-8.351-6.143s-8.356,2.969-8.356,6.143a4.2,4.2,0,0,0,.658,2.241C69.208,345.268,72.178,344.593,75.638,344.59Z" transform="translate(-66.263 -333.532)" fill="#e3f4fd"/>
          <path id="패스_6083" data-name="패스 6083" d="M75.652,344.7c3.452,0,6.416.673,7.682,1.63a4.214,4.214,0,0,0,.657-2.224c0-3.15-3.731-6.1-8.339-6.1s-8.344,2.949-8.344,6.1a4.149,4.149,0,0,0,.657,2.224C69.231,345.371,72.2,344.7,75.652,344.7Z" transform="translate(-66.277 -333.617)" fill="#e9f6fd"/>
          <path id="패스_6084" data-name="패스 6084" d="M75.667,344.808c3.447,0,6.407.668,7.671,1.618a4.165,4.165,0,0,0,.656-2.207c0-3.124-3.726-6.053-8.327-6.053s-8.333,2.929-8.333,6.053a4.1,4.1,0,0,0,.655,2.207C69.254,345.475,72.217,344.81,75.667,344.808Z" transform="translate(-66.291 -333.704)" fill="#eff9fe"/>
          <path id="패스_6085" data-name="패스 6085" d="M75.68,344.916c3.442,0,6.4.663,7.66,1.6A4.11,4.11,0,0,0,84,344.331c0-3.1-3.721-6.008-8.316-6.008s-8.321,2.909-8.321,6.008a4.046,4.046,0,0,0,.655,2.189C69.277,345.579,72.235,344.919,75.68,344.916Z" transform="translate(-66.305 -333.79)" fill="#f5fbfe"/>
          <path id="패스_6086" data-name="패스 6086" d="M75.695,345.025c3.437,0,6.388.657,7.65,1.592A4.065,4.065,0,0,0,84,344.445c0-3.075-3.716-5.963-8.3-5.963s-8.31,2.888-8.31,5.963a4,4,0,0,0,.654,2.172C69.3,345.682,72.254,345.028,75.695,345.025Z" transform="translate(-66.319 -333.877)" fill="#fafdff"/>
          <path id="패스_6087" data-name="패스 6087" d="M75.709,345.134c3.432,0,6.379.652,7.639,1.58A4.014,4.014,0,0,0,84,344.559c0-3.05-3.71-5.919-8.292-5.919s-8.3,2.869-8.3,5.919a3.939,3.939,0,0,0,.653,2.155C69.323,345.786,72.273,345.137,75.709,345.134Z" transform="translate(-66.333 -333.963)" fill="#fff"/>
        </g>
      </g>
    </g>
    <path id="패스_6089" data-name="패스 6089" d="M76.1,346.776a24.793,24.793,0,0,0-8.249,1.336,9.217,9.217,0,0,0,16.508,0A24.828,24.828,0,0,0,76.1,346.776Z" transform="translate(-67.103 -335.227)" fill="#006abd"/>
  </g>
</svg>
