<svg xmlns="http://www.w3.org/2000/svg" xmlns:xlink="http://www.w3.org/1999/xlink" width="18" height="18" viewBox="0 0 18 18">
  <defs>
    <linearGradient id="linear-gradient" x1="0.5" x2="0.5" y2="1" gradientUnits="objectBoundingBox">
      <stop offset="0" stop-color="#00b0ee"/>
      <stop offset="1" stop-color="#0068b5"/>
    </linearGradient>
  </defs>
  <g id="그룹_5252" data-name="그룹 5252" transform="translate(-134 -609)">
    <circle id="타원_668" data-name="타원 668" cx="9" cy="9" r="9" transform="translate(134 609)" fill="url(#linear-gradient)"/>
    <g id="그룹_5019" data-name="그룹 5019" transform="translate(137 614)">
      <g id="그룹_5018" data-name="그룹 5018">
        <path id="패스_5910" data-name="패스 5910" d="M10.4,64.184a1.366,1.366,0,1,1-.042-1.748l.512-.651a2.185,2.185,0,1,0,0,3.1Z" transform="translate(-7.141 -58.616)" fill="#fff"/>
        <rect id="사각형_27920" data-name="사각형 27920" width="0.922" height="4.236" transform="translate(4.169 2.621)" fill="#fff"/>
        <rect id="사각형_27921" data-name="사각형 27921" width="0.922" height="4.236" transform="translate(9.199 2.643)" fill="#fff"/>
        <path id="패스_5911" data-name="패스 5911" d="M128.9,41.7a1,1,0,0,1-1-1.059H127.9V38.225h-.811v-.776h.811v-.822l.822-.5-.022.63v.692h.833v.776H128.7v2.148a.555.555,0,0,0,0,.185v.048a.554.554,0,0,0,.974.258.563.563,0,0,0,.06-.09h0S129.748,41.7,128.9,41.7Z" transform="translate(-121.283 -34.805)" fill="#fff"/>
        <path id="패스_5912" data-name="패스 5912" d="M160.224,123.907v.185a.555.555,0,0,1,0-.185Z" transform="translate(-152.811 -118.339)" fill="#fff"/>
        <path id="패스_5913" data-name="패스 5913" d="M84.147,8.8a4.5,4.5,0,0,0-3.752,2.008h1.3a3.5,3.5,0,0,1,4.9,0h1.3A4.5,4.5,0,0,0,84.147,8.8Z" transform="translate(-76.851 -8.8)" fill="#ed1c24"/>
      </g>
    </g>
  </g>
</svg>
