<svg width="70" height="70" viewBox="0 0 70 70" fill="none" xmlns="http://www.w3.org/2000/svg">
<rect width="70" height="70" rx="35" fill="#F3F3F3"/>
<path d="M38.7559 25.7734L38.7561 25.7721C38.8347 25.08 38.8739 24.3659 38.8739 23.6301C38.8739 22.6198 38.8044 21.7532 38.6587 21.0381C38.5294 20.3139 38.3139 19.696 37.9914 19.21C37.6897 18.7328 37.3006 18.371 36.8181 18.1567C36.3588 17.9378 35.8419 17.8359 35.2799 17.8359C34.0919 17.8359 33.1409 18.3371 32.4815 19.3174L32.4815 19.3173L32.478 19.3226C31.8467 20.287 31.5713 21.7369 31.5713 23.5843C31.5713 24.0239 31.587 24.4493 31.6186 24.8602C31.6501 25.2697 31.6973 25.6862 31.76 26.1098C31.8208 26.5197 31.8815 26.9527 31.9424 27.409C32.0037 27.8688 32.0726 28.3666 32.1491 28.9022C32.1492 28.9026 32.1492 28.9029 32.1493 28.9033L33.6387 39.6499L33.6985 40.0813H34.1339H36.357H36.7929L36.8524 39.6496L38.4559 28.012C38.456 28.0112 38.4562 28.0103 38.4563 28.0095C38.5789 27.1815 38.6789 26.4361 38.7559 25.7734Z" fill="white" stroke="#777777"/>
<path d="M37.6939 45.532C37.6939 45.8757 37.6315 46.1985 37.5065 46.5005C37.3815 46.8025 37.2097 47.0629 36.991 47.2816C36.7723 47.5002 36.512 47.6773 36.21 47.8127C35.9184 47.9376 35.606 48.0001 35.2727 48.0001C34.9291 48.0001 34.6063 47.9376 34.3043 47.8127C34.0023 47.6773 33.7419 47.5002 33.5232 47.2816C33.3045 47.0629 33.1275 46.8025 32.9921 46.5005C32.8672 46.1985 32.8047 45.8757 32.8047 45.532C32.8047 45.1988 32.8672 44.8864 32.9921 44.5948C33.1275 44.2928 33.3045 44.0325 33.5232 43.8138C33.7419 43.5951 34.0023 43.4233 34.3043 43.2983C34.6063 43.1733 34.9291 43.1108 35.2727 43.1108C35.606 43.1108 35.9184 43.1733 36.21 43.2983C36.512 43.4233 36.7723 43.5951 36.991 43.8138C37.2097 44.0325 37.3815 44.2928 37.5065 44.5948C37.6315 44.8864 37.6939 45.1988 37.6939 45.532Z" fill="#FFB800"/>
</svg>
