<svg width="73" height="73" viewBox="0 0 73 73" fill="none" xmlns="http://www.w3.org/2000/svg">
<path d="M36.481 72.9618C16.3641 72.9618 0 56.5979 0 36.481C0 16.3641 16.3641 0 36.481 0C56.5948 0 72.962 16.3672 72.962 36.481C72.962 56.5979 56.5979 72.9618 36.481 72.9618ZM36.481 2.38489C17.6793 2.38489 2.3847 17.6793 2.3847 36.481C2.3847 55.2827 17.6793 70.5771 36.481 70.5771C55.2827 70.5771 70.577 55.2827 70.577 36.481C70.577 17.6793 55.2827 2.38489 36.481 2.38489Z" fill="#999999"/>
<circle cx="36.5" cy="15.5" r="6.5" fill="#FFB800"/>
<rect x="32" y="27" width="10" height="36" rx="5" fill="white" stroke="#999999" stroke-width="2"/>
</svg>
