<svg width="21" height="24" viewBox="0 0 21 24" fill="none" xmlns="http://www.w3.org/2000/svg">
<path d="M10.4361 22.3013C7.48509 22.3013 5.08484 19.901 5.08484 16.9501C5.08484 13.9999 7.48509 11.5997 10.4361 11.5997C13.3862 11.5997 15.7865 13.9999 15.7865 16.9501C15.7865 19.901 13.3862 22.3013 10.4361 22.3013ZM10.4361 12.2564C7.84793 12.2564 5.74243 14.3619 5.74243 16.9501C5.74243 19.5382 7.84793 21.6437 10.4361 21.6437C13.0242 21.6437 15.1297 19.5382 15.1297 16.9501C15.1297 14.3619 13.0234 12.2564 10.4361 12.2564Z" fill="white"/>
<path d="M10.4359 24C6.54812 24 3.38599 20.8379 3.38599 16.9501C3.38599 13.0631 6.54812 9.90015 10.4359 9.90015C14.3229 9.90015 17.4859 13.0623 17.4859 16.9501C17.485 20.8379 14.3229 24 10.4359 24ZM10.4359 10.5577C6.91096 10.5577 4.04358 13.4251 4.04358 16.9501C4.04358 20.4751 6.91182 23.3433 10.4359 23.3433C13.9601 23.3433 16.8283 20.4751 16.8283 16.9501C16.8283 13.4251 13.9601 10.5577 10.4359 10.5577Z" fill="white"/>
<path d="M6.03023 12.2021C5.90871 12.2021 5.79324 12.1349 5.7355 12.0194L0.0343246 0.474009C-0.0165247 0.37231 -0.0104871 0.251655 0.0498426 0.155127C0.110172 0.0585997 0.215323 0 0.329087 0H5.31662C5.44072 0 5.55365 0.0697966 5.60967 0.180114L10.6032 10.082C10.6851 10.244 10.6205 10.4413 10.4576 10.5241C10.2956 10.6051 10.0982 10.5405 10.0163 10.3784L5.1141 0.6567H0.858277L6.32586 11.7281C6.40602 11.8901 6.33965 12.0875 6.17676 12.1685C6.1285 12.1918 6.07936 12.2021 6.03023 12.2021Z" fill="white"/>
<path d="M14.841 12.2021C14.7919 12.2021 14.7428 12.1909 14.6954 12.1685C14.5333 12.0884 14.4661 11.891 14.5463 11.7281L20.0138 0.6567H15.758L10.8558 10.3784C10.7739 10.5405 10.5766 10.6051 10.4145 10.5241C10.2525 10.4422 10.187 10.2448 10.2697 10.082L15.2633 0.180114C15.3193 0.0697966 15.4322 0 15.5572 0H20.5439C20.6576 0 20.7628 0.0585997 20.8231 0.155127C20.8826 0.251655 20.8886 0.37231 20.8386 0.474009L15.1384 12.0194C15.078 12.1349 14.9617 12.2021 14.841 12.2021Z" fill="white"/>
<path d="M8.40121 20.0501C8.33313 20.0501 8.2659 20.0294 8.20729 19.9872C8.0918 19.9036 8.04442 19.7554 8.08751 19.6201L8.79077 17.4551L6.94899 16.1175C6.83437 16.0339 6.78609 15.8856 6.82919 15.7503C6.874 15.615 6.99984 15.5228 7.14205 15.5228H9.41819L10.1215 13.3578C10.1654 13.2225 10.2921 13.1312 10.4343 13.1312C10.5765 13.1312 10.7032 13.2225 10.7463 13.3578L11.4496 15.5228H13.7257C13.868 15.5228 13.9946 15.6142 14.0386 15.7503C14.0826 15.8856 14.0343 16.0339 13.9188 16.1175L12.0779 17.4551L12.7803 19.6201C12.8251 19.7554 12.776 19.9036 12.6613 19.9872C12.5467 20.0708 12.3907 20.0708 12.2752 19.9872L10.4343 18.6496L8.59256 19.9872C8.53654 20.0294 8.46844 20.0501 8.40121 20.0501ZM10.436 17.9153C10.5041 17.9153 10.5713 17.9352 10.6291 17.9774L11.846 18.8608L11.3815 17.431C11.3376 17.2956 11.385 17.1474 11.5004 17.0638L12.7174 16.1804H11.2134C11.0712 16.1804 10.9445 16.0891 10.9014 15.9529L10.4369 14.5231L9.97237 15.9529C9.92841 16.0882 9.80258 16.1804 9.65951 16.1804H8.15558L9.37253 17.0638C9.48716 17.1474 9.53542 17.2956 9.49147 17.431L9.02693 18.8608L10.243 17.9774C10.2999 17.936 10.368 17.9153 10.436 17.9153Z" fill="white"/>
</svg>
