<svg width="25" height="25" viewBox="0 0 25 25" fill="none" xmlns="http://www.w3.org/2000/svg">
<path d="M12.9534 23.8856C12.5575 24.4291 11.7536 24.4803 11.3202 23.9661C10.2968 22.752 8.55767 20.6951 7.09892 18.9971C4.92545 16.4829 -3.7615 8.67352 1.86677 2.66356C3.65445 0.757443 5.35255 0.106681 6.84401 0.106681H6.85778C8.97188 0.106681 10.6134 1.35073 11.5123 2.23171C11.9445 2.65529 12.6504 2.69954 13.1172 2.31451C14.2268 1.39947 16.3085 0 18.6827 0C20.2465 0 21.9136 0.647217 23.4257 2.53555C28.2514 8.53129 20.7459 16.2126 17.4633 18.9971C15.3458 20.8021 13.8057 22.7154 12.9534 23.8856Z" fill="#404040"/>
</svg>
