<svg width="11" height="14" viewBox="0 0 11 14" fill="none" xmlns="http://www.w3.org/2000/svg">
<path d="M8.70411 13.6783H1.66692C0.747729 13.6783 0 12.9305 0 12.0119V6.25203C0 5.33338 0.747729 4.58563 1.66692 4.58563H8.70411C9.6233 4.58563 10.371 5.33338 10.371 6.25203V12.0119C10.371 12.9305 9.6233 13.6783 8.70411 13.6783ZM1.66692 5.0024C0.977255 5.0024 0.416732 5.56291 0.416732 6.25203V12.0119C0.416732 12.701 0.977255 13.2615 1.66692 13.2615H8.70411C9.39377 13.2615 9.9543 12.701 9.9543 12.0119V6.25203C9.9543 5.56291 9.39323 5.0024 8.70411 5.0024H1.66692Z" fill="#555555"/>
<path d="M1.77648 5.00238C1.66145 5.00238 1.56812 4.90904 1.56812 4.79346V3.61762C1.56812 1.62242 3.19108 0 5.18574 0C6.12447 0 7.01599 0.361383 7.69534 1.01741C7.77782 1.09771 7.78053 1.22955 7.70077 1.31203C7.621 1.39505 7.4886 1.39723 7.40613 1.31746C6.80491 0.736861 6.01595 0.416699 5.18574 0.416699C3.42061 0.416699 1.98539 1.85249 1.98539 3.61762V4.79346C1.98485 4.90904 1.89152 5.00238 1.77648 5.00238Z" fill="#555555"/>
<path d="M5.18519 11.2544C4.75381 11.2544 4.40274 10.9033 4.40274 10.4719V9.82353C3.94694 9.55005 3.66858 9.06382 3.66858 8.52554C3.66858 7.68883 4.34902 7.00897 5.18519 7.00897C6.02136 7.00897 6.7018 7.68883 6.7018 8.52554C6.7018 9.06328 6.42398 9.55005 5.96764 9.82353V10.4719C5.96819 10.9033 5.61657 11.2544 5.18519 11.2544ZM5.18519 7.42567C4.57909 7.42567 4.08531 7.9189 4.08531 8.52554C4.08531 8.9477 4.32244 9.3259 4.70281 9.51202C4.77443 9.54674 4.81947 9.6195 4.81947 9.69927V10.4719C4.81947 10.6738 4.98388 10.8382 5.18574 10.8382C5.38759 10.8382 5.55201 10.6738 5.55201 10.4719V9.69927C5.55201 9.62005 5.59704 9.54729 5.66867 9.51202C6.04958 9.32536 6.28616 8.9477 6.28616 8.52554C6.28562 7.9189 5.79184 7.42567 5.18519 7.42567Z" fill="#555555"/>
</svg>
