<svg width="120" height="120" viewBox="0 0 120 120" fill="none" xmlns="http://www.w3.org/2000/svg">
<g clip-path="url(#clip0)">
<rect width="120" height="120" rx="60" fill="#DECFB7"/>
<g style="mix-blend-mode:luminosity">
<path d="M88.8857 30.3692C84.5832 26.926 80.0957 24.9712 76.4929 23.398C73.9215 22.2794 71.2604 21.116 70.6726 20.0952C70.443 19.6961 70.2147 19.2846 69.9856 18.8673C68.0783 15.4117 65.4668 10.6822 59.6797 11.0594C52.7689 11.5043 50.5212 16.9775 49.3406 21.5925C48.9839 22.9812 45.9945 24.907 43.1034 26.7672C36.2503 31.1811 25.8938 37.847 23.3569 52.3431C21.196 64.6916 24.8278 73.1804 27.2291 78.7959C28.4188 81.5749 29.4458 83.9771 29.0959 85.339C28.496 87.7017 26.1408 89.5372 22.5773 92.3144C17.8887 95.9685 11.4683 100.974 4.69781 110.68C-5.93834 125.925 -5.20576 148.409 5.73457 160.905L7.97389 163.224C8.01908 163.701 7.97821 164.616 7.94803 165.255C7.81231 168.174 7.60722 172.585 11.2551 174.869C12.8154 175.845 14.6186 176.197 16.61 175.914C18.7529 175.608 20.7795 174.626 22.565 173.758C23.7498 173.183 24.9785 172.587 25.7136 172.482C25.8294 172.466 25.8833 172.472 25.864 172.464L26.1302 172.524L26.1459 172.528C27.1702 172.784 28.1086 172.989 29.012 173.162C35.6312 174.415 42.168 174.599 48.4392 173.706C48.4422 173.705 48.4421 173.705 48.4421 173.705C68.2715 170.881 85.6805 156.637 92.7946 137.418C98.6045 121.722 94.8605 106.286 92.3801 96.0724C92.0245 94.6185 91.6961 93.2593 91.4213 92.0106C90.6616 88.5597 92.3861 85.711 94.7758 81.7662C97.387 77.4519 100.64 72.0825 101.69 63.9422C103.401 50.6972 98.6134 38.1488 88.8857 30.3692Z" fill="#FBBF28"/>
</g>
<path d="M64.6742 92.2322C80.8148 89.9333 92.0357 74.9853 89.7368 58.8447C87.438 42.7041 72.4899 31.4832 56.3493 33.7821C40.2088 36.0809 28.9878 51.029 31.2867 67.1696C33.5856 83.3101 48.5336 94.531 64.6742 92.2322Z" fill="white"/>
<path d="M47.0829 67.2877C48.8929 67.2709 50.3461 65.7315 50.3286 63.8493C50.3111 61.9672 48.8296 60.455 47.0195 60.4719C45.2094 60.4887 43.7563 62.0281 43.7738 63.9103C43.7913 65.7924 45.2728 67.3046 47.0829 67.2877Z" fill="#755726"/>
<path d="M74.0537 67.0632C75.8646 67.0464 77.3185 65.507 77.301 63.6248C77.2835 61.7427 75.8012 60.2305 73.9903 60.2474C72.1794 60.2642 70.7256 61.8036 70.7431 63.6858C70.7606 65.5679 72.2428 67.0801 74.0537 67.0632Z" fill="#755726"/>
<path d="M61.7904 47.4206C60.2534 47.6395 58.6298 47.3677 57.1392 46.583C54.5987 45.2449 52.0805 42.1066 52.6241 37.3171C52.951 34.4418 54.3557 32.0175 56.6873 30.3142C59.1023 28.5476 62.3317 27.7331 64.9151 28.2439C65.582 28.3732 66.0119 29.0195 65.8841 29.6862C65.7517 30.352 65.1058 30.7849 64.4431 30.6535C62.9 30.3506 60.2713 30.7341 58.1376 32.2955C56.9114 33.1959 55.3778 34.8431 55.0667 37.595C54.6632 41.1555 56.4656 43.4487 58.2842 44.4094C60.1826 45.4087 62.29 45.2267 63.7897 43.9268C65.2223 42.6879 65.8462 41.1536 65.5 39.7226C65.2027 38.4862 64.21 37.5488 62.8487 37.2139C61.5758 36.9043 60.7177 37.5174 60.4527 38.2203C60.1989 38.8958 60.5236 39.5268 61.3444 39.9493C61.9478 40.2603 62.1863 40.9991 61.8755 41.604C61.5628 42.2061 60.8251 42.4415 60.2205 42.1321C57.9887 40.9834 57.5733 38.9077 58.1527 37.3585C58.8064 35.6185 60.8269 34.1883 63.4333 34.8291C65.7084 35.3884 67.3731 37.0028 67.8877 39.1477C68.4472 41.4695 67.5175 43.9519 65.3952 45.7845C64.3581 46.6837 63.1076 47.233 61.7904 47.4206Z" fill="#755726"/>
<path d="M61.5916 78.4714C61.2856 78.5149 60.9711 78.5401 60.6562 78.5425C57.6251 78.5681 54.9059 76.6676 53.8923 73.8059C53.6694 73.1664 54.0012 72.4646 54.6416 72.2371C55.2812 72.0157 55.9824 72.3431 56.2087 72.9851C56.8708 74.8574 58.6499 76.104 60.6335 76.0851C62.6216 76.0762 64.3733 74.7903 65.0003 72.9056C65.2149 72.2629 65.9108 71.9153 66.5549 72.1296C67.1991 72.3439 67.545 73.0386 67.3292 73.683C66.4705 76.2598 64.2304 78.0955 61.5916 78.4714Z" fill="#755726"/>
<path d="M48.5478 80.1943C48.6115 87.0882 43.0727 92.7301 36.1784 92.7908C29.2832 92.8562 23.6441 87.3155 23.5819 80.4214C23.5167 73.5277 29.0555 67.8858 35.9479 67.8223C42.8466 67.761 48.4843 73.3019 48.5478 80.1943Z" fill="#FFE0B0"/>
<path d="M87.0341 92.2172C93.8602 91.245 98.6057 84.9232 97.6335 78.0971C96.6613 71.271 90.3395 66.5255 83.5134 67.4977C76.6872 68.4699 71.9417 74.7917 72.914 81.6178C73.8862 88.4439 80.208 93.1894 87.0341 92.2172Z" fill="#FFE0B0"/>
<path d="M86.4003 133.362C86.0562 132.286 84.9046 131.69 83.8279 132.034C82.4136 132.487 81.0054 132.854 79.6056 133.164C82.5378 123.306 81.7697 115.136 81.7283 114.75C81.6153 113.627 80.6091 112.806 79.4845 112.921C78.385 113.052 77.5409 114.04 77.6569 115.163C77.6642 115.258 78.4911 123.999 75.0535 133.947C71.3421 134.409 67.7852 134.436 64.5062 134.21C66.8273 129.805 67.4583 126.502 67.5189 126.162C67.7137 125.05 66.9759 123.998 65.8653 123.796C64.7627 123.597 63.6924 124.337 63.49 125.448C63.4281 125.779 62.7374 129.259 60.0888 133.747C51.908 132.583 46.3471 130.145 46.2468 130.1C45.2171 129.636 44.0062 130.092 43.541 131.124C43.0773 132.155 43.5377 133.366 44.5661 133.832C44.9676 134.013 49.9953 136.218 57.5159 137.523C55.6505 139.914 53.2188 142.404 50.0744 144.752C44.5298 143.534 41.0065 141.988 40.9287 141.952C39.8975 141.488 38.6882 141.943 38.2232 142.976C37.7592 144.006 38.2182 145.218 39.2481 145.683C39.5105 145.802 41.7493 146.788 45.3583 147.819C42.2522 149.574 38.6372 151.16 34.4038 152.435C33.3215 152.762 32.7087 153.906 33.0319 154.984C33.3295 155.967 34.2947 156.563 35.2793 156.423C35.3817 156.408 35.4829 156.385 35.5833 156.355C41.8451 154.471 46.8882 151.944 50.9635 149.154C54.865 149.909 59.5289 150.443 64.6316 150.303C58.4956 156.049 50.3268 159.907 40.163 161.788C39.0533 161.996 38.3205 163.064 38.5244 164.176C38.7254 165.258 39.7455 165.984 40.8236 165.83C40.8533 165.826 40.8815 165.822 40.911 165.816C55.4379 163.123 64.7404 156.79 70.7037 149.809C70.8299 149.791 70.9561 149.784 71.0823 149.766C73.9053 149.364 76.8143 148.725 79.7559 147.784C80.8316 147.443 81.4252 146.291 81.0839 145.214C80.7395 144.136 79.5821 143.542 78.5113 143.885C77.0769 144.346 75.6478 144.716 74.2345 145.026C75.8335 142.52 77.0777 140.021 78.0352 137.649C80.3404 137.249 82.6951 136.697 85.0745 135.935C86.1495 135.59 86.746 134.438 86.4003 133.362ZM55.4213 145.687C58.2492 143.182 60.434 140.596 62.1163 138.154C65.5476 138.501 69.3219 138.608 73.3152 138.263C72.0151 141.05 70.4441 143.593 68.6372 145.917C63.8598 146.405 59.354 146.205 55.4213 145.687Z" fill="#CE9328"/>
</g>
<defs>
<clipPath id="clip0">
<rect width="120" height="120" rx="60" fill="white"/>
</clipPath>
</defs>
</svg>
