<svg width="80" height="80" viewBox="0 0 80 80" fill="none" xmlns="http://www.w3.org/2000/svg">
<circle cx="40" cy="40" r="40" fill="#DECFB7"/>
<path d="M24.9621 33.0799L22.1017 33.0492H22.064C20.1748 33.0492 18.6229 34.5633 18.6007 36.4447L18.551 39.2074V39.2176C18.5424 39.7195 18.9552 40.1277 19.4588 40.1328H19.4708C19.9727 40.1328 20.3786 39.7331 20.382 39.2346C20.382 39.2244 20.382 39.221 20.3837 39.2091L20.4385 36.3001L20.8496 36.3035L20.8 38.9301C21.2539 37.9605 22.273 37.2834 23.4668 37.2834C24.6641 37.2834 25.6798 37.9605 26.1372 38.9352L26.1765 36.3614L26.5499 36.3682L26.4986 39.2993V39.3061C26.49 39.8045 26.8942 40.2128 27.4029 40.2196H27.4166C27.9151 40.2196 28.3262 39.8232 28.333 39.3248V39.3197L28.3844 36.5553C28.4067 34.6585 26.8737 33.102 24.9621 33.0799ZM23.6809 32.9182H23.7152C25.0358 32.9182 26.1132 31.855 26.132 30.5383C26.144 29.2131 25.0735 28.1244 23.7392 28.1108H23.7049C22.3809 28.1108 21.3052 29.1706 21.2898 30.4856C21.2744 31.8159 22.3432 32.9046 23.6809 32.9182ZM65.7499 39.7654C65.4519 38.5695 64.3163 35.1263 63.0025 31.1422L62.8586 30.7084C61.944 27.9407 60.548 26.4675 58.9277 25.69C59.0578 25.3005 59.0733 24.8735 58.9636 24.4652L57.7698 20.0286C57.0778 17.0669 54.6233 15 51.7834 15C48.9196 15 46.4599 17.0907 45.7799 20.0865L44.6015 24.4652C44.4731 24.9432 44.5159 25.4434 44.7129 25.884C43.2073 26.6648 41.8644 28.0155 40.8487 30.3461C40.4787 31.1916 40.0985 32.037 39.7216 32.8587C39.2934 32.0132 38.8584 31.1422 38.4336 30.2695C36.755 26.8009 34.7835 25.5335 32.3976 25.0793C32.9936 24.0842 33.3379 22.9189 33.3379 21.6787C33.3379 17.9957 30.3216 15 26.6167 15C22.905 15 19.8836 17.9974 19.8836 21.6787C19.8836 22.9546 20.2467 24.1471 20.877 25.1627C16.9187 26.2412 14 29.8442 14 34.1107V37.2868C14 39.4915 15.0363 40.7912 15.831 41.5822C16.0828 41.8476 16.7525 42.5161 18.8696 43.5828V59.463C18.8696 62.0079 20.7897 64 23.2425 64C24.4432 64 25.5377 63.539 26.3547 62.782C27.1717 63.539 28.2662 64 29.4669 64C31.9865 64 34.035 61.9654 34.035 59.463C34.035 59.395 34.035 59.2861 34.0213 59.15V40.2094L35.6999 43.0044C35.7136 43.0282 35.729 43.0588 35.7427 43.0809C37.065 45.1036 38.7008 45.4081 39.5572 45.4081C39.6411 45.4081 39.7268 45.4047 39.8107 45.3996C39.8912 45.4047 39.9734 45.4081 40.0557 45.4081C40.4051 45.4081 40.8829 45.3537 41.4139 45.1393L40.859 47.0361C40.6706 47.6825 40.799 48.38 41.205 48.9159C41.6109 49.4551 42.2481 49.7698 42.9264 49.7698H45.1599L44.831 59.1908C44.8242 59.281 44.819 59.3678 44.819 59.4613C44.819 62.0063 46.6877 63.9983 49.0754 63.9983C50.1991 63.9983 51.2096 63.5543 51.9616 62.8194C52.7135 63.556 53.7241 63.9983 54.8494 63.9983C57.1669 63.9983 58.914 62.0488 58.914 59.4613C58.914 59.4358 58.914 59.4137 58.914 59.3899L58.5851 49.7698H60.8169C61.4952 49.7698 62.1324 49.4534 62.54 48.9176C62.946 48.3783 63.0744 47.6826 62.886 47.0378L62.4133 45.4166C62.7387 45.3962 63.0676 45.3349 63.393 45.238C64.4516 44.9097 66.7605 43.7274 65.7499 39.7654ZM47.8713 20.5934C48.3047 18.6081 49.889 17.1384 51.7817 17.1384C53.6641 17.1384 55.2348 18.586 55.6784 20.5407L56.8825 25.0164H54.5068C53.7909 25.7581 52.8368 26.2106 51.7834 26.2106C50.7369 26.2106 49.7828 25.7564 49.0635 25.0164H46.6826L47.8713 20.5934ZM26.615 17.1384C29.1415 17.1384 31.1832 19.1678 31.1832 21.6787C31.1832 24.1794 29.1415 26.2123 26.615 26.2123C24.0886 26.2123 22.0366 24.1794 22.0366 21.6787C22.0366 19.1695 24.0886 17.1384 26.615 17.1384ZM62.7661 43.1949C62.5537 43.2596 62.3533 43.2902 62.1598 43.2902C61.1886 43.2902 60.4538 42.5059 60.0205 41.225C60.017 41.2131 57.7253 33.762 57.7253 33.762H56.7678L60.8186 47.6349H56.3601L56.7644 59.4664C56.7644 60.7882 56.0484 61.865 54.8528 61.865C53.6419 61.865 52.7546 60.7882 52.7546 59.4664C52.7546 59.4086 52.7546 59.3627 52.758 59.3065L53.1691 47.6349H50.7712L51.1737 59.4664C51.1737 60.7882 50.2847 61.865 49.0772 61.865C47.8713 61.865 46.9738 60.7882 46.9738 59.4664C46.9738 59.4086 46.9824 59.3627 46.9841 59.3065L47.39 47.6349H42.9264L46.9841 33.762H45.7988L41.8661 41.9122C41.8661 41.9156 41.8678 41.9156 41.8661 41.919C41.3043 42.87 40.6706 43.2715 40.0539 43.2715C39.9751 43.2715 39.8946 43.2646 39.8176 43.251C39.7302 43.2646 39.6429 43.2715 39.5555 43.2715C38.8738 43.2715 38.1681 42.8683 37.5481 41.919C37.5481 41.9156 37.5481 41.9156 37.5481 41.9122L32.6494 33.762H31.8649V59.3065C31.8837 59.3627 31.8837 59.4069 31.8837 59.4647C31.8837 60.7865 30.7961 61.8634 29.4669 61.8634C28.1326 61.8634 27.0501 60.7865 27.0501 59.4647V46.0205H25.6473V59.3048C25.6524 59.361 25.6576 59.4069 25.6576 59.4647C25.6576 60.7865 24.5768 61.8634 23.2425 61.8634C21.9082 61.8634 21.0243 60.7865 21.0243 59.4647V42.2388C19.8254 41.6945 18.0663 40.8218 17.376 40.092C16.6052 39.3299 16.153 38.5269 16.153 37.2868C16.153 34.9851 16.153 34.1107 16.153 34.1107C16.153 30.1726 19.3749 26.9727 23.3435 26.9727H28.876C32.8378 26.9727 34.6414 27.3657 36.493 31.1967C37.6457 33.5698 38.8978 35.9633 39.8193 37.758C40.6586 35.9633 41.7822 33.5681 42.8236 31.1967C44.497 27.3657 46.9275 26.9727 50.5005 26.9727H53.8714C57.4444 26.9727 59.5323 27.5086 60.8101 31.3719C62.0879 35.2437 63.3673 39.1172 63.6602 40.2927C64.0097 41.6537 64.0011 42.8088 62.7661 43.1949ZM21.8688 43.5521L21.8756 43.5437C21.8739 43.5368 21.8739 43.5317 21.8739 43.5283C21.8739 43.53 21.8688 43.5436 21.8688 43.5521ZM25.3167 39.2482C25.2636 39.2363 25.2088 39.2278 25.1557 39.2278C24.5768 39.2278 23.9704 39.9117 23.7477 40.8541C23.4994 41.8867 23.8094 42.8394 24.4346 42.9857C24.4877 42.9959 24.5425 43.0027 24.5956 43.0027C25.1763 43.0027 25.7792 42.3188 26.0035 41.3781C26.2468 40.3489 25.9368 39.3928 25.3167 39.2482ZM21.7746 39.2278C21.7197 39.2278 21.6667 39.2346 21.6136 39.2482C20.9952 39.3928 20.6852 40.3489 20.9301 41.3798C21.1528 42.3205 21.7609 43.0044 22.3381 43.0044C22.3929 43.0044 22.446 42.9976 22.4991 42.9874C23.1243 42.8411 23.4343 41.8884 23.1894 40.8558C22.965 39.9134 22.3569 39.2278 21.7746 39.2278Z" fill="#888888"/>
</svg>
