<svg width="21" height="15" viewBox="0 0 21 15" fill="none" xmlns="http://www.w3.org/2000/svg">
<path d="M14.1838 11.7252H2.46396C2.30299 11.7252 2.17236 11.5938 2.17236 11.4336V1.82234C2.17236 0.817027 2.99013 0 3.99545 0H17.6135C18.6188 0 19.4366 0.817027 19.4366 1.82234V4.8982C19.4366 5.05917 19.306 5.1898 19.1451 5.1898C18.9841 5.1898 18.8535 5.05917 18.8535 4.8982V1.82234C18.8535 1.13897 18.2977 0.58236 17.6135 0.58236H3.99545C3.31208 0.58236 2.75551 1.13821 2.75551 1.82234V11.1412H14.1838C14.3448 11.1412 14.4753 11.2718 14.4753 11.4336C14.4753 11.5938 14.3448 11.7252 14.1838 11.7252Z" fill="white"/>
<path d="M14.1838 10.5148H3.63632C3.47535 10.5148 3.34473 10.3842 3.34473 10.2225V1.50266C3.34473 1.34168 3.47535 1.21106 3.63632 1.21106H17.9719C18.1329 1.21106 18.2635 1.34168 18.2635 1.50266V5.00154C18.2635 5.16252 18.1329 5.29305 17.9719 5.29305C17.811 5.29305 17.6804 5.16252 17.6804 5.00154V1.79342H3.92862V9.93089H14.1838C14.3448 9.93089 14.4753 10.0623 14.4753 10.2225C14.4753 10.3842 14.3448 10.5148 14.1838 10.5148Z" fill="white"/>
<path d="M14.1838 13.1587H1.72511C0.773708 13.1587 0 12.3842 0 11.4343C0 11.2726 0.12982 11.142 0.291551 11.142H13.9248C14.0858 11.142 14.2156 11.2726 14.2156 11.4343C14.2156 11.5945 14.0858 11.7259 13.9248 11.7259H0.621104C0.750185 12.2149 1.19662 12.5763 1.72585 12.5763H14.1845C14.3455 12.5763 14.4761 12.7069 14.4761 12.8679C14.4761 13.0289 14.3447 13.1587 14.1838 13.1587Z" fill="white"/>
<path d="M20.0866 14.4776H15.8656C15.3622 14.4776 14.9521 14.0676 14.9521 13.5642V9.47606C14.9521 8.97265 15.3622 8.56262 15.8656 8.56262H20.0866C20.59 8.56262 21 8.97265 21 9.47606V13.5642C21 14.0676 20.59 14.4776 20.0866 14.4776ZM15.8664 9.14582C15.6841 9.14582 15.5361 9.29381 15.5361 9.47681V13.5649C15.5361 13.7464 15.6834 13.8952 15.8664 13.8952H20.0873C20.2688 13.8952 20.4176 13.7471 20.4176 13.5649V9.47681C20.4176 9.29457 20.2695 9.14582 20.0873 9.14582H15.8664Z" fill="white"/>
<path d="M20.063 9.14584C19.902 9.14584 19.7714 9.0152 19.7714 8.85499V7.68035C19.7714 6.83904 18.9658 6.15341 17.9764 6.15341C16.987 6.15341 16.1814 6.83828 16.1814 7.68035V8.85499C16.1814 9.0152 16.0508 9.14584 15.8899 9.14584C15.7289 9.14584 15.5983 9.0152 15.5983 8.85499V7.68035C15.5983 6.5171 16.6651 5.57104 17.9764 5.57104C19.2877 5.57104 20.3546 6.5171 20.3546 7.68035V8.85499C20.3546 9.0152 20.2239 9.14584 20.063 9.14584Z" fill="white"/>
<path d="M17.9764 12.8247C17.4274 12.8247 16.9817 12.4192 16.9817 11.9211C16.9817 11.8436 17.0014 11.7578 17.025 11.6834C16.9566 11.5581 16.8746 11.3759 16.8746 11.2142C16.8746 10.6645 17.3689 10.2172 17.9764 10.2172C18.5838 10.2172 19.0781 10.6652 19.0781 11.2142C19.0781 11.3752 18.9969 11.5581 18.9278 11.6834C18.9505 11.7578 18.9711 11.8436 18.9711 11.9211C18.9703 12.4184 18.5246 12.8247 17.9764 12.8247ZM17.9764 10.8004C17.6901 10.8004 17.4578 10.9857 17.4578 11.2142C17.4616 11.259 17.5253 11.3949 17.5891 11.4921C17.643 11.5733 17.6522 11.6773 17.6142 11.7669C17.5914 11.8216 17.5664 11.899 17.5648 11.9249C17.5648 12.0942 17.7531 12.2407 17.9764 12.2407C18.1996 12.2407 18.3879 12.0942 18.3879 11.9203C18.3856 11.899 18.3613 11.8216 18.3386 11.7669C18.3006 11.6773 18.3097 11.5733 18.3628 11.4921C18.4266 11.3957 18.4904 11.2597 18.495 11.2126C18.4934 10.9848 18.2611 10.8004 17.9764 10.8004ZM18.7858 11.2134H18.7888H18.7858Z" fill="white"/>
</svg>
