<svg width="11" height="14" viewBox="0 0 11 14" fill="none" xmlns="http://www.w3.org/2000/svg">
<path d="M8.90884 14H1.70612C0.765307 14 0 13.2347 0 12.2945V6.39913C0 5.45887 0.765307 4.69408 1.70612 4.69408H8.90884C9.84965 4.69408 10.615 5.45887 10.615 6.39913V12.2945C10.615 13.2347 9.84965 14 8.90884 14ZM1.70612 5.12003C1.00079 5.12003 0.426526 5.6938 0.426526 6.39913V12.2945C0.426526 12.9998 1.00079 13.574 1.70612 13.574H8.90884C9.61472 13.574 10.1884 12.9998 10.1884 12.2945V6.39913C10.1884 5.6938 9.61472 5.12003 8.90884 5.12003H1.70612Z" fill="#555555"/>
<path d="M8.79666 5.12004C8.67892 5.12004 8.58339 5.02451 8.58339 4.90621V3.70217C8.58339 1.89607 7.11386 0.426568 5.30721 0.426568C3.50056 0.426568 2.03103 1.89607 2.03103 3.70217V4.90621C2.03103 5.02451 1.9355 5.12004 1.81776 5.12004C1.70002 5.12004 1.60449 5.02451 1.60449 4.90621V3.70217C1.60449 1.66059 3.26564 0 5.30721 0C7.34878 0 9.00992 1.66059 9.00992 3.70217V4.90621C9.00992 5.02451 8.91495 5.12004 8.79666 5.12004Z" fill="#555555"/>
<path d="M4.60792 11.4525C4.60514 11.4525 4.60236 11.4525 4.59959 11.4525C4.53016 11.4503 4.46685 11.4142 4.42853 11.3559L2.94178 9.07048C2.87791 8.97163 2.90568 8.83944 3.00454 8.77558C3.1034 8.71171 3.23502 8.73945 3.29944 8.8372L4.62125 10.8694L7.32428 7.32381C7.39537 7.2305 7.52921 7.21272 7.62307 7.28381C7.71693 7.35545 7.7347 7.48933 7.66361 7.58319L4.7773 11.3687C4.73676 11.422 4.67401 11.4525 4.60792 11.4525Z" fill="#555555"/>
</svg>
