<svg width="8" height="14" viewBox="0 0 8 14" fill="none" xmlns="http://www.w3.org/2000/svg">
<path d="M4.90505 6.02112C4.73653 6.02112 4.57049 5.97485 4.42284 5.88537C4.21008 5.75612 4.06045 5.55181 4.00129 5.31021C3.8795 4.81061 4.18622 4.30555 4.68533 4.18326C4.92743 4.1251 5.17747 4.16336 5.39024 4.29261C5.6035 4.42186 5.75264 4.62617 5.81229 4.86777C5.87095 5.10937 5.83268 5.35996 5.70343 5.57273C5.57418 5.78549 5.36985 5.93508 5.12776 5.99423C5.05369 6.01213 4.97912 6.02112 4.90505 6.02112ZM4.90754 4.5382C4.86379 4.5382 4.81955 4.54317 4.77581 4.55361C4.48102 4.62619 4.29956 4.92397 4.37164 5.21876C4.40644 5.36143 4.49493 5.48172 4.6207 5.55877C4.74598 5.63483 4.89362 5.65771 5.03629 5.62291C5.17896 5.58811 5.29977 5.49963 5.37583 5.37435C5.45238 5.24858 5.47525 5.10044 5.44046 4.95776C5.40566 4.81509 5.31717 4.6948 5.1919 4.61824C5.1049 4.56555 5.00696 4.5382 4.90754 4.5382Z" fill="#555555"/>
<path d="M6.82405 13.2611C6.78975 13.2611 6.75495 13.2517 6.72512 13.2338L5.48482 12.4801C5.44157 12.4533 5.41074 12.4111 5.39831 12.3618C5.38638 12.3131 5.39434 12.2609 5.42069 12.2181L5.75774 11.6634L5.22333 11.3393C5.18008 11.3129 5.14876 11.2706 5.13733 11.2214C5.1254 11.1722 5.13336 11.1206 5.1597 11.0773L5.45449 10.5916L4.90517 10.258C4.81519 10.2033 4.78636 10.086 4.84154 9.99605L5.25713 9.31154L4.63226 8.93172C4.58901 8.90538 4.55819 8.8626 4.54626 8.81388L4.39215 8.18308C3.53164 7.93651 2.87346 7.25593 2.66019 6.382C2.33458 5.04823 3.15483 3.69858 4.48859 3.37247C5.13435 3.21488 5.80347 3.31827 6.37167 3.66327C6.94037 4.00876 7.34005 4.55461 7.49813 5.20086C7.70991 6.06733 7.44444 6.97058 6.80366 7.58601L7.81082 11.7086C7.82225 11.7583 7.81431 11.8095 7.78846 11.8533L6.98859 13.1697C6.96224 13.2124 6.91999 13.2432 6.87078 13.2561C6.85487 13.2596 6.83946 13.2611 6.82405 13.2611ZM5.84621 12.2535L6.76042 12.8082L7.4201 11.7221L6.41045 7.58899C6.38311 7.51641 6.40298 7.43294 6.46314 7.37975C7.05968 6.85877 7.31371 6.05887 7.1263 5.29182C6.99257 4.744 6.65404 4.28217 6.17283 3.98986C5.69162 3.69756 5.1254 3.61007 4.57807 3.74379C3.44912 4.01969 2.75464 5.16255 3.03054 6.292C3.21895 7.06403 3.81847 7.65811 4.59447 7.84155C4.66407 7.85845 4.71876 7.91262 4.73567 7.98221L4.89772 8.64639L5.61805 9.08434C5.70852 9.13853 5.73686 9.25633 5.68217 9.34631L5.26658 10.0308L5.8154 10.3649C5.85865 10.3912 5.88946 10.4335 5.90189 10.4822C5.91382 10.532 5.90588 10.5832 5.87953 10.6269L5.58473 11.1126L6.11864 11.4367C6.16189 11.463 6.19271 11.5048 6.20514 11.554C6.21707 11.6037 6.20911 11.655 6.18276 11.6987L5.84621 12.2535Z" fill="#555555"/>
<path d="M0.790478 13.282C0.717899 13.282 0.648299 13.2403 0.616484 13.1697L0.0169637 11.8478C-0.0262855 11.7524 0.015959 11.639 0.111903 11.5953L0.702487 11.3273L0.444477 10.7581C0.401228 10.6622 0.443488 10.5489 0.539431 10.5051L1.05644 10.2709L0.791464 9.68535C0.747718 9.58941 0.790475 9.47605 0.886418 9.4323L1.61618 9.10176L1.31443 8.43558C1.29355 8.38985 1.29206 8.33766 1.30946 8.28994L1.53814 7.68196C0.966953 6.99345 0.806878 6.0594 1.12404 5.21828C1.43523 4.39107 2.16998 3.78608 3.04242 3.63893C3.14681 3.62054 3.24474 3.69111 3.26214 3.79501C3.28003 3.89891 3.20994 3.99735 3.10604 4.01474C2.36733 4.13952 1.74443 4.65152 1.48096 5.35196C1.20109 6.09565 1.36067 6.92385 1.89755 7.51392C1.94577 7.56662 1.9602 7.6427 1.93484 7.70981L1.69423 8.34959L2.04221 9.11766C2.08595 9.21311 2.04321 9.32642 1.94727 9.37016L1.21799 9.70125L1.48345 10.2864C1.5267 10.3823 1.48445 10.4957 1.38851 10.5394L0.871005 10.7735L1.12901 11.3432C1.17226 11.4387 1.13 11.5525 1.03406 11.5958L0.443491 11.8632L0.884931 12.8381L2.04221 12.3136L3.54849 8.31033C3.58577 8.2124 3.69563 8.16219 3.79456 8.19898C3.89299 8.23626 3.94319 8.34612 3.90591 8.44505L2.37229 12.5209C2.3544 12.5686 2.31861 12.6069 2.27238 12.6278L0.869017 13.2636C0.843664 13.2765 0.816825 13.282 0.790478 13.282Z" fill="#555555"/>
<path d="M4.53524 5.33655C4.4557 5.33655 4.38162 5.28683 4.35428 5.20729C4.31998 5.10787 4.37367 4.99953 4.4731 4.96523C5.42557 4.63961 6.06487 3.74378 6.06487 2.73712C6.06487 1.43865 5.00849 0.382304 3.71002 0.382304C2.41155 0.382304 1.35518 1.43865 1.35518 2.73712C1.35518 3.14873 1.46306 3.55392 1.66688 3.90837C1.71907 3.99984 1.68776 4.11614 1.59629 4.16833C1.50482 4.22053 1.38848 4.18972 1.33579 4.09776C1.09866 3.68565 0.973389 3.21486 0.973389 2.73663C0.973389 1.22738 2.20127 0 3.71002 0C5.21877 0 6.44665 1.22738 6.44665 2.73663C6.44665 3.90685 5.70346 4.94681 4.59688 5.32611C4.57649 5.33357 4.55562 5.33655 4.53524 5.33655Z" fill="#555555"/>
</svg>
