<svg width="22" height="18" viewBox="0 0 22 18" fill="none" xmlns="http://www.w3.org/2000/svg">
<path d="M10.924 16.8164C10.7373 16.8164 10.5874 16.6458 10.5874 16.4344V2.01996C10.5874 1.81062 10.7373 1.63992 10.924 1.63992C11.1106 1.63992 11.2596 1.81062 11.2596 2.01996V16.4344C11.2596 16.6458 11.1106 16.8164 10.924 16.8164Z" fill="#999999"/>
<path d="M11.0256 18H10.8257C8.91088 18 7.63934 17.6339 7.0443 16.9107C6.91285 16.7519 6.83317 16.5971 6.78584 16.4632H1.05188C0.866094 16.4632 0.715332 16.2925 0.715332 16.0812V2.0269C0.715332 1.81557 0.866094 1.64601 1.05188 1.64601H2.31378C2.49957 1.64601 2.65033 1.81557 2.65033 2.0269C2.65033 2.23722 2.49957 2.4079 2.31378 2.4079H1.38736V15.7013H7.05222C7.14511 15.7013 7.2345 15.7439 7.29848 15.8213C7.36157 15.8987 7.39404 16.0028 7.38791 16.108C7.40105 16.4086 8.04329 17.238 10.8257 17.238H11.0256C13.8089 17.238 14.4504 16.4087 14.4627 16.0892C14.4557 15.984 14.489 15.8897 14.5539 15.8123C14.617 15.735 14.7064 15.7023 14.8001 15.7023H20.4639V2.40887H19.5377C19.3519 2.40887 19.202 2.23831 19.202 2.02799C19.202 1.81666 19.3519 1.64698 19.5377 1.64698H20.7996C20.9854 1.64698 21.1362 1.81666 21.1362 2.02799V16.0822C21.1362 16.2935 20.9854 16.4641 20.7996 16.4641H15.0665C15.0183 16.5981 14.9384 16.7529 14.807 16.9116C14.2119 17.6339 12.9404 18 11.0256 18Z" fill="#999999"/>
<path d="M10.9242 16.8164C10.7376 16.8164 10.5877 16.6458 10.5877 16.4344C10.5877 15.7419 10.0892 15.1764 9.47747 15.1764C9.4617 15.1764 9.4468 15.1764 9.4319 15.1735H3.01949C2.44548 15.1735 1.97754 14.7259 1.97754 14.1743V1.00011C1.97754 0.448492 2.44548 0 3.01949 0H9.47747C10.4599 0 11.2591 0.906826 11.2591 2.01899C11.2591 2.23031 11.11 2.40096 10.9234 2.40096C10.7367 2.40096 10.5868 2.23031 10.5868 2.01899C10.5868 1.32649 10.0881 0.76201 9.4764 0.76201H3.01864C2.79604 0.76201 2.64893 0.904766 2.64893 0.999017V14.1734C2.64893 14.2686 2.79604 14.4105 3.01864 14.4105H9.4764C9.49306 14.4105 9.50894 14.4115 9.52647 14.4145C10.4861 14.4442 11.2591 15.3381 11.2591 16.4324C11.2599 16.6457 11.1109 16.8164 10.9242 16.8164Z" fill="#999999"/>
<path d="M10.928 16.8162C10.7413 16.8162 10.5908 16.6455 10.5908 16.4342C10.5908 15.3389 11.3644 14.446 12.3249 14.4162C12.3416 14.4132 12.3575 14.4122 12.375 14.4122H18.831C19.0545 14.4122 19.2027 14.2693 19.2027 14.1751V1.00086C19.2027 0.90562 19.0545 0.763734 18.831 0.763734H12.375C11.7624 0.763734 11.2646 1.32722 11.2646 2.02071C11.2646 2.23203 11.1129 2.40268 10.928 2.40268C10.7413 2.40268 10.5908 2.23203 10.5908 2.02071C10.5908 0.908551 11.3909 0.00172424 12.3741 0.00172424H18.8302C19.4051 0.00172424 19.8738 0.450216 19.8738 1.00183V14.1762C19.8738 14.7278 19.4051 15.1752 18.8302 15.1752H12.4188C12.4039 15.1782 12.3899 15.1782 12.3741 15.1782C11.7616 15.1782 11.2637 15.7427 11.2637 16.4362C11.2646 16.6455 11.1129 16.8162 10.928 16.8162Z" fill="#999999"/>
</svg>
