<svg width="24" height="26" viewBox="0 0 24 26" fill="none" xmlns="http://www.w3.org/2000/svg">
<path d="M11.918 11.286C11.911 11.286 11.903 11.286 11.897 11.285C11.7 11.273 11.0388 11.229 10.7778 11.141C9.71183 10.782 8.13281 9.58098 8.13281 8.14398V4.40601C8.13281 2.67401 9.8198 1.26501 11.8938 1.26501C14.0108 1.26501 15.7039 2.67401 15.7039 4.40601V8.14398C15.7039 9.54998 14.122 10.751 12.999 11.155C12.662 11.277 12.086 11.286 11.918 11.286ZM11.9309 2.02698C10.2679 2.02698 8.89282 3.11698 8.89282 4.40698V8.14502C8.89282 9.11102 10.132 10.122 11.02 10.42C11.129 10.457 11.5759 10.503 11.9299 10.524C12.2659 10.524 12.605 10.487 12.741 10.439C13.665 10.107 14.9438 9.12498 14.9438 8.14398V4.40601C14.9428 3.11601 13.5639 2.02698 11.9309 2.02698Z" fill="#555555"/>
<path d="M7.53491 8.263H7.4939C6.9199 8.263 6.45288 7.79598 6.45288 7.22198V5.39899C6.45288 4.82499 6.9199 4.35797 7.4939 4.35797H7.53491C8.10891 4.35797 8.5769 4.82499 8.5769 5.39899V7.22198C8.5769 7.79598 8.10891 8.263 7.53491 8.263ZM7.4939 5.11798C7.3399 5.11798 7.21484 5.24401 7.21484 5.39801V7.22101C7.21484 7.37501 7.3399 7.50098 7.4939 7.50098H7.53491C7.68891 7.50098 7.81592 7.37501 7.81592 7.22101V5.39801C7.81592 5.24401 7.68891 5.11798 7.53491 5.11798H7.4939Z" fill="#555555"/>
<path d="M16.3418 8.263H16.301C15.726 8.263 15.2588 7.79598 15.2588 7.22198V5.39899C15.2588 4.82499 15.726 4.35797 16.301 4.35797H16.3418C16.9158 4.35797 17.3828 4.82499 17.3828 5.39899V7.22198C17.3828 7.79598 16.9158 8.263 16.3418 8.263ZM16.301 5.11798C16.146 5.11798 16.02 5.24401 16.02 5.39801V7.22101C16.02 7.37501 16.146 7.50098 16.301 7.50098H16.3418C16.4958 7.50098 16.6208 7.37501 16.6208 7.22101V5.39801C16.6208 5.24401 16.4958 5.11798 16.3418 5.11798H16.301Z" fill="#555555"/>
<path d="M16.3579 5.099C16.1479 5.099 15.978 4.92899 15.978 4.71899C15.978 2.49899 14.195 0.760986 11.917 0.760986C9.64099 0.760986 7.85596 2.49899 7.85596 4.71899C7.85596 4.92899 7.68583 5.099 7.47583 5.099C7.26583 5.099 7.09595 4.92899 7.09595 4.71899C7.09595 2.07299 9.21302 0 11.916 0C14.619 0 16.7358 2.07299 16.7358 4.71899C16.7378 4.92899 16.5679 5.099 16.3579 5.099Z" fill="#555555"/>
<path d="M15.9509 8.74402H13.49C13.28 8.74402 13.1089 8.57401 13.1089 8.36401C13.1089 8.15401 13.28 7.98401 13.49 7.98401H15.9509C15.9649 7.98001 15.9919 7.945 15.9919 7.927C15.9919 7.717 16.1628 7.547 16.3728 7.547C16.5838 7.547 16.7539 7.717 16.7539 7.927C16.7539 8.362 16.3789 8.74402 15.9509 8.74402Z" fill="#555555"/>
<path d="M13.031 9.40002H11.2229C10.7879 9.40002 10.4358 9.04598 10.4358 8.61298V8.11597C10.4358 7.68197 10.7889 7.32898 11.2229 7.32898H13.031C13.465 7.32898 13.8179 7.68197 13.8179 8.11597V8.61298C13.8179 9.04598 13.465 9.40002 13.031 9.40002ZM11.2239 8.08899L11.198 8.612L13.032 8.638L13.0579 8.11499L13.032 8.08899H11.2239Z" fill="#555555"/>
<path d="M5.23096 23.321C5.17996 23.321 5.1269 23.31 5.0769 23.288C4.2219 22.908 3.66895 22.157 3.66895 21.376C3.66895 21.34 3.67281 21.304 3.68481 21.269L5.94897 13.549C6.20497 12.652 6.565 11.755 7.854 11.538C7.863 11.537 7.87091 11.536 7.87891 11.535C7.95291 11.521 8.13392 11.487 8.54492 11.407C8.75292 11.367 8.94997 11.503 8.99097 11.709C9.02997 11.915 8.89499 12.115 8.68799 12.154C8.41499 12.207 8.20803 12.247 8.05103 12.269C8.03203 12.276 8.01294 12.282 7.99194 12.286L7.98999 12.277C7.98599 12.277 7.98081 12.278 7.97681 12.278L7.979 12.288C7.188 12.421 6.938 12.85 6.677 13.761L4.42896 21.426C4.45396 21.89 4.82401 22.344 5.38501 22.593C5.57601 22.678 5.6629 22.903 5.5769 23.095C5.5159 23.237 5.37696 23.321 5.23096 23.321Z" fill="#555555"/>
<path d="M18.2969 23.363C18.1449 23.363 18.0019 23.272 17.9429 23.122C17.8659 22.927 17.963 22.706 18.159 22.629C18.763 22.391 19.177 21.911 19.201 21.423L17.0709 13.67C16.8819 12.812 16.3889 12.505 15.6019 12.261C15.5859 12.256 15.5709 12.251 15.5569 12.244C15.4799 12.226 15.3499 12.197 15.1399 12.151C14.9339 12.107 14.8049 11.904 14.8489 11.699C14.8929 11.494 15.0981 11.363 15.3011 11.408C15.5221 11.456 15.696 11.494 15.826 11.535V11.534C16.691 11.803 17.5309 12.225 17.8079 13.487L19.949 21.275C19.957 21.308 19.962 21.341 19.962 21.376C19.962 22.203 19.3628 22.973 18.4358 23.337C18.3908 23.356 18.3429 23.363 18.2969 23.363Z" fill="#555555"/>
<path d="M13.4419 14.807C13.4099 14.807 13.377 14.803 13.343 14.794C13.187 14.752 13.073 14.614 13.063 14.452L12.9448 12.722L12.1699 12.303C12.0699 12.249 12.001 12.155 11.979 12.045C11.956 11.935 11.9829 11.82 12.0529 11.732L13.0129 10.516C13.1269 10.371 13.3289 10.329 13.4919 10.417L15.3999 11.445C15.4949 11.496 15.5638 11.584 15.5888 11.688C15.6138 11.792 15.5949 11.903 15.5349 11.992L13.7568 14.638C13.6868 14.746 13.5679 14.807 13.4419 14.807ZM12.9299 11.849L13.4929 12.153C13.6079 12.215 13.6819 12.331 13.6919 12.462L13.749 13.292L14.6709 11.917L13.4128 11.239L12.9299 11.849Z" fill="#555555"/>
<path d="M10.3939 14.807C10.2699 14.807 10.1509 14.745 10.0789 14.639L8.30207 11.993C8.24107 11.904 8.22187 11.794 8.24787 11.689C8.27387 11.585 8.34286 11.497 8.43586 11.446L10.345 10.418C10.508 10.331 10.71 10.372 10.824 10.518L11.784 11.734C11.853 11.822 11.881 11.936 11.857 12.047C11.836 12.157 11.7651 12.251 11.6661 12.305L10.8909 12.724L10.774 14.454C10.763 14.616 10.651 14.754 10.493 14.796C10.46 14.803 10.4269 14.807 10.3939 14.807ZM9.16608 11.916L10.0899 13.291L10.1461 12.461C10.1551 12.331 10.23 12.214 10.345 12.152L10.9071 11.848L10.4249 11.238L9.16608 11.916Z" fill="#555555"/>
<path d="M10.543 11.133C10.391 11.133 10.246 11.039 10.188 10.887C10.114 10.69 10.2119 10.47 10.4089 10.396L10.5498 10.342C10.7458 10.267 10.9658 10.366 11.0398 10.563C11.1148 10.76 11.0169 10.979 10.8189 11.054L10.679 11.107C10.635 11.125 10.588 11.133 10.543 11.133Z" fill="#555555"/>
<path d="M13.3121 11.133C13.2741 11.133 13.235 11.127 13.198 11.114L13.012 11.056C12.811 10.992 12.7 10.778 12.764 10.578C12.828 10.378 13.042 10.267 13.242 10.331L13.428 10.39C13.628 10.453 13.7388 10.667 13.6748 10.868C13.6228 11.029 13.4731 11.133 13.3121 11.133Z" fill="#555555"/>
<path d="M11.9181 13.018C11.9171 13.018 11.9159 13.018 11.9139 13.018C11.7829 13.017 11.6621 12.948 11.5931 12.835L11.1859 12.163C11.0769 11.983 11.1331 11.749 11.3131 11.64C11.4941 11.531 11.727 11.588 11.836 11.767L11.9261 11.915L12.024 11.761C12.136 11.583 12.3719 11.531 12.5489 11.643C12.7259 11.755 12.7781 11.991 12.6661 12.168L12.2391 12.84C12.1701 12.951 12.0491 13.018 11.9181 13.018Z" fill="#555555"/>
<path d="M15.834 23.648H7.89893C6.84993 23.648 5.9978 22.794 5.9978 21.746V17.877C5.9978 16.828 6.85093 15.975 7.89893 15.975H15.834C16.884 15.975 17.7358 16.829 17.7358 17.877V21.746C17.7358 22.795 16.884 23.648 15.834 23.648ZM7.8999 16.736C7.2699 16.736 6.75781 17.248 6.75781 17.878V21.747C6.75781 22.376 7.2699 22.888 7.8999 22.888H15.835C16.466 22.888 16.9768 22.376 16.9768 21.747V17.878C16.9768 17.248 16.466 16.736 15.835 16.736H7.8999Z" fill="#555555"/>
<path d="M22.947 25.418H0.379883C0.169883 25.418 0 25.248 0 25.037V23.267C0 23.057 0.169883 22.886 0.379883 22.886H22.947C23.157 22.886 23.3279 23.057 23.3279 23.267V25.037C23.3279 25.248 23.157 25.418 22.947 25.418ZM0.760986 24.657H22.5669V23.648H0.760986V24.657Z" fill="#555555"/>
</svg>
