<svg width="13" height="12" viewBox="0 0 13 12" fill="none" xmlns="http://www.w3.org/2000/svg">
<path d="M11.1935 10.2288H1.39128C1.27551 10.2288 1.18164 10.1349 1.18164 10.0191V5.70261C1.18164 5.05881 1.70475 4.53564 2.34801 4.53564H10.2369C10.8801 4.53564 11.4032 5.05881 11.4032 5.70261V10.0191C11.4032 10.1349 11.3093 10.2288 11.1935 10.2288ZM1.60098 9.80949H10.9844V5.70261C10.9844 5.29034 10.6491 4.95505 10.2374 4.95505H2.34854C1.93681 4.95505 1.60098 5.29034 1.60098 5.70261V9.80949Z" fill="#555555"/>
<path d="M9.55917 6.33765C9.08792 6.33765 8.84274 6.17549 8.6265 6.03243C8.43538 5.90683 8.27052 5.79706 7.92487 5.79706C7.57976 5.79706 7.41482 5.90629 7.2237 6.03243C7.00747 6.17549 6.76282 6.33765 6.29157 6.33765C5.81978 6.33765 5.57514 6.17549 5.35891 6.03243C5.16779 5.90683 5.00346 5.79706 4.65781 5.79706C4.3127 5.79706 4.14781 5.90629 3.95724 6.03243C3.741 6.17549 3.49635 6.33765 3.02511 6.33765C2.55332 6.33765 2.30868 6.17549 2.09244 6.03243C1.90132 5.90683 1.73693 5.79706 1.39128 5.79706C1.27551 5.79706 1.18164 5.70367 1.18164 5.58736C1.18164 5.47159 1.27551 5.37766 1.39128 5.37766C1.86252 5.37766 2.10772 5.53988 2.32341 5.68294C2.51507 5.80854 2.67946 5.91824 3.02511 5.91824C3.37022 5.91824 3.5351 5.80908 3.72567 5.68294C3.94191 5.53988 4.18656 5.37766 4.65781 5.37766C5.1296 5.37766 5.37424 5.53988 5.59047 5.68294C5.78159 5.80854 5.94592 5.91824 6.29157 5.91824C6.63668 5.91824 6.80217 5.80908 6.99274 5.68294C7.20898 5.53988 7.45308 5.37766 7.92487 5.37766C8.39666 5.37766 8.6413 5.53988 8.85754 5.68294C9.04866 5.80854 9.21352 5.91824 9.55917 5.91824C9.90482 5.91824 10.0703 5.80908 10.2609 5.68294C10.4771 5.53988 10.7223 5.37766 11.1935 5.37766C11.3093 5.37766 11.4032 5.47159 11.4032 5.58736C11.4032 5.70367 11.3093 5.79706 11.1935 5.79706C10.8479 5.79706 10.683 5.90629 10.4918 6.03243C10.2756 6.17549 10.031 6.33765 9.55917 6.33765Z" fill="#555555"/>
<path d="M11.1935 7.59195H1.39128C1.27551 7.59195 1.18164 7.49801 1.18164 7.38225C1.18164 7.26649 1.27551 7.17255 1.39128 7.17255H11.1935C11.3093 7.17255 11.4032 7.26649 11.4032 7.38225C11.4032 7.49801 11.3093 7.59195 11.1935 7.59195Z" fill="#555555"/>
<path d="M11.1935 8.68352H1.39128C1.27551 8.68352 1.18164 8.59013 1.18164 8.47382C1.18164 8.35805 1.27551 8.26465 1.39128 8.26465H11.1935C11.3093 8.26465 11.4032 8.35805 11.4032 8.47382C11.4032 8.59013 11.3093 8.68352 11.1935 8.68352Z" fill="#555555"/>
<path d="M11.7484 11.1167H0.836013C0.35057 11.1167 0 10.4614 0 10.0191C0 9.90332 0.0939396 9.80945 0.209703 9.80945H12.3758C12.4916 9.80945 12.5849 9.90332 12.5849 10.0191C12.5849 10.4614 12.2338 11.1167 11.7484 11.1167ZM0.453801 10.2288C0.526973 10.4658 0.701138 10.6973 0.836013 10.6973H11.7484C11.8833 10.6973 12.0569 10.4652 12.1306 10.2288H0.453801Z" fill="#555555"/>
<path d="M6.31252 3.79846C6.29778 3.79846 6.28302 3.79741 6.26773 3.79413C6.23934 3.78758 5.56221 3.63681 5.27881 3.13116C5.13246 2.8696 5.11718 2.57096 5.23295 2.24169C5.58297 1.24405 5.32088 0.275321 5.3176 0.266038C5.29958 0.199966 5.3143 0.129512 5.35853 0.0759991C5.40221 0.0230318 5.46939 -0.00478395 5.5371 0.000676602C5.59444 0.00559109 6.94102 0.143199 7.35111 2.44646C7.415 2.78228 7.29433 3.4992 6.37532 3.78807C6.35511 3.79516 6.33382 3.79846 6.31252 3.79846ZM5.79267 0.517202C5.85109 0.930566 5.88711 1.64316 5.62882 2.38033C5.55401 2.5933 5.55896 2.77189 5.64469 2.92479C5.79868 3.20109 6.16888 3.33108 6.30539 3.37039C7.04147 3.10992 6.94374 2.54689 6.93937 2.52231C6.7002 1.18284 6.13996 0.694124 5.79267 0.517202Z" fill="#555555"/>
<path d="M6.29271 4.95503C6.17695 4.95503 6.08301 4.86109 6.08301 4.74533V3.57457C6.08301 3.4588 6.17695 3.36493 6.29271 3.36493C6.40793 3.36493 6.50181 3.4588 6.50181 3.57457V4.74533C6.50181 4.86109 6.40793 4.95503 6.29271 4.95503Z" fill="#555555"/>
</svg>
