<svg width="11" height="14" viewBox="0 0 11 14" fill="none" xmlns="http://www.w3.org/2000/svg">
<path d="M5.2756 4.82446C3.94547 4.82446 2.8634 3.74188 2.8634 2.41226C2.8634 1.08213 3.94547 0 5.2756 0C6.60522 0 7.68781 1.08213 7.68781 2.41226C7.68781 3.74239 6.60522 4.82446 5.2756 4.82446ZM5.2756 0.396903C4.16458 0.396903 3.26018 1.30124 3.26018 2.41226C3.26018 3.52329 4.16458 4.42756 5.2756 4.42756C6.38663 4.42756 7.2909 3.52329 7.2909 2.41226C7.2909 1.30124 6.38663 0.396903 5.2756 0.396903Z" fill="#555555"/>
<path d="M1.14302 8.17356C0.850536 8.17356 0.557553 8.06144 0.334832 7.83924C0.119344 7.62323 0 7.33594 0 7.03105C0 6.72616 0.119344 6.4388 0.334832 6.2228L2.53054 4.02766C2.60754 3.95066 2.73361 3.95066 2.81112 4.02766C2.88864 4.10465 2.88864 4.23074 2.81112 4.30773L0.615414 6.50344C0.474856 6.644 0.396272 6.8321 0.396272 7.03105C0.396272 7.23 0.47434 7.4181 0.615414 7.55866C0.906348 7.84959 1.3802 7.84959 1.67113 7.55866L2.62453 6.60519C2.70204 6.52768 2.8276 6.52768 2.90511 6.60519C2.98263 6.68271 2.98263 6.80832 2.90511 6.88584L1.95171 7.83924C1.72796 8.06144 1.4355 8.17356 1.14302 8.17356Z" fill="#555555"/>
<path d="M9.40747 8.17356C9.11499 8.17356 8.822 8.06144 8.59928 7.83924L7.64588 6.88584C7.56889 6.80832 7.56889 6.68271 7.64588 6.60519C7.7234 6.52768 7.84946 6.52768 7.92697 6.60519L8.87986 7.55866C9.1708 7.84959 9.64465 7.84959 9.93558 7.55866C10.0767 7.4181 10.1547 7.23 10.1547 7.03105C10.1547 6.8321 10.0772 6.644 9.93558 6.50344L7.7405 4.30773C7.66299 4.23074 7.66299 4.10465 7.7405 4.02766C7.81802 3.95066 7.94357 3.95066 8.02109 4.02766L10.2163 6.2228C10.4323 6.4388 10.5511 6.72616 10.5511 7.03105C10.5511 7.33594 10.4323 7.62323 10.2163 7.83924C9.99253 8.06144 9.69995 8.17356 9.40747 8.17356Z" fill="#555555"/>
<path d="M5.27558 10.8938C3.78164 10.8938 2.56665 9.67781 2.56665 8.18439V6.7452C2.56665 6.63565 2.65504 6.54681 2.7646 6.54681C2.87467 6.54681 2.96305 6.63565 2.96305 6.7452V8.18439C2.96305 9.45974 4.00073 10.4969 5.27609 10.4969C6.55092 10.4969 7.58849 9.45974 7.58849 8.18439V6.7452C7.58849 6.63565 7.67739 6.54681 7.78695 6.54681C7.89701 6.54681 7.9854 6.63565 7.9854 6.7452V8.18439C7.98436 9.67833 6.76901 10.8938 5.27558 10.8938Z" fill="#555555"/>
<path d="M7.78583 8.38283H2.76399C2.65443 8.38283 2.56604 8.29394 2.56604 8.18438C2.56604 8.07483 2.65443 7.98593 2.76399 7.98593H7.78583C7.8959 7.98593 7.98428 8.07483 7.98428 8.18438C7.98428 8.29394 7.8959 8.38283 7.78583 8.38283Z" fill="#555555"/>
<path d="M3.04049 14C2.97383 14 2.90607 13.9912 2.83838 13.9741C2.52729 13.8951 2.2622 13.6377 2.11131 13.2683L1.51911 11.8177C1.4788 11.7511 1.44211 11.6793 1.41162 11.6038C1.35995 11.4782 1.32278 11.3428 1.30211 11.2007C1.20755 10.7243 1.33101 10.2039 1.61626 9.88506C1.6638 9.82564 1.72217 9.76519 1.78418 9.71506L2.76293 8.91615C2.84768 8.84742 2.97276 8.86036 3.042 8.9446C3.11125 9.02986 3.09836 9.15441 3.01362 9.22417L2.03486 10.0225C1.99455 10.0551 1.95625 10.0954 1.91904 10.1409C1.70924 10.376 1.62088 10.7718 1.69271 11.1336C1.71028 11.2529 1.73873 11.3583 1.77749 11.4539C1.80281 11.5144 1.83124 11.5713 1.86328 11.6224C1.87 11.6317 1.87517 11.642 1.8793 11.6529L2.47819 13.1195C2.58051 13.3706 2.74793 13.5422 2.93603 13.5902C3.07555 13.6254 3.21564 13.5887 3.34328 13.4848C3.56393 13.305 3.69981 12.9608 3.69981 12.5856C3.69981 12.3991 3.66565 12.2151 3.59951 12.0544L3.34479 11.4291C3.31172 11.3485 3.33501 11.2555 3.40219 11.2002L4.36177 10.4168C4.44756 10.3471 4.5721 10.3605 4.64135 10.4452C4.71111 10.53 4.69771 10.655 4.61296 10.7243L3.76642 11.4152L3.96702 11.9045C4.05176 12.1117 4.0962 12.3474 4.0962 12.5856C4.0962 13.0848 3.90855 13.536 3.59333 13.7928C3.42693 13.9287 3.23531 14 3.04049 14Z" fill="#555555"/>
<path d="M7.50994 14C7.31512 14 7.12339 13.9286 6.95596 13.7912C6.64126 13.5359 6.45207 13.0848 6.45207 12.5851C6.45207 12.3468 6.49765 12.1112 6.5824 11.904L6.78236 11.4146L5.93645 10.7237C5.85171 10.6545 5.8387 10.5294 5.90794 10.4447C5.97719 10.3599 6.10174 10.347 6.18701 10.4162L7.14609 11.1997C7.21378 11.255 7.23757 11.348 7.2045 11.4286L6.94928 12.0539C6.88365 12.2151 6.84847 12.3985 6.84847 12.5851C6.84847 12.9607 6.98589 13.3054 7.20551 13.4842C7.33366 13.5886 7.47323 13.6248 7.61276 13.5897C7.80086 13.5416 7.96828 13.37 8.0706 13.1183L8.66999 11.6524C8.67412 11.6415 8.67932 11.6311 8.685 11.6218C8.71756 11.5702 8.74649 11.5139 8.77129 11.4534C8.81005 11.3573 8.83853 11.2524 8.85506 11.1423C8.92844 10.7707 8.84002 10.3754 8.63693 10.1491C8.59301 10.0948 8.55474 10.0545 8.51443 10.0225L7.53529 9.22357C7.45055 9.1538 7.43805 9.02926 7.50678 8.94399C7.57603 8.85976 7.70057 8.84688 7.78635 8.91561L8.76461 9.71503C8.82662 9.76464 8.88557 9.82509 8.94035 9.89279C9.21836 10.2039 9.34125 10.7237 9.24616 11.2095C9.22601 11.3428 9.18985 11.4782 9.13817 11.6038C9.10665 11.6792 9.07047 11.751 9.03068 11.8177L8.43798 13.2682C8.28708 13.6382 8.02201 13.895 7.71041 13.9741C7.64426 13.9917 7.5766 14 7.50994 14Z" fill="#555555"/>
</svg>
