<svg width="80" height="80" viewBox="0 0 80 80" fill="none" xmlns="http://www.w3.org/2000/svg">
<circle cx="40" cy="40" r="40" fill="#DECFB7"/>
<path d="M50.868 30.9081L50.7902 30.6782C49.7182 27.4654 47.9757 26.027 45.9827 25.3907C47.3969 23.8397 46.3748 21.2319 45.5299 19.6559C44.8158 17.0684 42.6968 15.2158 40.1764 15.0063C40.1235 15.0031 40.0612 15 39.9974 15C39.9368 15 39.873 15.0016 39.8201 15.0063C37.3199 15.2126 35.2148 17.0403 34.4836 19.5965C33.032 21.9855 32.8562 24.1258 34.0138 25.3922C32.0223 26.0286 30.2813 27.4669 29.2047 30.6782L28.8811 31.6523C27.6271 35.4077 26.5442 38.6518 26.2502 39.7994C25.2529 43.6642 27.4918 44.7915 28.4999 45.0964C28.8873 45.2136 29.2809 45.2746 29.6668 45.2777L28.3755 49.5584C28.1965 50.1541 28.3086 50.7998 28.6757 51.3001C29.0445 51.7989 29.6279 52.0943 30.2471 52.0943H33.5688L33.2452 59.5301C33.2436 59.5598 33.2421 59.5895 33.2436 59.6192C33.2436 62.1567 34.8928 64 37.1612 64C38.2736 64 39.2693 63.5482 40.0021 62.804C40.7333 63.5497 41.7275 64 42.8415 64C45.1114 64 46.7606 62.1567 46.7606 59.6177C46.7606 59.5879 46.7606 59.5598 46.759 59.5301L46.4323 52.0943H49.754C50.3732 52.0943 50.9567 51.8004 51.3238 51.3001C51.6941 50.7998 51.8061 50.1541 51.6272 49.5584L50.3343 45.2777C50.7202 45.2746 51.1138 45.2136 51.5043 45.0948C52.5094 44.7899 54.7451 43.6611 53.7509 39.7963C53.4351 38.5737 52.1873 34.8495 50.868 30.9081ZM36.2977 20.3861C36.7302 18.5178 38.1989 17.1138 39.9788 16.9653V16.9621L39.9943 16.9637C40.0021 16.9637 40.013 16.9653 40.013 16.9653C41.796 17.1138 43.2616 18.5178 43.6956 20.3861C43.6956 20.3861 45.3168 23.2831 44.514 24.0883C43.7174 24.8888 42.4868 24.8966 42.4868 24.8966C41.8224 25.572 40.9683 26.0082 40.0145 26.088H40.0099C40.0099 26.088 40.0037 26.088 39.9959 26.088H39.9803C39.0297 26.0082 38.1662 25.572 37.5066 24.8966C37.5066 24.8966 37.449 24.9044 37.3494 24.9044C37.0165 24.9044 36.2106 24.82 35.4793 24.0883C34.5287 23.1346 36.2977 20.3861 36.2977 20.3861ZM50.9349 43.214C50.7155 43.2812 50.5055 43.3125 50.3079 43.3125C49.3153 43.3125 48.57 42.5198 48.1251 41.2315C48.1219 41.2143 45.7773 33.7098 45.7773 33.7098H44.8018L49.7509 50.126H44.3864L44.8034 59.6145C44.8034 60.9497 44.0721 62.0301 42.8415 62.0301C41.6124 62.0301 40.6991 60.9482 40.6991 59.6098C40.6991 59.5551 40.7022 59.5066 40.7038 59.4566L41.1176 50.1244H38.885L39.2973 59.4566C39.3004 59.5066 39.3051 59.5551 39.3051 59.6098C39.3051 60.9466 38.3887 62.0301 37.1612 62.0301C35.9305 62.0301 35.2008 60.9482 35.1993 59.6145L35.6147 50.126H30.2487L35.1993 33.7098H34.216C34.216 33.7098 31.8745 41.2143 31.8652 41.2315C31.4233 42.5198 30.6781 43.3125 29.687 43.3125C29.4879 43.3125 29.2794 43.2812 29.06 43.214C27.7874 42.8294 27.7874 41.6615 28.1405 40.2888C28.4424 39.1099 29.7555 35.2029 31.0577 31.3036C32.3615 27.4044 34.4992 26.8666 38.16 26.8666H41.8333C45.4957 26.8666 47.635 27.4044 48.9356 31.3036C50.241 35.2029 51.5525 39.1099 51.8528 40.2888C52.206 41.6615 52.206 42.8294 50.9349 43.214Z" fill="#888888"/>
</svg>
