<svg width="13" height="25" viewBox="0 0 13 25" fill="none" xmlns="http://www.w3.org/2000/svg">
<path d="M6.19403 12.3825C4.38158 12.3825 2.58427 11.591 1.36359 10.0699C0.328951 8.78042 -0.141933 7.16456 0.0372835 5.52048C0.216837 3.87581 1.02537 2.40006 2.31397 1.3647C3.60233 0.328829 5.21789 -0.140784 6.85971 0.0367331C8.50271 0.21661 9.97745 1.02568 11.0122 2.31565C13.1482 4.97799 12.7218 8.88329 10.0618 11.0208C8.92201 11.9374 7.55377 12.3825 6.19403 12.3825ZM2.10353 9.47532C3.91177 11.7287 7.21538 12.0899 9.46792 10.2808C11.7201 8.47062 12.0809 5.16435 10.2724 2.91004C9.39636 1.81806 8.14791 1.13285 6.75669 0.980857C5.3674 0.832407 3.99916 1.22788 2.90795 2.10477C1.81691 2.98148 1.13245 4.2311 0.980596 5.62344C0.828569 7.01527 1.22739 8.38351 2.10353 9.47532Z" fill="white"/>
<path d="M6.12156 24.1799C5.85968 24.1799 5.64722 23.9676 5.64722 23.7051V11.9213C5.64722 11.6589 5.8596 11.4464 6.12156 11.4464C6.38352 11.4464 6.5959 11.6588 6.5959 11.9213V23.7051C6.5959 23.9676 6.38352 24.1799 6.12156 24.1799Z" fill="white"/>
<path d="M9.42919 20.2828H2.81391C2.55194 20.2828 2.33948 20.0704 2.33948 19.8079C2.33948 19.5456 2.55186 19.3331 2.81391 19.3331H9.42919C9.69124 19.3331 9.90362 19.5455 9.90362 19.8079C9.90362 20.0703 9.69124 20.2828 9.42919 20.2828Z" fill="white"/>
</svg>
