<svg width="11" height="14" viewBox="0 0 11 14" fill="none" xmlns="http://www.w3.org/2000/svg">
<path d="M8.90884 14H1.70612C0.765307 14 0 13.2347 0 12.2945V6.39914C0 5.45889 0.765307 4.69409 1.70612 4.69409H8.90884C9.84965 4.69409 10.615 5.45889 10.615 6.39914V12.2945C10.615 13.2347 9.84965 14 8.90884 14ZM1.70612 5.12005C1.00079 5.12005 0.426526 5.69381 0.426526 6.39914V12.2945C0.426526 12.9998 1.00079 13.5741 1.70612 13.5741H8.90884C9.61472 13.5741 10.1884 12.9998 10.1884 12.2945V6.39914C10.1884 5.69381 9.61472 5.12005 8.90884 5.12005H1.70612Z" fill="white"/>
<path d="M8.7967 5.12004C8.67896 5.12004 8.58344 5.02451 8.58344 4.90621V3.70217C8.58344 1.89607 7.1139 0.426568 5.30725 0.426568C3.50061 0.426568 2.03107 1.89607 2.03107 3.70217V4.90621C2.03107 5.02451 1.93555 5.12004 1.81781 5.12004C1.70006 5.12004 1.60454 5.02451 1.60454 4.90621V3.70217C1.60454 1.66059 3.26568 0 5.30725 0C7.34883 0 9.00996 1.66059 9.00996 3.70217V4.90621C9.00996 5.02451 8.915 5.12004 8.7967 5.12004Z" fill="white"/>
<path d="M4.60796 11.4525C4.60519 11.4525 4.60241 11.4525 4.59963 11.4525C4.53021 11.4503 4.4669 11.4141 4.42858 11.3558L2.94183 9.07045C2.87796 8.9716 2.90573 8.83941 3.00459 8.77554C3.10345 8.71168 3.23506 8.73942 3.29949 8.83717L4.62129 10.8693L7.32433 7.32378C7.39541 7.23047 7.52926 7.21269 7.62312 7.28378C7.71698 7.35542 7.73475 7.4893 7.66366 7.58316L4.77735 11.3686C4.73681 11.422 4.67405 11.4525 4.60796 11.4525Z" fill="white"/>
</svg>
