<svg width="13" height="25" viewBox="0 0 13 25" fill="none" xmlns="http://www.w3.org/2000/svg">
<path d="M6.19621 24.1805C5.96918 24.1805 5.74132 24.1681 5.51269 24.1431C3.86968 23.9637 2.39519 23.1546 1.36021 21.8646C-0.775671 19.2023 -0.349469 15.297 2.31059 13.159C4.96998 11.0206 8.87227 11.4476 11.0086 14.1099C12.0432 15.3994 12.5145 17.0152 12.3349 18.6593C12.1556 20.304 11.347 21.7797 10.0584 22.8151C8.94939 23.7068 7.59847 24.1805 6.19621 24.1805ZM6.17903 12.7468C5.02788 12.7468 3.86992 13.1233 2.90455 13.899C0.652592 15.7095 0.291726 19.0159 2.10006 21.2703C2.97603 22.3621 4.22474 23.0469 5.61555 23.199C7.00712 23.352 8.37333 22.9523 9.46455 22.0751C10.5555 21.1984 11.2401 19.9488 11.3918 18.5564C11.5438 17.1645 11.1451 15.7962 10.2688 14.7044C9.23543 13.4168 7.71362 12.7468 6.17903 12.7468Z" fill="#888888"/>
<path d="M10.4688 5.17153C10.3475 5.17153 10.2261 5.1251 10.1335 5.03234L6.25018 1.1454L2.36691 5.03234C2.18163 5.21778 1.88137 5.21778 1.69609 5.03234C1.51081 4.8469 1.51081 4.54638 1.69609 4.36094L5.91472 0.138522C6.09259 -0.0395009 6.40758 -0.0395009 6.58554 0.138522L10.8042 4.36094C10.9895 4.54638 10.9895 4.8469 10.8042 5.03234C10.7117 5.12519 10.5902 5.17153 10.4688 5.17153Z" fill="#888888"/>
<path d="M6.25085 12.7338C5.98896 12.7338 5.77649 12.5215 5.77649 12.259V0.474756C5.77649 0.212314 5.98888 0 6.25085 0C6.51291 0 6.7254 0.212314 6.7254 0.474756V12.259C6.72532 12.5215 6.51291 12.7338 6.25085 12.7338Z" fill="#888888"/>
</svg>
