<svg width="20" height="20" viewBox="0 0 20 20" fill="none" xmlns="http://www.w3.org/2000/svg">
<circle cx="10" cy="10" r="10" fill="#56C1FD"/>
<path d="M9.61995 12.7161C8.29995 12.7161 7.45995 11.5161 7.45995 9.52415C7.45995 7.61615 8.29995 6.47615 9.61995 6.47615C10.9399 6.47615 11.7799 7.61615 11.7799 9.52415C11.7799 11.5161 10.9399 12.7161 9.61995 12.7161ZM12.4879 16.4121C13.1359 16.4121 13.6759 16.2921 13.9879 16.1481L13.6639 14.8401C13.4119 14.9241 13.0759 14.9841 12.6919 14.9841C11.8879 14.9841 11.0839 14.7081 10.6759 14.0361C12.4399 13.5801 13.5919 11.9481 13.5919 9.52415C13.5919 6.64415 11.9719 4.95215 9.61995 4.95215C7.26795 4.95215 5.64795 6.63215 5.64795 9.52415C5.64795 12.0561 6.90795 13.7361 8.80395 14.0961C9.41595 15.4401 10.6759 16.4121 12.4879 16.4121Z" fill="white"/>
</svg>
