<svg width="28" height="26" viewBox="0 0 28 26" fill="none" xmlns="http://www.w3.org/2000/svg">
<path d="M9.60223 25.8911C8.66223 25.8911 7.8002 25.4631 7.1972 24.6661C6.4322 23.6581 5.46812 22.3112 4.78412 20.8252C4.07612 19.2832 3.4311 17.5122 2.8161 15.4082C2.3961 13.9712 2.83408 12.5931 4.04608 11.5251C5.34708 10.3821 6.64806 9.62012 8.75506 9.62012C8.77606 9.62012 8.79827 9.62012 8.81927 9.62012C10.3373 9.62312 11.5611 10.7781 11.8681 12.4951C12.0471 13.4941 11.7612 14.4552 11.4252 15.3462C11.1502 16.0762 10.9311 16.6911 10.7631 17.3171C10.6231 17.8421 10.7531 18.3401 11.1821 18.9321L11.3403 19.1492C11.7613 19.7252 12.1961 20.3211 12.4601 20.9991C12.7121 21.6471 12.7981 22.4542 12.6901 23.1552C12.4831 24.5032 11.7031 25.4291 10.4931 25.7661C10.1921 25.8501 9.89423 25.8911 9.60223 25.8911ZM8.75726 10.3882C6.88826 10.3882 5.72416 11.0752 4.55316 12.1022C3.56216 12.9742 3.21618 14.0431 3.55218 15.1941C4.15718 17.2601 4.78814 18.9991 5.48114 20.5051C6.13314 21.9231 7.06804 23.2271 7.80804 24.2041C8.41104 24.9981 9.31627 25.2981 10.2883 25.0261C11.4433 24.7051 11.8191 23.7682 11.9321 23.0382C12.0211 22.4642 11.9511 21.8061 11.7441 21.2771C11.5181 20.6931 11.1131 20.1392 10.7211 19.6022L10.5612 19.3832C10.0002 18.6082 9.82413 17.8671 10.0231 17.1191C10.1981 16.4611 10.4232 15.8261 10.7082 15.0741C11.0052 14.2871 11.2612 13.4461 11.1142 12.6311C10.8712 11.2701 9.97027 10.3902 8.81927 10.3882C8.79227 10.3872 8.77626 10.3882 8.75726 10.3882Z" fill="#555555"/>
<path d="M10.7862 8.96715C10.5202 8.96715 10.2453 8.88614 9.9913 8.72814C8.9663 8.09214 8.45219 6.3862 8.95419 5.2832C9.15519 4.8422 9.48742 4.54117 9.89242 4.43517C10.3004 4.32917 10.7463 4.43119 11.1473 4.72619C11.8233 5.22419 12.2672 6.2452 12.2542 7.2672C12.2532 7.3022 12.2474 7.33718 12.2374 7.37218C12.2264 7.40618 12.2162 7.45117 12.2032 7.50317C12.1612 7.68317 12.0983 7.95312 11.9713 8.20312C11.7893 8.56312 11.4923 8.81718 11.1353 8.91918C11.0223 8.95018 10.9052 8.96715 10.7862 8.96715ZM10.2122 5.16112C10.1692 5.16112 10.1262 5.16712 10.0872 5.17712C9.90725 5.22412 9.75741 5.37019 9.65341 5.60119C9.31141 6.34919 9.70035 7.64416 10.3954 8.07616C10.5774 8.18916 10.7663 8.22517 10.9283 8.18017C11.0763 8.13817 11.2002 8.02717 11.2852 7.85717C11.3712 7.68917 11.4204 7.48012 11.4574 7.32812C11.4674 7.28412 11.4774 7.2441 11.4864 7.2091C11.4824 6.4511 11.1603 5.68908 10.6913 5.34508C10.5293 5.22308 10.3642 5.16112 10.2122 5.16112ZM11.8702 7.26012H11.8744H11.8702Z" fill="#555555"/>
<path d="M7.41822 8.54923C7.18422 8.54923 6.94528 8.46619 6.72828 8.30619C6.16528 7.89019 5.90231 7.29214 5.90431 6.42314C5.90431 6.42114 5.90431 6.42013 5.90431 6.41813C5.91831 5.54513 6.43329 5.27818 6.73829 5.19718C7.16929 5.08418 7.77826 5.13419 8.25026 6.02519C8.60526 6.69819 8.64929 7.30321 8.38429 7.87821C8.22929 8.21121 7.97312 8.4392 7.66212 8.5192C7.58112 8.5382 7.50022 8.54923 7.41822 8.54923ZM6.67115 6.42716C6.67115 7.04516 6.82334 7.42215 7.18434 7.68815C7.28834 7.76415 7.39018 7.79321 7.47218 7.77421C7.55418 7.75321 7.63027 7.67424 7.68727 7.55424C7.84927 7.20324 7.81428 6.84222 7.57228 6.38322C7.28728 5.84622 7.05731 5.90415 6.93531 5.93815C6.84531 5.96315 6.67915 6.00716 6.67115 6.42716Z" fill="#555555"/>
<path d="M4.76744 9.24813C4.48444 9.24813 4.20325 9.12112 3.99425 8.88912C3.64425 8.50312 3.6374 7.30712 3.7484 6.78512C3.7894 6.59212 3.87329 6.32315 4.11729 6.21615C4.37329 6.10215 4.64024 6.10212 4.89024 6.21212C5.19024 6.34512 5.43921 6.63806 5.55821 6.99606C5.67921 7.36306 5.80421 7.91214 5.70421 8.43514C5.63021 8.82414 5.37444 9.11507 5.01744 9.21407C4.93644 9.23707 4.85144 9.24813 4.76744 9.24813ZM4.50743 6.89706C4.41143 7.22306 4.4444 8.18509 4.5714 8.38509C4.6394 8.45809 4.72939 8.49608 4.81139 8.47408C4.88139 8.45308 4.93033 8.38915 4.94933 8.28915C5.00333 8.00815 4.96023 7.63309 4.82823 7.23409C4.77823 7.08609 4.67921 6.95607 4.57921 6.91207C4.55421 6.90107 4.54743 6.89506 4.50743 6.89706ZM4.27135 6.56515H4.27525H4.27135Z" fill="#555555"/>
<path d="M2.46633 10.5462C2.36133 10.5462 2.25916 10.5283 2.17116 10.4913C1.63316 10.2613 1.57133 9.37817 1.57033 9.01017C1.56733 8.07417 1.86831 7.94319 1.96731 7.90019C2.15531 7.81819 2.79836 7.62622 3.26736 8.55522C3.60636 9.22622 3.5793 9.79817 3.1863 10.2552C3.0323 10.4342 2.73533 10.5462 2.46633 10.5462ZM2.3633 8.61125C2.3003 8.92625 2.34532 9.59824 2.47732 9.77824C2.52432 9.77424 2.59434 9.75722 2.62234 9.73722C2.73134 9.60622 2.82932 9.38921 2.58132 8.89921C2.53232 8.80121 2.4493 8.65925 2.3633 8.61125ZM2.12234 8.25114H2.12624H2.12234Z" fill="#555555"/>
<path d="M1.13331 12.5552C0.749309 12.5552 0.337145 12.2762 0.140145 12.0072C-0.137855 11.6282 0.0642078 10.5282 0.179208 10.2482C0.265208 10.0392 0.396345 9.9202 0.569345 9.8932C0.957345 9.8322 1.49618 10.0752 1.70118 10.4032C1.90618 10.7312 2.00813 11.1981 1.97413 11.6521C1.94913 11.9931 1.56211 12.5462 1.15211 12.5552C1.14511 12.5552 1.13931 12.5552 1.13331 12.5552ZM0.780282 11.5791C0.862282 11.6751 0.995307 11.7532 1.08131 11.7782C1.13431 11.7272 1.19921 11.6322 1.21021 11.5852C1.23021 11.3082 1.1673 10.9992 1.0503 10.8112C1.0213 10.7692 0.931247 10.7162 0.844247 10.6842C0.782247 10.9492 0.743282 11.4171 0.780282 11.5791ZM0.628182 10.2721H0.633309H0.628182Z" fill="#555555"/>
<path d="M17.4052 21.4972C17.1122 21.4972 16.8132 21.4562 16.5122 21.3722C15.3032 21.0362 14.5221 20.1082 14.3151 18.7612C14.2081 18.0602 14.2941 17.2542 14.5451 16.6052C14.8101 15.9272 15.2452 15.3322 15.6672 14.7552L15.8242 14.5392C16.2522 13.9462 16.3821 13.4482 16.2421 12.9252C16.0561 12.2302 15.8042 11.5422 15.5812 10.9532C15.2452 10.0632 14.9592 9.10223 15.1372 8.10223C15.4442 6.38523 16.6702 5.22923 18.1862 5.22723C20.3362 5.20623 21.6472 5.97725 22.9592 7.13225C24.1732 8.19925 24.6092 9.57819 24.1892 11.0152C23.5742 13.1192 22.9301 14.8902 22.2221 16.4322C21.5381 17.9162 20.574 19.2642 19.808 20.2732C19.206 21.0692 18.3452 21.4972 17.4052 21.4972ZM18.2492 5.99517C18.2292 5.99517 18.2062 5.99517 18.1882 5.99517C17.0382 5.99717 16.1373 6.87724 15.8933 8.23724C15.7473 9.05324 16.0022 9.8942 16.3002 10.6812C16.5292 11.2872 16.7901 11.9962 16.9841 12.7252C17.1831 13.4732 17.0072 14.2132 16.4462 14.9892L16.2871 15.2082C15.8951 15.7442 15.4892 16.3002 15.2622 16.8842C15.0572 17.4122 14.9871 18.0722 15.0751 18.6452C15.1861 19.3742 15.5632 20.3122 16.7192 20.6332C17.6912 20.9042 18.5962 20.6052 19.1982 19.8102C19.9402 18.8322 20.8741 17.5293 21.5261 16.1113C22.2181 14.6053 22.849 12.8682 23.454 10.8002C23.791 9.65022 23.444 8.58116 22.454 7.70916C21.283 6.68016 20.1182 5.99517 18.2492 5.99517ZM18.1892 5.61016H18.1931H18.1892Z" fill="#555555"/>
<path d="M16.2203 4.57217C16.1023 4.57217 15.9852 4.5562 15.8702 4.5242C15.5152 4.4242 15.2173 4.17023 15.0343 3.80923C14.9073 3.55923 14.8443 3.28816 14.8023 3.10916C14.7893 3.05716 14.7794 3.0122 14.7694 2.9772C14.7594 2.9432 14.7533 2.90722 14.7523 2.87222C14.7383 1.85122 15.1832 0.829207 15.8592 0.331207C16.2582 0.0372069 16.7054 -0.0648087 17.1134 0.0401913C17.5174 0.145191 17.8513 0.44719 18.0523 0.88919C18.5533 1.99219 18.0402 3.69916 17.0142 4.33316C16.7612 4.49116 16.4873 4.57217 16.2203 4.57217ZM15.5203 2.81314C15.5293 2.84814 15.5394 2.88916 15.5494 2.93216C15.5854 3.08416 15.6343 3.29319 15.7203 3.46219C15.8063 3.63119 15.9292 3.74219 16.0782 3.78519C16.2392 3.82919 16.4292 3.79321 16.6102 3.68021C17.3052 3.25021 17.6943 1.95423 17.3543 1.20523C17.2493 0.97623 17.0982 0.829135 16.9202 0.782135C16.7402 0.736135 16.5243 0.795127 16.3133 0.949127C15.8463 1.29413 15.5223 2.05514 15.5203 2.81314Z" fill="#555555"/>
<path d="M19.5891 4.15519C19.5071 4.15519 19.4252 4.14419 19.3452 4.12419C19.0342 4.04419 18.7792 3.81719 18.6242 3.48319C18.3572 2.90919 18.4013 2.30314 18.7573 1.63114C19.2293 0.740143 19.8402 0.69014 20.2692 0.80314C20.5752 0.88314 21.0892 1.15121 21.1032 2.02421C21.1032 2.02621 21.1032 2.02721 21.1032 2.02921C21.1052 2.89821 20.8432 3.49715 20.2792 3.91215C20.0612 4.07115 19.8231 4.15519 19.5891 4.15519ZM19.9462 1.52421C19.8182 1.52421 19.6412 1.60015 19.4352 1.99015C19.1922 2.44815 19.1573 2.80917 19.3203 3.16117C19.3763 3.28117 19.4521 3.35917 19.5351 3.38017C19.6161 3.40117 19.7192 3.37023 19.8232 3.29423C20.1822 3.02823 20.3361 2.65122 20.3351 2.03422C20.3271 1.61222 20.1612 1.56921 20.0712 1.54521C20.0382 1.53621 19.9952 1.52421 19.9462 1.52421Z" fill="#555555"/>
<path d="M22.2392 4.8541C22.1552 4.8541 22.0712 4.84206 21.9882 4.81906C21.6332 4.71906 21.3772 4.42813 21.3022 4.04013C21.2022 3.51713 21.3262 2.96817 21.4482 2.60117C21.5662 2.24417 21.8162 1.95109 22.1152 1.81809C22.3652 1.70709 22.6331 1.70911 22.8891 1.82211C22.8901 1.82211 22.8901 1.82211 22.8901 1.82211C23.1331 1.92911 23.2163 2.19918 23.2573 2.39218C23.3683 2.91318 23.3601 4.11006 23.0121 4.49606C22.8041 4.72706 22.5222 4.8541 22.2392 4.8541ZM22.4972 2.50314C22.4742 2.50314 22.4512 2.50914 22.4282 2.51913C22.3272 2.56414 22.2281 2.69313 22.1791 2.84213C22.0461 3.23913 22.0031 3.61406 22.0571 3.89706C22.0761 3.99606 22.1242 4.06112 22.1952 4.08212C22.2752 4.10312 22.3682 4.06607 22.4452 3.98007C22.5632 3.79107 22.5962 2.83214 22.5012 2.50314C22.4992 2.50314 22.4982 2.50314 22.4972 2.50314Z" fill="#555555"/>
<path d="M24.5402 6.15118C24.2722 6.15118 23.9753 6.04117 23.8193 5.86017C23.4263 5.40417 23.4002 4.83219 23.7382 4.16119C24.2082 3.22919 24.8523 3.42419 25.0383 3.50519C25.1383 3.54819 25.4403 3.68127 25.4353 4.61627C25.4343 4.98427 25.3732 5.86725 24.8342 6.09625C24.7492 6.13425 24.6472 6.15118 24.5402 6.15118ZM24.6442 4.2182C24.5582 4.2652 24.4743 4.40716 24.4253 4.50616C24.1773 4.99516 24.2751 5.21217 24.4021 5.36017C24.4161 5.36617 24.4823 5.38124 24.5293 5.38324C24.6613 5.20524 24.7062 4.5322 24.6442 4.2182ZM24.7312 4.20819H24.7351H24.7312Z" fill="#555555"/>
<path d="M25.8743 8.16115C25.8683 8.16115 25.8623 8.16115 25.8543 8.16115C25.4443 8.15115 25.0572 7.60018 25.0322 7.25918C24.9992 6.80518 25.1012 6.33813 25.3052 6.01113C25.5102 5.68113 26.0493 5.43717 26.4373 5.49917C26.6103 5.52617 26.7412 5.64615 26.8272 5.85415C26.9422 6.13415 27.1442 7.23516 26.8662 7.61416C26.6692 7.88216 26.2573 8.16115 25.8743 8.16115ZM26.1633 6.29018C26.0753 6.32318 25.9853 6.37514 25.9563 6.41714C25.8393 6.60514 25.7764 6.91317 25.7984 7.20217C25.8084 7.24017 25.8723 7.33415 25.9253 7.38515C26.0113 7.36015 26.1453 7.28118 26.2273 7.18618C26.2633 7.02218 26.2243 6.55518 26.1633 6.29018Z" fill="#555555"/>
</svg>
