<svg width="13" height="17" viewBox="0 0 13 17" fill="none" xmlns="http://www.w3.org/2000/svg">
<path d="M11.9489 15.1846C11.8047 15.1846 11.6882 15.0682 11.6882 14.9247V8.36247H10.4182C10.2747 8.36247 10.1582 8.24605 10.1582 8.10252C10.1582 7.959 10.2747 7.84253 10.4182 7.84253H11.9489C12.0924 7.84253 12.2082 7.959 12.2082 8.10252V14.9247C12.2075 15.0682 12.0917 15.1846 11.9489 15.1846Z" fill="#555555"/>
<path d="M3.08079 9.98527C2.93727 9.98527 2.8208 9.86948 2.8208 9.72528V8.8506C2.8208 8.70707 2.93727 8.59131 3.08079 8.59131H4.58917C4.7327 8.59131 4.84842 8.70707 4.84842 8.8506C4.84842 8.99412 4.7327 9.11059 4.58917 9.11059H3.34078V9.72598C3.34078 9.86951 3.22432 9.98527 3.08079 9.98527Z" fill="#555555"/>
<path d="M11.6219 16.7681H2.75382C2.65159 16.7681 2.55752 16.7079 2.51622 16.6138L0.0228306 10.9845C-0.0137276 10.904 -0.00563463 10.8119 0.0417556 10.7374C0.0898227 10.6643 0.171755 10.6196 0.259765 10.6196H9.12782C9.23005 10.6196 9.32344 10.6805 9.36542 10.7746L11.8589 16.4039C11.8948 16.4838 11.8873 16.5765 11.8399 16.6503C11.7911 16.7241 11.7092 16.7681 11.6219 16.7681ZM2.92307 16.2489H11.2225L8.95923 11.1395H0.659835L2.92307 16.2489Z" fill="#555555"/>
<path d="M7.23507 9.62291C7.15924 9.62291 7.08681 9.58975 7.03739 9.53221L4.57449 6.65631C4.50815 6.57913 4.49326 6.47079 4.53524 6.37872C4.57789 6.28597 4.66928 6.22707 4.77151 6.22707H5.60826V0.259991C5.60826 0.116467 5.72473 0 5.86825 0H8.60056C8.74476 0 8.86121 0.116467 8.86121 0.259991V6.22707H9.69804C9.79892 6.22707 9.89101 6.28597 9.93366 6.37872C9.97631 6.47079 9.96141 6.57913 9.89506 6.65631L7.43142 9.53221C7.38268 9.58975 7.31021 9.62291 7.23507 9.62291ZM5.33612 6.74701L7.23507 8.96351L9.1341 6.74701H8.6013C8.45846 6.74701 8.34197 6.63059 8.34197 6.48706V0.519942H6.12816V6.48706C6.12816 6.63059 6.01178 6.74701 5.86825 6.74701H5.33612Z" fill="#555555"/>
</svg>
