<svg width="23" height="14" viewBox="0 0 23 14" fill="none" xmlns="http://www.w3.org/2000/svg">
<path d="M7.29688 13.0353C6.21588 13.0353 5.33594 12.1552 5.33594 11.0732C5.33594 9.99224 6.21588 9.1123 7.29688 9.1123C8.37787 9.1123 9.25793 9.99224 9.25793 11.0732C9.25793 12.1552 8.37787 13.0353 7.29688 13.0353ZM7.29688 9.87427C6.63488 9.87427 6.09692 10.4122 6.09692 11.0732C6.09692 11.7352 6.63488 12.2732 7.29688 12.2732C7.95887 12.2732 8.49585 11.7352 8.49585 11.0732C8.49585 10.4122 7.95788 9.87427 7.29688 9.87427Z" fill="#555555"/>
<path d="M19.6929 13.0353C18.6119 13.0353 17.7319 12.1552 17.7319 11.0732C17.7319 9.99224 18.6119 9.1123 19.6929 9.1123C20.7739 9.1123 21.6539 9.99224 21.6539 11.0732C21.6539 12.1552 20.7739 13.0353 19.6929 13.0353ZM19.6929 9.87427C19.0309 9.87427 18.4929 10.4122 18.4929 11.0732C18.4929 11.7352 19.0309 12.2732 19.6929 12.2732C20.3539 12.2732 20.8918 11.7352 20.8918 11.0732C20.8928 10.4122 20.3539 9.87427 19.6929 9.87427Z" fill="#555555"/>
<path d="M22.5646 11.4552H21.2747C21.0647 11.4552 20.8937 11.2842 20.8937 11.0742C20.8937 10.8632 21.0637 10.6932 21.2747 10.6932H22.1836V6.66919C22.1836 4.77219 20.6397 3.22827 18.7427 3.22827H16.4806C16.2706 3.22827 16.0996 3.05729 16.0996 2.84729C16.0996 2.63729 16.2706 2.46729 16.4806 2.46729H18.7427C21.0597 2.46729 22.9457 4.35219 22.9457 6.66919V11.0742C22.9457 11.2842 22.7746 11.4552 22.5646 11.4552Z" fill="#555555"/>
<path d="M15.4799 8.44702H4.42786C4.21786 8.44702 4.04688 8.27604 4.04688 8.06604C4.04688 7.85604 4.21786 7.68506 4.42786 7.68506H15.4799C15.6899 7.68506 15.8608 7.85604 15.8608 8.06604C15.8608 8.27604 15.6909 8.44702 15.4799 8.44702Z" fill="#555555"/>
<path d="M5.71484 11.4553H4.42786C4.21786 11.4553 4.04688 11.2843 4.04688 11.0743C4.04688 10.8633 4.21786 10.6934 4.42786 10.6934H5.71484C5.92484 10.6934 6.09485 10.8633 6.09485 11.0743C6.09585 11.2843 5.92584 11.4553 5.71484 11.4553Z" fill="#555555"/>
<path d="M18.111 11.4553H8.87903C8.66903 11.4553 8.49902 11.2843 8.49902 11.0743C8.49902 10.8633 8.66903 10.6934 8.87903 10.6934H18.111C18.321 10.6934 18.4919 10.8633 18.4919 11.0743C18.4919 11.2843 18.321 11.4553 18.111 11.4553Z" fill="#555555"/>
<path d="M16.4829 8.44812H5.0719C4.8619 8.44812 4.69092 8.27714 4.69092 8.06714C4.69092 7.85714 4.8619 7.68616 5.0719 7.68616H16.1019V1.71606H8.07483C7.86483 1.71606 7.69385 1.54508 7.69385 1.33508C7.69385 1.12408 7.86383 0.954102 8.07483 0.954102H16.4829C16.6929 0.954102 16.8639 1.12408 16.8639 1.33508V8.06616C16.8639 8.27716 16.6929 8.44812 16.4829 8.44812Z" fill="#555555"/>
<path d="M22.5646 7.51807H19.0216C18.8116 7.51807 18.6416 7.34708 18.6416 7.13708V2.85718C18.6416 2.64618 18.8116 2.47607 19.0216 2.47607C19.2316 2.47607 19.4026 2.64618 19.4026 2.85718V6.7561H22.5646C22.7746 6.7561 22.9446 6.92608 22.9446 7.13708C22.9446 7.34708 22.7746 7.51807 22.5646 7.51807Z" fill="#555555"/>
<path d="M9.36792 3.23608H4.42883C4.21883 3.23608 4.04785 3.06608 4.04785 2.85608C4.04785 2.64508 4.21883 2.4751 4.42883 2.4751H9.36792C9.57792 2.4751 9.7489 2.64508 9.7489 2.85608C9.7489 3.06608 9.57792 3.23608 9.36792 3.23608Z" fill="#555555"/>
<path d="M7.19702 6.7312H2.25696C2.04696 6.7312 1.87598 6.56022 1.87598 6.35022C1.87598 6.14022 2.04696 5.96924 2.25696 5.96924H7.19702C7.40702 5.96924 7.578 6.14022 7.578 6.35022C7.578 6.56022 7.40702 6.7312 7.19702 6.7312Z" fill="#555555"/>
<path d="M8.18579 5.0824H1.2688C1.0588 5.0824 0.887695 4.91242 0.887695 4.70142C0.887695 4.49142 1.0588 4.32031 1.2688 4.32031H8.18579C8.39579 4.32031 8.5658 4.49142 8.5658 4.70142C8.5648 4.91242 8.39579 5.0824 8.18579 5.0824Z" fill="#555555"/>
</svg>
