<svg width="80" height="80" viewBox="0 0 80 80" fill="none" xmlns="http://www.w3.org/2000/svg">
<circle cx="40" cy="40" r="40" fill="#DECFB7"/>
<path d="M45.5866 25.3133C46.3344 24.246 46.7742 22.9455 46.7742 21.5432C46.7742 17.9359 43.8694 15 40.2988 15C36.7329 15 33.8281 17.9344 33.8281 21.5432C33.8281 22.886 34.2307 24.1349 34.9197 25.1725C30.9528 26.149 28 29.7704 28 34.0742V43.6629C28 45.8132 29.7172 47.5519 31.8338 47.5519C32.1032 47.5519 32.3695 47.5222 32.6235 47.469V59.618C32.6235 62.0344 34.5698 64 36.9636 64C38.1667 64 39.2568 63.5023 40.0449 62.6995C40.8315 63.5023 41.9215 64 43.1246 64C45.5184 64 47.4648 62.0328 47.4648 59.6149C47.4648 59.5304 47.4617 59.4459 47.4539 59.3614V47.483C47.6862 47.5269 47.9262 47.5503 48.1708 47.5503C50.2828 47.5503 52 45.8116 52 43.6754V34.071C52 29.9551 49.2965 26.4605 45.5866 25.3133ZM40.2988 16.9672C42.801 16.9672 44.8263 19.0142 44.8263 21.5417C44.8263 24.0645 42.7995 26.1162 40.2988 26.1162C37.8028 26.1162 35.7775 24.0645 35.7775 21.5417C35.7775 19.0142 37.8028 16.9672 40.2988 16.9672ZM50.0537 43.6785C50.0537 44.7318 49.2067 45.5847 48.1708 45.5847C47.1241 45.5847 46.2818 44.7318 46.2818 43.6785V33.7205H45.5123V45.6849H45.5076V59.4599C45.5138 59.5132 45.5184 59.5632 45.5184 59.6164C45.5184 60.9529 44.4454 62.0328 43.1246 62.0328C41.8039 62.0328 40.7355 60.9529 40.7355 59.618V45.6833H39.3481V59.4584C39.3528 59.5116 39.3574 59.5617 39.3574 59.6149C39.3574 60.9514 38.2844 62.0312 36.9636 62.0312C35.6444 62.0312 34.5714 60.9514 34.5714 59.6164V33.7205H33.7197V43.6253C33.7197 43.6457 33.7228 43.6613 33.7228 43.6785C33.7228 44.7318 32.8759 45.5847 31.8338 45.5847C30.7948 45.5847 29.9479 44.7318 29.9479 43.6785V34.0742C29.9479 30.1006 33.1345 26.8814 37.0643 26.8814H42.9388C46.8717 26.8814 50.0552 30.1006 50.0552 34.0742V43.6785H50.0537Z" fill="#888888"/>
</svg>
