<svg width="120" height="120" viewBox="0 0 120 120" fill="none" xmlns="http://www.w3.org/2000/svg">
<g filter="url(#filter0_i)">
<g clip-path="url(#clip0)">
<rect width="120" height="120" rx="60" fill="#DECFB7"/>
<g opacity="0.6">
<g style="mix-blend-mode:luminosity">
<path d="M88.8857 30.3692C84.5832 26.926 80.0957 24.9712 76.4929 23.398C73.9215 22.2794 71.2604 21.116 70.6726 20.0952C70.443 19.6961 70.2147 19.2846 69.9856 18.8673C68.0783 15.4117 65.4668 10.6822 59.6797 11.0594C52.7689 11.5043 50.5212 16.9775 49.3406 21.5925C48.9839 22.9812 45.9945 24.907 43.1034 26.7672C36.2503 31.1811 25.8938 37.847 23.3569 52.3431C21.196 64.6916 24.8278 73.1804 27.2291 78.7959C28.4188 81.5749 29.4458 83.9771 29.0959 85.339C28.496 87.7017 26.1408 89.5372 22.5773 92.3144C17.8887 95.9685 11.4683 100.974 4.69781 110.68C-5.93834 125.925 -5.20576 148.409 5.73457 160.905L7.97389 163.224C8.01908 163.701 7.97821 164.616 7.94803 165.255C7.81231 168.174 7.60722 172.585 11.2551 174.869C12.8154 175.845 14.6186 176.197 16.61 175.914C18.7529 175.608 20.7795 174.626 22.565 173.758C23.7498 173.183 24.9785 172.587 25.7136 172.482C25.8294 172.466 25.8833 172.472 25.864 172.464L26.1302 172.524L26.1459 172.528C27.1702 172.784 28.1086 172.989 29.012 173.162C35.6312 174.415 42.168 174.599 48.4392 173.706C48.4422 173.705 48.4421 173.705 48.4421 173.705C68.2715 170.881 85.6805 156.637 92.7946 137.418C98.6045 121.722 94.8605 106.286 92.3801 96.0724C92.0245 94.6185 91.6961 93.2593 91.4213 92.0106C90.6616 88.5597 92.3861 85.711 94.7758 81.7662C97.387 77.4519 100.64 72.0825 101.69 63.9422C103.401 50.6972 98.6134 38.1488 88.8857 30.3692Z" fill="#FBBF28"/>
</g>
<path d="M64.6742 92.2322C80.8148 89.9333 92.0357 74.9853 89.7368 58.8447C87.438 42.7041 72.4899 31.4832 56.3493 33.7821C40.2088 36.0809 28.9879 51.029 31.2867 67.1696C33.5856 83.3101 48.5336 94.531 64.6742 92.2322Z" fill="white"/>
<path d="M47.083 67.2877C48.893 67.2709 50.3462 65.7315 50.3287 63.8493C50.3112 61.9672 48.8297 60.455 47.0196 60.4719C45.2095 60.4887 43.7564 62.0281 43.7739 63.9103C43.7914 65.7924 45.2729 67.3046 47.083 67.2877Z" fill="#755726"/>
<path d="M74.0537 67.0632C75.8646 67.0464 77.3185 65.507 77.301 63.6248C77.2835 61.7427 75.8013 60.2305 73.9904 60.2474C72.1795 60.2642 70.7256 61.8036 70.7431 63.6858C70.7606 65.5679 72.2428 67.0801 74.0537 67.0632Z" fill="#755726"/>
<path d="M61.7905 47.4206C60.2535 47.6395 58.6299 47.3677 57.1394 46.583C54.5988 45.2449 52.0807 42.1066 52.6243 37.3171C52.9511 34.4418 54.3558 32.0175 56.6874 30.3142C59.1024 28.5476 62.3318 27.7331 64.9152 28.2439C65.5821 28.3732 66.012 29.0195 65.8842 29.6862C65.7518 30.352 65.1059 30.7849 64.4432 30.6535C62.9001 30.3506 60.2714 30.7341 58.1378 32.2955C56.9115 33.1959 55.3779 34.8431 55.0668 37.595C54.6633 41.1555 56.4657 43.4487 58.2843 44.4094C60.1827 45.4087 62.2901 45.2267 63.7898 43.9268C65.2224 42.6879 65.8463 41.1536 65.5001 39.7226C65.2028 38.4862 64.2102 37.5488 62.8488 37.2139C61.576 36.9043 60.7179 37.5174 60.4528 38.2203C60.199 38.8958 60.5237 39.5268 61.3445 39.9493C61.9479 40.2603 62.1865 40.9991 61.8756 41.604C61.5629 42.2061 60.8252 42.4415 60.2206 42.1321C57.9888 40.9834 57.5735 38.9077 58.1528 37.3585C58.8065 35.6185 60.827 34.1883 63.4334 34.8291C65.7085 35.3884 67.3733 37.0028 67.8878 39.1477C68.4473 41.4695 67.5176 43.9519 65.3953 45.7845C64.3582 46.6837 63.1077 47.233 61.7905 47.4206Z" fill="#755726"/>
<path d="M61.5917 78.4714C61.2858 78.5149 60.9712 78.5401 60.6564 78.5425C57.6252 78.5681 54.9061 76.6676 53.8924 73.8059C53.6695 73.1664 54.0014 72.4646 54.6417 72.2371C55.2814 72.0157 55.9826 72.3431 56.2089 72.9851C56.871 74.8574 58.65 76.104 60.6337 76.0851C62.6218 76.0762 64.3735 74.7903 65.0005 72.9056C65.215 72.2629 65.9109 71.9153 66.5551 72.1296C67.1992 72.3439 67.5451 73.0386 67.3293 73.683C66.4706 76.2598 64.2306 78.0955 61.5917 78.4714Z" fill="#755726"/>
<path d="M48.5479 80.1943C48.6116 87.0882 43.0728 92.7301 36.1785 92.7908C29.2833 92.8562 23.6442 87.3155 23.582 80.4214C23.5168 73.5277 29.0556 67.8858 35.948 67.8223C42.8468 67.761 48.4844 73.3019 48.5479 80.1943Z" fill="#FFE0B0"/>
<path d="M87.0343 92.2172C93.8604 91.245 98.6059 84.9232 97.6337 78.0971C96.6615 71.271 90.3397 66.5255 83.5136 67.4977C76.6875 68.4699 71.942 74.7917 72.9142 81.6178C73.8864 88.4439 80.2082 93.1894 87.0343 92.2172Z" fill="#FFE0B0"/>
<path d="M86.4002 133.362C86.0562 132.286 84.9046 131.69 83.8279 132.034C82.4136 132.487 81.0053 132.854 79.6056 133.164C82.5378 123.306 81.7697 115.136 81.7283 114.75C81.6152 113.627 80.609 112.806 79.4845 112.921C78.3849 113.052 77.5408 114.04 77.6568 115.163C77.6642 115.258 78.4911 123.999 75.0535 133.947C71.3421 134.409 67.7852 134.436 64.5062 134.21C66.8273 129.805 67.4583 126.502 67.5189 126.162C67.7137 125.05 66.9759 123.998 65.8652 123.796C64.7627 123.597 63.6924 124.337 63.4899 125.448C63.4281 125.779 62.7374 129.259 60.0887 133.747C51.9079 132.583 46.3471 130.145 46.2468 130.1C45.217 129.636 44.0062 130.092 43.541 131.124C43.0772 132.155 43.5377 133.366 44.5661 133.832C44.9676 134.013 49.9953 136.218 57.5159 137.523C55.6504 139.914 53.2188 142.404 50.0744 144.752C44.5298 143.534 41.0065 141.988 40.9287 141.952C39.8975 141.488 38.6881 141.943 38.2231 142.976C37.7592 144.006 38.2182 145.218 39.2481 145.683C39.5104 145.802 41.7493 146.788 45.3583 147.819C42.2521 149.574 38.6372 151.16 34.4037 152.435C33.3215 152.762 32.7086 153.906 33.0319 154.984C33.3295 155.967 34.2947 156.563 35.2792 156.423C35.3817 156.408 35.4829 156.385 35.5832 156.355C41.8451 154.471 46.8881 151.944 50.9635 149.154C54.865 149.909 59.5289 150.443 64.6315 150.303C58.4955 156.049 50.3268 159.907 40.163 161.788C39.0532 161.996 38.3205 163.064 38.5243 164.176C38.7254 165.258 39.7455 165.984 40.8236 165.83C40.8533 165.826 40.8815 165.822 40.911 165.816C55.4379 163.123 64.7404 156.79 70.7036 149.809C70.8299 149.791 70.9561 149.784 71.0823 149.766C73.9053 149.364 76.8143 148.725 79.7559 147.784C80.8316 147.443 81.4252 146.291 81.0839 145.214C80.7394 144.136 79.5821 143.542 78.5113 143.885C77.0769 144.346 75.6478 144.716 74.2345 145.026C75.8335 142.52 77.0777 140.021 78.0352 137.649C80.3404 137.249 82.695 136.697 85.0744 135.935C86.1494 135.59 86.746 134.438 86.4002 133.362ZM55.4213 145.687C58.2492 143.182 60.4339 140.596 62.1163 138.154C65.5476 138.501 69.3218 138.608 73.3152 138.263C72.0151 141.05 70.444 143.593 68.6372 145.917C63.8598 146.405 59.354 146.205 55.4213 145.687Z" fill="#CE9328"/>
</g>
</g>
</g>
<defs>
<filter id="filter0_i" x="0" y="0" width="120" height="124" filterUnits="userSpaceOnUse" color-interpolation-filters="sRGB">
<feFlood flood-opacity="0" result="BackgroundImageFix"/>
<feBlend mode="normal" in="SourceGraphic" in2="BackgroundImageFix" result="shape"/>
<feColorMatrix in="SourceAlpha" type="matrix" values="0 0 0 0 0 0 0 0 0 0 0 0 0 0 0 0 0 0 127 0" result="hardAlpha"/>
<feOffset dy="4"/>
<feGaussianBlur stdDeviation="2"/>
<feComposite in2="hardAlpha" operator="arithmetic" k2="-1" k3="1"/>
<feColorMatrix type="matrix" values="0 0 0 0 0 0 0 0 0 0 0 0 0 0 0 0 0 0 0.25 0"/>
<feBlend mode="normal" in2="shape" result="effect1_innerShadow"/>
</filter>
<clipPath id="clip0">
<rect width="120" height="120" rx="60" fill="white"/>
</clipPath>
</defs>
</svg>
