<svg width="13" height="9" viewBox="0 0 13 9" fill="none" xmlns="http://www.w3.org/2000/svg">
<path d="M12.5571 8.84918H0.243567C0.109383 8.84918 0.00012207 8.73993 0.00012207 8.60575V0.243557C0.00012207 0.108735 0.109383 0.00012207 0.243567 0.00012207H12.5571C12.6913 0.00012207 12.8006 0.108735 12.8006 0.243557V8.60575C12.8006 8.73993 12.6913 8.84918 12.5571 8.84918ZM0.487655 8.36169H12.313V0.486992H0.487655V8.36169Z" fill="#555555"/>
<path d="M6.39996 6.36809C6.3399 6.36809 6.27919 6.34568 6.23191 6.30031L0.0748277 0.419889C-0.0216564 0.3266 -0.0254958 0.172647 0.0671545 0.0755236C0.159805 -0.0215995 0.314436 -0.0254096 0.411559 0.0678797L6.39933 5.78786L12.3877 0.0678797C12.4848 -0.0254096 12.6395 -0.0222385 12.7321 0.0755236C12.8248 0.173286 12.8216 0.327239 12.7238 0.419889L6.56737 6.30031C6.52201 6.34568 6.4613 6.36809 6.39996 6.36809Z" fill="#555555"/>
<path d="M0.244088 8.84917C0.179552 8.84917 0.116288 8.82366 0.0683657 8.77382C-0.0249236 8.6767 -0.0210842 8.52203 0.0760389 8.42938L4.4536 4.24863C4.55073 4.15534 4.70536 4.1585 4.79801 4.2569C4.89066 4.35402 4.88746 4.50871 4.7897 4.60072L0.41277 8.78209C0.364848 8.82681 0.304151 8.84917 0.244088 8.84917Z" fill="#555555"/>
<path d="M12.557 8.84918C12.4963 8.84918 12.4356 8.82682 12.3884 8.7821L8.01143 4.60073C7.9143 4.50808 7.91047 4.35403 8.00312 4.25691C8.09641 4.15915 8.2504 4.15599 8.34752 4.24864L12.7245 8.42938C12.8216 8.52267 12.8254 8.67671 12.7328 8.77383C12.6855 8.82367 12.6209 8.84918 12.557 8.84918Z" fill="#555555"/>
</svg>
