<svg width="43" height="43" viewBox="0 0 43 43" fill="none" xmlns="http://www.w3.org/2000/svg">
<g clip-path="url(#clip0)">
<path d="M39.5036 42.983H3.43158C1.52617 42.983 -0.0324097 41.4244 -0.0324097 39.519V3.44687C-0.0324097 1.54137 1.52617 -0.0172119 3.43158 -0.0172119H39.5036C41.4091 -0.0172119 42.9676 1.54137 42.9676 3.44678V39.5189C42.9676 41.4244 41.4091 42.983 39.5036 42.983Z" fill="#FAE300"/>
<path d="M21.3391 6.65564C12.1705 6.65564 4.73843 12.5309 4.73843 19.7794C4.73843 24.497 7.88758 28.6316 12.6138 30.9448C12.2666 32.2413 11.3566 35.6414 11.1738 36.3686C10.9492 37.2715 11.5052 37.2593 11.869 37.0161C12.1544 36.8261 16.4181 33.928 18.2578 32.6768C19.256 32.8248 20.2859 32.9034 21.3392 32.9034C30.5075 32.9034 37.9399 27.0267 37.9399 19.7794C37.9398 12.5309 30.5074 6.65564 21.3391 6.65564Z" fill="#391B1B"/>
<path d="M14.6589 15.9141H9.80427C9.34804 15.9141 8.97841 16.2838 8.97841 16.7396C8.97841 17.1957 9.34795 17.5654 9.80427 17.5654H11.3825V23.3809C11.3825 23.5922 11.4686 23.8002 11.6201 23.9508C11.7682 24.1003 11.9755 24.1864 12.1878 24.1864H12.3641C12.5755 24.1864 12.7821 24.1003 12.9307 23.9512C13.0817 23.8005 13.1682 23.5938 13.1682 23.3809V17.5654H14.659C15.1156 17.5654 15.4853 17.1958 15.4853 16.7396C15.4853 16.2838 15.1155 15.9141 14.6589 15.9141Z" fill="#FAE300"/>
<path d="M26.3253 22.6335H24.0681V16.694C24.0681 16.1987 23.6672 15.7977 23.1725 15.7977C22.6777 15.7977 22.2769 16.1987 22.2769 16.694V23.0961C22.2769 23.1457 22.283 23.1924 22.2908 23.2395C22.2818 23.2857 22.2769 23.3343 22.2769 23.3823C22.2769 23.7968 22.6111 24.1327 23.0261 24.1327H26.3253C26.7403 24.1327 27.0745 23.7969 27.0745 23.3823C27.0745 22.9694 26.7403 22.6335 26.3253 22.6335Z" fill="#FAE300"/>
<path d="M33.5392 22.9058L31.0235 19.6019L33.2964 17.328C33.6043 17.0209 33.6043 16.5211 33.2967 16.2134C32.9893 15.9058 32.4899 15.9058 32.1811 16.2134L29.3673 19.0272V16.6941C29.3673 16.1989 28.9665 15.7979 28.4719 15.7979C27.9769 15.7979 27.5759 16.1989 27.5759 16.6941V23.2928C27.5759 23.7885 27.9769 24.1887 28.4719 24.1887C28.9665 24.1887 29.3673 23.7885 29.3673 23.2928V21.2569L29.8788 20.7459L32.2584 23.8686C32.5232 24.2224 33.0266 24.295 33.3797 24.0281C33.7336 23.7623 33.8048 23.2596 33.5392 22.9058Z" fill="#FAE300"/>
<path d="M21.6063 23.1205L19.187 16.5021C19.187 16.5021 19.1813 16.4967 19.1789 16.4947C19.0238 16.0916 18.5778 15.7977 18.0453 15.7977C17.4547 15.7977 16.9662 16.1586 16.8692 16.6309C16.8527 16.666 16.8361 16.7014 16.8229 16.7397L14.4439 23.1205C14.297 23.5394 14.5172 23.9971 14.9343 24.1438C15.3522 24.2908 15.811 24.0703 15.9579 23.6525L16.3695 22.4774H19.6807L20.0921 23.6525C20.2391 24.0702 20.6973 24.2908 21.1152 24.1438C21.5329 23.9971 21.7532 23.5393 21.6063 23.1205ZM16.895 20.9777L18.0076 17.8029C18.0201 17.8029 18.0309 17.8063 18.0434 17.8063L19.1552 20.9776H16.895V20.9777Z" fill="#FAE300"/>
</g>
<defs>
<clipPath id="clip0">
<rect width="43" height="43" fill="white"/>
</clipPath>
</defs>
</svg>
