<svg width="48" height="48" viewBox="0 0 48 48" fill="none" xmlns="http://www.w3.org/2000/svg">
<circle cx="24" cy="24" r="23.75" fill="#FFB800" stroke="#FFB800" stroke-width="0.5"/>
<mask id="path-2-outside-1" maskUnits="userSpaceOnUse" x="9.82147" y="12.6143" width="29" height="22" fill="black">
<rect fill="white" x="9.82147" y="12.6143" width="29" height="22"/>
<path d="M36.0873 34.0161H12.7293C11.6775 34.0161 10.8215 33.1581 10.8215 32.1039V18.7584C10.8215 17.7611 11.5683 16.9429 12.5584 16.8545L18.5567 16.8535L18.9456 14.8714C19.0883 14.143 19.7211 13.6143 20.4499 13.6143H28.3676C29.0941 13.6143 29.7282 14.1426 29.8754 14.87L30.2609 16.853H36.2368C37.2352 16.9409 38 17.7771 38 18.7579V32.1039C37.9995 33.1586 37.1415 34.0161 36.0873 34.0161ZM12.5797 17.3391C11.863 17.4037 11.307 18.0145 11.307 18.7584V32.1044C11.307 32.891 11.9446 33.531 12.7293 33.531H36.0873C36.8739 33.531 37.5139 32.891 37.5139 32.1044V18.7584C37.5139 18.0267 36.9434 17.4027 36.215 17.3381L29.8603 17.3391L29.3985 14.9646C29.2975 14.4645 28.8629 14.0998 28.3672 14.0998H20.4494C19.9527 14.0998 19.52 14.464 19.4215 14.9651L18.9558 17.3391H12.5797V17.3391ZM24.4078 31.7427C23.577 31.7427 22.7656 31.581 21.9969 31.2624C21.2321 30.9444 20.5441 30.4841 19.9512 29.895L19.8798 29.8203C19.3637 29.2886 18.95 28.6767 18.6484 27.9974H18.646L18.5795 27.8469C18.2629 27.0744 18.1021 26.2625 18.1021 25.4346C18.1021 24.6072 18.2629 23.7958 18.5795 23.0232L18.6484 22.8727C18.9504 22.1929 19.3642 21.5806 19.8798 21.0503V21.0494L19.9512 20.9751C20.5446 20.3851 21.2331 19.9253 21.9969 19.6087C23.5338 18.9696 25.2862 18.9711 26.8231 19.6077C27.5893 19.9282 28.2735 20.3856 28.8566 20.9673L28.8683 20.9785C28.8877 20.9979 28.9071 21.0173 28.9261 21.0372L28.9358 21.0469C29.4942 21.6228 29.9312 22.2871 30.2357 23.0227C30.5557 23.7924 30.7178 24.6038 30.7178 25.4346C30.7178 26.2659 30.5557 27.0778 30.2357 27.8479C29.9196 28.6122 29.4592 29.3002 28.8688 29.8917L28.8192 29.9397C28.2506 30.4972 27.5616 30.9536 26.8235 31.2615C26.0553 31.5805 25.2425 31.7427 24.4078 31.7427ZM20.3654 29.6207C20.8971 30.132 21.5084 30.5331 22.1829 30.8128C23.6027 31.4028 25.2197 31.4008 26.6376 30.8138C27.3067 30.5336 27.9316 30.1223 28.4507 29.6212V29.5333L28.5716 29.5017C29.0951 28.9661 29.5039 28.3475 29.7875 27.6619C30.0827 26.9505 30.2327 26.2013 30.2327 25.4346C30.2327 24.6683 30.0827 23.9196 29.7875 23.2087C29.5005 22.5143 29.0853 21.8889 28.5531 21.3494L28.4546 21.2999L28.4531 21.2509C27.9336 20.7478 27.3077 20.3356 26.6371 20.0564C25.2221 19.4688 23.6047 19.4664 22.1829 20.0559C21.5007 20.3395 20.884 20.7459 20.3489 21.265L20.294 21.3223C19.7521 21.8617 19.3277 22.4959 19.033 23.2082L18.9694 23.3583C18.7164 24.0264 18.5877 24.7242 18.5877 25.4346C18.5877 26.1629 18.7222 26.8782 18.9883 27.5609L19.033 27.6619C19.3272 28.3733 19.7512 29.0079 20.294 29.5479L20.3654 29.6207ZM24.4078 29.7678C23.829 29.7678 23.2716 29.6581 22.751 29.442C22.2261 29.2245 21.7532 28.9069 21.3453 28.4981C20.9398 28.096 20.6223 27.6231 20.4023 27.0943C20.1867 26.5737 20.0775 26.0148 20.0775 25.4341C20.0775 24.8538 20.1867 24.2954 20.4023 23.7749C20.6223 23.2461 20.9398 22.7736 21.3463 22.3701C21.7532 21.9627 22.2261 21.6452 22.751 21.4276C23.7911 20.9955 25.0167 20.994 26.0689 21.4276C26.5866 21.6422 27.059 21.9598 27.4737 22.3706C27.8811 22.779 28.2065 23.265 28.4148 23.7768C28.6323 24.2925 28.7435 24.8514 28.7435 25.4346C28.7435 26.0187 28.6323 26.5776 28.4138 27.0962C28.2065 27.6051 27.8811 28.0911 27.4747 28.4985C27.06 28.9103 26.5871 29.2274 26.0694 29.4425C25.5441 29.6586 24.9852 29.7678 24.4078 29.7678ZM24.4078 21.5874C23.8936 21.5874 23.3988 21.6845 22.937 21.8763C22.4781 22.0666 22.0469 22.356 21.6896 22.7144C21.3283 23.0732 21.0462 23.4928 20.851 23.9613C20.6597 24.4226 20.563 24.9184 20.563 25.4346C20.563 25.9517 20.6597 26.4475 20.851 26.9088C21.0457 27.3778 21.3273 27.7969 21.6886 28.1548C22.0464 28.5136 22.4781 28.8035 22.937 28.9938C23.8591 29.3769 24.9512 29.3779 25.8839 28.9938C26.3423 28.8035 26.7624 28.5214 27.1314 28.1548C27.4917 27.7935 27.7801 27.3628 27.9646 26.9102C28.1589 26.4489 28.2574 25.9537 28.2574 25.4346C28.2574 24.9165 28.1593 24.4212 27.9656 23.9628C27.7801 23.5073 27.4917 23.0766 27.1304 22.7144C26.7619 22.3492 26.3419 22.0671 25.8835 21.8763C25.4183 21.6845 24.9211 21.5874 24.4078 21.5874ZM14.777 20.9736C14.0141 20.9736 13.393 20.353 13.393 19.5897C13.393 18.8264 14.0136 18.2058 14.777 18.2058C15.5403 18.2058 16.1608 18.8264 16.1608 19.5897C16.1608 20.353 15.5403 20.9736 14.777 20.9736ZM14.777 18.6919C14.2817 18.6919 13.8786 19.0949 13.8786 19.5902C13.8786 20.0855 14.2817 20.4885 14.777 20.4885C15.2722 20.4885 15.6753 20.0855 15.6753 19.5902C15.6753 19.0949 15.2722 18.6919 14.777 18.6919Z"/>
</mask>
<path d="M36.0873 34.0161H12.7293C11.6775 34.0161 10.8215 33.1581 10.8215 32.1039V18.7584C10.8215 17.7611 11.5683 16.9429 12.5584 16.8545L18.5567 16.8535L18.9456 14.8714C19.0883 14.143 19.7211 13.6143 20.4499 13.6143H28.3676C29.0941 13.6143 29.7282 14.1426 29.8754 14.87L30.2609 16.853H36.2368C37.2352 16.9409 38 17.7771 38 18.7579V32.1039C37.9995 33.1586 37.1415 34.0161 36.0873 34.0161ZM12.5797 17.3391C11.863 17.4037 11.307 18.0145 11.307 18.7584V32.1044C11.307 32.891 11.9446 33.531 12.7293 33.531H36.0873C36.8739 33.531 37.5139 32.891 37.5139 32.1044V18.7584C37.5139 18.0267 36.9434 17.4027 36.215 17.3381L29.8603 17.3391L29.3985 14.9646C29.2975 14.4645 28.8629 14.0998 28.3672 14.0998H20.4494C19.9527 14.0998 19.52 14.464 19.4215 14.9651L18.9558 17.3391H12.5797V17.3391ZM24.4078 31.7427C23.577 31.7427 22.7656 31.581 21.9969 31.2624C21.2321 30.9444 20.5441 30.4841 19.9512 29.895L19.8798 29.8203C19.3637 29.2886 18.95 28.6767 18.6484 27.9974H18.646L18.5795 27.8469C18.2629 27.0744 18.1021 26.2625 18.1021 25.4346C18.1021 24.6072 18.2629 23.7958 18.5795 23.0232L18.6484 22.8727C18.9504 22.1929 19.3642 21.5806 19.8798 21.0503V21.0494L19.9512 20.9751C20.5446 20.3851 21.2331 19.9253 21.9969 19.6087C23.5338 18.9696 25.2862 18.9711 26.8231 19.6077C27.5893 19.9282 28.2735 20.3856 28.8566 20.9673L28.8683 20.9785C28.8877 20.9979 28.9071 21.0173 28.9261 21.0372L28.9358 21.0469C29.4942 21.6228 29.9312 22.2871 30.2357 23.0227C30.5557 23.7924 30.7178 24.6038 30.7178 25.4346C30.7178 26.2659 30.5557 27.0778 30.2357 27.8479C29.9196 28.6122 29.4592 29.3002 28.8688 29.8917L28.8192 29.9397C28.2506 30.4972 27.5616 30.9536 26.8235 31.2615C26.0553 31.5805 25.2425 31.7427 24.4078 31.7427ZM20.3654 29.6207C20.8971 30.132 21.5084 30.5331 22.1829 30.8128C23.6027 31.4028 25.2197 31.4008 26.6376 30.8138C27.3067 30.5336 27.9316 30.1223 28.4507 29.6212V29.5333L28.5716 29.5017C29.0951 28.9661 29.5039 28.3475 29.7875 27.6619C30.0827 26.9505 30.2327 26.2013 30.2327 25.4346C30.2327 24.6683 30.0827 23.9196 29.7875 23.2087C29.5005 22.5143 29.0853 21.8889 28.5531 21.3494L28.4546 21.2999L28.4531 21.2509C27.9336 20.7478 27.3077 20.3356 26.6371 20.0564C25.2221 19.4688 23.6047 19.4664 22.1829 20.0559C21.5007 20.3395 20.884 20.7459 20.3489 21.265L20.294 21.3223C19.7521 21.8617 19.3277 22.4959 19.033 23.2082L18.9694 23.3583C18.7164 24.0264 18.5877 24.7242 18.5877 25.4346C18.5877 26.1629 18.7222 26.8782 18.9883 27.5609L19.033 27.6619C19.3272 28.3733 19.7512 29.0079 20.294 29.5479L20.3654 29.6207ZM24.4078 29.7678C23.829 29.7678 23.2716 29.6581 22.751 29.442C22.2261 29.2245 21.7532 28.9069 21.3453 28.4981C20.9398 28.096 20.6223 27.6231 20.4023 27.0943C20.1867 26.5737 20.0775 26.0148 20.0775 25.4341C20.0775 24.8538 20.1867 24.2954 20.4023 23.7749C20.6223 23.2461 20.9398 22.7736 21.3463 22.3701C21.7532 21.9627 22.2261 21.6452 22.751 21.4276C23.7911 20.9955 25.0167 20.994 26.0689 21.4276C26.5866 21.6422 27.059 21.9598 27.4737 22.3706C27.8811 22.779 28.2065 23.265 28.4148 23.7768C28.6323 24.2925 28.7435 24.8514 28.7435 25.4346C28.7435 26.0187 28.6323 26.5776 28.4138 27.0962C28.2065 27.6051 27.8811 28.0911 27.4747 28.4985C27.06 28.9103 26.5871 29.2274 26.0694 29.4425C25.5441 29.6586 24.9852 29.7678 24.4078 29.7678ZM24.4078 21.5874C23.8936 21.5874 23.3988 21.6845 22.937 21.8763C22.4781 22.0666 22.0469 22.356 21.6896 22.7144C21.3283 23.0732 21.0462 23.4928 20.851 23.9613C20.6597 24.4226 20.563 24.9184 20.563 25.4346C20.563 25.9517 20.6597 26.4475 20.851 26.9088C21.0457 27.3778 21.3273 27.7969 21.6886 28.1548C22.0464 28.5136 22.4781 28.8035 22.937 28.9938C23.8591 29.3769 24.9512 29.3779 25.8839 28.9938C26.3423 28.8035 26.7624 28.5214 27.1314 28.1548C27.4917 27.7935 27.7801 27.3628 27.9646 26.9102C28.1589 26.4489 28.2574 25.9537 28.2574 25.4346C28.2574 24.9165 28.1593 24.4212 27.9656 23.9628C27.7801 23.5073 27.4917 23.0766 27.1304 22.7144C26.7619 22.3492 26.3419 22.0671 25.8835 21.8763C25.4183 21.6845 24.9211 21.5874 24.4078 21.5874ZM14.777 20.9736C14.0141 20.9736 13.393 20.353 13.393 19.5897C13.393 18.8264 14.0136 18.2058 14.777 18.2058C15.5403 18.2058 16.1608 18.8264 16.1608 19.5897C16.1608 20.353 15.5403 20.9736 14.777 20.9736ZM14.777 18.6919C14.2817 18.6919 13.8786 19.0949 13.8786 19.5902C13.8786 20.0855 14.2817 20.4885 14.777 20.4885C15.2722 20.4885 15.6753 20.0855 15.6753 19.5902C15.6753 19.0949 15.2722 18.6919 14.777 18.6919Z" fill="white"/>
<path d="M36.0873 34.0161H12.7293C11.6775 34.0161 10.8215 33.1581 10.8215 32.1039V18.7584C10.8215 17.7611 11.5683 16.9429 12.5584 16.8545L18.5567 16.8535L18.9456 14.8714C19.0883 14.143 19.7211 13.6143 20.4499 13.6143H28.3676C29.0941 13.6143 29.7282 14.1426 29.8754 14.87L30.2609 16.853H36.2368C37.2352 16.9409 38 17.7771 38 18.7579V32.1039C37.9995 33.1586 37.1415 34.0161 36.0873 34.0161ZM12.5797 17.3391C11.863 17.4037 11.307 18.0145 11.307 18.7584V32.1044C11.307 32.891 11.9446 33.531 12.7293 33.531H36.0873C36.8739 33.531 37.5139 32.891 37.5139 32.1044V18.7584C37.5139 18.0267 36.9434 17.4027 36.215 17.3381L29.8603 17.3391L29.3985 14.9646C29.2975 14.4645 28.8629 14.0998 28.3672 14.0998H20.4494C19.9527 14.0998 19.52 14.464 19.4215 14.9651L18.9558 17.3391H12.5797V17.3391ZM24.4078 31.7427C23.577 31.7427 22.7656 31.581 21.9969 31.2624C21.2321 30.9444 20.5441 30.4841 19.9512 29.895L19.8798 29.8203C19.3637 29.2886 18.95 28.6767 18.6484 27.9974H18.646L18.5795 27.8469C18.2629 27.0744 18.1021 26.2625 18.1021 25.4346C18.1021 24.6072 18.2629 23.7958 18.5795 23.0232L18.6484 22.8727C18.9504 22.1929 19.3642 21.5806 19.8798 21.0503V21.0494L19.9512 20.9751C20.5446 20.3851 21.2331 19.9253 21.9969 19.6087C23.5338 18.9696 25.2862 18.9711 26.8231 19.6077C27.5893 19.9282 28.2735 20.3856 28.8566 20.9673L28.8683 20.9785C28.8877 20.9979 28.9071 21.0173 28.9261 21.0372L28.9358 21.0469C29.4942 21.6228 29.9312 22.2871 30.2357 23.0227C30.5557 23.7924 30.7178 24.6038 30.7178 25.4346C30.7178 26.2659 30.5557 27.0778 30.2357 27.8479C29.9196 28.6122 29.4592 29.3002 28.8688 29.8917L28.8192 29.9397C28.2506 30.4972 27.5616 30.9536 26.8235 31.2615C26.0553 31.5805 25.2425 31.7427 24.4078 31.7427ZM20.3654 29.6207C20.8971 30.132 21.5084 30.5331 22.1829 30.8128C23.6027 31.4028 25.2197 31.4008 26.6376 30.8138C27.3067 30.5336 27.9316 30.1223 28.4507 29.6212V29.5333L28.5716 29.5017C29.0951 28.9661 29.5039 28.3475 29.7875 27.6619C30.0827 26.9505 30.2327 26.2013 30.2327 25.4346C30.2327 24.6683 30.0827 23.9196 29.7875 23.2087C29.5005 22.5143 29.0853 21.8889 28.5531 21.3494L28.4546 21.2999L28.4531 21.2509C27.9336 20.7478 27.3077 20.3356 26.6371 20.0564C25.2221 19.4688 23.6047 19.4664 22.1829 20.0559C21.5007 20.3395 20.884 20.7459 20.3489 21.265L20.294 21.3223C19.7521 21.8617 19.3277 22.4959 19.033 23.2082L18.9694 23.3583C18.7164 24.0264 18.5877 24.7242 18.5877 25.4346C18.5877 26.1629 18.7222 26.8782 18.9883 27.5609L19.033 27.6619C19.3272 28.3733 19.7512 29.0079 20.294 29.5479L20.3654 29.6207ZM24.4078 29.7678C23.829 29.7678 23.2716 29.6581 22.751 29.442C22.2261 29.2245 21.7532 28.9069 21.3453 28.4981C20.9398 28.096 20.6223 27.6231 20.4023 27.0943C20.1867 26.5737 20.0775 26.0148 20.0775 25.4341C20.0775 24.8538 20.1867 24.2954 20.4023 23.7749C20.6223 23.2461 20.9398 22.7736 21.3463 22.3701C21.7532 21.9627 22.2261 21.6452 22.751 21.4276C23.7911 20.9955 25.0167 20.994 26.0689 21.4276C26.5866 21.6422 27.059 21.9598 27.4737 22.3706C27.8811 22.779 28.2065 23.265 28.4148 23.7768C28.6323 24.2925 28.7435 24.8514 28.7435 25.4346C28.7435 26.0187 28.6323 26.5776 28.4138 27.0962C28.2065 27.6051 27.8811 28.0911 27.4747 28.4985C27.06 28.9103 26.5871 29.2274 26.0694 29.4425C25.5441 29.6586 24.9852 29.7678 24.4078 29.7678ZM24.4078 21.5874C23.8936 21.5874 23.3988 21.6845 22.937 21.8763C22.4781 22.0666 22.0469 22.356 21.6896 22.7144C21.3283 23.0732 21.0462 23.4928 20.851 23.9613C20.6597 24.4226 20.563 24.9184 20.563 25.4346C20.563 25.9517 20.6597 26.4475 20.851 26.9088C21.0457 27.3778 21.3273 27.7969 21.6886 28.1548C22.0464 28.5136 22.4781 28.8035 22.937 28.9938C23.8591 29.3769 24.9512 29.3779 25.8839 28.9938C26.3423 28.8035 26.7624 28.5214 27.1314 28.1548C27.4917 27.7935 27.7801 27.3628 27.9646 26.9102C28.1589 26.4489 28.2574 25.9537 28.2574 25.4346C28.2574 24.9165 28.1593 24.4212 27.9656 23.9628C27.7801 23.5073 27.4917 23.0766 27.1304 22.7144C26.7619 22.3492 26.3419 22.0671 25.8835 21.8763C25.4183 21.6845 24.9211 21.5874 24.4078 21.5874ZM14.777 20.9736C14.0141 20.9736 13.393 20.353 13.393 19.5897C13.393 18.8264 14.0136 18.2058 14.777 18.2058C15.5403 18.2058 16.1608 18.8264 16.1608 19.5897C16.1608 20.353 15.5403 20.9736 14.777 20.9736ZM14.777 18.6919C14.2817 18.6919 13.8786 19.0949 13.8786 19.5902C13.8786 20.0855 14.2817 20.4885 14.777 20.4885C15.2722 20.4885 15.6753 20.0855 15.6753 19.5902C15.6753 19.0949 15.2722 18.6919 14.777 18.6919Z" stroke="white" mask="url(#path-2-outside-1)"/>
</svg>
