<svg width="24" height="23" viewBox="0 0 24 23" fill="none" xmlns="http://www.w3.org/2000/svg">
<path d="M9.78796 22.0286C9.27196 22.0286 8.76896 21.7607 8.49396 21.2827L4.60901 14.5547H3.67096C1.64696 14.5547 0 12.9076 0 10.8826V9.34155C0 7.31755 1.64696 5.67065 3.67096 5.67065H14.039C14.251 5.67065 14.423 5.84271 14.423 6.05371C14.423 6.26671 14.251 6.43872 14.039 6.43872H3.67096C2.06996 6.43872 0.766968 7.74155 0.766968 9.34155V10.8826C0.766968 12.4846 2.06996 13.7866 3.67096 13.7866H4.83099C4.96799 13.7866 5.09496 13.8598 5.16296 13.9788L9.159 20.8977C9.359 21.2437 9.80201 21.3616 10.148 21.1626L12.152 20.0066C12.498 19.8076 12.616 19.3626 12.417 19.0176L9.729 14.3625C9.661 14.2435 9.661 14.0977 9.729 13.9797C9.798 13.8607 9.92395 13.7876 10.062 13.7876H14.04C14.252 13.7876 14.424 13.9586 14.424 14.1716C14.424 14.3836 14.252 14.5557 14.04 14.5557H10.727L13.082 18.6348C13.493 19.3478 13.249 20.2616 12.536 20.6726L10.532 21.8296C10.297 21.9636 10.041 22.0286 9.78796 22.0286Z" fill="#555555"/>
<path d="M20.681 12.9578C20.469 12.9578 20.297 12.7867 20.297 12.5747C20.297 12.3617 20.469 12.1897 20.681 12.1897C21.532 12.1897 22.25 11.6516 22.25 11.0156V9.2207C22.25 8.5837 21.531 8.04468 20.681 8.04468C20.469 8.04468 20.297 7.87262 20.297 7.66162C20.297 7.44862 20.469 7.27661 20.681 7.27661C21.97 7.27661 23.018 8.14773 23.018 9.21973V11.0146C23.019 12.0866 21.971 12.9578 20.681 12.9578Z" fill="#555555"/>
<path d="M20.681 19.8936C20.608 19.8936 20.535 19.8726 20.47 19.8306L13.8281 15.4698C13.7201 15.3998 13.655 15.2787 13.655 15.1497V4.99861C13.655 4.87261 13.7171 4.75466 13.8201 4.68366L20.463 0.0686747C20.58 -0.0133253 20.734 -0.0222276 20.86 0.0437724C20.986 0.109772 21.066 0.240616 21.066 0.383616V19.5118C21.066 19.6528 20.988 19.7827 20.864 19.8487C20.807 19.8777 20.744 19.8936 20.681 19.8936ZM14.423 14.9427L20.298 18.7977V1.11579L14.423 5.19782V14.9427Z" fill="#555555"/>
</svg>
