<svg width="24" height="24" viewBox="0 0 24 24" fill="none" xmlns="http://www.w3.org/2000/svg">
<path d="M13.1663 23.3681H10.2007C10.0325 23.3681 9.89258 23.2392 9.87721 23.0718L9.66708 20.6546C8.61344 20.4531 7.61534 20.0706 6.69404 19.5156L4.90859 21.014C4.77966 21.1216 4.58932 21.114 4.46978 20.9953L2.37268 18.8982C2.254 18.7787 2.24632 18.5892 2.35475 18.4594L3.79271 16.7457C3.16683 15.8064 2.72547 14.7776 2.48212 13.6812L0.297054 13.4908C0.128846 13.4754 0 13.3354 0 13.1672V10.2018C0 10.0327 0.127992 9.89266 0.297054 9.87815L2.48212 9.68777C2.72547 8.59058 3.16683 7.5617 3.79271 6.62332L2.35475 4.90963C2.24632 4.7807 2.25485 4.59026 2.37268 4.47072L4.46978 2.37367C4.58932 2.25413 4.7788 2.24647 4.90859 2.35491L6.69404 3.85342C7.61534 3.29842 8.61344 2.91502 9.66708 2.71351L9.87721 0.297159C9.89258 0.12895 10.0325 0 10.2007 0H13.1663C13.3345 0 13.4744 0.12895 13.4898 0.297159L13.7135 2.8476C14.6809 3.09949 15.5921 3.50676 16.4289 4.06005L18.4593 2.35491C18.5882 2.24733 18.7785 2.25499 18.8981 2.37367L20.9952 4.47072C21.1139 4.59026 21.1224 4.7807 21.0139 4.90963L19.2483 7.0135C19.7367 7.83235 20.0909 8.71352 20.3027 9.63738L23.0718 9.87904C23.2392 9.89355 23.3689 10.0344 23.3689 10.2026V13.1681C23.3689 13.3363 23.2401 13.4763 23.0718 13.4916L20.3027 13.7333C20.0909 14.6572 19.7367 15.5375 19.2483 16.3563L21.0139 18.4602C21.1224 18.5891 21.113 18.7795 20.9952 18.8991L18.8981 20.9961C18.7785 21.1156 18.5891 21.1225 18.4593 21.0149L16.4289 19.3098C15.593 19.8631 14.6809 20.2703 13.7135 20.5222L13.4898 23.0727C13.4744 23.2392 13.3345 23.3681 13.1663 23.3681ZM10.4988 22.7175H12.869L13.086 20.2328C13.098 20.0928 13.1987 19.9767 13.3353 19.9451C14.3881 19.6983 15.3743 19.2577 16.2615 18.6353C16.3827 18.5507 16.5448 18.5575 16.6576 18.6523L18.6488 20.3241L20.3241 18.648L18.5994 16.5937C18.508 16.4853 18.4977 16.3307 18.5737 16.2111C19.1279 15.3334 19.5137 14.3754 19.7169 13.3653C19.7451 13.2236 19.863 13.1177 20.0073 13.1057L22.7191 12.8692V10.4989L20.0073 10.2624C19.863 10.2496 19.7451 10.1437 19.7169 10.0028C19.5137 8.99185 19.1287 8.0347 18.5737 7.15609C18.4977 7.03655 18.508 6.88204 18.5994 6.77445L20.3241 4.7192L18.6488 3.04309L16.6576 4.71493C16.5448 4.80971 16.3827 4.81653 16.2615 4.73286C15.3743 4.1104 14.389 3.66896 13.3353 3.42306C13.1987 3.39146 13.098 3.27451 13.086 3.13533L12.869 0.649767H10.4988L10.2923 3.01833C10.2794 3.16605 10.1675 3.28648 10.0215 3.31038C8.88499 3.49567 7.81422 3.90465 6.83913 4.52711C6.71959 4.6031 6.56506 4.59286 6.45577 4.50235L4.71993 3.04397L3.04392 4.72009L4.44935 6.39448C4.54413 6.50805 4.55098 6.67025 4.46645 6.79149C3.76885 7.77684 3.29927 8.87404 3.06873 10.0532C3.04226 10.1958 2.92264 10.3026 2.77834 10.3145L0.648725 10.4998V12.8701L2.77834 13.0553C2.92264 13.0681 3.04226 13.1749 3.06873 13.3166C3.29927 14.4958 3.768 15.593 4.46645 16.5783C4.55183 16.6987 4.54498 16.8618 4.44935 16.9745L3.04392 18.6489L4.71993 20.325L6.45577 18.8666C6.56506 18.7753 6.72044 18.765 6.83913 18.841C7.81508 19.4635 8.88499 19.8724 10.0215 20.0577C10.1683 20.0816 10.2803 20.202 10.2923 20.3506L10.4988 22.7175ZM23.0435 13.1663H23.0462H23.0435Z" fill="#555555"/>
<path d="M11.683 17.3945C8.53405 17.3945 5.97168 14.833 5.97168 11.6831C5.97168 8.53413 8.5349 5.97176 11.683 5.97176C14.832 5.97176 17.3944 8.53413 17.3944 11.6831C17.3953 14.833 14.8329 17.3945 11.683 17.3945ZM11.683 6.62153C8.89181 6.62153 6.62145 8.8919 6.62145 11.6831C6.62145 14.4744 8.89181 16.7447 11.683 16.7447C14.4743 16.7447 16.7446 14.4744 16.7446 11.6831C16.7446 8.89275 14.4743 6.62153 11.683 6.62153Z" fill="#555555"/>
</svg>
