<svg width="48" height="48" viewBox="0 0 48 48" fill="none" xmlns="http://www.w3.org/2000/svg">
<g opacity="0.8">
<circle cx="24" cy="24" r="23.75" fill="#FFB800" stroke="#FFB800" stroke-width="0.5"/>
<path d="M15.3256 19.6291H31.4105C32.4865 19.6291 33.3617 18.7539 33.3617 17.6777C33.3617 16.6018 32.4865 15.7266 31.4106 15.7266H15.3256C14.2494 15.7266 13.3741 16.6017 13.3741 17.6777C13.3741 18.7539 14.2493 19.6291 15.3256 19.6291ZM14.545 17.6776C14.545 17.2477 14.8952 16.8974 15.3256 16.8974H31.4106C31.8405 16.8974 32.1908 17.2476 32.1908 17.6776C32.1908 18.1079 31.8405 18.4582 31.4106 18.4582H15.3256C14.8953 18.4582 14.545 18.1079 14.545 17.6776Z" fill="white" stroke="white" stroke-width="0.5"/>
<path d="M26.5482 16.3128C26.5482 16.6363 26.8101 16.8982 27.1337 16.8982C27.4572 16.8982 27.7191 16.6363 27.7191 16.3128V15.1577C27.7191 14.2239 26.9595 13.4644 26.0257 13.4644H20.7101C19.7763 13.4644 19.0167 14.224 19.0167 15.1577V16.3128C19.0167 16.6363 19.2787 16.8982 19.6022 16.8982C19.9257 16.8982 20.1876 16.6363 20.1876 16.3128V15.1577C20.1876 14.8699 20.4223 14.6352 20.7101 14.6352H26.0257C26.3136 14.6352 26.5482 14.8699 26.5482 15.1577V16.3128Z" fill="white" stroke="white" stroke-width="0.5"/>
<path d="M16.3944 32.3804L16.3944 32.3804L15.1418 19.0999C15.1418 19.0998 15.1418 19.0997 15.1418 19.0997L15.1418 19.0995L15.3907 19.076C15.3729 18.8916 15.5086 18.7281 15.693 18.7108L16.3944 32.3804ZM16.3944 32.3804C16.5104 33.6085 17.5296 34.5357 18.7628 34.5357H27.9731C29.2067 34.5357 30.2256 33.6084 30.3412 32.3803L31.5942 19.0998C31.625 18.7785 31.3898 18.4945 31.0705 18.4622C30.7371 18.422 30.4583 18.677 30.4288 18.9896L29.1758 32.2705C29.1758 32.2705 29.1758 32.2705 29.1758 32.2705C29.1168 32.8952 28.6006 33.3648 27.9731 33.3648H18.7628C18.1354 33.3648 17.6191 32.8949 17.5598 32.2705C17.5598 32.2704 17.5598 32.2704 17.5598 32.2704L16.3072 18.9898C16.3072 18.9898 16.3072 18.9898 16.3072 18.9898C16.3072 18.9897 16.3072 18.9897 16.3072 18.9897C16.278 18.679 16.0041 18.4205 15.6651 18.4623L16.3944 32.3804Z" fill="white" stroke="white" stroke-width="0.5"/>
<path d="M22.7825 31.3077C22.7825 31.6312 23.0444 31.8932 23.3679 31.8932C23.6915 31.8932 23.9534 31.6311 23.9534 31.3077V22.2441C23.9534 21.9206 23.6914 21.6587 23.3679 21.6587C23.0444 21.6587 22.7825 21.9206 22.7825 22.2441V31.3077Z" fill="white" stroke="white" stroke-width="0.5"/>
<path d="M20.5095 32.1034C20.8311 32.0731 21.0666 31.7879 21.0375 31.4671L21.0375 31.4668L20.1852 22.1903L20.1852 22.1903C20.1558 21.8711 19.8737 21.6288 19.5473 21.661C19.2255 21.6912 18.9899 21.9765 19.019 22.2973L19.019 22.2977L19.8714 31.5741L19.8714 31.5743C19.8995 31.8781 20.155 32.1059 20.4542 32.1059C20.4679 32.1059 20.4874 32.1056 20.5095 32.1034ZM20.5095 32.1034C20.5099 32.1034 20.5103 32.1033 20.5108 32.1033L20.4853 31.8546L20.5082 32.1035C20.5086 32.1035 20.509 32.1034 20.5095 32.1034Z" fill="white" stroke="white" stroke-width="0.5"/>
<path d="M26.2508 31.8544L26.2278 32.1033C25.9057 32.0736 25.6692 31.7887 25.6985 31.4669L25.6985 31.4666L26.5505 22.1902L26.5505 22.19C26.5806 21.8651 26.8678 21.6363 27.1834 21.6604L27.1874 21.6607L27.1874 21.6608C27.5094 21.6905 27.7459 21.9754 27.7167 22.2972L27.7166 22.2975L26.8646 31.5739L26.8646 31.574C26.8366 31.878 26.5811 32.1057 26.2819 32.1057C26.2666 32.1057 26.2476 32.1052 26.2268 32.1032L26.2508 31.8544ZM26.2508 31.8544C26.0663 31.8374 25.9307 31.6742 25.9474 31.4895M26.2508 31.8544L25.9474 31.4895M25.9474 31.4895L25.947 31.4895L25.9474 31.4895Z" fill="white" stroke="white" stroke-width="0.5"/>
</g>
</svg>
