<svg width="27" height="25" viewBox="0 0 27 25" fill="none" xmlns="http://www.w3.org/2000/svg">
<path d="M18.4899 7.646H5.17494C4.96494 7.646 4.79395 7.47504 4.79395 7.26404C4.79395 7.05304 4.96494 6.88293 5.17494 6.88293H18.4899C18.6999 6.88293 18.8709 7.05304 18.8709 7.26404C18.8709 7.47504 18.6999 7.646 18.4899 7.646Z" fill="#555555"/>
<path d="M13.034 11.614H5.17494C4.96494 11.614 4.79395 11.4429 4.79395 11.2319C4.79395 11.0219 4.96494 10.851 5.17494 10.851H13.034C13.244 10.851 13.4149 11.0219 13.4149 11.2319C13.4149 11.4429 13.244 11.614 13.034 11.614Z" fill="#555555"/>
<path d="M4.11601 21.196C4.06601 21.196 4.017 21.186 3.97 21.167C3.827 21.108 3.735 20.9699 3.735 20.8149V15.995C1.359 14.252 0 11.803 0 9.24902C0 4.14902 5.30801 0 11.833 0C18.358 0 23.666 4.14902 23.666 9.24902C23.666 14.349 18.358 18.4969 11.833 18.4969C10.372 18.4969 8.94401 18.291 7.58701 17.884L4.38501 21.085C4.31201 21.157 4.21501 21.196 4.11601 21.196ZM4.49701 15.825V19.895L7.21001 17.181C7.31101 17.08 7.459 17.045 7.595 17.088C8.944 17.517 10.369 17.734 11.832 17.734C17.936 17.734 22.903 13.927 22.903 9.24805C22.903 4.56905 17.936 0.761963 11.832 0.761963C5.728 0.761963 0.762009 4.56905 0.762009 9.24805C0.762009 11.609 2.06501 13.883 4.33701 15.488C4.44801 15.568 4.50501 15.697 4.49701 15.825Z" fill="#555555"/>
<path d="M22.624 24.857C22.525 24.857 22.428 24.818 22.354 24.745L19.778 22.1701C18.679 22.4951 17.525 22.6601 16.341 22.6601C13.131 22.6601 10.133 21.4221 8.32397 19.3471C8.18497 19.1881 8.20097 18.948 8.35997 18.809C8.51897 18.67 8.75898 18.687 8.89798 18.846C10.565 20.756 13.348 21.897 16.341 21.897C17.526 21.897 18.679 21.7211 19.769 21.3741C19.905 21.3321 20.053 21.367 20.154 21.468L22.242 23.5561V20.3941C22.242 20.2711 22.302 20.155 22.403 20.083C24.233 18.79 25.283 16.9601 25.283 15.0611C25.283 13.7901 24.822 12.5491 23.949 11.4721C23.817 11.3091 23.842 11.0691 24.006 10.9361C24.169 10.8041 24.409 10.8291 24.542 10.9931C25.525 12.2071 26.045 13.6141 26.045 15.0611C26.045 17.1541 24.94 19.158 23.004 20.589V24.4771C23.004 24.6301 22.911 24.77 22.769 24.829C22.722 24.848 22.673 24.857 22.624 24.857Z" fill="#555555"/>
</svg>
