<svg width="18" height="19" viewBox="0 0 18 19" fill="none" xmlns="http://www.w3.org/2000/svg">
<path d="M15.5713 19H2.43079C1.0908 19 0.000976562 17.9146 0.000976562 16.579V3.48164C0.000976562 2.14605 1.0908 1.05991 2.43079 1.05991H15.5713C16.9106 1.05991 18.0002 2.14605 18.0002 3.48164V16.579C18.0002 17.9146 16.9106 19 15.5713 19ZM2.43079 1.6329C1.40856 1.6329 0.575861 2.46204 0.575861 3.48091V16.5783C0.575861 17.5971 1.40781 18.4263 2.43079 18.4263H15.5713C16.5936 18.4263 17.4254 17.5979 17.4254 16.5783V3.48091C17.4254 2.46204 16.5943 1.6329 15.5713 1.6329H2.43079Z" fill="#999999"/>
<path d="M17.7122 5.25123H0.28854C0.12891 5.25123 0 5.12347 0 4.96437C0 4.80526 0.12891 4.67751 0.28854 4.67751H17.7122C17.8711 4.67751 18 4.80526 18 4.96437C18 5.12347 17.8711 5.25123 17.7122 5.25123Z" fill="#999999"/>
<path d="M5.07984 2.69355C4.92081 2.69355 4.79248 2.56514 4.79248 2.40678V0.286862C4.79248 0.128504 4.92081 0 5.07984 0C5.23964 0 5.36794 0.127757 5.36794 0.286862V2.40678C5.36794 2.56514 5.23964 2.69355 5.07984 2.69355Z" fill="#999999"/>
<path d="M12.9212 2.69355C12.7614 2.69355 12.6323 2.56514 12.6323 2.40678V0.286862C12.6323 0.128504 12.7614 0 12.9212 0C13.0802 0 13.2085 0.127757 13.2085 0.286862V2.40678C13.2085 2.56514 13.0802 2.69355 12.9212 2.69355Z" fill="#999999"/>
<path d="M8.05631 14.6354C7.98286 14.6354 7.90942 14.607 7.85321 14.551L4.98666 11.693C4.87424 11.581 4.87424 11.3995 4.98666 11.2874C5.09832 11.1754 5.28118 11.1754 5.39284 11.2874L8.05704 13.9429L12.7187 9.2968C12.8311 9.18476 13.0132 9.18476 13.1256 9.2968C13.2373 9.40885 13.2373 9.59036 13.1256 9.70166L8.26013 14.5502C8.20317 14.6077 8.12975 14.6354 8.05631 14.6354Z" fill="#999999"/>
</svg>
