<svg width="21" height="17" viewBox="0 0 21 17" fill="none" xmlns="http://www.w3.org/2000/svg">
<path d="M14.8116 17H6.41397C5.90688 17 5.49402 16.6489 5.49402 16.2184V0.782218C5.49402 0.35036 5.90688 0 6.41397 0H14.8116C15.3187 0 15.7316 0.351039 15.7316 0.782218V16.2184C15.7316 16.6496 15.3187 17 14.8116 17ZM6.41397 0.521534C6.24547 0.521534 6.10732 0.638265 6.10732 0.782218V16.2184C6.10732 16.3617 6.24547 16.4792 6.41397 16.4792H14.8116C14.9801 16.4792 15.1183 16.3617 15.1183 16.2184V0.782218C15.1183 0.638265 14.9801 0.521534 14.8116 0.521534H6.41397Z" fill="white"/>
<path d="M10.6128 15.9542C9.96036 15.9542 9.42932 15.5034 9.42932 14.9486C9.42932 14.3945 9.96036 13.943 10.6128 13.943C11.2652 13.943 11.7963 14.3945 11.7963 14.9486C11.7963 15.5034 11.2652 15.9542 10.6128 15.9542ZM10.6128 14.4638C10.2982 14.4638 10.0426 14.6811 10.0426 14.9486C10.0426 15.2161 10.2982 15.4334 10.6128 15.4334C10.9266 15.4334 11.183 15.2161 11.183 14.9486C11.183 14.6811 10.9266 14.4638 10.6128 14.4638Z" fill="white"/>
<path d="M15.4249 2.6646H5.80067C5.63137 2.6646 5.49402 2.54779 5.49402 2.40383C5.49402 2.25988 5.63137 2.14307 5.80067 2.14307H15.4249C15.5942 2.14307 15.7316 2.25988 15.7316 2.40383C15.7316 2.54779 15.5942 2.6646 15.4249 2.6646Z" fill="white"/>
<path d="M15.4249 13.3761H5.80067C5.63137 13.3761 5.49402 13.2593 5.49402 13.1147C5.49402 12.9714 5.63137 12.854 5.80067 12.854H15.4249C15.5942 12.854 15.7316 12.9714 15.7316 13.1147C15.7316 13.26 15.5942 13.3761 15.4249 13.3761Z" fill="white"/>
<path d="M11.0721 1.59295H10.1545C9.98524 1.59295 9.8479 1.47613 9.8479 1.33218C9.8479 1.18823 9.98524 1.07141 10.1545 1.07141H11.0721C11.2414 1.07141 11.3787 1.18823 11.3787 1.33218C11.3787 1.47613 11.2414 1.59295 11.0721 1.59295Z" fill="white"/>
<path d="M11.5614 9.99989H9.19187C8.90926 9.99989 8.67908 9.76971 8.67908 9.4871V7.19211C8.67908 6.9095 8.90926 6.67932 9.19187 6.67932H11.5614C11.8441 6.67932 12.0742 6.9095 12.0742 7.19211V9.4871C12.0742 9.76971 11.8441 9.99989 11.5614 9.99989ZM9.19231 7.00672C9.09001 7.00672 9.00689 7.0898 9.00689 7.19253V9.48752C9.00689 9.58939 9.08958 9.67291 9.19231 9.67291H11.5619C11.6637 9.67291 11.7473 9.58982 11.7473 9.48752V7.19253C11.7473 7.09023 11.6642 7.00672 11.5619 7.00672H9.19231Z" fill="white"/>
<path d="M11.5483 7.00683C11.4579 7.00683 11.3846 6.93349 11.3846 6.84355V6.18413C11.3846 5.71183 10.9323 5.32693 10.3769 5.32693C9.82151 5.32693 9.36924 5.71141 9.36924 6.18413V6.84355C9.36924 6.93349 9.29593 7.00683 9.20557 7.00683C9.1152 7.00683 9.04187 6.93349 9.04187 6.84355V6.18413C9.04187 5.5311 9.64077 5 10.3769 5C11.1131 5 11.712 5.5311 11.712 6.18413V6.84355C11.712 6.93349 11.6386 7.00683 11.5483 7.00683Z" fill="white"/>
<path d="M10.3768 9.07208C10.0686 9.07208 9.8184 8.84443 9.8184 8.56481C9.8184 8.52133 9.82949 8.47317 9.8427 8.43139C9.80434 8.36106 9.7583 8.25879 9.7583 8.168C9.7583 7.85939 10.0358 7.60828 10.3768 7.60828C10.7178 7.60828 10.9953 7.85982 10.9953 8.168C10.9953 8.25837 10.9497 8.36106 10.9109 8.43139C10.9237 8.47317 10.9352 8.52133 10.9352 8.56481C10.9348 8.84401 10.6846 9.07208 10.3768 9.07208ZM10.3768 7.93567C10.2161 7.93567 10.0857 8.0397 10.0857 8.168C10.0878 8.19315 10.1236 8.26944 10.1594 8.324C10.1897 8.36961 10.1948 8.42798 10.1735 8.47828C10.1607 8.50897 10.1466 8.55245 10.1458 8.56694C10.1458 8.662 10.2515 8.74427 10.3768 8.74427C10.5021 8.74427 10.6078 8.66201 10.6078 8.56439C10.6065 8.55246 10.5929 8.50897 10.5801 8.47828C10.5588 8.42798 10.5639 8.36961 10.5938 8.324C10.6296 8.26986 10.6654 8.19354 10.6679 8.16712C10.6671 8.03924 10.5366 7.93567 10.3768 7.93567ZM10.8312 8.16753H10.8329H10.8312Z" fill="white"/>
<path d="M17.1788 6.61024C17.0997 6.61024 17.0214 6.58516 16.9623 6.53423C16.8426 6.43238 16.8426 6.26672 16.9623 6.16555C17.4399 5.75881 17.7034 5.21757 17.7034 4.6438C17.7034 4.06799 17.4399 3.52754 16.9615 3.12081C16.8418 3.01963 16.8418 2.85396 16.9615 2.75278C17.0805 2.65093 17.2754 2.65093 17.3952 2.75278C17.9893 3.25729 18.3159 3.92879 18.3159 4.6438C18.3159 5.35745 17.9893 6.02904 17.396 6.53423C17.3361 6.58448 17.257 6.61024 17.1788 6.61024Z" fill="white"/>
<path d="M19.0699 8.21827C18.9908 8.21827 18.9125 8.1931 18.8534 8.14218C18.7337 8.041 18.7337 7.87534 18.8534 7.77349C19.8357 6.93761 20.3779 5.82537 20.3779 4.64387C20.3779 3.46102 19.8365 2.3488 18.8527 1.51293C18.7329 1.41175 18.7329 1.24609 18.8527 1.14424C18.9724 1.04307 19.1665 1.04307 19.2863 1.14424C20.3851 2.07925 20.9912 3.32182 20.9912 4.64387C20.9912 5.96457 20.3859 7.20716 19.2871 8.14218C19.2272 8.1931 19.1481 8.21827 19.0699 8.21827Z" fill="white"/>
<path d="M4.04706 6.61024C3.9688 6.61024 3.88974 6.58516 3.82985 6.53423C3.23652 6.02904 2.90991 5.35745 2.90991 4.6438C2.90991 3.92879 3.23652 3.25729 3.83065 2.75278C3.95044 2.65093 4.14529 2.65093 4.26427 2.75278C4.38406 2.85396 4.38406 3.01963 4.26427 3.12081C3.78593 3.52822 3.52241 4.06867 3.52241 4.6438C3.52241 5.21825 3.78593 5.75949 4.26347 6.16555C4.38325 6.26672 4.38325 6.43238 4.26347 6.53423C4.20438 6.58448 4.12612 6.61024 4.04706 6.61024Z" fill="white"/>
<path d="M2.15614 8.21827C2.07788 8.21827 1.99962 8.1931 1.93973 8.14218C0.840908 7.20716 0.235596 5.96457 0.235596 4.64387C0.235596 3.32182 0.840901 2.07925 1.94052 1.14424C2.06031 1.04307 2.25436 1.04307 2.37414 1.14424C2.49392 1.24609 2.49392 1.41175 2.37414 1.51293C1.39111 2.34948 0.849688 3.46102 0.849688 4.64387C0.849688 5.82537 1.39111 6.93761 2.37414 7.77349C2.49392 7.87534 2.49392 8.041 2.37414 8.14218C2.31345 8.1931 2.2344 8.21827 2.15614 8.21827Z" fill="white"/>
</svg>
