<svg width="11" height="12" viewBox="0 0 11 12" fill="none" xmlns="http://www.w3.org/2000/svg">
<path d="M9.10749 11.1497H1.42167C0.637917 11.1497 0.000488281 10.5128 0.000488281 9.72902V2.0432C0.000488281 1.25945 0.637917 0.62207 1.42167 0.62207H9.10749C9.8908 0.62207 10.5281 1.25945 10.5281 2.0432V9.72902C10.5281 10.5128 9.8908 11.1497 9.10749 11.1497ZM1.42167 0.958316C0.823773 0.958316 0.336734 1.44487 0.336734 2.04277V9.72859C0.336734 10.3265 0.823334 10.813 1.42167 10.813H9.10749C9.70539 10.813 10.1919 10.3269 10.1919 9.72859V2.04277C10.1919 1.44487 9.70582 0.958316 9.10749 0.958316H1.42167Z" fill="#777777"/>
<path d="M10.3597 3.08155H0.168765C0.0753987 3.08155 0 3.00658 0 2.91321C0 2.81984 0.0753987 2.74487 0.168765 2.74487H10.3597C10.4527 2.74487 10.5281 2.81984 10.5281 2.91321C10.5281 3.00658 10.4527 3.08155 10.3597 3.08155Z" fill="#777777"/>
<path d="M2.97113 1.58063C2.8782 1.58063 2.80322 1.50528 2.80322 1.41235V0.168337C2.80322 0.075409 2.8782 0 2.97113 0C3.0645 0 3.13947 0.0749707 3.13947 0.168337V1.41235C3.13947 1.50528 3.0645 1.58063 2.97113 1.58063Z" fill="#777777"/>
<path d="M7.55744 1.58063C7.46407 1.58063 7.38867 1.50528 7.38867 1.41235V0.168337C7.38867 0.075409 7.46407 0 7.55744 0C7.65037 0 7.72535 0.0749707 7.72535 0.168337V1.41235C7.72535 1.50528 7.65037 1.58063 7.55744 1.58063Z" fill="#777777"/>
<path d="M4.71216 8.58837C4.6692 8.58837 4.62625 8.57169 4.59337 8.53882L2.91674 6.86171C2.85099 6.79596 2.85099 6.68945 2.91674 6.6237C2.98206 6.55795 3.08901 6.55795 3.15432 6.6237L4.71259 8.18202L7.43916 5.45556C7.50491 5.38981 7.61141 5.38981 7.67716 5.45556C7.74248 5.52131 7.74248 5.62783 7.67716 5.69314L4.83138 8.53839C4.79806 8.57214 4.75512 8.58837 4.71216 8.58837Z" fill="#777777"/>
</svg>
