<svg width="21" height="17" viewBox="0 0 21 17" fill="none" xmlns="http://www.w3.org/2000/svg">
<path d="M18.0614 12.7469H7.16738C7.02803 12.7469 6.90468 12.6574 6.86161 12.5248L4.38129 4.87612C4.38129 4.87443 4.38048 4.87273 4.37964 4.87189V4.87106C4.37879 4.86769 4.37793 4.86259 4.37624 4.85921L3.35102 1.17635H0.321741C0.14355 1.17635 0 1.0328 0 0.854608C0 0.677262 0.14355 0.533691 0.321741 0.533691H3.59503C3.73944 0.533691 3.86617 0.629082 3.90502 0.768425L4.93106 4.45304H20.361C20.4624 4.45304 20.5578 4.50114 20.6187 4.58221C20.6795 4.66328 20.698 4.76972 20.6684 4.86684L18.3688 12.5172C18.3291 12.6532 18.2033 12.7469 18.0614 12.7469ZM7.40129 12.1042H17.8225L19.9287 5.09734H5.13033L7.40129 12.1042Z" fill="#555555"/>
<path d="M8.05984 16.3062C7.2812 16.3062 6.64783 15.6728 6.64783 14.8933C6.64783 14.1138 7.2812 13.4805 8.05984 13.4805C8.83847 13.4805 9.47278 14.1138 9.47278 14.8933C9.47278 15.6728 8.83932 16.3062 8.05984 16.3062ZM8.05984 14.1241C7.63505 14.1241 7.29059 14.4694 7.29059 14.8933C7.29059 15.3181 7.63505 15.6627 8.05984 15.6627C8.48463 15.6627 8.83012 15.3181 8.83012 14.8933C8.83012 14.4702 8.48463 14.1241 8.05984 14.1241Z" fill="#555555"/>
<path d="M16.9703 16.3062C16.1917 16.3062 15.5575 15.6728 15.5575 14.8933C15.5575 14.1138 16.1909 13.4805 16.9703 13.4805C17.7498 13.4805 18.3832 14.1138 18.3832 14.8933C18.3832 15.6728 17.7498 16.3062 16.9703 16.3062ZM16.9703 14.1241C16.5464 14.1241 16.2002 14.4694 16.2002 14.8933C16.2002 15.3181 16.5455 15.6627 16.9703 15.6627C17.3951 15.6627 17.7397 15.3181 17.7397 14.8933C17.7405 14.4702 17.3951 14.1241 16.9703 14.1241Z" fill="#555555"/>
<path d="M9.02353 12.747C8.87997 12.747 8.74905 12.6507 8.71189 12.5055L6.76784 4.85513C6.72477 4.6837 6.82782 4.50803 7.0001 4.46411C7.17322 4.4202 7.3471 4.52494 7.39101 4.69637L9.33507 12.3467C9.37898 12.5182 9.27519 12.693 9.10291 12.7369C9.07589 12.7445 9.04971 12.747 9.02353 12.747Z" fill="#555555"/>
<path d="M16.1072 12.7472C16.081 12.7472 16.054 12.7447 16.0278 12.7371C15.8556 12.6932 15.7517 12.5184 15.7956 12.3469L17.7396 4.69658C17.7836 4.52515 17.9592 4.42125 18.1298 4.46432C18.3021 4.50824 18.406 4.6839 18.3629 4.85534L16.4189 12.5057C16.3817 12.6501 16.2499 12.7472 16.1072 12.7472Z" fill="#555555"/>
<path d="M10.6855 12.7469C10.5268 12.7469 10.3892 12.6296 10.3672 12.4683L9.3428 4.81875C9.32 4.64225 9.44332 4.48097 9.61898 4.45732C9.79464 4.43452 9.95592 4.55691 9.98041 4.73257L11.0048 12.383C11.0285 12.5587 10.9051 12.72 10.7286 12.7445C10.7143 12.7461 10.6999 12.7469 10.6855 12.7469Z" fill="#555555"/>
<path d="M14.4452 12.7471C14.43 12.7471 14.4165 12.7463 14.4021 12.7446C14.2265 12.721 14.1024 12.5589 14.1261 12.3832L15.1504 4.73274C15.174 4.55709 15.3379 4.43385 15.5119 4.4575C15.6875 4.4803 15.8108 4.64242 15.788 4.81893L14.7637 12.4685C14.7417 12.6298 14.6031 12.7471 14.4452 12.7471Z" fill="#555555"/>
<path d="M12.7258 12.7471C12.5484 12.7471 12.4041 12.6035 12.4041 12.4262V4.77584C12.4041 4.5985 12.5476 4.4541 12.7258 4.4541C12.9031 4.4541 13.0467 4.5985 13.0467 4.77584V12.4262C13.0467 12.6035 12.9031 12.7471 12.7258 12.7471Z" fill="#555555"/>
<path d="M19.5064 7.22893H5.37606C5.19872 7.22893 5.05432 7.08454 5.05432 6.90719C5.05432 6.72984 5.19872 6.58545 5.37606 6.58545H19.5064C19.6837 6.58545 19.8281 6.72984 19.8281 6.90719C19.8281 7.08454 19.6837 7.22893 19.5064 7.22893Z" fill="#555555"/>
<path d="M18.7471 9.97014H6.26364C6.08629 9.97014 5.94189 9.82575 5.94189 9.6484C5.94189 9.47021 6.08629 9.32666 6.26364 9.32666H18.7471C18.9245 9.32666 19.0689 9.47021 19.0689 9.6484C19.0689 9.82575 18.9245 9.97014 18.7471 9.97014Z" fill="#555555"/>
</svg>
