<svg width="13" height="15" viewBox="0 0 13 15" fill="none" xmlns="http://www.w3.org/2000/svg">
<path d="M0.477432 12.3381C0.410467 12.3385 0.344173 12.3247 0.28291 12.2977C0.221647 12.2707 0.166801 12.2309 0.121978 12.1812C0.077155 12.1314 0.0433697 12.0728 0.022843 12.009C0.00231636 11.9453 -0.00448678 11.8779 0.00288079 11.8114L0.368285 8.48949C0.381293 8.38332 0.429788 8.28466 0.505905 8.20951L8.26956 0.44585C8.41061 0.304517 8.57815 0.192389 8.76259 0.115884C8.94703 0.0393794 9.14475 0 9.34442 0C9.5441 0 9.74181 0.0393794 9.92625 0.115884C10.1107 0.192389 10.2782 0.304517 10.4193 0.44585L11.8951 1.9217C12.0365 2.06276 12.1486 2.23029 12.2251 2.41473C12.3016 2.59917 12.341 2.79689 12.341 2.99656C12.341 3.19624 12.3016 3.39395 12.2251 3.57839C12.1486 3.76283 12.0365 3.93037 11.8951 4.07142L4.13622 11.8303C4.06107 11.9065 3.96241 11.9549 3.85624 11.968L0.534378 12.3334L0.477432 12.3381ZM1.29841 8.75524L1.01367 11.3273L3.58574 11.0426L11.226 3.4023C11.2791 3.3494 11.3212 3.28653 11.35 3.21732C11.3787 3.1481 11.3935 3.07388 11.3935 2.99894C11.3935 2.92399 11.3787 2.84977 11.35 2.78056C11.3212 2.71134 11.2791 2.64847 11.226 2.59557L9.74542 1.11497C9.69251 1.06188 9.62965 1.01975 9.56043 0.991013C9.49121 0.962271 9.417 0.947476 9.34205 0.947476C9.2671 0.947476 9.19289 0.962271 9.12367 0.991013C9.05445 1.01975 8.99158 1.06188 8.93868 1.11497L1.29841 8.75524Z" fill="#555555"/>
<path d="M10.443 5.31961C10.3805 5.31997 10.3186 5.308 10.2608 5.28438C10.203 5.26077 10.1504 5.22597 10.1061 5.18199L7.15909 2.22553C7.11485 2.18129 7.07975 2.12876 7.0558 2.07095C7.03186 2.01314 7.01953 1.95118 7.01953 1.8886C7.01953 1.82603 7.03186 1.76407 7.0558 1.70626C7.07975 1.64845 7.11485 1.59592 7.15909 1.55167C7.20334 1.50742 7.25587 1.47233 7.31368 1.44838C7.37149 1.42443 7.43345 1.41211 7.49602 1.41211C7.5586 1.41211 7.62056 1.42443 7.67837 1.44838C7.73618 1.47233 7.78871 1.50742 7.83296 1.55167L10.7894 4.50812C10.8339 4.55224 10.8692 4.60473 10.8933 4.66255C10.9174 4.72038 10.9298 4.78241 10.9298 4.84506C10.9298 4.9077 10.9174 4.96973 10.8933 5.02756C10.8692 5.08539 10.8339 5.13787 10.7894 5.18199C10.7439 5.22712 10.6898 5.26258 10.6303 5.28624C10.5707 5.30989 10.507 5.32124 10.443 5.31961Z" fill="#555555"/>
<path d="M7.1616 4.5096L3.4671 8.2041L4.13822 8.87522L7.83272 5.18072L7.1616 4.5096Z" fill="#555555"/>
<path d="M11.8966 14.5289H0.6998C0.514202 14.5289 0.336205 14.4712 0.204967 14.3685C0.0737289 14.2658 0 14.1265 0 13.9813C0 13.836 0.0737289 13.6967 0.204967 13.594C0.336205 13.4913 0.514202 13.4336 0.6998 13.4336H11.8966C12.0822 13.4336 12.2602 13.4913 12.3914 13.594C12.5227 13.6967 12.5964 13.836 12.5964 13.9813C12.5964 14.1265 12.5227 14.2658 12.3914 14.3685C12.2602 14.4712 12.0822 14.5289 11.8966 14.5289Z" fill="#555555"/>
</svg>
