<svg width="39" height="30" viewBox="0 0 39 30" fill="none" xmlns="http://www.w3.org/2000/svg">
<path d="M35.3846 29H3.78752C2.36478 29 1.20679 27.8393 1.20679 26.4133V8.36051C1.20679 7.01134 2.217 5.90455 3.55631 5.785L11.6704 5.78369L12.1965 3.10244C12.3896 2.11716 13.2455 1.40186 14.2314 1.40186H24.942C25.9246 1.40186 26.7825 2.11651 26.9815 3.10046L27.5031 5.78303H35.5869C36.9373 5.90192 37.9719 7.03302 37.9719 8.35985V26.4133C37.9712 27.84 36.8106 29 35.3846 29ZM3.58522 6.44054C2.61571 6.5279 1.86364 7.35421 1.86364 8.36051V26.414C1.86364 27.4781 2.72605 28.3438 3.78752 28.3438H35.3846C36.4486 28.3438 37.3144 27.4781 37.3144 26.414V8.36051C37.3144 7.37064 36.5426 6.52659 35.5573 6.43922L26.9611 6.44054L26.3365 3.22855C26.1999 2.552 25.612 2.0587 24.9413 2.0587H14.2307C13.5588 2.0587 12.9736 2.55134 12.8402 3.22921L12.2103 6.44054H3.58522V6.44054ZM19.5854 25.9246C18.4615 25.9246 17.3639 25.7059 16.3241 25.275C15.2896 24.8448 14.3588 24.2221 13.5568 23.4253L13.4603 23.3242C12.762 22.6049 12.2024 21.7773 11.7945 20.8584H11.7912L11.7012 20.6547C11.273 19.6097 11.0555 18.5114 11.0555 17.3915C11.0555 16.2722 11.273 15.1747 11.7012 14.1296L11.7945 13.926C12.2031 13.0064 12.7627 12.1781 13.4603 11.4608V11.4595L13.5568 11.359C14.3595 10.5609 15.2909 9.93891 16.3241 9.51065C18.403 8.64623 20.7736 8.64821 22.8526 9.50933C23.8891 9.94285 24.8146 10.5616 25.6034 11.3485L25.6192 11.3636C25.6455 11.3899 25.6717 11.4162 25.6974 11.4431L25.7105 11.4562C26.4659 12.2353 27.0571 13.1338 27.4689 14.1289C27.9018 15.1701 28.1211 16.2676 28.1211 17.3915C28.1211 18.516 27.9018 19.6143 27.4689 20.6561C27.0413 21.6899 26.4186 22.6207 25.6199 23.4207L25.5528 23.4858C24.7837 24.2398 23.8516 24.8573 22.8532 25.2737C21.8141 25.7052 20.7145 25.9246 19.5854 25.9246ZM14.1171 23.0542C14.8364 23.7459 15.6633 24.2884 16.5757 24.6668C18.4963 25.4648 20.6836 25.4622 22.6016 24.6681C23.5068 24.2891 24.3521 23.7327 25.0543 23.0549V22.936L25.2179 22.8933C25.926 22.1688 26.479 21.3319 26.8626 20.4045C27.262 19.4422 27.4649 18.4287 27.4649 17.3915C27.4649 16.355 27.262 15.3421 26.8626 14.3805C26.4744 13.4412 25.9128 12.5952 25.1929 11.8655L25.0596 11.7985L25.0576 11.7321C24.3548 11.0516 23.5081 10.4939 22.601 10.1163C20.6869 9.32148 18.4989 9.31819 16.5757 10.1156C15.6528 10.4992 14.8186 11.049 14.0948 11.7512L14.0206 11.8287C13.2875 12.5584 12.7134 13.4163 12.3147 14.3799L12.2287 14.5828C11.8865 15.4867 11.7124 16.4305 11.7124 17.3915C11.7124 18.3768 11.8943 19.3443 12.2543 20.2679L12.3147 20.4045C12.7128 21.3668 13.2862 22.2253 14.0206 22.9557L14.1171 23.0542ZM19.5854 23.2532C18.8024 23.2532 18.0484 23.1048 17.3442 22.8125C16.6342 22.5182 15.9944 22.0886 15.4426 21.5356C14.8942 20.9917 14.4646 20.3519 14.167 19.6366C13.8754 18.9325 13.7276 18.1764 13.7276 17.3909C13.7276 16.6059 13.8754 15.8505 14.167 15.1464C14.4646 14.4311 14.8942 13.792 15.444 13.2461C15.9944 12.695 16.6342 12.2655 17.3442 11.9712C18.7512 11.3866 20.4091 11.3846 21.8324 11.9712C22.5326 12.2615 23.1718 12.6911 23.7327 13.2468C24.2838 13.7992 24.7239 14.4567 25.0057 15.149C25.3 15.8466 25.4504 16.6026 25.4504 17.3915C25.4504 18.1817 25.3 18.9377 25.0044 19.6393C24.7239 20.3276 24.2838 20.9851 23.734 21.5362C23.1731 22.0932 22.5333 22.5222 21.8331 22.8131C21.1224 23.1054 20.3664 23.2532 19.5854 23.2532ZM19.5854 12.1873C18.8898 12.1873 18.2205 12.3187 17.5958 12.5781C16.9751 12.8356 16.3918 13.2271 15.9083 13.7118C15.4196 14.1973 15.038 14.7648 14.774 15.3986C14.5152 16.0226 14.3844 16.6933 14.3844 17.3915C14.3844 18.0911 14.5152 18.7617 14.774 19.3857C15.0374 20.0202 15.4183 20.5871 15.907 21.0712C16.3911 21.5566 16.9751 21.9487 17.5958 22.2062C18.8432 22.7245 20.3204 22.7258 21.5822 22.2062C22.2023 21.9487 22.7705 21.5671 23.2697 21.0712C23.757 20.5825 24.1472 19.9999 24.3968 19.3877C24.6596 18.7637 24.7929 18.0937 24.7929 17.3915C24.7929 16.6907 24.6602 16.0207 24.3981 15.4006C24.1472 14.7845 23.757 14.2019 23.2683 13.7118C22.7698 13.2179 22.2016 12.8363 21.5816 12.5781C20.9523 12.3187 20.2797 12.1873 19.5854 12.1873ZM6.55747 11.357C5.52556 11.357 4.68543 10.5176 4.68543 9.48503C4.68543 8.45247 5.52491 7.61301 6.55747 7.61301C7.59004 7.61301 8.42947 8.45247 8.42947 9.48503C8.42947 10.5176 7.59004 11.357 6.55747 11.357ZM6.55747 8.27052C5.88749 8.27052 5.34228 8.8157 5.34228 9.48569C5.34228 10.1557 5.88749 10.7009 6.55747 10.7009C7.22746 10.7009 7.77263 10.1557 7.77263 9.48569C7.77263 8.8157 7.22746 8.27052 6.55747 8.27052Z" fill="white" stroke="#FFB800"/>
</svg>
