<svg width="26" height="25" viewBox="0 0 26 25" fill="none" xmlns="http://www.w3.org/2000/svg">
<mask id="path-1-inside-1" fill="white">
<path d="M18.7727 0C16.2729 0 14.128 1.30237 12.8922 2.25426C11.8675 1.31532 10.0857 0.0955877 7.74271 0.0955877C5.7688 0.0955877 3.88237 1.00167 2.13471 2.78995C-3.41296 8.4724 3.27702 15.3626 6.13482 18.3049C6.4747 18.6554 6.76631 18.9571 6.97547 19.1901C8.60749 21.0023 10.6055 23.2774 11.6513 24.4743L11.7147 24.548C11.9681 24.8367 12.3361 25 12.7182 25C12.7524 25 12.7866 24.999 12.8218 24.996C13.2411 24.9641 13.6202 24.7351 13.8454 24.3817C13.8605 24.3558 15.5318 21.7401 18.4831 19.3315C20.5767 17.6259 25.4948 13.1263 25.9634 8.22547C26.1585 6.19325 25.5723 4.34921 24.2248 2.74116C22.6994 0.92102 20.8642 0 18.7727 0ZM17.6394 18.3149C14.5805 20.8111 12.8097 23.5393 12.7192 23.6837C12.5814 23.5274 9.99012 20.5602 7.96895 18.3149C5.94878 16.0646 -2.15401 9.07281 3.09099 3.70101C4.76223 1.9914 6.35201 1.40891 7.74371 1.40891C10.7232 1.40891 12.6941 3.94297 12.7956 4.07938C12.9364 3.94097 15.574 1.31532 18.7727 1.31532C20.2378 1.31532 21.7884 1.89282 23.2032 3.57854C27.7061 8.94635 20.7034 15.8157 17.6394 18.3149Z"/>
</mask>
<path d="M12.8922 2.25426L11.541 3.72881L12.7806 4.86471L14.1126 3.83874L12.8922 2.25426ZM2.13471 2.78995L0.704349 1.39207L0.703628 1.39281L2.13471 2.78995ZM6.13482 18.3049L7.57059 16.9126L7.56948 16.9115L6.13482 18.3049ZM6.97547 19.1901L5.48717 20.5261L5.48931 20.5285L6.97547 19.1901ZM11.6513 24.4743L13.1678 23.1703L13.1626 23.1643L13.1574 23.1583L11.6513 24.4743ZM11.7147 24.548L10.1982 25.8519L10.2048 25.8596L10.2114 25.8671L11.7147 24.548ZM12.8218 24.996L12.6702 23.0018L12.6614 23.0024L12.6526 23.0032L12.8218 24.996ZM13.8454 24.3817L15.5321 25.4565L15.5535 25.4229L15.5735 25.3885L13.8454 24.3817ZM18.4831 19.3315L17.2198 17.7809L17.2185 17.782L18.4831 19.3315ZM25.9634 8.22547L23.9726 8.03436L23.9725 8.03511L25.9634 8.22547ZM24.2248 2.74116L25.7578 1.45663L25.7577 1.45649L24.2248 2.74116ZM17.6394 18.3149L16.3753 16.7651L16.3749 16.7653L17.6394 18.3149ZM12.7192 23.6837L11.2187 25.006L12.9905 27.0165L14.4138 24.7459L12.7192 23.6837ZM7.96895 18.3149L6.48069 19.6509L6.4825 19.653L7.96895 18.3149ZM3.09099 3.70101L1.66081 2.30294L1.65999 2.30379L3.09099 3.70101ZM12.7956 4.07938L11.1914 5.27375L12.5616 7.1141L14.1978 5.50558L12.7956 4.07938ZM23.2032 3.57854L24.7354 2.29317L24.7351 2.29279L23.2032 3.57854ZM18.7727 -2C15.6137 -2 13.0331 -0.378757 11.6718 0.669787L14.1126 3.83874C15.2229 2.9835 16.932 2 18.7727 2V-2ZM14.2434 0.779715C13.0425 -0.320676 10.797 -1.90441 7.74271 -1.90441V2.09559C9.37433 2.09559 10.6925 2.95131 11.541 3.72881L14.2434 0.779715ZM7.74271 -1.90441C5.09587 -1.90441 2.72256 -0.67304 0.70435 1.39207L3.56507 4.18783C5.04219 2.67639 6.44173 2.09559 7.74271 2.09559V-1.90441ZM0.703628 1.39281C-0.989962 3.12755 -1.83249 5.05892 -1.97732 7.0528C-2.11871 8.99939 -1.58427 10.8393 -0.822349 12.4362C0.677428 15.5796 3.30435 18.2613 4.70016 19.6984L7.56948 16.9115C6.10749 15.4062 3.96053 13.1717 2.78778 10.7138C2.21345 9.51001 1.93696 8.37804 2.01217 7.34258C2.08395 6.3544 2.48555 5.29358 3.5658 4.18709L0.703628 1.39281ZM4.69905 19.6972C5.04751 20.0566 5.30921 20.3279 5.48717 20.5261L8.46376 17.8541C8.22341 17.5863 7.90189 17.2542 7.57059 16.9126L4.69905 19.6972ZM5.48931 20.5285C7.11108 22.3293 9.10122 24.5954 10.1453 25.7903L13.1574 23.1583C12.1098 21.9595 10.1039 19.6752 8.46162 17.8517L5.48931 20.5285ZM10.1348 25.7782L10.1982 25.8519L13.2311 23.244L13.1678 23.1703L10.1348 25.7782ZM10.2114 25.8671C10.8514 26.5964 11.7708 27 12.7182 27V23C12.9014 23 13.0848 23.077 13.2179 23.2288L10.2114 25.8671ZM12.7182 27C12.7913 27 12.8843 26.9979 12.9909 26.9888L12.6526 23.0032C12.6888 23.0001 12.7135 23 12.7182 23V27ZM12.9733 26.9903C14.0255 26.9103 14.9711 26.3368 15.5321 25.4565L12.1588 23.3069C12.2693 23.1335 12.4567 23.018 12.6702 23.0018L12.9733 26.9903ZM15.5735 25.3885C15.4942 25.5247 17.0187 23.1081 19.7476 20.881L17.2185 17.782C14.0449 20.372 12.2269 23.1868 12.1174 23.3748L15.5735 25.3885ZM19.7463 20.882C20.8531 19.9803 22.7256 18.3266 24.3986 16.2208C26.0454 14.148 27.6662 11.43 27.9544 8.41583L23.9725 8.03511C23.7921 9.92177 22.7195 11.9039 21.2667 13.7326C19.8401 15.5282 18.2066 16.977 17.2198 17.7809L19.7463 20.882ZM27.9543 8.41657C28.2023 5.83294 27.4375 3.46125 25.7578 1.45663L22.6919 4.02569C23.707 5.23717 24.1147 6.55356 23.9726 8.03436L27.9543 8.41657ZM25.7577 1.45649C23.9088 -0.749512 21.5387 -2 18.7727 -2V2C20.1898 2 21.4899 2.59155 22.692 4.02582L25.7577 1.45649ZM16.3749 16.7653C13.0857 19.4495 11.1797 22.3741 11.0246 22.6214L14.4138 24.7459C14.4103 24.7516 14.5136 24.5893 14.7199 24.3024C14.9232 24.0196 15.2213 23.623 15.6079 23.1552C16.3839 22.2161 17.5001 21.01 18.9039 19.8644L16.3749 16.7653ZM14.2197 22.3614C14.0923 22.2168 11.486 19.2325 9.45541 16.9768L6.4825 19.653C8.49427 21.8878 11.0706 24.8379 11.2187 25.006L14.2197 22.3614ZM9.45721 16.9788C8.25063 15.6348 6.01164 13.6314 4.51991 11.1485C3.79787 9.94672 3.39115 8.83554 3.35498 7.86009C3.32201 6.97099 3.58682 6.05601 4.52199 5.09824L1.65999 2.30379C-0.0273474 4.03192 -0.716553 6.00533 -0.642275 8.00833C-0.5712 9.92498 0.190599 11.7096 1.09116 13.2085C2.84462 16.127 5.6671 18.7447 6.48069 19.6509L9.45721 16.9788ZM4.52116 5.09909C5.88581 3.7031 6.98247 3.40891 7.74371 3.40891V-0.591086C5.72155 -0.591086 3.63864 0.279702 1.66081 2.30294L4.52116 5.09909ZM7.74371 3.40891C8.65581 3.40891 9.48209 3.79888 10.1581 4.29984C10.8322 4.79946 11.2171 5.30821 11.1914 5.27375L14.3998 2.885C14.2726 2.71413 13.6212 1.88765 12.5397 1.08614C11.46 0.285973 9.81107 -0.591086 7.74371 -0.591086V3.40891ZM14.1978 5.50558C14.2282 5.47561 14.8025 4.90138 15.6982 4.34095C16.6176 3.76576 17.7011 3.31532 18.7727 3.31532V-0.684683C16.6455 -0.684683 14.811 0.1777 13.5767 0.949943C12.3188 1.73694 11.5038 2.54474 11.3935 2.65318L14.1978 5.50558ZM18.7727 3.31532C19.6258 3.31532 20.6228 3.61514 21.6712 4.8643L24.7351 2.29279C22.9539 0.170509 20.8497 -0.684683 18.7727 -0.684683V3.31532ZM21.6709 4.86391C22.4633 5.80853 22.7138 6.74639 22.6668 7.69533C22.6169 8.70439 22.2207 9.82939 21.53 11.0169C20.1379 13.4104 17.8376 15.5723 16.3753 16.7651L18.9036 19.8647C20.5052 18.5583 23.2382 16.0359 24.9877 13.028C25.8678 11.5148 26.5695 9.75978 26.6619 7.89304C26.7573 5.9662 26.1945 4.03246 24.7354 2.29317L21.6709 4.86391Z" fill="#555555" mask="url(#path-1-inside-1)"/>
</svg>
