<svg width="80" height="80" viewBox="0 0 80 80" fill="none" xmlns="http://www.w3.org/2000/svg">
<circle cx="40" cy="40" r="40" fill="#DECFB7"/>
<path d="M68 47.5601C68 45.5921 67.1363 44.4499 66.4118 43.8378C66.2099 43.6634 65.9859 43.5164 65.7551 43.3864C64.0091 39.1102 59.8418 36.1077 54.9703 36.1043C54.6886 36.1043 54.4155 36.2206 54.2153 36.4206C54.0167 36.6224 53.903 36.8977 53.903 37.1815V43.9267C51.2085 44.4978 48.2697 45.098 45.4428 45.3202L43.8665 40.6028C43.5747 39.7257 42.7262 39.1495 41.8117 39.1495H41.1856C40.8598 38.7203 39.7925 37.3627 36.3548 32.9924C35.1874 31.5083 34.2355 30.2978 34.1048 30.1268C32.9391 28.6033 31.6411 27.5997 30.2345 27.1089C31.3662 25.9104 32.0772 24.1407 32.0772 22.1317C32.0772 21.2785 31.9414 20.4509 31.6784 19.6593C31.7158 19.2677 31.6971 18.8762 31.6207 18.4915C31.1965 16.4328 29.1875 15.0017 26.7357 15C26.7357 15 26.7357 15 26.734 15C26.2928 15 25.8448 15.0462 25.4037 15.1385C24.0276 15.424 22.8229 16.1285 21.9914 17.1287C21.7658 17.3664 21.4807 17.7118 21.2788 18.1854C21.2058 18.3547 21.1362 18.5308 21.065 18.7137C20.8868 19.1737 20.7154 19.6063 20.4779 19.8832C19.4072 21.1365 18.1719 21.8872 18.1601 21.894C17.3575 22.3779 16.9689 23.32 17.1691 24.2159C16.957 24.7237 16.9367 25.3119 17.1522 25.8556C17.3677 26.4028 17.7885 26.8183 18.2958 27.0371C18.6979 27.5706 19.3258 27.892 19.9943 27.892C20.13 27.892 20.2658 27.8784 20.4032 27.8527C20.7188 27.7912 21.8268 27.5484 23.0095 27.0064C23.3981 27.4355 23.8358 27.7895 24.3092 28.0665C22.7397 29.7045 21.574 33.0523 20.617 38.481C19.7398 43.4599 19.3784 48.3535 19.3648 48.5586C19.3207 49.1554 19.5243 49.7418 19.9298 50.1778C20.3337 50.6155 20.9004 50.8652 21.4909 50.8652H21.7115V59.775C21.7148 62.1842 23.3556 64 25.5275 64C27.0309 64 28.2814 63.1383 28.9127 61.8132C29.5065 62.2492 30.2361 62.4971 31.054 62.4971C33.214 62.4971 34.7836 60.765 34.7836 58.3764C34.7836 58.3114 34.7836 58.2465 34.7802 58.1832L34.7751 51.2721C34.7734 51.0293 34.7445 50.7882 34.697 50.5574C34.9125 50.424 35.1043 50.2514 35.2621 50.0445C35.6693 49.5144 35.805 48.8288 35.6354 48.1808L35.2162 46.5838C35.6591 45.7032 35.9204 44.7543 35.99 43.7728C36.5482 44.3405 37.3831 45.0296 38.5963 45.0296C38.9136 45.0296 39.2258 44.9851 39.5515 44.8894L41.5402 50.8498C42.0204 52.7152 43.4745 54.8542 44.7454 56.4648C44.5096 57.0188 44.3721 57.6292 44.3721 58.2704C44.3789 60.8368 46.4321 62.9228 48.9891 62.9228C50.4976 62.9211 51.8245 62.1859 52.6678 61.0608C53.3176 61.0848 54.5529 61.0882 54.5665 61.0882C54.5818 61.0882 55.912 61.0831 56.6434 61.0506C57.4833 62.1808 58.8186 62.9211 60.3339 62.9228C62.8892 62.9228 64.9525 60.8368 64.9525 58.2704C64.9525 57.5813 64.7999 56.9265 64.5318 56.3366C66.2676 54.0044 68 50.6173 68 47.5601ZM62.947 42.6341C62.891 42.6307 62.8112 42.6256 62.7569 42.6256H62.706C62.5788 42.6204 62.4498 42.617 62.3107 42.617C62.1681 42.617 62.0137 42.6204 61.8678 42.6256C61.788 42.6273 61.7117 42.629 61.6319 42.6341C61.5827 42.6375 61.5335 42.6409 61.486 42.6444L61.4096 42.6478C61.3537 42.6512 61.296 42.6546 61.2383 42.658C61.2349 42.658 61.2315 42.658 61.2281 42.6598C61.1382 42.6649 61.0448 42.6717 60.9481 42.6803L60.8836 42.6854C60.848 42.6888 60.7971 42.6957 60.7632 42.6991C60.7479 42.6991 60.697 42.7059 60.6817 42.7059L60.6308 42.711C60.5494 42.7179 60.4713 42.7264 60.3916 42.7384C60.3017 42.7452 60.2151 42.7555 60.1269 42.7692C60.1031 42.7726 60.0777 42.7743 60.0539 42.776L59.9911 42.7829C59.891 42.7914 59.7705 42.8085 59.6721 42.8307C59.5567 42.8427 59.4431 42.8615 59.3294 42.8735C59.3039 42.8786 59.2751 42.8837 59.2479 42.8872C59.2089 42.894 59.1682 42.8974 59.1292 42.9043C58.7898 42.959 58.4436 43.0171 58.0856 43.0821C58.0262 43.0923 57.977 43.1043 57.9278 43.1146C57.7921 43.1351 57.658 43.159 57.5291 43.1847C57.5019 43.1915 57.4765 43.1966 57.451 43.2035C57.4222 43.2086 57.3866 43.212 57.3662 43.2172L57.2423 43.2394L57.0217 43.2821C56.9691 43.2924 56.9165 43.3026 56.8673 43.318C56.7112 43.3454 56.5806 43.371 56.455 43.3984C56.3837 43.4121 56.3125 43.4275 56.2395 43.4446C56.175 43.4548 56.1072 43.4719 56.0393 43.4822L56.0376 38.3134C58.9425 38.64 61.4317 40.2882 62.947 42.6341ZM19.9926 25.7428C19.9926 25.7428 21.3602 24.8691 22.6108 23.5662C21.3212 24.6348 19.1289 25.0623 19.1289 25.0623C19.1289 25.0623 20.5101 24.18 21.759 22.8686C20.5678 23.4858 19.2426 23.7474 19.2426 23.7474C19.2426 23.7474 20.7528 22.8532 22.0966 21.2853C22.6939 20.5826 22.9399 19.7328 23.2352 19.0386C23.3081 18.8676 23.4371 18.7137 23.5796 18.5684C24.07 17.9494 24.8607 17.4502 25.8296 17.2484C26.1367 17.1852 26.4387 17.1544 26.7306 17.1544C28.1338 17.1544 29.308 17.8486 29.5252 18.9206C29.588 19.2369 29.5642 19.5584 29.4624 19.8627C29.761 20.5347 29.9392 21.3024 29.9392 22.1351C29.9392 24.5853 28.4664 26.5704 26.6508 26.5704C25.3426 26.5704 24.2227 25.5308 23.695 24.0296C22.4597 25.2589 19.9926 25.7428 19.9926 25.7428ZM51.4596 58.4551C51.4546 58.5217 51.4512 58.5816 51.4444 58.6295C51.2815 59.8298 50.2397 60.7804 48.9857 60.777C47.6113 60.7736 46.505 59.6553 46.505 58.2738C46.505 57.4702 46.8749 56.7726 47.4569 56.3041C47.4807 56.2887 47.501 56.2699 47.5231 56.2528C47.5469 56.2323 47.5977 56.1981 47.652 56.1656L47.686 56.1417C47.7606 56.1006 47.8166 56.0682 47.8591 56.0459L47.8828 56.034C47.9507 56.0015 48.0118 55.9724 48.0779 55.9433C48.0779 55.9416 48.0796 55.9416 48.0813 55.9416L48.1679 55.9126C48.1814 55.9074 48.2137 55.8938 48.2833 55.8732C48.2883 55.8732 48.2951 55.8698 48.2951 55.8698L48.3698 55.8544C48.458 55.8271 48.4767 55.8254 48.4767 55.8236L48.5497 55.81C48.5497 55.81 48.5496 55.8066 48.6039 55.8031C48.6718 55.7929 48.7075 55.7878 48.7261 55.7843C48.833 55.7792 48.9229 55.7724 48.9874 55.7758C50.3567 55.7758 51.4698 56.8923 51.4698 58.2755C51.4664 58.3166 51.4664 58.3781 51.4596 58.4551ZM54.5631 58.9424C54.4087 58.9424 53.9794 58.9389 53.5518 58.9338C53.5518 58.9218 53.5586 58.9116 53.5586 58.8979C53.5722 58.7868 53.579 58.7047 53.5857 58.6346C53.5925 58.5405 53.601 58.414 53.601 58.2738C53.601 55.7005 51.5292 53.6214 48.984 53.6214C48.8194 53.6214 48.682 53.63 48.5734 53.6368C48.3834 53.6505 48.3342 53.6727 48.3308 53.6693C48.2985 53.6727 48.2171 53.6812 48.1068 53.7052C47.9795 53.7291 47.8998 53.7548 47.8472 53.7685C47.7946 53.7787 47.7335 53.7924 47.6639 53.8129C47.5977 53.8334 47.5078 53.8625 47.3992 53.9035C47.35 53.9172 47.2923 53.9377 47.238 53.9599C47.1413 54.0044 47.0633 54.042 46.9835 54.0813C46.9326 54.1036 46.9004 54.1207 46.8987 54.1207C46.7527 54.1976 46.6543 54.2575 46.5949 54.2917L46.5508 54.3241H46.5491C46.4371 54.3925 46.3201 54.4695 46.1962 54.5703C46.1962 54.5703 46.1962 54.5703 46.1945 54.5703C46.1521 54.6063 46.1097 54.6439 46.0672 54.6815C45.0746 53.3683 43.9123 51.6158 43.5865 50.2479L40.9989 42.4905H39.6143C39.5329 42.5691 39.4379 42.6375 39.3191 42.6939C39.034 42.8205 38.8033 42.8837 38.5946 42.8837C38.1466 42.8837 37.7988 42.5879 37.2507 41.9981C37.2473 41.9895 29.3657 32.5496 29.3657 32.5496H28.9788L28.9856 33.384L31.0065 35.711L28.9873 37.7321L29.157 38.0107C31.8057 38.3065 33.8724 40.5344 33.8724 43.2548C33.8724 44.3764 33.5178 45.4109 32.9256 46.2709L33.572 48.7313L29.9664 48.7211L32.0212 50.094C32.3945 50.3556 32.6354 50.7899 32.6405 51.2738L32.6456 58.2413C32.649 58.2824 32.649 58.3302 32.649 58.3781C32.649 59.5596 32.0127 60.3478 31.0523 60.3478C30.0885 60.3478 29.4556 59.5647 29.4556 58.3781V51.8517L27.2074 50.7575L27.2125 59.6263C27.2125 59.6776 27.2209 59.7169 27.2209 59.7733C27.2209 61.0232 26.4981 61.8525 25.5258 61.8525C24.5655 61.8525 23.846 61.0232 23.846 59.7767V48.7177H21.4892C21.4892 48.7177 22.9247 28.9949 27.0021 28.9949C27.2362 28.9949 27.6417 28.8957 28.1779 28.8957C29.2215 28.8974 30.7537 29.265 32.4199 31.4468C32.7847 31.9204 39.3904 40.3036 39.5532 40.5379C39.6941 40.7413 39.8129 41.0115 39.8722 41.297H41.81L41.8439 41.2851L43.9378 47.5515C47.63 47.4592 51.5089 46.6334 54.972 45.8999C55.1705 45.8588 55.364 45.8161 55.5659 45.7733C55.5879 45.7699 55.6134 45.7631 55.6287 45.7631C55.7933 45.7306 55.9511 45.6981 56.1123 45.6605C56.1717 45.6536 56.226 45.6365 56.2853 45.628C56.416 45.5972 56.5433 45.5733 56.6688 45.5528C56.735 45.5357 56.8046 45.5203 56.869 45.5117C56.9878 45.4827 57.1032 45.4621 57.222 45.4416C57.2847 45.4297 57.3492 45.4194 57.4256 45.3955C57.5376 45.3749 57.6496 45.3544 57.7616 45.3322C57.8294 45.3219 57.8973 45.3134 57.9669 45.2912C58.0839 45.2672 58.2061 45.2484 58.3283 45.2279C58.3758 45.2159 58.4267 45.2091 58.481 45.1971C58.8254 45.1304 59.1597 45.0757 59.4855 45.0244C59.5381 45.0142 59.5805 45.0142 59.6331 45.0005C59.7434 44.9868 59.852 44.9697 59.9657 44.9578C60.0285 44.9441 60.0811 44.9389 60.1388 44.927C60.244 44.9201 60.3373 44.9047 60.434 44.8979C60.4968 44.8808 60.5562 44.8774 60.6173 44.874C60.7055 44.8586 60.7937 44.8517 60.8921 44.8415C60.9481 44.8381 61.0092 44.8312 61.0635 44.8244C61.1568 44.8175 61.2468 44.8073 61.335 44.8039C61.3876 44.8039 61.4504 44.7936 61.4996 44.7936C61.5963 44.7885 61.6879 44.7799 61.7779 44.7765C61.8271 44.7714 61.8695 44.7714 61.917 44.7714C62.046 44.7663 62.1851 44.7628 62.314 44.7628C62.4379 44.7628 62.5516 44.7663 62.6653 44.7714H62.7603C62.8672 44.7799 62.9673 44.7885 63.0725 44.7936C63.0895 44.7936 63.1132 44.8039 63.1455 44.8039C63.2201 44.8073 63.3118 44.8175 63.3932 44.8312C63.4305 44.8381 63.4797 44.8415 63.5171 44.8517C63.5849 44.8569 63.6426 44.874 63.7071 44.8842C63.7716 44.9047 63.8361 44.9201 63.9005 44.927C63.943 44.9441 63.9888 44.9577 64.0346 44.9646C64.0787 44.98 64.133 45.0005 64.1788 45.0142C64.2043 45.0193 64.2382 45.0313 64.2603 45.0364C64.3587 45.074 64.4486 45.1168 64.5352 45.1578C64.5521 45.1663 64.5691 45.1749 64.5844 45.1766C64.7523 45.2587 64.9084 45.3596 65.0408 45.4724C65.0408 45.4792 65.0476 45.4792 65.0476 45.4792C65.5736 45.9255 65.8722 46.5872 65.8722 47.555C65.8722 49.882 64.5216 52.6246 63.159 54.5892C63.1438 54.5755 63.1234 54.5601 63.1166 54.5533L63.0369 54.4934L62.9741 54.4455C62.9079 54.4028 62.84 54.3583 62.7671 54.3122C62.723 54.2814 62.6534 54.2387 62.5635 54.1925C62.5465 54.1839 62.538 54.1822 62.5143 54.1685C62.4905 54.1514 62.4617 54.1344 62.4345 54.119C62.3293 54.0643 62.2716 54.042 62.2648 54.0369L62.1461 53.9907C62.1206 53.9805 62.1087 53.9753 62.1002 53.9719L61.995 53.9275C61.9747 53.9206 61.9424 53.9069 61.8881 53.8864L61.8389 53.8728C61.7117 53.8215 61.6642 53.8146 61.6642 53.8129C61.5827 53.7907 61.4962 53.7599 61.3655 53.736C61.3452 53.7326 61.3062 53.7206 61.2366 53.7069C61.1008 53.6744 60.9939 53.6641 60.9193 53.6522H60.9057C60.8769 53.647 60.8175 53.6368 60.7343 53.6334C60.697 53.63 60.6919 53.6317 60.6919 53.63C60.5511 53.6231 60.4425 53.618 60.3322 53.618C57.787 53.618 55.7118 55.6954 55.7118 58.2704C55.7118 58.414 55.7186 58.5286 55.7254 58.6209L55.7424 58.7355H55.739C55.7424 58.7457 55.7457 58.7919 55.7525 58.8654C55.7559 58.8859 55.7627 58.903 55.7661 58.9253C55.2775 58.9389 54.7667 58.9424 54.5631 58.9424ZM60.3288 60.7753C59.0647 60.7787 58.0195 59.8144 57.8667 58.5884C57.8633 58.5748 57.8668 58.5389 57.8498 58.4311C57.8447 58.361 57.843 58.3149 57.843 58.2738C57.8464 56.8923 58.9595 55.7741 60.3288 55.7741C60.3967 55.7741 60.4662 55.7741 60.529 55.7792C60.5341 55.7792 60.5477 55.7792 60.5596 55.7809C60.5816 55.7843 60.6308 55.7912 60.697 55.798C60.7174 55.7997 60.7174 55.8014 60.7174 55.798L60.8344 55.822V55.8236C60.8395 55.8254 60.8718 55.8339 60.9312 55.8459L60.9753 55.8544H60.9719C60.9787 55.8561 60.9973 55.8613 61.0262 55.8681C61.0007 55.8613 61.0092 55.8613 61.0092 55.8613L61.111 55.8989C61.1246 55.9023 61.1382 55.9057 61.1551 55.9126C61.1806 55.9194 61.201 55.9297 61.2247 55.9365C61.2841 55.9656 61.3384 55.9861 61.3893 56.0049C61.4131 56.0169 61.4351 56.0322 61.4589 56.0408C61.4775 56.0528 61.5217 56.0801 61.5912 56.1143L61.6574 56.1554L61.6642 56.1588C61.6896 56.1742 61.71 56.1879 61.7354 56.2049C61.7541 56.2186 61.7745 56.2374 61.7982 56.2494C61.8763 56.3127 61.9153 56.3417 61.9221 56.3486C62.4735 56.8188 62.8163 57.5027 62.8163 58.2704C62.8112 59.6536 61.7049 60.7719 60.3288 60.7753Z" fill="#888888"/>
</svg>
