<svg width="13" height="12" viewBox="0 0 13 12" fill="none" xmlns="http://www.w3.org/2000/svg">
<path d="M9.14902 12C7.31045 12 5.81445 10.504 5.81445 8.66544C5.81445 6.82687 7.31045 5.33087 9.14902 5.33087C10.9881 5.33087 12.4836 6.82687 12.4836 8.66544C12.4836 10.504 10.9881 12 9.14902 12ZM9.14902 5.6954C7.51112 5.6954 6.17904 7.02802 6.17904 8.66544C6.17904 10.3029 7.5116 11.6354 9.14902 11.6354C10.7869 11.6354 12.1195 10.3029 12.1195 8.66544C12.1195 7.02802 10.7874 5.6954 9.14902 5.6954Z" fill="#555555"/>
<path d="M10.6641 10.3334C10.6173 10.3334 10.5709 10.3158 10.5351 10.2804L9.04911 8.79439C9.01519 8.75999 8.99609 8.71417 8.99609 8.66543V6.95248C8.99609 6.85214 9.07779 6.77045 9.17813 6.77045C9.27846 6.77045 9.36016 6.85166 9.36016 6.95248V8.59037L10.7926 10.0228C10.8638 10.0935 10.8638 10.2092 10.7926 10.2804C10.7577 10.3158 10.7109 10.3334 10.6641 10.3334Z" fill="#555555"/>
<path d="M7.51867 1.48602H3.09762C2.9968 1.48602 2.91553 1.40474 2.91553 1.30393C2.91553 1.20311 2.9968 1.12143 3.09762 1.12143H7.51867C7.61901 1.12143 7.7007 1.20311 7.7007 1.30393C7.7007 1.40427 7.61901 1.48602 7.51867 1.48602Z" fill="#555555"/>
<path d="M10.4337 3.7288H0.182033C0.0812171 3.7288 0 3.64758 0 3.54677V1.30393C0 1.20311 0.0812171 1.12143 0.182033 1.12143H1.8156C1.91642 1.12143 1.99816 1.20311 1.99816 1.30393C1.99816 1.40427 1.91642 1.48602 1.8156 1.48602H0.364066V3.3652H10.2516V1.48602H8.80011C8.69929 1.48602 8.61807 1.40474 8.61807 1.30393C8.61807 1.20311 8.69929 1.12143 8.80011 1.12143H10.4337C10.5345 1.12143 10.6158 1.20311 10.6158 1.30393V3.54677C10.6158 3.64758 10.5345 3.7288 10.4337 3.7288Z" fill="#555555"/>
<path d="M5.99687 9.34433H0.694707C0.593891 9.34433 0.512207 9.26311 0.512207 9.1623V3.54675C0.512207 3.44593 0.593891 3.36472 0.694707 3.36472H9.92099C10.0213 3.36472 10.1031 3.44593 10.1031 3.54675V5.60843C10.1031 5.70877 10.0213 5.79046 9.92099 5.79046C9.82065 5.79046 9.73896 5.70924 9.73896 5.60843V3.72878H0.876739V8.98026H5.99687C6.09769 8.98026 6.17891 9.06148 6.17891 9.1623C6.17891 9.26311 6.09769 9.34433 5.99687 9.34433Z" fill="#555555"/>
<path d="M8.79943 2.60737H7.51797C7.41715 2.60737 7.33594 2.52567 7.33594 2.42534V0.182091C7.33594 0.0812755 7.41715 0 7.51797 0H8.79943C8.90025 0 8.98193 0.0812755 8.98193 0.182091V2.42534C8.98193 2.52567 8.90025 2.60737 8.79943 2.60737ZM7.7 2.2433H8.6174V0.364124H7.7V2.2433Z" fill="#555555"/>
<path d="M3.09734 2.60737H1.81588C1.71506 2.60737 1.63379 2.52567 1.63379 2.42534V0.182091C1.63379 0.0812755 1.71506 0 1.81588 0H3.09734C3.19768 0 3.27938 0.0812755 3.27938 0.182091V2.42534C3.27938 2.52567 3.19768 2.60737 3.09734 2.60737ZM1.99791 2.2433H2.91525V0.364124H1.99791V2.2433Z" fill="#555555"/>
</svg>
