<svg width="14" height="19" viewBox="0 0 14 19" fill="none" xmlns="http://www.w3.org/2000/svg">
<path d="M13.0341 18.5791H0.249142C0.111824 18.5791 0 18.4673 0 18.3293V0.249122C0 0.11115 0.111824 0 0.249142 0H13.0341C13.1714 0 13.2832 0.11115 13.2832 0.249122V18.3293C13.2826 18.4673 13.1714 18.5791 13.0341 18.5791ZM0.498922 18.0802H12.785V0.497605H0.498922V18.0802Z" fill="#555555"/>
<path d="M6.64168 11.8103C4.31774 11.8103 2.48487 9.54125 2.40771 9.44447C2.33578 9.35358 2.33578 9.22478 2.40771 9.13389C2.48421 9.03776 4.31708 6.76807 6.64168 6.76807C8.96562 6.76807 10.7978 9.03711 10.875 9.13389C10.9476 9.22478 10.9476 9.35358 10.875 9.44447C10.7985 9.54125 8.96562 11.8103 6.64168 11.8103ZM2.93213 9.2895C3.3794 9.78777 4.8912 11.312 6.64168 11.312C8.39543 11.312 9.90462 9.78777 10.3512 9.2895C9.90397 8.79188 8.3915 7.26699 6.64168 7.26699C4.8912 7.26699 3.3794 8.79123 2.93213 9.2895Z" fill="#555555"/>
<path d="M6.6416 10.6737C5.87785 10.6737 5.25598 10.0525 5.25598 9.28875C5.25598 8.525 5.87785 7.90381 6.6416 7.90381C7.40535 7.90381 8.02655 8.525 8.02655 9.28875C8.02655 10.0525 7.40535 10.6737 6.6416 10.6737ZM6.6416 8.40205C6.15248 8.40205 5.7549 8.79965 5.7549 9.28811C5.7549 9.77657 6.15248 10.1741 6.6416 10.1741C7.13006 10.1741 7.52763 9.77657 7.52763 9.28811C7.52763 8.79965 7.13006 8.40205 6.6416 8.40205Z" fill="#555555"/>
</svg>
