<svg width="15" height="20" viewBox="0 0 15 20" fill="none" xmlns="http://www.w3.org/2000/svg">
<path d="M11.0162 19.4286H1.40522C0.630465 19.4286 0 18.7999 0 18.0243V2.26151C0 1.48676 0.630465 0.857178 1.40522 0.857178H11.0162C11.7909 0.857178 12.4206 1.48676 12.4206 2.26151V18.0243C12.4206 18.799 11.7909 19.4286 11.0162 19.4286ZM1.40622 1.59384C1.03789 1.59384 0.738436 1.89321 0.738436 2.26063V18.0234C0.738436 18.3917 1.03789 18.6911 1.40622 18.6911H11.0172C11.3855 18.6911 11.6849 18.3917 11.6849 18.0234V2.26063C11.6849 1.89321 11.3855 1.59384 11.0172 1.59384H1.40622Z" fill="white"/>
<path d="M6.58187 17.1388H5.84155C5.39157 17.1388 5.02781 16.7741 5.02781 16.3241V15.2863H3.98992C3.53994 15.2863 3.17529 14.9217 3.17529 14.4726V13.7323C3.17529 13.2841 3.53994 12.9185 3.98992 12.9185H5.02781V11.8806C5.02781 11.4316 5.39157 11.0669 5.84155 11.0669H6.58187C7.03094 11.0669 7.39472 11.4316 7.39472 11.8806V12.9185H8.4335C8.88256 12.9185 9.24724 13.2841 9.24724 13.7323V14.4726C9.24724 14.9217 8.88256 15.2863 8.4335 15.2863H7.39472V16.3241C7.39472 16.7741 7.03094 17.1388 6.58187 17.1388ZM3.98903 13.6533C3.9464 13.6533 3.91107 13.6887 3.91107 13.7314V14.4716C3.91107 14.5142 3.9464 14.5497 3.98903 14.5497H5.39437C5.59849 14.5497 5.7627 14.7148 5.7627 14.918V16.3232C5.7627 16.3659 5.79802 16.4013 5.84066 16.4013H6.58098C6.62271 16.4013 6.65806 16.3659 6.65806 16.3232V14.918C6.65806 14.7139 6.82408 14.5497 7.02639 14.5497H8.43261C8.47525 14.5497 8.51057 14.5142 8.51057 14.4716V13.7314C8.51057 13.6887 8.47525 13.6533 8.43261 13.6533H7.02639C6.82318 13.6533 6.65806 13.4882 6.65806 13.2859V11.8798C6.65806 11.8371 6.62271 11.8017 6.58098 11.8017H5.84066C5.79802 11.8017 5.7627 11.8371 5.7627 11.8798V13.2859C5.7627 13.4891 5.59758 13.6533 5.39437 13.6533H3.98903Z" fill="white"/>
<path d="M9.56746 4.00608H2.73161C2.52749 4.00608 2.36328 3.84108 2.36328 3.63786C2.36328 3.43465 2.5284 3.26953 2.73161 3.26953H9.56746C9.77068 3.26953 9.93491 3.43465 9.93491 3.63786C9.93491 3.84108 9.76977 4.00608 9.56746 4.00608Z" fill="white"/>
<path d="M9.56746 6.44012H2.73161C2.52749 6.44012 2.36328 6.27499 2.36328 6.07268C2.36328 5.87037 2.5284 5.70435 2.73161 5.70435H9.56746C9.77068 5.70435 9.93491 5.87037 9.93491 6.07268C9.93491 6.27499 9.76977 6.44012 9.56746 6.44012Z" fill="white"/>
<path d="M9.56746 8.69916H2.73161C2.52749 8.69916 2.36328 8.53402 2.36328 8.33171C2.36328 8.1294 2.5284 7.96338 2.73161 7.96338H9.56746C9.77068 7.96338 9.93491 8.1294 9.93491 8.33171C9.93491 8.53402 9.76977 8.69916 9.56746 8.69916Z" fill="white"/>
<path d="M12.0523 6.44015C11.849 6.44015 11.6848 6.27501 11.6848 6.0727C11.6848 5.87039 11.85 5.70437 12.0523 5.70437C12.9785 5.70437 13.5691 5.30793 13.5691 5.03758V3.29758C13.5691 3.02633 12.9785 2.63069 12.0523 2.63069C11.849 2.63069 11.6848 2.46557 11.6848 2.26236C11.6848 2.05914 11.85 1.89502 12.0523 1.89502C13.3169 1.89502 14.3048 2.51192 14.3048 3.29847V5.03847C14.3048 5.8232 13.3169 6.44015 12.0523 6.44015Z" fill="white"/>
<path d="M12.0523 10.2513C11.849 10.2513 11.6848 10.0862 11.6848 9.883C11.6848 9.67979 11.85 9.51556 12.0523 9.51556C12.9785 9.51556 13.5691 9.11914 13.5691 8.84788V7.10877C13.5691 6.83661 12.9785 6.4411 12.0523 6.4411C11.849 6.4411 11.6848 6.27596 11.6848 6.07365C11.6848 5.87135 11.85 5.70532 12.0523 5.70532C13.3169 5.70532 14.3048 6.32311 14.3048 7.10966V8.84877C14.3048 9.63532 13.3169 10.2513 12.0523 10.2513Z" fill="white"/>
<path d="M12.0523 14.0635C11.849 14.0635 11.6848 13.8984 11.6848 13.6951C11.6848 13.4919 11.85 13.3268 12.0523 13.3268C12.9785 13.3268 13.5691 12.9313 13.5691 12.6591V10.9209C13.5691 10.6478 12.9785 10.2532 12.0523 10.2532C11.849 10.2532 11.6848 10.0881 11.6848 9.8849C11.6848 9.68169 11.85 9.51746 12.0523 9.51746C13.3169 9.51746 14.3048 10.1343 14.3048 10.9218V12.66C14.3048 13.4466 13.3169 14.0635 12.0523 14.0635Z" fill="white"/>
<path d="M12.0523 17.8746C11.849 17.8746 11.6848 17.7086 11.6848 17.5063C11.6848 17.3022 11.85 17.138 12.0523 17.138C12.9785 17.138 13.5691 16.7424 13.5691 16.4702V14.732C13.5691 14.4589 12.9785 14.0643 12.0523 14.0643C11.849 14.0643 11.6848 13.8992 11.6848 13.696C11.6848 13.4928 11.85 13.3276 12.0523 13.3276C13.3169 13.3276 14.3048 13.9446 14.3048 14.733V16.4712C14.3048 17.2577 13.3169 17.8746 12.0523 17.8746Z" fill="white"/>
</svg>
