<svg width="23" height="21" viewBox="0 0 23 21" fill="none" xmlns="http://www.w3.org/2000/svg">
<path d="M19.8695 20.9541H2.76551C2.58551 20.9541 2.43146 20.8292 2.39246 20.6542L0.00854722 9.6311C-0.0154528 9.5191 0.011475 9.40113 0.084475 9.31213C0.156475 9.22213 0.265495 9.17017 0.380495 9.17017H22.2526C22.3676 9.17017 22.4765 9.22213 22.5485 9.31213C22.6215 9.40113 22.6485 9.5191 22.6245 9.6311L20.2405 20.6542C20.2035 20.8292 20.0485 20.9541 19.8695 20.9541ZM3.07154 20.1921H19.5625L21.7815 9.93018H0.852541L3.07154 20.1921Z" fill="#555555"/>
<path d="M22.2535 7.97314H0.38147C0.17147 7.97314 0.000488281 7.80216 0.000488281 7.59216C0.000488281 7.38216 0.17147 7.21118 0.38147 7.21118H22.2535C22.4635 7.21118 22.6345 7.38216 22.6345 7.59216C22.6345 7.80216 22.4635 7.97314 22.2535 7.97314Z" fill="#555555"/>
<path d="M5.01648 7.9731C4.96048 7.9731 4.90447 7.96113 4.85047 7.93513C4.66147 7.84313 4.58146 7.61708 4.67346 7.42708L8.15747 0.215163C8.24847 0.0271633 8.47651 -0.0538387 8.66651 0.0381613C8.85551 0.130161 8.93551 0.356096 8.84351 0.546096L5.36048 7.75813C5.29348 7.89413 5.15748 7.9731 5.01648 7.9731Z" fill="#555555"/>
<path d="M17.6186 7.97315C17.4766 7.97315 17.3416 7.89418 17.2756 7.75818L13.7916 0.546145C13.7006 0.357145 13.7796 0.13021 13.9686 0.0382101C14.1576 -0.0537899 14.3856 0.026212 14.4766 0.215212L17.9605 7.42713C18.0515 7.61613 17.9725 7.84318 17.7835 7.93518C17.7305 7.96218 17.6736 7.97315 17.6186 7.97315Z" fill="#555555"/>
<path d="M5.92656 20.954C5.74256 20.954 5.58157 20.8211 5.55157 20.6351L3.76055 9.61212C3.72655 9.40512 3.86761 9.20914 4.07561 9.17414C4.28361 9.14214 4.4785 9.28108 4.5125 9.48908L6.30352 20.511C6.33752 20.719 6.19658 20.9142 5.98858 20.9492C5.96658 20.9522 5.94656 20.954 5.92656 20.954Z" fill="#555555"/>
<path d="M16.7086 20.9542C16.6876 20.9542 16.6675 20.9523 16.6465 20.9493C16.4395 20.9153 16.2976 20.7202 16.3326 20.5112L18.1226 9.48919C18.1566 9.28119 18.3515 9.14125 18.5595 9.17425C18.7675 9.20825 18.9086 9.40424 18.8746 9.61224L17.0845 20.6352C17.0535 20.8212 16.8916 20.9542 16.7086 20.9542Z" fill="#555555"/>
<path d="M11.3175 20.9541C11.1065 20.9541 10.9365 20.7831 10.9365 20.5731V9.55115C10.9365 9.34015 11.1065 9.17017 11.3175 9.17017C11.5275 9.17017 11.6975 9.34015 11.6975 9.55115V20.5731C11.6975 20.7831 11.5275 20.9541 11.3175 20.9541Z" fill="#555555"/>
<path d="M8.54956 20.9541C8.35056 20.9541 8.18356 20.8001 8.16956 20.5991L7.42749 9.57715C7.41349 9.36715 7.5725 9.18514 7.7815 9.17114C7.9965 9.15414 8.1735 9.31714 8.1875 9.52514L8.93055 20.5482C8.94455 20.7582 8.78554 20.9391 8.57654 20.9531C8.56754 20.9531 8.55856 20.9541 8.54956 20.9541Z" fill="#555555"/>
<path d="M14.0845 20.9541C14.0765 20.9541 14.0675 20.9531 14.0595 20.9531C13.8495 20.9381 13.6915 20.7582 13.7055 20.5482L14.4475 9.52517C14.4615 9.31517 14.6415 9.15317 14.8535 9.17117C15.0625 9.18617 15.2215 9.36717 15.2075 9.57717L14.4655 20.5991C14.4505 20.7991 14.2835 20.9541 14.0845 20.9541Z" fill="#555555"/>
<path d="M21.4755 13.5272H1.15955C0.949546 13.5272 0.779541 13.3571 0.779541 13.1461C0.779541 12.9361 0.949546 12.7651 1.15955 12.7651H21.4755C21.6855 12.7651 21.8555 12.9361 21.8555 13.1461C21.8555 13.3571 21.6855 13.5272 21.4755 13.5272Z" fill="#555555"/>
<path d="M20.6785 17.1422H1.94055C1.73055 17.1422 1.55945 16.9711 1.55945 16.7611C1.55945 16.5511 1.73055 16.3801 1.94055 16.3801H20.6785C20.8895 16.3801 21.0594 16.5511 21.0594 16.7611C21.0594 16.9711 20.8895 17.1422 20.6785 17.1422Z" fill="#555555"/>
</svg>
