<svg width="19" height="19" viewBox="0 0 19 19" fill="none" xmlns="http://www.w3.org/2000/svg">
<path d="M16.3475 19H3.20624C1.867 19 0.777344 17.9139 0.777344 16.5783V3.48011C0.777344 2.14527 1.867 1.05919 3.20624 1.05919H16.3475C17.6868 1.05919 18.7764 2.14527 18.7764 3.48011V16.5783C18.7764 17.9139 17.6868 19 16.3475 19ZM3.20624 1.63282C2.18401 1.63282 1.35205 2.46197 1.35205 3.48084V16.5791C1.35205 17.598 2.18326 18.4271 3.20624 18.4271H16.3475C17.369 18.4271 18.201 17.598 18.201 16.5791V3.48084C18.201 2.46197 17.3698 1.63282 16.3475 1.63282H3.20624Z" fill="#FFB800"/>
<path d="M18.4895 5.25117H1.06515C0.905522 5.25117 0.777344 5.12276 0.777344 4.9644C0.777344 4.80604 0.905522 4.67754 1.06515 4.67754H18.4895C18.6477 4.67754 18.7773 4.80529 18.7773 4.9644C18.7766 5.12276 18.6477 5.25117 18.4895 5.25117Z" fill="#FFB800"/>
<path d="M5.85525 2.69283C5.69637 2.69283 5.56836 2.56433 5.56836 2.40597V0.286772C5.56836 0.128413 5.69637 0 5.85525 0C6.01488 0 6.14379 0.128413 6.14379 0.286772V2.40597C6.14379 2.56433 6.01488 2.69283 5.85525 2.69283Z" fill="#FFB800"/>
<path d="M13.6972 2.69283C13.5376 2.69283 13.4102 2.56433 13.4102 2.40597V0.286772C13.4102 0.128413 13.5376 0 13.6972 0C13.8561 0 13.985 0.128413 13.985 0.286772V2.40597C13.985 2.56433 13.8561 2.69283 13.6972 2.69283Z" fill="#FFB800"/>
<path d="M8.97115 15.3535H4.67544C4.54279 15.3535 4.42809 15.2639 4.39586 15.1361C4.36439 15.0084 4.42369 14.8747 4.53986 14.8134C7.4087 13.2933 8.4587 12.2692 8.68353 10.7641C8.67229 9.74817 7.84038 8.9258 6.8189 8.9258C5.79068 8.9258 4.95501 9.75936 4.95501 10.7842C4.95501 10.9426 4.82608 11.0711 4.6672 11.0711C4.50832 11.0711 4.37939 10.9433 4.37939 10.7842C4.37939 9.44339 5.47367 8.3528 6.8189 8.3528C8.16489 8.3528 9.25896 9.44339 9.25896 10.7842C9.25896 10.7977 9.2583 10.8119 9.2553 10.8246C9.01248 12.5187 7.84629 13.5973 5.79209 14.7798H8.97115C9.12928 14.7798 9.25896 14.9075 9.25896 15.0666C9.25896 15.225 9.12928 15.3535 8.97115 15.3535Z" fill="#FFB800"/>
<path d="M13.6941 15.3533C13.5345 15.3533 13.4063 15.2248 13.4063 15.0665V13.6375H10.5315C10.4251 13.6375 10.3278 13.5792 10.2776 13.4859C10.2273 13.3925 10.2334 13.2797 10.2926 13.1915L13.4552 8.47963C13.5264 8.3743 13.6567 8.3273 13.7781 8.36464C13.8995 8.40125 13.9819 8.5125 13.9819 8.63874V13.0638H14.8858C15.0454 13.0638 15.1743 13.1923 15.1743 13.3506C15.1743 13.509 15.0454 13.6375 14.8858 13.6375H13.9819V15.0665C13.9819 15.2248 13.853 15.3533 13.6941 15.3533ZM11.0704 13.0646H13.4063V9.58368L11.0704 13.0646Z" fill="#FFB800"/>
</svg>
