<svg width="17" height="13" viewBox="0 0 17 13" fill="none" xmlns="http://www.w3.org/2000/svg">
<path d="M13.651 12.8303H3.34881C3.22053 12.8303 3.11143 12.7386 3.08867 12.613L1.89843 6.03304C1.87912 5.92062 1.93277 5.80682 2.03346 5.75303L3.22455 5.1164C3.31144 5.0702 3.41846 5.07507 3.49984 5.13232L5.88604 6.79098L7.71628 2.90472C7.75972 2.81161 7.85295 2.75293 7.9557 2.75293H9.04189C9.14465 2.75293 9.23838 2.81161 9.28182 2.90472L11.1122 6.79098L13.4984 5.13232C13.5798 5.07507 13.6875 5.06951 13.7744 5.1164L14.964 5.75303C15.0653 5.80682 15.1205 5.92062 15.0992 6.03304L13.9096 12.613C13.8889 12.7386 13.7786 12.8303 13.651 12.8303ZM3.57072 12.3014H13.4302L14.5454 6.12884L13.6688 5.65992L11.1585 7.40546C11.0944 7.4496 11.0136 7.46334 10.9385 7.44334C10.864 7.42334 10.8012 7.3716 10.7681 7.30056L8.8757 3.28331H8.12458L6.2329 7.30056C6.19979 7.3716 6.137 7.42334 6.06183 7.44334C5.98734 7.46334 5.90605 7.45029 5.8426 7.40546L3.33214 5.65992L2.45558 6.12884L3.57072 12.3014Z" fill="#555555"/>
<path d="M2.15985 6.24977C1.22536 6.24977 0.465332 5.48906 0.465332 4.55457C0.465332 3.62077 1.22536 2.85938 2.15985 2.85938C3.09435 2.85938 3.85505 3.62077 3.85505 4.55457C3.85505 5.48975 3.09435 6.24977 2.15985 6.24977ZM2.15985 3.38908C1.51709 3.38908 0.995039 3.9125 0.995039 4.55457C0.995039 5.19803 1.51778 5.72014 2.15985 5.72014C2.80193 5.72014 3.32534 5.19734 3.32534 4.55457C3.32534 3.9125 2.80193 3.38908 2.15985 3.38908Z" fill="#555555"/>
<path d="M14.84 6.24977C13.9055 6.24977 13.1448 5.48906 13.1448 4.55457C13.1448 3.62077 13.9055 2.85938 14.84 2.85938C15.7745 2.85938 16.5345 3.62077 16.5345 4.55457C16.5352 5.48975 15.7752 6.24977 14.84 6.24977ZM14.84 3.38908C14.1972 3.38908 13.6745 3.9125 13.6745 4.55457C13.6745 5.19803 14.1979 5.72014 14.84 5.72014C15.482 5.72014 16.0048 5.19734 16.0048 4.55457C16.0055 3.9125 15.4827 3.38908 14.84 3.38908Z" fill="#555555"/>
<path d="M8.49988 3.38972C7.56539 3.38972 6.80469 2.62969 6.80469 1.6952C6.80469 0.760703 7.56539 0 8.49988 0C9.43438 0 10.1942 0.760703 10.1942 1.6952C10.1942 2.62969 9.43507 3.38972 8.49988 3.38972ZM8.49988 0.529707C7.85712 0.529707 7.3349 1.05245 7.3349 1.69452C7.3349 2.3366 7.85781 2.85934 8.49988 2.85934C9.14196 2.85934 9.6647 2.3366 9.6647 1.69452C9.6647 1.05245 9.14265 0.529707 8.49988 0.529707Z" fill="#555555"/>
</svg>
