<svg width="40" height="40" viewBox="0 0 40 40" fill="none" xmlns="http://www.w3.org/2000/svg">
<rect width="40" height="40" rx="20" fill="#FFB800"/>
<path d="M16.6826 21.1995C15.4084 21.1995 14.1332 20.7024 13.1632 19.7082C11.2223 17.7187 11.2223 14.481 13.1632 12.4925C15.1042 10.502 18.2619 10.503 20.2028 12.4925C22.1438 14.482 22.1438 17.7187 20.2028 19.7082C19.2328 20.7024 17.9577 21.1995 16.6826 21.1995ZM16.6835 11.7443C15.5939 11.7443 14.5071 12.1699 13.6768 13.0181C12.8733 13.8407 12.4325 14.9349 12.4325 16.0988C12.4325 17.2627 12.8733 18.356 13.6768 19.1796C15.3337 20.8779 18.0305 20.8779 19.6874 19.1796C21.3442 17.4813 21.3442 14.7173 19.6874 13.0181C18.8609 12.1699 17.7712 11.7443 16.6835 11.7443Z" fill="white" stroke="white"/>
<path d="M21.9514 22C21.8266 22 21.7017 21.9511 21.6052 21.8535L19.655 19.8558C19.4646 19.6593 19.4646 19.3415 19.655 19.1464C19.8454 18.9512 20.1565 18.9512 20.3482 19.1464L22.2962 21.1441C22.4866 21.3393 22.4866 21.6584 22.2962 21.8535C22.2023 21.9511 22.0761 22 21.9514 22Z" fill="white" stroke="white"/>
<path d="M27.7279 28.9997C27.4959 28.9997 27.2624 28.9091 27.0856 28.727L21.7293 23.2371C21.5585 23.0611 21.4634 22.8277 21.4634 22.5786C21.4634 22.3295 21.5577 22.0951 21.7293 21.92L22.3609 21.2721C22.7161 20.9097 23.2922 20.9089 23.6457 21.2721L29.0026 26.7621C29.3569 27.1253 29.3569 27.7166 29.0026 28.079L28.3704 28.727C28.1937 28.9082 27.9608 28.9997 27.7279 28.9997ZM23.005 21.6623C22.9379 21.6623 22.8716 21.6884 22.8198 21.7407L22.1874 22.3887C22.1373 22.4392 22.1111 22.5063 22.1111 22.5786C22.1111 22.6509 22.1373 22.7179 22.1874 22.7684L27.5435 28.2585C27.6463 28.363 27.8112 28.363 27.914 28.2585L28.5464 27.6104C28.6483 27.505 28.6483 27.3352 28.5464 27.2298L23.1901 21.7398C23.1383 21.6884 23.0722 21.6623 23.005 21.6623Z" fill="white" stroke="white"/>
</svg>
