<svg width="48" height="48" viewBox="0 0 48 48" fill="none" xmlns="http://www.w3.org/2000/svg">
<circle opacity="0.8" cx="24" cy="24" r="24" fill="#F1EEE5"/>
<path d="M31.3604 31.7369L16.3805 31.7159C16.2325 31.7159 16.0975 31.6289 16.0345 31.4939C15.9725 31.3589 15.9954 31.1999 16.0924 31.0879C16.1024 31.0759 17.0825 29.9179 17.2005 28.5789L17.7635 22.1709C17.7675 18.9269 20.4685 16.2649 23.7865 16.2649C23.7905 16.2649 23.7925 16.2649 23.7955 16.2649C27.1165 16.2699 29.8163 18.9409 29.8123 22.2199L30.3575 28.5969C30.3675 29.1929 30.5823 30.7249 31.4703 30.9919C31.6523 31.0469 31.7654 31.2249 31.7384 31.4119C31.7094 31.5989 31.5494 31.7369 31.3604 31.7369ZM17.1185 30.9569L30.2603 30.9749C29.6223 30.0629 29.5975 28.7119 29.5965 28.6349L29.0523 22.2539C29.0533 19.3609 26.6963 17.0309 23.7933 17.0269C23.7903 17.0269 23.7895 17.0269 23.7855 17.0269C20.8875 17.0269 18.5253 19.3489 18.5213 22.2059L17.9574 28.6469C17.8744 29.5829 17.4575 30.4179 17.1185 30.9569Z" fill="#1A1A1A"/>
<path d="M22.8524 17.1039C22.6704 17.1039 22.5084 16.9719 22.4774 16.7869L21.9615 13.6929C21.9535 13.6179 21.9183 13.1569 22.3033 12.7219C22.7073 12.2649 23.4075 12.0219 24.3775 12.0009C25.1355 11.9839 25.6673 12.2019 25.9693 12.6479C26.4883 13.4119 26.0565 14.4889 26.0055 14.6089L24.8854 16.8659C24.7914 17.0539 24.5633 17.1319 24.3753 17.0379C24.1863 16.9439 24.1095 16.7159 24.2035 16.5279L25.3133 14.2919C25.3963 14.0909 25.5845 13.4339 25.3385 13.0739C25.1905 12.8559 24.8724 12.7479 24.3924 12.7609C23.4764 12.7809 23.0673 13.0159 22.8863 13.2099C22.7083 13.3999 22.7145 13.5919 22.7145 13.5999L23.2284 16.6599C23.2614 16.8679 23.1234 17.0639 22.9154 17.0979C22.8954 17.1029 22.8734 17.1039 22.8524 17.1039Z" fill="#1A1A1A"/>
<path d="M23.3834 33.7049C22.4794 33.7049 21.5285 33.2059 20.9735 31.4639C20.9095 31.2639 21.0203 31.0499 21.2193 30.9859C21.4203 30.9219 21.6333 31.0329 21.6983 31.2329C22.3013 33.1249 23.2903 33.0779 24.0843 32.8249L24.1983 32.7889C25.1163 32.4989 25.5555 32.3169 25.5145 31.3719C25.5045 31.1619 25.6675 30.9839 25.8775 30.9759C26.0845 30.9729 26.2655 31.1289 26.2735 31.3389C26.3425 32.9089 25.2794 33.2449 24.4254 33.5149L24.3145 33.5499C24.0245 33.6409 23.7064 33.7049 23.3834 33.7049Z" fill="#1A1A1A"/>
</svg>
