<svg width="14" height="19" viewBox="0 0 14 19" fill="none" xmlns="http://www.w3.org/2000/svg">
<path d="M13.225 16.8065C13.0654 16.8065 12.9365 16.6776 12.9365 16.5187V9.25565H11.5308C11.3719 9.25565 11.243 9.12679 11.243 8.96794C11.243 8.80908 11.3719 8.68018 11.5308 8.68018H13.225C13.3838 8.68018 13.512 8.80908 13.512 8.96794V16.5187C13.5113 16.6776 13.3831 16.8065 13.225 16.8065Z" fill="#555555"/>
<path d="M3.40983 11.0516C3.25098 11.0516 3.12207 10.9235 3.12207 10.7639V9.79577C3.12207 9.63692 3.25098 9.50879 3.40983 9.50879H5.07931C5.23817 9.50879 5.36625 9.63692 5.36625 9.79577C5.36625 9.95463 5.23817 10.0835 5.07931 10.0835H3.69759V10.7647C3.69759 10.9235 3.56868 11.0516 3.40983 11.0516Z" fill="#555555"/>
<path d="M12.8632 18.5591H3.04794C2.93479 18.5591 2.83067 18.4924 2.78497 18.3883L0.025269 12.1578C-0.0151938 12.0686 -0.00623644 11.9667 0.0462153 11.8842C0.0994163 11.8033 0.190099 11.7539 0.287509 11.7539H10.1027C10.2159 11.7539 10.3192 11.8213 10.3657 11.9255L13.1255 18.156C13.1652 18.2444 13.1569 18.3471 13.1044 18.4287C13.0505 18.5104 12.9598 18.5591 12.8632 18.5591ZM3.23527 17.9844H12.4211L9.91613 12.3293H0.730309L3.23527 17.9844Z" fill="#555555"/>
<path d="M8.0075 10.6507C7.92358 10.6507 7.84341 10.614 7.78871 10.5503L5.06276 7.36724C4.98933 7.28182 4.97286 7.16191 5.01932 7.06C5.06652 6.95734 5.16768 6.89215 5.28083 6.89215H6.20694V0.28776C6.20694 0.128906 6.33585 0 6.4947 0H9.51884C9.67844 0 9.80733 0.128906 9.80733 0.28776V6.89215H10.7335C10.8452 6.89215 10.9471 6.95734 10.9943 7.06C11.0415 7.16191 11.025 7.28182 10.9516 7.36724L8.22483 10.5503C8.17088 10.614 8.09068 10.6507 8.0075 10.6507ZM5.90574 7.46763L8.0075 9.92086L10.1094 7.46763H9.51966C9.36156 7.46763 9.23263 7.33877 9.23263 7.17991V0.575474H6.78237V7.17991C6.78237 7.33877 6.65356 7.46763 6.4947 7.46763H5.90574Z" fill="#555555"/>
</svg>
