<svg width="20" height="18" viewBox="0 0 20 18" fill="none" xmlns="http://www.w3.org/2000/svg">
<path d="M17.769 13.855H1.56201C0.701012 13.855 0.000976562 13.154 0.000976562 12.292V1.56299C0.000976562 0.701988 0.701012 0 1.56201 0H17.769C18.63 0 19.331 0.700988 19.331 1.56299V12.292C19.33 13.154 18.629 13.855 17.769 13.855ZM1.56201 0.821045C1.15201 0.821045 0.819031 1.15396 0.819031 1.56396V12.293C0.819031 12.703 1.15201 13.0359 1.56201 13.0359H17.769C18.179 13.0359 18.512 12.703 18.512 12.293V1.56396C18.512 1.15396 18.179 0.821045 17.769 0.821045H1.56201Z" fill="#555555"/>
<path d="M18.92 11.5349H0.408997C0.182997 11.5349 0 11.351 0 11.125C0 10.899 0.182997 10.717 0.408997 10.717H18.92C19.147 10.717 19.33 10.9 19.33 11.125C19.33 11.351 19.147 11.5349 18.92 11.5349Z" fill="#555555"/>
<path d="M10.7451 2.39893H8.79309C8.56709 2.39893 8.38306 2.21499 8.38306 1.98999C8.38306 1.76299 8.56709 1.58008 8.79309 1.58008H10.7451C10.9711 1.58008 11.1541 1.76399 11.1541 1.98999C11.1541 2.21599 10.9711 2.39893 10.7451 2.39893Z" fill="#555555"/>
<path d="M13.947 17.4431H5.38403C4.79403 17.4431 4.31299 16.963 4.31299 16.373C4.31299 15.783 4.79303 15.303 5.38403 15.303H8.38403V13.446C8.38403 13.22 8.56801 13.0371 8.79401 13.0371H10.746C10.972 13.0371 11.155 13.221 11.155 13.446V15.303H13.948C14.538 15.303 15.018 15.783 15.018 16.373C15.018 16.963 14.537 17.4431 13.947 17.4431ZM5.38403 16.1211C5.24703 16.1211 5.133 16.236 5.133 16.373C5.133 16.51 5.24803 16.625 5.38403 16.625H13.947C14.086 16.625 14.198 16.512 14.198 16.373C14.198 16.234 14.085 16.1211 13.947 16.1211H10.745C10.519 16.1211 10.335 15.9369 10.335 15.7119V13.856H9.203V15.7119C9.203 15.9379 9.01903 16.1211 8.79303 16.1211H5.38403Z" fill="#555555"/>
</svg>
