<svg width="101" height="41" viewBox="0 0 101 41" fill="none" xmlns="http://www.w3.org/2000/svg">
<path d="M27.0698 5.93384C26.1072 4.90962 25.0455 4.2549 24.1913 3.72814C23.5823 3.35299 22.9528 2.96396 22.8408 2.68593C22.7971 2.57647 22.7549 2.46546 22.7118 2.35085C22.3546 1.4104 21.8659 0.122025 20.3909 0.00999262C18.6303 -0.127222 17.8656 1.17503 17.4026 2.2969C17.2628 2.63556 16.4385 3.0138 15.6419 3.3792C13.7528 4.24668 10.899 5.55767 9.73808 9.12575C8.74829 12.1645 9.35984 14.4375 9.7648 15.9423C9.96472 16.6864 10.1374 17.3298 10.0007 17.6618C9.76377 18.2359 9.10391 18.6146 8.10435 19.1881C6.78925 19.9415 4.98853 20.9755 2.93083 23.1812C-0.302189 26.647 -0.926091 32.3499 1.38702 35.8974L1.86907 36.564C1.86341 36.6853 1.81973 36.9145 1.78993 37.0748C1.65066 37.8077 1.43943 38.9131 2.27865 39.6213C2.63736 39.9229 3.07984 40.0771 3.59273 40.0771C4.14467 40.0771 4.69149 39.9024 5.17354 39.7477C5.49371 39.6444 5.82466 39.5385 6.01429 39.5385C6.0441 39.5385 6.05747 39.5411 6.05284 39.5385L6.11809 39.5642L6.12169 39.5652C6.37094 39.6665 6.60118 39.7523 6.82268 39.8289C8.44766 40.3818 10.0917 40.6645 11.7064 40.6645C11.7069 40.6645 11.7069 40.6645 11.7074 40.6645C16.8147 40.6645 21.7215 37.6931 24.2083 33.0977C26.2387 29.3446 25.8482 25.3129 25.5897 22.6462C25.5532 22.267 25.5183 21.9119 25.4936 21.586C25.4252 20.6882 25.9633 20.0309 26.7079 19.1208C27.523 18.1254 28.5375 16.8868 29.0951 14.8692C30.0026 11.5874 29.2457 8.24747 27.0698 5.93384Z" fill="#FBBF28"/>
<path d="M26.1956 14.1461C25.6478 18.2672 21.8613 21.1625 17.7413 20.6142C13.6202 20.0643 10.7244 16.2804 11.2727 12.1593C11.821 8.03777 15.6065 5.14239 19.7275 5.69073C23.8486 6.23908 26.744 10.0256 26.1956 14.1461Z" fill="white"/>
<path d="M15.1936 13.7437C15.6511 13.8045 16.0732 13.4683 16.1364 12.9928C16.1997 12.5174 15.8801 12.0826 15.4226 12.0218C14.9651 11.9609 14.543 12.2971 14.4798 12.7726C14.4165 13.2481 14.7362 13.6828 15.1936 13.7437Z" fill="#755726"/>
<path d="M21.9931 14.6594C22.4508 14.7204 22.8733 14.384 22.9367 13.908C23.0002 13.432 22.6805 12.9966 22.2228 12.9356C21.7651 12.8746 21.3426 13.2111 21.2792 13.6871C21.2157 14.1631 21.5353 14.5984 21.9931 14.6594Z" fill="#755726"/>
<path d="M19.6164 9.26445C19.2207 9.26445 18.8203 9.13649 18.4729 8.8857C17.8799 8.45607 17.3567 7.57265 17.6661 6.38398C17.8521 5.66964 18.2941 5.10794 18.9432 4.76156C19.6164 4.40234 20.4613 4.31343 21.0954 4.53441C21.2583 4.59197 21.3442 4.77081 21.2876 4.93321C21.2306 5.09715 21.0517 5.18348 20.8888 5.12592C20.5111 4.99436 19.8333 4.99642 19.2387 5.31401C18.8959 5.49645 18.4503 5.85825 18.2725 6.54123C18.0428 7.42619 18.4149 8.06961 18.8399 8.37744C19.2823 8.69761 19.8209 8.72792 20.2464 8.45349C20.6524 8.19243 20.8647 7.82807 20.8292 7.45342C20.7984 7.1312 20.5825 6.85883 20.25 6.72522C19.9402 6.60085 19.7017 6.72521 19.6092 6.89326C19.5208 7.05463 19.5804 7.22525 19.7721 7.36246C19.9129 7.46165 19.9463 7.65745 19.8466 7.79826C19.7464 7.9401 19.5511 7.97197 19.4098 7.87278C18.8871 7.50225 18.8573 6.96367 19.0593 6.59314C19.2865 6.17738 19.8482 5.88908 20.4834 6.14552C21.0373 6.36804 21.3996 6.83519 21.4526 7.39433C21.5101 8.00126 21.1859 8.5938 20.5851 8.98026C20.2917 9.16989 19.9556 9.26445 19.6164 9.26445Z" fill="#755726"/>
<path d="M18.4512 17.0949C18.3721 17.0949 18.2919 17.0897 18.2117 17.08C17.446 16.9777 16.8283 16.399 16.6751 15.641C16.6412 15.4709 16.7507 15.3065 16.9203 15.2726C17.0899 15.2397 17.2548 15.3476 17.2892 15.5177C17.3889 16.0141 17.7934 16.3929 18.2944 16.4587C18.797 16.528 19.2858 16.267 19.5114 15.8132C19.5885 15.6585 19.7771 15.5963 19.9312 15.6739C20.0859 15.751 20.1487 15.9391 20.071 16.0933C19.7617 16.712 19.1296 17.0949 18.4512 17.0949Z" fill="#755726"/>
<path d="M11.941 19.8243C13.699 19.8243 15.1241 18.3991 15.1241 16.6411C15.1241 14.8831 13.699 13.4579 11.941 13.4579C10.1829 13.4579 8.75781 14.8831 8.75781 16.6411C8.75781 18.3991 10.1829 19.8243 11.941 19.8243Z" fill="#FFE0B0"/>
<path d="M24.379 21.4796C26.137 21.4796 27.5621 20.0544 27.5621 18.2964C27.5621 16.5384 26.137 15.1132 24.379 15.1132C22.621 15.1132 21.1958 16.5384 21.1958 18.2964C21.1958 20.0544 22.621 21.4796 24.379 21.4796Z" fill="#FFE0B0"/>
<path d="M10.067 38.4002C9.78893 38.4002 9.55768 38.1813 9.54586 37.9001C9.53404 37.6129 9.75707 37.3693 10.0454 37.3575C14.5056 37.1714 17.7335 35.3635 19.6396 31.985C21.0688 29.4525 21.1854 26.96 21.1865 26.9353C21.1983 26.647 21.4465 26.4281 21.7291 26.4343C22.0174 26.4461 22.2415 26.6897 22.2297 26.978C22.2251 27.089 22.1012 29.748 20.5492 32.4984C19.1087 35.051 16.1244 38.1473 10.089 38.4002C10.0818 38.4002 10.0747 38.4002 10.067 38.4002Z" fill="#CE9328"/>
<path d="M9.00589 35.8265C8.75253 35.8265 8.53 35.641 8.49095 35.382C8.44726 35.0983 8.64358 34.8321 8.92829 34.7889C15.5829 33.775 17.1766 29.2145 17.2413 29.0208C17.3328 28.7474 17.6288 28.5984 17.9002 28.6888C18.173 28.7787 18.3221 29.0727 18.2321 29.3456C18.1607 29.5645 16.4011 34.7057 9.08503 35.8193C9.05831 35.8245 9.03159 35.8265 9.00589 35.8265Z" fill="#CE9328"/>
<path d="M20.0512 32.6325C15.6506 32.6325 12.3236 30.5599 12.1617 30.4576C11.9186 30.3035 11.8461 29.9818 12.0008 29.7382C12.156 29.4946 12.4778 29.4226 12.7203 29.5768C12.7635 29.6035 17.068 32.2748 22.1377 31.4161C22.4214 31.3678 22.6912 31.5595 22.739 31.8442C22.7873 32.1289 22.5962 32.3982 22.312 32.4455C21.5365 32.5765 20.7789 32.6325 20.0512 32.6325Z" fill="#CE9328"/>
<path d="M18.2824 35.4334C13.8817 35.4334 10.5552 33.3603 10.3928 33.2585C10.1492 33.1043 10.0772 32.7811 10.2319 32.5385C10.3866 32.2939 10.7083 32.2219 10.9509 32.3771C10.994 32.4039 15.2996 35.0752 20.3688 34.2164C20.652 34.1671 20.9218 34.3593 20.9706 34.6435C21.0184 34.9282 20.8272 35.1985 20.5425 35.2458C19.767 35.3768 19.0095 35.4334 18.2824 35.4334Z" fill="#CE9328"/>
<path d="M47.0493 19.5638C47.0488 19.5638 47.0488 19.5638 47.0483 19.5638C46.9707 19.5597 46.8906 19.5566 46.8114 19.5535C46.5473 19.5443 46.2487 19.5345 46.1382 19.4369C45.9187 19.2734 45.8622 19.0319 45.8406 18.6968L45.8304 18.518C45.8139 18.2184 45.798 17.9095 45.7003 17.6022C45.6499 17.3766 45.5287 17.1834 45.337 17.0194C45.1977 16.8801 45.0024 16.8113 44.7414 16.8113C44.5445 16.8113 44.4032 16.8452 44.2758 16.9228C43.9386 17.1037 43.7865 17.5565 43.7567 17.9152C43.7469 18.0005 43.7341 18.0889 43.7197 18.1814C43.6996 18.314 43.6791 18.4537 43.6652 18.6033C43.6421 18.9055 43.6421 19.2097 43.6421 19.5032V20.1455C43.6539 20.4616 43.6539 20.7843 43.6539 21.1086C43.6539 21.438 43.6539 21.77 43.6647 22.1076C43.6755 22.2644 43.6811 22.3944 43.6863 22.5172C43.693 22.6586 43.6981 22.7906 43.7115 22.9602C43.7238 23.0461 43.7423 23.119 43.7608 23.193C43.7762 23.2557 43.7922 23.3189 43.803 23.3929L43.8256 23.4649C43.8878 23.6329 43.9427 23.7779 44.0645 23.9058C44.2167 24.1319 44.4818 24.19 44.711 24.2152C44.7619 24.2255 44.8123 24.2296 44.8621 24.2296C45.2429 24.2296 45.5965 23.9521 45.7132 23.5738C45.7995 23.3786 45.8134 23.0419 45.8298 22.6514L45.8406 22.3996C45.8684 21.8815 45.9213 21.5552 45.9932 21.4406C46.1032 21.2818 46.3843 21.2561 46.6824 21.2289C46.7949 21.2186 46.909 21.2088 47.0165 21.1924L47.0694 21.1847C47.2297 21.1631 47.4492 21.1328 47.6295 21.0433C47.9328 20.9072 48.0926 20.6738 48.0926 20.3665L48.091 20.2509C48.0443 19.9384 47.8233 19.5638 47.0493 19.5638Z" fill="#FBBF28"/>
<path d="M44.6123 27.8362C43.6894 27.3747 42.2278 27.772 41.5505 28.4837C41.1193 28.938 40.8906 29.4735 40.8906 30.0321C40.8906 30.6591 41.1517 31.2522 41.5993 31.6515C42.0459 32.0986 42.6045 32.3884 43.2603 32.5128C43.3343 32.5411 43.4175 32.5411 43.5367 32.5411C43.9756 32.5411 44.4135 32.3931 44.8364 32.1032C45.2573 31.8134 45.579 31.4156 45.6936 31.0476C45.8231 30.71 45.8411 30.4047 45.8411 30.1226C45.8411 29.1482 45.374 28.2741 44.6123 27.8362ZM43.0645 29.5835C43.1498 29.4884 43.2685 29.434 43.4088 29.4257L43.4001 29.2597L43.4226 29.4257C43.604 29.4257 43.8996 29.6236 44.0059 29.861V30.0095C44.0059 30.2727 43.8744 30.5147 43.6446 30.6766C43.5794 30.6966 43.5193 30.7069 43.4684 30.7069C43.3086 30.7069 43.1272 30.6139 43.0588 30.4808C42.9529 30.3328 42.9303 30.1432 42.9303 29.9998C42.9206 29.8415 42.9694 29.6904 43.0645 29.5835Z" fill="#FBBF28"/>
<path d="M41.5659 24.6202C41.5659 24.3514 41.4641 24.1623 41.2544 24.0425C41.0946 23.9511 40.9035 23.9063 40.6712 23.9063H39.1351C38.7738 23.8842 38.5225 23.818 38.3858 23.5636C38.2414 23.2927 38.2439 22.9001 38.246 22.5856L38.2465 22.4818C38.2465 22.3877 38.2465 22.23 38.2645 22.159L38.2697 22.119C38.2697 22.0578 38.2681 22.0116 38.2671 21.973C38.2635 21.8625 38.2635 21.8451 38.3113 21.6976C38.3781 21.382 38.5014 21.2833 38.8833 21.2597C39.1001 21.2186 39.3345 21.214 39.5354 21.214L40.0046 21.2165C40.2071 21.1975 40.5293 21.251 40.8623 21.14C41.0869 21.0649 41.3413 20.9801 41.4631 20.7047C41.607 20.3578 41.4929 19.9482 41.2123 19.7915C41.0859 19.7164 40.9862 19.6655 40.8963 19.6368C40.2554 19.4708 39.5529 19.4497 39.0118 19.4497C38.7563 19.4497 38.4829 19.4718 38.2183 19.4954C38.0399 19.5175 37.8637 19.5607 37.6864 19.6049C37.4191 19.5607 37.1231 19.5628 36.8949 19.5191C36.3389 19.4497 35.7782 19.4497 35.2371 19.4497C34.6892 19.4497 34.1985 19.5222 33.6465 19.6825C33.4353 19.7396 33.0494 19.8958 32.8381 20.2869C32.6655 20.6081 32.5704 20.8799 32.5015 21.549C32.4321 22.0388 32.4321 22.2778 32.4321 22.7552L32.4337 23.5297C32.4445 23.599 32.4537 23.671 32.463 23.7424C32.5164 24.1474 32.5765 24.6078 32.8546 24.9285C33.1747 25.333 33.627 25.4203 33.9903 25.4897C34.0633 25.5041 34.1327 25.518 34.2077 25.5354C34.6086 25.6059 34.9544 25.6059 35.2602 25.6059H35.5557C35.7402 25.6059 35.8866 25.6059 36.0336 25.5838C36.1271 25.5838 36.2685 25.5838 36.5259 25.5591C36.7793 25.5365 36.9869 25.5128 37.1524 25.4897C37.2752 25.4697 37.3981 25.4486 37.505 25.4286C37.6545 25.4707 37.8082 25.5128 37.9587 25.5354C38.3375 25.6059 38.7126 25.6059 39.0128 25.6059C39.4614 25.6059 40.1274 25.5915 40.7364 25.4656C40.8536 25.4352 40.9826 25.3797 41.0823 25.3186C41.3752 25.188 41.5659 24.9131 41.5659 24.6202ZM36.2531 23.5266C36.2685 23.6561 36.2854 23.7856 36.3014 23.9233C36.2078 23.929 36.1164 23.929 36.0095 23.929H35.7592C35.7068 23.929 35.6672 23.9264 35.6544 23.9223L35.5778 23.9069H35.4056C35.032 23.8848 34.7771 23.8221 34.6528 23.5553C34.4899 23.2855 34.4919 22.8914 34.494 22.5763V22.4813C34.494 22.3872 34.494 22.2295 34.5166 22.1328C34.5248 22.0424 34.5248 21.9823 34.5248 21.934C34.5248 21.8553 34.5248 21.8343 34.571 21.7315L34.5818 21.6965C34.6553 21.3502 34.7843 21.2808 35.1374 21.2571C35.4149 21.1939 35.5603 21.1939 35.8507 21.1939H36.3425C36.3276 21.3008 36.3132 21.4211 36.2988 21.5485C36.2515 21.8826 36.2469 22.1005 36.2423 22.3523C36.2392 22.4695 36.2371 22.5954 36.234 22.7146C36.2063 22.8251 36.2063 22.9078 36.2063 22.9366C36.2058 23.1545 36.2294 23.3431 36.2531 23.5266Z" fill="#FBBF28"/>
<path d="M52.2826 19.5946C52.6243 19.6259 52.8746 19.6403 53.0483 19.6403H53.9271L54.4122 19.6634C54.5165 19.6634 55.0818 19.6865 55.2396 19.7086C55.5259 19.7318 55.7304 19.7811 55.8584 19.9445C55.9278 20.1008 55.9277 20.108 55.9277 20.3377C55.9277 20.48 55.9278 20.6573 55.8625 20.7709C55.7484 20.9497 55.6132 20.9898 55.3537 21.013C55.1759 21.0273 54.9775 21.0222 54.7863 21.0176C54.6897 21.015 54.5936 21.013 54.5032 21.013H53.8891C53.3983 21.013 52.8905 21.013 52.4039 21.1342C52.0158 21.2637 51.7661 21.5495 51.7661 21.8614V22.0212L51.7717 22.0639C51.8822 22.4791 52.3992 22.75 52.7045 22.7772C53.1758 22.8476 53.6419 22.8692 54.0936 22.8476H54.5258C54.8645 22.8476 55.4313 22.8476 55.6975 22.935C55.7628 22.9478 55.8209 22.9879 55.8738 23.0573C55.9462 23.1488 55.9565 23.1678 55.9735 23.2865L55.9848 23.4124C56.0023 23.602 56.0182 23.7655 56.0182 23.9073C56.0182 24.1858 56.0387 24.3801 56.1688 24.8179C56.2772 25.0605 56.4874 25.2702 56.7402 25.3827C56.8399 25.4213 56.953 25.4413 57.0671 25.4413C57.2285 25.4413 57.3837 25.4012 57.5306 25.32C57.9335 25.0415 58.0954 24.5882 58.1247 24.3837C58.1314 24.3246 58.1391 24.2789 58.1463 24.2326C58.1622 24.1329 58.1782 24.0337 58.192 23.8451C58.2167 23.6945 58.2167 23.5933 58.2162 23.5558C58.285 22.5269 58.2851 21.7314 58.2851 20.7246C58.2851 20.406 58.2732 20.2447 58.2573 20.0396L58.2362 19.7595C58.2265 19.7128 58.2172 19.6531 58.208 19.594C58.1941 19.5067 58.1797 19.4203 58.17 19.3859C58.0749 18.6027 57.6113 18.0775 56.8975 17.9459C56.3332 17.8406 56.03 17.8303 55.5274 17.8123L55.3501 17.8061C54.8002 17.783 54.5479 17.783 54.3881 17.783C53.9435 17.783 53.4491 17.8123 53.1788 17.8303C53.0231 17.8555 52.8823 17.8745 52.7456 17.8925C52.5 17.9249 52.2692 17.9552 51.9701 18.0194C51.5903 18.1458 51.355 18.4249 51.355 18.7466C51.355 18.7759 51.355 18.8648 51.3863 18.9594C51.5338 19.3936 52.02 19.5262 52.2826 19.5946Z" fill="#FBBF28"/>
<path d="M57.9942 27.4575C57.8354 27.3999 57.6915 27.3902 57.5522 27.3799C57.4495 27.3727 57.3508 27.367 57.2537 27.3398L56.5049 27.3336C56.2027 27.3336 55.9026 27.275 55.6246 27.161C55.5824 27.1455 55.5357 27.1137 55.4853 27.0643C55.2263 26.8053 55.2139 26.6429 55.1939 26.3865V25.9779C55.1939 25.6578 55.1353 25.3669 55.0171 25.1079C54.8563 24.7872 54.605 24.6104 54.3074 24.6104C54.2478 24.6104 54.1866 24.6186 54.1435 24.6294C53.923 24.6531 53.6974 24.7106 53.5504 24.947C53.2858 25.3073 53.2888 25.7343 53.2894 26.0473L53.2904 26.1018C53.2847 26.1768 53.2817 26.238 53.2796 26.2919C53.2724 26.4451 53.2688 26.5155 53.2046 26.7072C53.1578 26.8788 53.0396 27.0119 52.8232 27.1322C52.6213 27.2581 52.2086 27.2802 51.7599 27.2447C51.6078 27.2329 51.4521 27.2211 51.2974 27.2211C50.9963 27.2211 50.5538 27.2473 50.1771 27.4801C49.9705 27.6281 49.8569 27.8378 49.8569 28.0706C49.8569 28.3095 49.9536 28.4956 50.156 28.6395C50.4408 28.8368 50.7666 28.8985 51.0811 28.9581L51.2394 28.9884L51.41 29.0023C51.6217 29.0187 51.8062 29.0342 52.0483 29.0342C52.2436 29.0342 52.3859 29.0403 52.5144 29.047C52.6259 29.0527 52.7276 29.0563 52.8438 29.0563H55.6867C55.8728 29.0563 56.1051 29.0563 56.3004 29.0347C56.786 29.0347 57.1714 29.0044 57.5358 28.9355C57.5826 28.919 57.6329 28.9052 57.6864 28.8897C57.8739 28.8368 58.0867 28.7767 58.2836 28.6215C58.4156 28.4894 58.4917 28.3142 58.4917 28.1394C58.4917 27.7314 58.1355 27.5335 57.9942 27.4575Z" fill="#FBBF28"/>
<path d="M56.1192 31.3739C55.817 31.2362 55.4928 31.1972 55.2271 31.1771C54.4192 31.2028 53.5594 31.5518 53.0861 32.0482C52.6549 32.5015 52.4268 33.037 52.4268 33.5956C52.4268 34.1969 52.6863 34.7889 53.1581 35.2596C53.5851 35.6877 54.1653 35.9868 54.8226 36.1055H55.0498C55.485 36.1055 55.9707 35.9493 56.3551 35.6862C56.7426 35.3953 57.0365 35.0248 57.2056 34.6152C57.3223 34.3341 57.3773 34.0458 57.3773 33.7092C57.3773 32.7153 56.9004 31.8231 56.1192 31.3739ZM54.9177 32.9902C55.153 32.9917 55.4501 33.1773 55.4994 33.4245L55.5123 33.4635C55.519 33.481 55.519 33.5457 55.519 33.5956C55.519 33.8674 55.3797 34.111 55.1392 34.2524C55.003 34.3428 54.6669 34.2508 54.5718 34.0663C54.4665 33.9183 54.4444 33.7287 54.4444 33.5956C54.4439 33.3165 54.5682 33.0113 54.9177 32.9902Z" fill="#FBBF28"/>
<path d="M71.9075 30.4546C71.6202 30.3662 71.2831 30.3385 71.0128 30.3164L66.5603 30.3102C66.3229 30.3102 66.0854 30.3045 65.8475 30.2994C65.3022 30.2871 64.7153 30.2691 64.24 30.3102L63.9784 30.3076C63.7888 30.3076 63.5899 30.3184 63.4454 30.3842C63.1469 30.4664 62.8452 30.7234 62.8452 31.114C62.8452 31.1797 62.8452 31.2481 62.874 31.3072C62.9274 31.6407 63.2625 31.7805 63.5333 31.893L63.5734 31.9105C63.8592 32.0046 64.1701 32.0529 64.3941 32.0775L64.7734 32.0894C65.3377 32.1079 65.8249 32.1228 66.4462 32.1228C66.7633 32.1228 67.0696 32.1284 67.3758 32.1335C67.6842 32.1392 67.9915 32.1443 68.3112 32.1443H68.6519C68.7331 32.1443 68.8472 32.1407 68.9741 32.1351C69.1298 32.1294 69.3071 32.1222 69.4711 32.1222H70.2445C70.4033 32.1222 70.5354 32.1048 70.6767 32.0868C70.7692 32.075 70.8674 32.0621 70.9804 32.0534C72.164 31.9902 72.4127 31.5323 72.4127 31.1581C72.4127 31.077 72.4127 30.9839 72.3793 30.9182C72.3022 30.7136 72.1444 30.5548 71.9075 30.4546Z" fill="#FBBF28"/>
<path d="M63.2125 26.9806C63.3528 27.1198 63.547 27.1887 63.8081 27.1887C64.0142 27.1887 64.2316 27.1183 64.4412 27.0386C64.8082 26.8834 65.0322 26.6609 65.2928 26.4029C65.3627 26.3336 65.4341 26.2626 65.5179 26.184C65.5929 26.109 65.6448 26.0391 65.6936 25.9738C65.7481 25.8998 65.7908 25.8428 65.8817 25.7749C65.9907 25.6665 66.1017 25.5642 66.2137 25.4604C66.4069 25.2841 66.6079 25.0997 66.7913 24.8884C66.9024 24.7769 66.9892 24.6896 67.0884 24.6099C67.2544 24.4902 67.387 24.4814 67.4234 24.4814C67.5041 24.4814 67.6162 24.5821 67.758 24.7096L67.8207 24.7646C68.1095 24.9897 68.403 25.2698 68.7139 25.5673C69.052 25.8921 69.4036 26.2267 69.7731 26.5134L69.8681 26.5936C70.1189 26.8053 70.4627 27.0983 70.9031 27.0983C71.1282 27.0983 71.4345 26.9878 71.5846 26.7771C71.7254 26.5782 71.7979 26.3628 71.7979 26.1336C71.7979 26.0437 71.7711 25.9342 71.7167 25.797C71.6149 25.5514 71.4356 25.3602 71.2778 25.1911C71.2392 25.149 71.2007 25.1079 71.1709 25.075C70.9514 24.7975 70.7012 24.5611 70.4586 24.3314C70.3157 24.1957 70.1744 24.0631 70.0357 23.9151C69.9247 23.8175 69.8121 23.7234 69.7006 23.6304C69.4257 23.3996 69.1651 23.1833 68.9606 22.9304C68.6234 22.5409 68.4312 22.1457 68.3408 21.6575L68.3264 21.5115C68.3053 21.2947 68.2802 21.0243 68.2231 20.8162C68.1995 20.7196 68.1753 20.6482 68.1512 20.5762L68.1275 20.5305C67.9307 20.2591 67.6629 20.1214 67.333 20.1214L67.2241 20.1265C66.9887 20.1851 66.6567 20.3038 66.4963 20.6559C66.4198 20.8419 66.3915 21.0937 66.3638 21.3373C66.3478 21.4863 66.3314 21.6266 66.3057 21.731C66.2009 22.2146 66.0153 22.488 65.7466 22.8467C65.374 23.32 64.9752 23.7116 64.5543 24.1248C64.2326 24.4393 63.9001 24.7661 63.5362 25.1711C63.4833 25.2461 63.436 25.298 63.3887 25.3499C63.3337 25.4111 63.2788 25.4733 63.2073 25.5745C63.0932 25.7801 62.937 26.0638 62.937 26.3613C62.9365 26.6347 63.0413 26.8608 63.2125 26.9806Z" fill="#FBBF28"/>
<path d="M76.9258 21.9262V22.1092C76.9258 22.2494 76.9304 22.473 76.936 22.7079C76.9422 22.9658 76.9479 23.2367 76.9479 23.4361C76.9725 23.9269 77.0475 24.634 77.4191 25.1058C77.7711 25.522 78.1735 25.5981 78.5631 25.6716C78.6227 25.6829 78.6813 25.6942 78.7491 25.7081C79.1942 25.7785 79.5164 25.7785 79.89 25.7785H80.1855C80.6701 25.7785 81.0535 25.7785 81.5227 25.7559C81.718 25.7343 81.942 25.7101 82.1697 25.7086C82.2519 25.6942 82.3357 25.6819 82.4195 25.6711C82.7515 25.6264 83.0942 25.5796 83.3517 25.3607C83.5496 25.2204 83.6492 25.0369 83.6492 24.8149C83.6492 24.2064 83.2222 24.0569 82.7982 23.9906C82.477 23.9505 82.0294 23.9577 81.6019 23.9741C81.4127 23.9824 81.2262 23.9885 81.0494 23.9885H80.6855C80.4867 23.9885 80.2153 23.9885 79.9352 23.9659C79.8252 23.9659 79.6937 23.9505 79.5405 23.9294L79.501 23.9248C79.4429 23.9022 79.3869 23.8852 79.3355 23.8708C79.261 23.8508 79.2147 23.8354 79.1895 23.8097C79.005 23.6262 79.0025 23.1421 79.1664 22.9777C79.2995 22.8456 79.5487 22.8456 79.7307 22.8456H81.7092C81.7689 22.8456 81.829 22.8466 81.8896 22.8482C82.2113 22.8554 82.5536 22.8625 82.8244 22.693C83.1312 22.5542 83.382 22.1539 83.2566 21.8111C83.1436 21.4441 82.8764 21.2232 82.4837 21.1713C82.0459 21.1086 81.5772 21.0782 81.0499 21.0782C80.7688 21.0782 80.3839 21.0782 80.0956 21.1003C80.037 21.1003 79.9846 21.1039 79.9342 21.1065C79.8535 21.1101 79.7605 21.1132 79.7045 21.1055C79.6017 21.0803 79.502 21.0782 79.4131 21.0782C79.355 21.0603 79.2867 21.0284 79.2096 20.9791C79.058 20.9107 79.0117 20.8084 79.0112 20.5284C79.0045 20.4374 79.0045 20.1326 79.2969 20.0422C79.7363 19.9271 80.2225 19.9117 80.5956 19.9117H80.8916C81.255 19.9117 81.4549 19.9117 81.8233 19.9343C81.9143 19.9343 82.0104 19.941 82.1039 19.9451C82.198 19.9512 82.2889 19.9574 82.3696 19.9574C82.6574 19.9574 83.0727 19.9291 83.343 19.6881C83.5989 19.4651 83.6046 19.202 83.5814 18.9923C83.5506 18.7816 83.4057 18.5776 83.1991 18.4599C82.9658 18.3345 82.7489 18.2985 82.5387 18.263C82.4585 18.2492 82.3768 18.2358 82.293 18.2168L82.256 18.2132C81.9795 18.2132 81.7051 18.188 81.5458 18.1716C81.4348 18.1448 81.3516 18.1448 81.256 18.1448H80.7323C79.9162 18.1448 79.0487 18.1633 78.1905 18.3771C77.71 18.4964 77.3091 18.9116 77.1169 19.4867C77.0337 19.7369 76.9777 20.0329 76.9509 20.3593C76.9078 20.6887 76.9165 21.0191 76.9247 21.3373C76.9294 21.5377 76.9345 21.734 76.9258 21.9262Z" fill="#FBBF28"/>
<path d="M84.8592 30.5589C84.6572 30.4474 84.4219 30.4294 84.1937 30.4119L84.0745 30.4027C83.9038 30.379 83.782 30.379 83.5965 30.379H83.3694C83.0261 30.379 82.7465 30.358 82.5137 30.2614C82.117 30.0532 82.0347 29.6611 82.0347 29.1354V28.4082C82.0347 27.9585 81.987 27.3999 81.601 27.0659C81.4191 26.9364 81.2505 26.8762 81.0722 26.8762C80.7746 26.8762 80.566 27.0653 80.3984 27.2529C80.1271 27.5741 80.1297 28.0356 80.1312 28.3404V28.9313C80.1312 29.5491 80.0988 29.9705 79.6641 30.1987C79.5058 30.2973 79.2277 30.3102 79.0027 30.3102H78.1614C77.7991 30.3102 77.3849 30.3302 77.0627 30.5558C76.8268 30.6735 76.6973 30.8873 76.6973 31.1586C76.6973 31.4058 76.8216 31.6104 77.0215 31.709C77.2795 31.8802 77.6264 31.9788 78.0555 32.0045C78.369 32.0775 78.5828 32.0749 78.8793 32.0775C79.2704 32.1001 79.4349 32.1001 79.6841 32.1001H83.1453L83.3447 32.0899C83.7044 32.0734 84.0446 32.059 84.3422 31.9619C84.5164 31.9429 84.8479 31.8797 85.11 31.6761C85.2703 31.5477 85.3551 31.3853 85.3541 31.189C85.3274 30.896 85.1228 30.6437 84.8592 30.5589Z" fill="#FBBF28"/>
<path d="M96.2437 22.489C96.1666 22.0486 96.0058 21.7289 95.736 21.4838C95.4595 21.2371 94.6136 20.9164 94.1341 20.7463C93.3843 20.4791 92.5934 20.3265 91.9633 20.3265C91.0285 20.3265 90.8121 20.7469 90.7957 21.1076C90.7957 21.1677 90.8075 21.2078 90.8214 21.2381C90.8713 21.6431 91.3086 21.7783 91.563 21.8548C91.8641 21.972 92.2234 22.0208 92.4752 22.0481C92.8812 22.0738 93.1587 22.1247 93.411 22.2213C93.7954 22.3497 94.0241 22.6725 94.0241 23.0862C94.0241 23.4063 93.9362 23.651 93.7497 23.838C93.4049 24.2194 93.0061 24.3746 92.3729 24.3746C91.9505 24.3746 91.5178 24.3201 91.0614 24.2615L90.6996 24.2163C90.5367 24.206 90.3666 24.1803 90.1862 24.152C89.9529 24.1166 89.7129 24.0791 89.4842 24.0791C88.9451 24.0791 88.5242 24.3381 88.2662 24.8309C87.9656 25.4312 87.7939 26.1465 87.7939 26.7935C87.7939 27.1379 87.8577 27.494 87.9857 27.8517C88.3007 28.7145 89.0438 29.3086 90.1873 29.6144C91.0049 29.8534 91.8724 29.9212 92.6381 29.9793L93.0097 30.0086H93.3637L93.376 30.0065C93.8972 29.9233 94.0488 29.5877 94.0164 29.305C93.9881 28.9335 93.6448 28.7649 93.4388 28.6631L93.3853 28.6369C93.1227 28.5403 92.8601 28.4936 92.6042 28.4473C92.4253 28.4144 92.2557 28.3841 92.0862 28.3348L92.045 28.3265C91.5075 28.2191 90.9519 28.1086 90.6297 27.7263C90.383 27.458 90.1734 26.8639 90.1734 26.4297C90.1734 26.2755 90.197 26.1558 90.2438 26.0777C90.3203 25.9415 90.5691 25.8685 90.9617 25.8685C91.5327 25.8685 92.2198 25.9939 92.6304 26.0674L92.7938 26.0956C92.9346 26.1049 93.0842 26.1239 93.2383 26.1445C93.6428 26.1974 94.1048 26.2575 94.5221 26.1378C95.0304 26.0273 95.3896 25.7719 95.6589 25.3212C95.8351 24.9707 95.9466 24.5894 96.0551 24.2188L96.0787 24.1356C96.1892 23.7836 96.2915 23.393 96.2915 22.9269C96.2915 22.8164 96.274 22.6971 96.2529 22.5584L96.2437 22.489Z" fill="#FBBF28"/>
<path d="M100.958 22.38L100.955 22.3132V22.1261C100.958 21.6508 100.959 21.2741 100.815 20.8023C100.708 20.2961 100.194 20.0314 99.7412 20.0314C99.4698 20.0314 99.2221 20.1399 99.0089 20.3542L98.9847 20.3845C98.6913 20.8568 98.6676 21.4945 98.6476 22.0084L98.6409 22.1544C98.6409 22.3625 98.6342 22.5429 98.6291 22.7089C98.6234 22.8513 98.6188 22.9833 98.6188 23.1092C98.6188 23.2495 98.6137 23.3847 98.608 23.5245C98.6024 23.6797 98.5962 23.84 98.5962 24.0199V26.8844C98.5962 27.1198 98.6136 27.3973 98.6306 27.6635C98.6481 27.9282 98.664 28.1774 98.664 28.3851C98.664 28.7427 98.7062 29.1606 98.7786 29.5182C98.812 29.8194 98.8778 30.0558 98.9811 30.2398C99.1306 30.5085 99.347 30.6401 99.6959 30.6668H99.8702L99.8856 30.6637C100.341 30.5789 100.646 30.1647 100.747 29.7808C100.843 29.2746 100.887 28.8938 100.955 27.9981C100.955 27.6784 100.966 27.3542 100.978 27.0319C100.988 26.7118 101 26.3942 101 26.0879V23.8601C101 23.3575 100.979 22.8826 100.958 22.38Z" fill="#FBBF28"/>
</svg>
