<svg width="90" height="37" viewBox="0 0 90 37" fill="none" xmlns="http://www.w3.org/2000/svg">
<path d="M24.1216 5.52165C23.2638 4.60898 22.3177 4.02557 21.5566 3.55618C21.014 3.22188 20.453 2.87522 20.3532 2.62747C20.3142 2.52993 20.2767 2.43101 20.2382 2.32889C19.9199 1.49086 19.4844 0.342805 18.1702 0.242974C16.6012 0.120704 15.9198 1.28112 15.5072 2.28081C15.3827 2.58259 14.6481 2.91964 13.9383 3.24523C12.2549 4.01824 9.71199 5.18645 8.6775 8.36593C7.7955 11.0737 8.34045 13.0992 8.70131 14.4401C8.87945 15.1032 9.03331 15.6765 8.9115 15.9723C8.70039 16.4838 8.11239 16.8213 7.2217 17.3324C6.04983 18.0037 4.44522 18.9251 2.61163 20.8906C-0.269277 23.979 -0.82523 29.0607 1.23596 32.2219L1.6655 32.8158C1.66047 32.9239 1.62155 33.1282 1.59499 33.271C1.47088 33.9241 1.28266 34.9091 2.03048 35.5401C2.35012 35.8089 2.74441 35.9463 3.20144 35.9463C3.69327 35.9463 4.18054 35.7906 4.61009 35.6528C4.89538 35.5607 5.19029 35.4664 5.35927 35.4664C5.38583 35.4664 5.39775 35.4687 5.39362 35.4664L5.45176 35.4893L5.45497 35.4902C5.67708 35.5804 5.88224 35.6569 6.07961 35.7251C7.52762 36.2179 8.99257 36.4698 10.4314 36.4698C10.4319 36.4698 10.4319 36.4698 10.4323 36.4698C14.9834 36.4698 19.3558 33.8219 21.5717 29.727C23.3811 26.3827 23.033 22.7901 22.8027 20.4139C22.7702 20.0759 22.739 19.7595 22.7171 19.4692C22.6561 18.6691 23.1356 18.0834 23.7992 17.2724C24.5255 16.3854 25.4294 15.2817 25.9263 13.4839C26.735 10.5595 26.0605 7.5833 24.1216 5.52165Z" fill="#FBBF28"/>
<path d="M23.3424 12.8395C22.8542 16.5117 19.4801 19.0918 15.8088 18.6031C12.1366 18.1131 9.55611 14.7413 10.0447 11.0691C10.5334 7.39641 13.9065 4.81637 17.5788 5.305C21.251 5.79362 23.831 9.16773 23.3424 12.8395Z" fill="white"/>
<path d="M13.5385 12.4809C13.9462 12.5351 14.3223 12.2356 14.3786 11.8119C14.435 11.3881 14.1502 11.0007 13.7425 10.9465C13.3349 10.8923 12.9587 11.1919 12.9024 11.6156C12.8461 12.0393 13.1309 12.4267 13.5385 12.4809Z" fill="#755726"/>
<path d="M19.5973 13.2969C20.0051 13.3513 20.3816 13.0515 20.4381 12.6273C20.4947 12.2032 20.2098 11.8153 19.802 11.7609C19.3941 11.7065 19.0177 12.0063 18.9611 12.4305C18.9046 12.8547 19.1894 13.2426 19.5973 13.2969Z" fill="#755726"/>
<path d="M17.4799 8.48952C17.1273 8.48952 16.7706 8.37549 16.461 8.15202C15.9325 7.76918 15.4663 6.98198 15.742 5.92276C15.9078 5.28622 16.3016 4.7857 16.88 4.47704C17.4799 4.15694 18.2328 4.07772 18.7979 4.27463C18.943 4.32592 19.0195 4.48529 18.9691 4.63C18.9183 4.77608 18.7589 4.85301 18.6138 4.80172C18.2772 4.68449 17.6732 4.68632 17.1433 4.96933C16.8379 5.1319 16.4408 5.45429 16.2824 6.06289C16.0777 6.85147 16.4092 7.42481 16.788 7.69911C17.1822 7.98441 17.6622 8.01143 18.0413 7.76689C18.4031 7.53425 18.5923 7.20957 18.5607 6.87573C18.5332 6.5886 18.3408 6.3459 18.0446 6.22684C17.7684 6.11601 17.5559 6.22683 17.4735 6.37658C17.3947 6.52037 17.4479 6.67241 17.6187 6.79468C17.7442 6.88306 17.7739 7.05754 17.6851 7.18301C17.5958 7.30941 17.4218 7.3378 17.2958 7.24942C16.8301 6.91924 16.8035 6.43932 16.9835 6.10914C17.1859 5.73867 17.6864 5.48176 18.2525 5.71028C18.7461 5.90856 19.069 6.32484 19.1161 6.82308C19.1674 7.3639 18.8785 7.89191 18.3431 8.23628C18.0816 8.40526 17.7821 8.48952 17.4799 8.48952Z" fill="#755726"/>
<path d="M16.4412 15.4672C16.3707 15.4672 16.2992 15.4626 16.2278 15.4539C15.5455 15.3628 14.995 14.8471 14.8585 14.1717C14.8283 14.0201 14.9259 13.8735 15.077 13.8433C15.2281 13.814 15.3751 13.9102 15.4058 14.0618C15.4946 14.5041 15.855 14.8416 16.3015 14.9003C16.7494 14.9621 17.1849 14.7294 17.3859 14.3251C17.4546 14.1872 17.6226 14.1318 17.76 14.201C17.8979 14.2697 17.9538 14.4373 17.8846 14.5747C17.6089 15.126 17.0457 15.4672 16.4412 15.4672Z" fill="#755726"/>
<path d="M10.6402 17.8993C12.2067 17.8993 13.4767 16.6294 13.4767 15.0628C13.4767 13.4963 12.2067 12.2263 10.6402 12.2263C9.07363 12.2263 7.80371 13.4963 7.80371 15.0628C7.80371 16.6294 9.07363 17.8993 10.6402 17.8993Z" fill="#FFE0B0"/>
<path d="M21.7237 19.3743C23.2903 19.3743 24.5602 18.1044 24.5602 16.5378C24.5602 14.9713 23.2903 13.7014 21.7237 13.7014C20.1572 13.7014 18.8872 14.9713 18.8872 16.5378C18.8872 18.1044 20.1572 19.3743 21.7237 19.3743Z" fill="#FFE0B0"/>
<path d="M8.9706 34.452C8.72285 34.452 8.51679 34.2569 8.50626 34.0064C8.49573 33.7504 8.69447 33.5334 8.95137 33.5228C12.9258 33.3571 15.8022 31.746 17.5007 28.7355C18.7742 26.4788 18.8782 24.2578 18.8791 24.2358C18.8896 23.9789 19.1108 23.7838 19.3626 23.7893C19.6196 23.7998 19.8192 24.0169 19.8087 24.2738C19.8046 24.3727 19.6942 26.7421 18.3112 29.193C17.0276 31.4676 14.3683 34.2267 8.99028 34.452C8.98387 34.452 8.97747 34.452 8.9706 34.452Z" fill="#CE9328"/>
<path d="M8.02483 32.1586C7.79907 32.1586 7.60077 31.9933 7.56597 31.7625C7.52704 31.5097 7.70198 31.2725 7.95568 31.2341C13.8856 30.3305 15.3056 26.2668 15.3633 26.0941C15.4449 25.8505 15.7086 25.7177 15.9504 25.7983C16.1936 25.8784 16.3264 26.1404 16.2462 26.3835C16.1826 26.5786 14.6146 31.1599 8.09535 32.1522C8.07154 32.1568 8.04773 32.1586 8.02483 32.1586Z" fill="#CE9328"/>
<path d="M17.8673 29.3126C13.9459 29.3126 10.9812 27.4657 10.837 27.3745C10.6203 27.2372 10.5558 26.9505 10.6936 26.7334C10.8319 26.5164 11.1186 26.4523 11.3348 26.5896C11.3732 26.6135 15.2089 28.9938 19.7265 28.2286C19.9793 28.1856 20.2197 28.3564 20.2623 28.6101C20.3054 28.8638 20.135 29.1037 19.8818 29.1459C19.1907 29.2626 18.5157 29.3126 17.8673 29.3126Z" fill="#CE9328"/>
<path d="M16.2912 31.8083C12.3699 31.8083 9.4056 29.961 9.26089 29.8703C9.04383 29.7329 8.97972 29.4449 9.11756 29.2288C9.2554 29.0108 9.54207 28.9467 9.75822 29.085C9.79668 29.1088 13.6333 31.4892 18.1505 30.7239C18.4028 30.68 18.6432 30.8512 18.6867 31.1045C18.7293 31.3582 18.5589 31.5991 18.3052 31.6412C17.6142 31.758 16.9392 31.8083 16.2912 31.8083Z" fill="#CE9328"/>
<path d="M41.9248 17.6671C41.9244 17.6671 41.9244 17.6671 41.9239 17.6671C41.8548 17.6635 41.7833 17.6607 41.7128 17.658C41.4774 17.6497 41.2114 17.641 41.1129 17.554C40.9174 17.4084 40.867 17.1932 40.8477 16.8946L40.8386 16.7352C40.824 16.4683 40.8097 16.193 40.7227 15.9192C40.6778 15.7182 40.5698 15.546 40.399 15.3999C40.2749 15.2758 40.1009 15.2144 39.8682 15.2144C39.6928 15.2144 39.5669 15.2446 39.4533 15.3138C39.1529 15.475 39.0174 15.8784 38.9908 16.1981C38.9821 16.2741 38.9706 16.3529 38.9578 16.4353C38.94 16.5534 38.9217 16.678 38.9093 16.8113C38.8887 17.0805 38.8887 17.3516 38.8887 17.6131V18.1855C38.8992 18.4672 38.8992 18.7548 38.8992 19.0437C38.8992 19.3373 38.8992 19.6331 38.9088 19.934C38.9184 20.0736 38.9235 20.1895 38.9281 20.2989C38.934 20.4249 38.9386 20.5426 38.9505 20.6937C38.9615 20.7702 38.978 20.8352 38.9945 20.9011C39.0082 20.957 39.0224 21.0133 39.032 21.0793L39.0522 21.1434C39.1076 21.2931 39.1566 21.4223 39.2651 21.5363C39.4007 21.7378 39.637 21.7895 39.8412 21.812C39.8865 21.8211 39.9314 21.8248 39.9758 21.8248C40.3152 21.8248 40.6302 21.5775 40.7342 21.2405C40.8111 21.0664 40.8235 20.7665 40.8381 20.4185L40.8477 20.1941C40.8725 19.7325 40.9196 19.4417 40.9838 19.3396C41.0818 19.198 41.3323 19.1751 41.5979 19.1509C41.6981 19.1417 41.7998 19.133 41.8955 19.1184L41.9427 19.1115C42.0856 19.0923 42.2811 19.0652 42.4418 18.9856C42.712 18.8642 42.8545 18.6563 42.8545 18.3825L42.8531 18.2794C42.8114 18.001 42.6145 17.6671 41.9248 17.6671Z" fill="#FBBF28"/>
<path d="M39.7534 25.0386C38.9309 24.6274 37.6286 24.9814 37.025 25.6156C36.6408 26.0204 36.437 26.4976 36.437 26.9954C36.437 27.5541 36.6696 28.0825 37.0685 28.4384C37.4664 28.8368 37.9642 29.0951 38.5486 29.2059C38.6145 29.2311 38.6887 29.2311 38.7949 29.2311C39.186 29.2311 39.5762 29.0992 39.9531 28.8409C40.3281 28.5826 40.6148 28.2282 40.7169 27.9003C40.8323 27.5994 40.8484 27.3274 40.8484 27.076C40.8484 26.2077 40.4321 25.4288 39.7534 25.0386ZM38.3741 26.5956C38.4501 26.5109 38.5559 26.4624 38.6809 26.455L38.6731 26.3071L38.6933 26.455C38.8549 26.455 39.1182 26.6313 39.213 26.8429V26.9752C39.213 27.2097 39.0958 27.4254 38.8911 27.5697C38.8329 27.5875 38.7794 27.5967 38.734 27.5967C38.5916 27.5967 38.43 27.5138 38.3691 27.3952C38.2747 27.2633 38.2546 27.0943 38.2546 26.9665C38.2459 26.8255 38.2894 26.6909 38.3741 26.5956Z" fill="#FBBF28"/>
<path d="M37.0384 22.1728C37.0384 21.9333 36.9477 21.7648 36.7609 21.6581C36.6185 21.5766 36.4481 21.5368 36.2411 21.5368H34.8723C34.5504 21.5171 34.3265 21.458 34.2047 21.2313C34.076 20.99 34.0783 20.6401 34.0801 20.3598L34.0806 20.2673C34.0806 20.1835 34.0806 20.043 34.0966 19.9798L34.1012 19.944C34.1012 19.8895 34.0998 19.8483 34.0989 19.814C34.0957 19.7155 34.0957 19.7 34.1383 19.5685C34.1978 19.2874 34.3077 19.1994 34.648 19.1784C34.8412 19.1417 35.05 19.1376 35.2291 19.1376L35.6472 19.1399C35.8276 19.1229 36.1147 19.1706 36.4115 19.0717C36.6116 19.0048 36.8383 18.9292 36.9468 18.6838C37.075 18.3747 36.9734 18.0097 36.7233 17.87C36.6107 17.8032 36.5219 17.7578 36.4417 17.7322C35.8707 17.5843 35.2447 17.5655 34.7624 17.5655C34.5349 17.5655 34.2912 17.5852 34.0554 17.6062C33.8965 17.6259 33.7394 17.6644 33.5814 17.7038C33.3433 17.6644 33.0795 17.6662 32.8762 17.6273C32.3807 17.5655 31.8811 17.5655 31.3989 17.5655C30.9107 17.5655 30.4734 17.6301 29.9815 17.7729C29.7933 17.8238 29.4494 17.963 29.2612 18.3115C29.1073 18.5977 29.0226 18.8399 28.9612 19.4362C28.8994 19.8726 28.8994 20.0855 28.8994 20.511L28.9008 21.2011C28.9104 21.2629 28.9186 21.327 28.9269 21.3907C28.9745 21.7515 29.0281 22.1618 29.2759 22.4476C29.5611 22.808 29.9641 22.8858 30.2879 22.9477C30.3529 22.9605 30.4147 22.9729 30.4816 22.9884C30.8388 23.0512 31.147 23.0512 31.4195 23.0512H31.6828C31.8472 23.0512 31.9777 23.0512 32.1087 23.0315C32.192 23.0315 32.3179 23.0315 32.5474 23.0095C32.7731 22.9893 32.9581 22.9683 33.1056 22.9477C33.215 22.9298 33.3245 22.911 33.4198 22.8932C33.553 22.9307 33.6899 22.9683 33.8241 22.9884C34.1616 23.0512 34.4959 23.0512 34.7633 23.0512C35.1631 23.0512 35.7566 23.0383 36.2993 22.9261C36.4037 22.8991 36.5186 22.8497 36.6075 22.7952C36.8685 22.6789 37.0384 22.4339 37.0384 22.1728ZM32.3042 21.1983C32.3179 21.3137 32.3331 21.4291 32.3472 21.5519C32.2639 21.5569 32.1824 21.5569 32.0871 21.5569H31.8641C31.8174 21.5569 31.7822 21.5546 31.7707 21.551L31.7025 21.5372H31.5491C31.2161 21.5175 30.989 21.4616 30.8782 21.224C30.733 20.9836 30.7349 20.6323 30.7367 20.3516V20.2669C30.7367 20.1831 30.7367 20.0425 30.7568 19.9564C30.7642 19.8758 30.7642 19.8222 30.7642 19.7792C30.7642 19.7091 30.7641 19.6903 30.8054 19.5987L30.815 19.5676C30.8805 19.259 30.9954 19.1971 31.31 19.1761C31.5573 19.1197 31.6869 19.1197 31.9457 19.1197H32.3839C32.3706 19.215 32.3578 19.3222 32.345 19.4357C32.3028 19.7334 32.2987 19.9276 32.2946 20.1519C32.2918 20.2564 32.29 20.3685 32.2873 20.4748C32.2625 20.5732 32.2625 20.647 32.2625 20.6726C32.2621 20.8668 32.2831 21.0348 32.3042 21.1983Z" fill="#FBBF28"/>
<path d="M46.5878 17.6946C46.8923 17.7225 47.1154 17.7353 47.2701 17.7353H48.0532L48.4855 17.7559C48.5785 17.7559 49.0822 17.7765 49.2228 17.7962C49.4779 17.8168 49.6601 17.8608 49.7742 18.0064C49.836 18.1456 49.836 18.152 49.836 18.3567C49.836 18.4836 49.836 18.6416 49.7778 18.7428C49.6762 18.9022 49.5557 18.9379 49.3244 18.9585C49.166 18.9713 48.9892 18.9667 48.8189 18.9626C48.7328 18.9603 48.6472 18.9585 48.5666 18.9585H48.0193C47.582 18.9585 47.1295 18.9585 46.6959 19.0666C46.3501 19.182 46.1276 19.4366 46.1276 19.7145V19.857L46.1326 19.895C46.2311 20.265 46.6918 20.5063 46.9638 20.5306C47.3837 20.5933 47.7991 20.6126 48.2016 20.5933H48.5867C48.8885 20.5933 49.3936 20.5933 49.6308 20.6712C49.689 20.6826 49.7407 20.7183 49.7879 20.7802C49.8525 20.8617 49.8616 20.8786 49.8767 20.9844L49.8868 21.0966C49.9024 21.2656 49.9166 21.4112 49.9166 21.5376C49.9166 21.7858 49.9349 21.9589 50.0507 22.3491C50.1474 22.5652 50.3347 22.7521 50.56 22.8523C50.6488 22.8867 50.7496 22.9046 50.8512 22.9046C50.995 22.9046 51.1333 22.8688 51.2643 22.7965C51.6233 22.5483 51.7676 22.1444 51.7937 21.9621C51.7996 21.9094 51.8065 21.8687 51.8129 21.8275C51.8271 21.7386 51.8413 21.6503 51.8537 21.4822C51.8756 21.348 51.8756 21.2578 51.8752 21.2244C51.9365 20.3076 51.9366 19.5987 51.9366 18.7016C51.9366 18.4177 51.926 18.2739 51.9118 18.0911L51.893 17.8416C51.8843 17.7999 51.8761 17.7468 51.8679 17.6941C51.8555 17.6163 51.8427 17.5393 51.834 17.5086C51.7493 16.8107 51.3362 16.3427 50.7001 16.2255C50.1973 16.1316 49.9271 16.1225 49.4792 16.1064L49.3213 16.1009C48.8313 16.0803 48.6064 16.0803 48.464 16.0803C48.0679 16.0803 47.6273 16.1064 47.3864 16.1225C47.2477 16.1449 47.1222 16.1618 47.0004 16.1779C46.7815 16.2067 46.5759 16.2337 46.3094 16.291C45.9709 16.4036 45.7612 16.6523 45.7612 16.939C45.7612 16.9651 45.7612 17.0443 45.7892 17.1285C45.9206 17.5155 46.3538 17.6337 46.5878 17.6946Z" fill="#FBBF28"/>
<path d="M51.6773 24.7011C51.5358 24.6498 51.4076 24.6411 51.2835 24.632C51.1919 24.6256 51.104 24.6205 51.0174 24.5962L50.3502 24.5907C50.0809 24.5907 49.8135 24.5385 49.5657 24.4369C49.5282 24.4231 49.4865 24.3948 49.4416 24.3508C49.2108 24.12 49.1998 23.9753 49.182 23.7468V23.3827C49.182 23.0974 49.1298 22.8382 49.0245 22.6074C48.8811 22.3217 48.6572 22.1641 48.3921 22.1641C48.3389 22.1641 48.2844 22.1715 48.246 22.1811C48.0495 22.2021 47.8485 22.2534 47.7175 22.4641C47.4817 22.7851 47.4844 23.1656 47.4849 23.4445L47.4858 23.4931C47.4807 23.5599 47.478 23.6144 47.4762 23.6625C47.4698 23.799 47.4666 23.8617 47.4093 24.0325C47.3676 24.1855 47.2623 24.3041 47.0695 24.4112C46.8895 24.5234 46.5218 24.5431 46.122 24.5115C45.9865 24.501 45.8477 24.4905 45.7099 24.4905C45.4415 24.4905 45.0472 24.5138 44.7116 24.7213C44.5275 24.8532 44.4263 25.04 44.4263 25.2474C44.4263 25.4604 44.5124 25.6262 44.6928 25.7544C44.9465 25.9302 45.2368 25.9852 45.5171 26.0383L45.6581 26.0653L45.8102 26.0777C45.9989 26.0923 46.1633 26.1061 46.3789 26.1061C46.553 26.1061 46.6798 26.1116 46.7943 26.1175C46.8937 26.1226 46.9843 26.1258 47.0878 26.1258H49.6211C49.7869 26.1258 49.9939 26.1258 50.1679 26.1065C50.6007 26.1065 50.9441 26.0795 51.2688 26.0182C51.3105 26.0035 51.3554 25.9911 51.403 25.9774C51.5701 25.9302 51.7597 25.8766 51.9351 25.7383C52.0528 25.6207 52.1206 25.4645 52.1206 25.3088C52.1206 24.9452 51.8032 24.7689 51.6773 24.7011Z" fill="#FBBF28"/>
<path d="M50.0066 28.1911C49.7373 28.0683 49.4484 28.0335 49.2116 28.0157C48.4918 28.0386 47.7256 28.3495 47.3039 28.7919C46.9196 29.1958 46.7163 29.673 46.7163 30.1708C46.7163 30.7065 46.9476 31.2341 47.368 31.6536C47.7485 32.035 48.2655 32.3016 48.8512 32.4073H49.0536C49.4415 32.4073 49.8743 32.2681 50.2168 32.0337C50.5621 31.7745 50.824 31.4443 50.9747 31.0793C51.0787 30.8288 51.1276 30.5719 51.1276 30.272C51.1276 29.3863 50.7027 28.5913 50.0066 28.1911ZM48.9359 29.6313C49.1457 29.6327 49.4104 29.798 49.4543 30.0183L49.4658 30.0531C49.4718 30.0686 49.4718 30.1263 49.4718 30.1708C49.4718 30.413 49.3476 30.6301 49.1333 30.756C49.012 30.8366 48.7125 30.7546 48.6278 30.5902C48.5339 30.4583 48.5142 30.2894 48.5142 30.1708C48.5137 29.9221 48.6245 29.6501 48.9359 29.6313Z" fill="#FBBF28"/>
<path d="M64.0753 27.3718C63.8193 27.2931 63.5189 27.2683 63.2781 27.2486L59.3105 27.2431C59.0989 27.2431 58.8873 27.2381 58.6753 27.2335C58.1894 27.2225 57.6664 27.2065 57.2428 27.2431L57.0098 27.2409C56.8408 27.2409 56.6635 27.2505 56.5349 27.3091C56.2688 27.3824 56 27.6113 56 27.9594C56 28.018 56 28.0789 56.0256 28.1315C56.0733 28.4287 56.3718 28.5533 56.6132 28.6536L56.6489 28.6692C56.9035 28.753 57.1806 28.796 57.3802 28.818L57.7182 28.8285C58.221 28.845 58.6551 28.8583 59.2088 28.8583C59.4913 28.8583 59.7643 28.8633 60.0372 28.8679C60.312 28.873 60.5858 28.8775 60.8707 28.8775H61.1743C61.2466 28.8775 61.3483 28.8743 61.4614 28.8693C61.6002 28.8643 61.7581 28.8578 61.9042 28.8578H62.5934C62.7349 28.8578 62.8526 28.8423 62.9786 28.8262C63.061 28.8157 63.1485 28.8043 63.2492 28.7965C64.3038 28.7402 64.5255 28.3321 64.5255 27.9987C64.5255 27.9264 64.5255 27.8435 64.4957 27.7849C64.427 27.6026 64.2864 27.4611 64.0753 27.3718Z" fill="#FBBF28"/>
<path d="M56.3275 24.2761C56.4525 24.4002 56.6256 24.4616 56.8582 24.4616C57.0419 24.4616 57.2356 24.3989 57.4224 24.3279C57.7494 24.1896 57.9491 23.9913 58.1812 23.7614C58.2435 23.6996 58.3072 23.6364 58.3818 23.5663C58.4487 23.4995 58.4949 23.4372 58.5384 23.379C58.5869 23.3131 58.625 23.2623 58.706 23.2018C58.8031 23.1052 58.902 23.014 59.0019 22.9215C59.174 22.7645 59.3531 22.6001 59.5166 22.4119C59.6155 22.3125 59.6929 22.2346 59.7813 22.1637C59.9292 22.057 60.0473 22.0492 60.0798 22.0492C60.1517 22.0492 60.2516 22.1389 60.378 22.2525L60.4338 22.3015C60.6912 22.5021 60.9527 22.7517 61.2297 23.0168C61.5311 23.3062 61.8443 23.6043 62.1736 23.8599L62.2583 23.9313C62.4818 24.12 62.7881 24.381 63.1806 24.381C63.3811 24.381 63.6541 24.2825 63.7878 24.0948C63.9133 23.9176 63.9778 23.7257 63.9778 23.5214C63.9778 23.4413 63.954 23.3438 63.9055 23.2215C63.8148 23.0026 63.655 22.8322 63.5144 22.6816C63.4801 22.644 63.4457 22.6074 63.4191 22.5781C63.2236 22.3308 63.0006 22.1202 62.7844 21.9155C62.6571 21.7946 62.5312 21.6764 62.4076 21.5445C62.3086 21.4575 62.2084 21.3737 62.109 21.2908C61.864 21.0852 61.6318 20.8924 61.4496 20.6671C61.1492 20.32 60.9779 19.9678 60.8973 19.5328L60.8845 19.4027C60.8657 19.2095 60.8432 18.9686 60.7924 18.7831C60.7714 18.697 60.7498 18.6334 60.7283 18.5693L60.7072 18.5285C60.5318 18.2867 60.2932 18.164 59.9992 18.164L59.9022 18.1686C59.6924 18.2208 59.3966 18.3266 59.2537 18.6403C59.1855 18.806 59.1603 19.0304 59.1356 19.2475C59.1214 19.3803 59.1067 19.5053 59.0838 19.5983C58.9904 20.0292 58.8251 20.2728 58.5856 20.5925C58.2536 21.0142 57.8982 21.3632 57.5232 21.7314C57.2365 22.0116 56.9402 22.3029 56.616 22.6637C56.5688 22.7306 56.5267 22.7768 56.4845 22.8231C56.4355 22.8776 56.3866 22.933 56.3229 23.0232C56.2212 23.2064 56.082 23.4592 56.082 23.7243C56.0816 23.9679 56.175 24.1694 56.3275 24.2761Z" fill="#FBBF28"/>
<path d="M68.5475 19.7722V19.9353C68.5475 20.0603 68.5516 20.2595 68.5566 20.4688C68.5621 20.6987 68.5672 20.94 68.5672 21.1177C68.5891 21.555 68.656 22.1851 68.9871 22.6055C69.3008 22.9764 69.6593 23.0442 70.0065 23.1097C70.0596 23.1198 70.1118 23.1299 70.1722 23.1422C70.5688 23.205 70.8559 23.205 71.1889 23.205H71.4522C71.884 23.205 72.2256 23.205 72.6437 23.1848C72.8178 23.1656 73.0174 23.1441 73.2203 23.1427C73.2936 23.1299 73.3682 23.1189 73.4429 23.1093C73.7387 23.0694 74.0441 23.0277 74.2736 22.8327C74.4499 22.7076 74.5387 22.5442 74.5387 22.3463C74.5387 21.8041 74.1582 21.6709 73.7804 21.6118C73.4942 21.5761 73.0953 21.5825 72.7143 21.5971C72.5458 21.6045 72.3795 21.61 72.222 21.61H71.8978C71.7205 21.61 71.4787 21.61 71.2292 21.5898C71.1312 21.5898 71.0139 21.5761 70.8775 21.5573L70.8422 21.5532C70.7905 21.533 70.7405 21.5179 70.6947 21.5051C70.6283 21.4872 70.5871 21.4735 70.5647 21.4506C70.4003 21.2871 70.398 20.8557 70.5441 20.7092C70.6627 20.5915 70.8848 20.5915 71.0469 20.5915H72.81C72.8631 20.5915 72.9167 20.5924 72.9707 20.5938C73.2574 20.6002 73.5624 20.6066 73.8037 20.4555C74.0771 20.3318 74.3006 19.9751 74.1888 19.6697C74.0881 19.3427 73.85 19.1458 73.5001 19.0995C73.1099 19.0437 72.6923 19.0166 72.2224 19.0166C71.9719 19.0166 71.6289 19.0166 71.372 19.0363C71.3198 19.0363 71.2731 19.0395 71.2283 19.0418C71.1564 19.045 71.0735 19.0478 71.0236 19.0409C70.932 19.0185 70.8431 19.0166 70.7639 19.0166C70.7122 19.0006 70.6512 18.9722 70.5826 18.9283C70.4475 18.8673 70.4063 18.7762 70.4058 18.5266C70.3998 18.4456 70.3998 18.174 70.6604 18.0934C71.0519 17.9908 71.4852 17.9771 71.8176 17.9771H72.0814C72.4052 17.9771 72.5833 17.9771 72.9116 17.9973C72.9927 17.9973 73.0783 18.0032 73.1617 18.0069C73.2455 18.0124 73.3265 18.0179 73.3984 18.0179C73.6549 18.0179 74.0249 17.9927 74.2658 17.7779C74.4938 17.5792 74.4989 17.3447 74.4783 17.1579C74.4508 16.9701 74.3216 16.7883 74.1375 16.6834C73.9296 16.5717 73.7364 16.5396 73.5491 16.508C73.4777 16.4957 73.4048 16.4838 73.3302 16.4668L73.2972 16.4636C73.0508 16.4636 72.8063 16.4412 72.6644 16.4265C72.5654 16.4027 72.4912 16.4027 72.4061 16.4027H71.9394C71.2122 16.4027 70.4392 16.4192 69.6745 16.6097C69.2463 16.7159 68.8891 17.086 68.7178 17.5984C68.6436 17.8214 68.5937 18.0852 68.5699 18.376C68.5314 18.6695 68.5392 18.964 68.5466 19.2474C68.5507 19.426 68.5553 19.601 68.5475 19.7722Z" fill="#FBBF28"/>
<path d="M75.6167 27.4648C75.4368 27.3654 75.227 27.3494 75.0237 27.3338L74.9175 27.3256C74.7654 27.3045 74.6569 27.3045 74.4916 27.3045H74.2892C73.9833 27.3045 73.7342 27.2857 73.5267 27.1996C73.1732 27.0142 73.0999 26.6647 73.0999 26.1963V25.5483C73.0999 25.1476 73.0573 24.6498 72.7134 24.3521C72.5513 24.2367 72.4011 24.1832 72.2422 24.1832C71.9771 24.1832 71.7911 24.3517 71.6418 24.5188C71.4 24.8051 71.4023 25.2163 71.4037 25.4878V26.0145C71.4037 26.5649 71.3749 26.9404 70.9874 27.1438C70.8464 27.2317 70.5986 27.2431 70.3981 27.2431H69.6484C69.3256 27.2431 68.9565 27.261 68.6693 27.462C68.4592 27.5669 68.3438 27.7574 68.3438 27.9992C68.3438 28.2195 68.4546 28.4017 68.6327 28.4896C68.8626 28.6421 69.1717 28.7301 69.5541 28.753C69.8334 28.818 70.0239 28.8157 70.2882 28.818C70.6366 28.8381 70.7832 28.8381 71.0053 28.8381H74.0895L74.2672 28.829C74.5878 28.8143 74.8909 28.8015 75.1561 28.7149C75.3113 28.698 75.6067 28.6417 75.8402 28.4603C75.9831 28.3458 76.0587 28.2011 76.0577 28.0262C76.0339 27.7652 75.8517 27.5403 75.6167 27.4648Z" fill="#FBBF28"/>
<path d="M85.7614 20.2738C85.6927 19.8813 85.5494 19.5965 85.309 19.378C85.0626 19.1582 84.3088 18.8725 83.8816 18.7209C83.2134 18.4827 82.5087 18.3467 81.9472 18.3467C81.1142 18.3467 80.9214 18.7213 80.9068 19.0428C80.9068 19.0964 80.9173 19.1321 80.9297 19.1591C80.9741 19.52 81.3638 19.6404 81.5905 19.7087C81.8588 19.8131 82.1789 19.8566 82.4033 19.8808C82.7651 19.9037 83.0124 19.9491 83.2373 20.0352C83.5798 20.1497 83.7836 20.4372 83.7836 20.8059C83.7836 21.0912 83.7053 21.3092 83.539 21.4758C83.2318 21.8156 82.8764 21.9539 82.3122 21.9539C81.9358 21.9539 81.5502 21.9054 81.1435 21.8532L80.8212 21.8129C80.676 21.8037 80.5244 21.7808 80.3637 21.7557C80.1558 21.7241 79.9419 21.6906 79.7381 21.6906C79.2577 21.6906 78.8827 21.9214 78.6528 22.3606C78.3849 22.8955 78.2319 23.5329 78.2319 24.1095C78.2319 24.4163 78.2887 24.7336 78.4028 25.0524C78.6835 25.8212 79.3457 26.3506 80.3646 26.6231C81.0932 26.836 81.8662 26.8965 82.5485 26.9482L82.8796 26.9743H83.1951L83.2061 26.9725C83.6704 26.8983 83.8055 26.5993 83.7767 26.3474C83.7515 26.0163 83.4456 25.8661 83.262 25.7755L83.2143 25.7521C82.9803 25.666 82.7463 25.6243 82.5183 25.5831C82.3589 25.5538 82.2078 25.5268 82.0567 25.4828L82.02 25.4755C81.541 25.3798 81.046 25.2813 80.7589 24.9406C80.539 24.7016 80.3522 24.1722 80.3522 23.7852C80.3522 23.6479 80.3733 23.5412 80.415 23.4716C80.4832 23.3502 80.7048 23.2852 81.0547 23.2852C81.5635 23.2852 82.1757 23.3969 82.5416 23.4624L82.6872 23.4876C82.8127 23.4958 82.946 23.5128 83.0834 23.5311C83.4438 23.5783 83.8555 23.6318 84.2273 23.5251C84.6802 23.4267 85.0003 23.1991 85.2403 22.7975C85.3973 22.4851 85.4967 22.1454 85.5933 21.8152L85.6144 21.741C85.7129 21.4273 85.804 21.0793 85.804 20.6639C85.804 20.5655 85.7884 20.4592 85.7696 20.3356L85.7614 20.2738Z" fill="#FBBF28"/>
<path d="M89.9616 20.1766L89.9589 20.1171V19.9504C89.9617 19.5268 89.963 19.1912 89.8348 18.7708C89.7396 18.3197 89.2811 18.0839 88.8777 18.0839C88.6359 18.0839 88.4152 18.1805 88.2251 18.3715L88.2036 18.3985C87.9421 18.8193 87.9211 19.3876 87.9032 19.8456L87.8973 19.9756C87.8973 20.1611 87.8913 20.3218 87.8867 20.4697C87.8817 20.5966 87.8776 20.7143 87.8776 20.8265C87.8776 20.9515 87.873 21.0719 87.868 21.1965C87.8629 21.3348 87.8574 21.4777 87.8574 21.6379V24.1905C87.8574 24.4002 87.873 24.6475 87.8881 24.8847C87.9037 25.1206 87.9179 25.3427 87.9179 25.5277C87.9179 25.8464 87.9554 26.2187 88.02 26.5375C88.0497 26.8058 88.1084 27.0165 88.2004 27.1804C88.3337 27.4199 88.5265 27.5371 88.8374 27.5609H88.9927L89.0064 27.5582C89.4121 27.4826 89.6837 27.1135 89.7739 26.7715C89.8595 26.3204 89.8989 25.981 89.9589 25.1829C89.9589 24.898 89.9694 24.6091 89.9795 24.3219C89.9891 24.0366 89.9997 23.7536 89.9997 23.4807V21.4955C89.9997 21.0477 89.9804 20.6245 89.9616 20.1766Z" fill="#FBBF28"/>
</svg>
