<svg width="108" height="46" viewBox="0 0 108 46" fill="none" xmlns="http://www.w3.org/2000/svg">
<path d="M51.0845 13.768C51.1925 13.804 51.2705 13.882 51.3185 14.002C51.3785 14.122 51.3965 14.236 51.3725 14.344C51.5285 14.464 51.6005 14.59 51.5885 14.722C51.5885 14.938 51.4445 15.166 51.1565 15.406C51.1925 15.514 51.2105 15.622 51.2105 15.73C51.2105 15.898 51.1685 16.054 51.0845 16.198C51.0005 16.342 50.8985 16.444 50.7785 16.504C50.7425 16.936 50.6165 17.224 50.4005 17.368C50.3645 17.5 50.2445 17.62 50.0405 17.728C49.8365 17.824 49.6505 17.872 49.4825 17.872C49.3985 17.944 49.2485 18.016 49.0325 18.088C48.8165 18.148 48.6545 18.16 48.5465 18.124C48.4025 18.316 48.2045 18.412 47.9525 18.412C47.8565 18.412 47.7905 18.406 47.7545 18.394C47.6825 18.43 47.5865 18.448 47.4665 18.448C47.3345 18.448 47.1905 18.418 47.0345 18.358C46.8425 18.478 46.4525 18.538 45.8645 18.538C45.9125 18.706 45.9365 18.826 45.9365 18.898C45.9365 19.042 45.8885 19.168 45.7925 19.276C45.9245 19.444 45.9905 19.726 45.9905 20.122C45.9905 20.434 45.9605 20.668 45.9005 20.824C46.0445 21.016 46.1165 21.262 46.1165 21.562C46.1165 21.826 46.0565 22.078 45.9365 22.318C46.0085 22.414 46.0625 22.552 46.0985 22.732C46.1345 22.912 46.1525 23.098 46.1525 23.29C46.1525 23.578 46.1165 23.77 46.0445 23.866C46.0685 24.034 46.0805 24.16 46.0805 24.244C46.0805 24.748 45.8045 25 45.2525 25C45.0005 25 44.8085 24.874 44.6765 24.622C44.5565 24.358 44.4965 24.052 44.4965 23.704C44.4965 23.356 44.5445 23.086 44.6405 22.894C44.5205 22.678 44.4605 22.414 44.4605 22.102C44.4605 21.97 44.4725 21.808 44.4965 21.616C44.3885 21.472 44.3345 21.178 44.3345 20.734C44.3345 20.362 44.3705 20.122 44.4425 20.014C44.3825 19.858 44.3525 19.636 44.3525 19.348C44.3525 19.072 44.3825 18.874 44.4425 18.754C44.3825 18.61 44.3525 18.49 44.3525 18.394C44.3525 18.298 44.3705 18.208 44.4065 18.124C44.2985 17.956 44.2445 17.752 44.2445 17.512C44.2445 17.344 44.2685 17.218 44.3165 17.134C44.2685 17.026 44.2445 16.912 44.2445 16.792C44.2445 16.66 44.2685 16.552 44.3165 16.468C44.1965 16.288 44.1365 16.144 44.1365 16.036C44.1365 15.916 44.1845 15.79 44.2805 15.658C44.2085 15.514 44.1725 15.382 44.1725 15.262C44.1725 15.07 44.2445 14.914 44.3885 14.794C44.1965 14.614 44.1005 14.398 44.1005 14.146C44.1005 14.098 44.1125 14.002 44.1365 13.858C43.9925 13.762 43.9205 13.582 43.9205 13.318C43.9205 13.126 43.9625 12.946 44.0465 12.778C44.1305 12.61 44.2325 12.526 44.3525 12.526C44.3645 12.382 44.4365 12.274 44.5685 12.202C44.7125 12.118 44.8745 12.076 45.0545 12.076C45.2225 12.076 45.3725 12.112 45.5045 12.184C45.6485 12.244 45.7325 12.328 45.7565 12.436C45.9965 12.328 46.1825 12.274 46.3145 12.274C46.3865 12.274 46.4345 12.286 46.4585 12.31C46.4945 12.298 46.5785 12.274 46.7105 12.238C46.8425 12.19 46.9625 12.166 47.0705 12.166C47.2265 12.166 47.3825 12.214 47.5385 12.31C47.6105 12.25 47.7125 12.202 47.8445 12.166C47.9765 12.13 48.1145 12.112 48.2585 12.112C48.3905 12.112 48.4985 12.13 48.5825 12.166C48.6305 12.154 48.6965 12.148 48.7805 12.148C48.9605 12.148 49.1405 12.196 49.3205 12.292C49.5005 12.388 49.6385 12.496 49.7345 12.616C49.9505 12.604 50.1185 12.646 50.2385 12.742C50.3705 12.826 50.4785 12.988 50.5625 13.228C50.6945 13.264 50.8205 13.336 50.9405 13.444C51.0725 13.552 51.1205 13.66 51.0845 13.768ZM45.6845 17.134C45.7565 17.074 45.8765 17.044 46.0445 17.044C46.2485 17.044 46.3805 17.074 46.4405 17.134C46.5245 17.05 46.6865 17.008 46.9265 17.008C47.1665 17.008 47.3225 17.05 47.3945 17.134C47.4785 17.074 47.6045 17.044 47.7725 17.044C47.8805 17.044 47.9645 17.062 48.0245 17.098C48.1565 16.954 48.3005 16.882 48.4565 16.882C48.5405 16.882 48.6065 16.888 48.6545 16.9C48.6785 16.804 48.8105 16.696 49.0505 16.576C49.2905 16.444 49.4765 16.396 49.6085 16.432C49.6085 16.336 49.6445 16.21 49.7165 16.054C49.7885 15.898 49.8605 15.796 49.9325 15.748C49.8845 15.7 49.8605 15.604 49.8605 15.46C49.8605 15.292 49.8845 15.106 49.9325 14.902C49.9925 14.686 50.0525 14.548 50.1125 14.488C49.6325 14.224 49.3865 13.978 49.3745 13.75C49.1825 13.714 48.9605 13.618 48.7085 13.462C48.3725 13.63 48.0905 13.714 47.8625 13.714C47.7305 13.714 47.5445 13.684 47.3045 13.624C47.0645 13.78 46.8065 13.858 46.5305 13.858C46.3625 13.858 46.2245 13.822 46.1165 13.75C46.1045 13.786 46.0205 13.828 45.8645 13.876C45.7205 13.924 45.6185 13.942 45.5585 13.93C45.5705 14.05 45.6125 14.2 45.6845 14.38C45.7685 14.584 45.8105 14.764 45.8105 14.92C45.8105 15.076 45.7565 15.226 45.6485 15.37C45.6965 15.466 45.7205 15.628 45.7205 15.856C45.7205 16.048 45.6965 16.186 45.6485 16.27C45.7565 16.378 45.8105 16.534 45.8105 16.738C45.8105 16.87 45.7685 17.002 45.6845 17.134ZM59.5761 12.364C59.6961 12.28 59.8521 12.238 60.0441 12.238C60.3201 12.238 60.5961 12.328 60.8721 12.508C61.0041 12.508 61.1121 12.562 61.1961 12.67C61.2801 12.778 61.3221 12.91 61.3221 13.066C61.3221 13.27 61.2621 13.45 61.1421 13.606C61.0221 13.762 60.8541 13.84 60.6381 13.84C60.4821 13.84 60.3141 13.792 60.1341 13.696C60.0381 13.792 59.9121 13.84 59.7561 13.84C59.5881 13.84 59.4141 13.78 59.2341 13.66C59.1141 13.72 58.9341 13.75 58.6941 13.75C58.3461 13.75 58.0761 13.696 57.8841 13.588C57.7041 13.672 57.5181 13.714 57.3261 13.714C57.1701 13.714 57.0201 13.69 56.8761 13.642C56.7201 13.702 56.5701 13.732 56.4261 13.732C56.2341 13.732 56.0421 13.678 55.8501 13.57C55.6341 13.69 55.4421 13.762 55.2741 13.786C55.3581 13.99 55.4001 14.212 55.4001 14.452C55.4001 14.752 55.3341 14.992 55.2021 15.172C55.3461 15.4 55.4181 15.652 55.4181 15.928C55.4181 16.144 55.3641 16.36 55.2561 16.576C55.3641 16.696 55.4181 16.846 55.4181 17.026C55.4181 17.146 55.3761 17.29 55.2921 17.458C55.4001 17.398 55.5321 17.368 55.6881 17.368C55.8081 17.368 55.8921 17.38 55.9401 17.404C56.0721 17.308 56.2161 17.26 56.3721 17.26C56.5281 17.26 56.6841 17.326 56.8401 17.458C56.9841 17.422 57.1041 17.404 57.2001 17.404C57.2601 17.404 57.3621 17.416 57.5061 17.44C57.6501 17.416 57.7521 17.404 57.8121 17.404C58.0161 17.404 58.1661 17.452 58.2621 17.548C58.3581 17.488 58.4661 17.458 58.5861 17.458C58.7301 17.458 58.8201 17.488 58.8561 17.548C58.9641 17.512 59.0481 17.494 59.1081 17.494C59.1921 17.494 59.3061 17.518 59.4501 17.566C59.6061 17.482 59.7561 17.44 59.9001 17.44C60.1041 17.44 60.2781 17.518 60.4221 17.674C60.5661 17.818 60.6381 17.98 60.6381 18.16C60.6381 18.316 60.5841 18.448 60.4761 18.556C60.3681 18.664 60.2001 18.724 59.9721 18.736C59.8641 18.88 59.6841 18.952 59.4321 18.952C59.2041 18.952 59.0001 18.892 58.8201 18.772C58.7001 18.892 58.5261 18.952 58.2981 18.952C58.0941 18.952 57.9261 18.904 57.7941 18.808C57.6981 18.88 57.5961 18.916 57.4881 18.916C57.4161 18.916 57.3561 18.892 57.3081 18.844C57.1761 18.964 56.9961 19.024 56.7681 19.024C56.6001 19.024 56.4441 18.988 56.3001 18.916C56.1801 18.976 56.0781 19.006 55.9941 19.006C55.8741 19.006 55.7541 18.964 55.6341 18.88C55.5501 18.928 55.4841 18.958 55.4361 18.97C55.3881 18.982 55.3221 18.982 55.2381 18.97C55.3461 19.186 55.4001 19.354 55.4001 19.474C55.4001 19.582 55.3641 19.708 55.2921 19.852C55.3761 19.948 55.4181 20.068 55.4181 20.212C55.4181 20.32 55.3881 20.434 55.3281 20.554C55.4121 20.65 55.4541 20.776 55.4541 20.932C55.4541 21.076 55.4121 21.196 55.3281 21.292C55.4001 21.436 55.4361 21.55 55.4361 21.634C55.4361 21.706 55.3881 21.826 55.2921 21.994C55.3401 22.042 55.3641 22.108 55.3641 22.192C55.3641 22.3 55.3281 22.372 55.2561 22.408C55.3761 22.516 55.4361 22.654 55.4361 22.822C55.4361 22.882 55.4241 22.984 55.4001 23.128L55.5081 23.11C55.6401 23.11 55.7781 23.17 55.9221 23.29C56.1021 23.158 56.3361 23.092 56.6241 23.092C56.7321 23.092 56.8461 23.104 56.9661 23.128C57.0381 23.044 57.1401 22.978 57.2721 22.93C57.4041 22.882 57.5481 22.858 57.7041 22.858C57.9561 22.858 58.1481 22.912 58.2801 23.02C58.3521 22.9 58.4781 22.804 58.6581 22.732C58.8381 22.66 59.0181 22.624 59.1981 22.624C59.3301 22.624 59.4381 22.642 59.5221 22.678C59.6541 22.606 59.7741 22.57 59.8821 22.57C60.0741 22.57 60.2421 22.648 60.3861 22.804C60.5301 22.96 60.6021 23.14 60.6021 23.344C60.6021 23.596 60.4881 23.794 60.2601 23.938C60.2121 24.034 60.1161 24.118 59.9721 24.19C59.8281 24.25 59.6721 24.28 59.5041 24.28C59.3361 24.28 59.2041 24.25 59.1081 24.19C59.0121 24.286 58.8861 24.37 58.7301 24.442C58.5741 24.502 58.4181 24.532 58.2621 24.532C58.0221 24.532 57.8361 24.466 57.7041 24.334C57.5001 24.55 57.2361 24.658 56.9121 24.658C56.8521 24.658 56.7501 24.646 56.6061 24.622C56.3661 24.766 56.1321 24.838 55.9041 24.838C55.7241 24.838 55.5681 24.79 55.4361 24.694C55.3041 24.898 55.1121 25 54.8601 25C54.6441 25 54.4521 24.916 54.2841 24.748C54.1281 24.58 54.0741 24.382 54.1221 24.154C54.0501 24.082 53.9961 23.974 53.9601 23.83C53.9241 23.686 53.9061 23.542 53.9061 23.398C53.9061 23.29 53.9121 23.212 53.9241 23.164C53.7681 23.008 53.6901 22.744 53.6901 22.372C53.6901 22.216 53.7081 22.072 53.7441 21.94C53.7801 21.796 53.8221 21.694 53.8701 21.634C53.8101 21.514 53.7801 21.388 53.7801 21.256C53.7801 21.196 53.7921 21.118 53.8161 21.022C53.7081 20.914 53.6541 20.77 53.6541 20.59C53.6541 20.422 53.6961 20.29 53.7801 20.194C53.7201 20.074 53.6901 19.966 53.6901 19.87C53.6901 19.738 53.7321 19.612 53.8161 19.492C53.7201 19.276 53.6721 19.066 53.6721 18.862C53.6721 18.61 53.7501 18.37 53.9061 18.142C53.8341 17.986 53.7681 17.794 53.7081 17.566C53.6601 17.338 53.6361 17.122 53.6361 16.918C53.6361 16.534 53.7261 16.27 53.9061 16.126C53.8461 15.862 53.8161 15.724 53.8161 15.712C53.7441 15.424 53.7081 15.22 53.7081 15.1C53.7081 14.92 53.7501 14.704 53.8341 14.452C53.7741 14.368 53.7261 14.23 53.6901 14.038C53.6541 13.846 53.6421 13.708 53.6541 13.624C53.5101 13.48 53.4381 13.306 53.4381 13.102C53.4381 12.946 53.4861 12.802 53.5821 12.67C53.6901 12.526 53.8281 12.43 53.9961 12.382C54.0801 12.298 54.1941 12.232 54.3381 12.184C54.4821 12.124 54.6321 12.094 54.7881 12.094C54.9921 12.094 55.1661 12.148 55.3101 12.256C55.5141 12.196 55.7181 12.166 55.9221 12.166C56.2101 12.166 56.4441 12.232 56.6241 12.364C56.7321 12.316 56.8581 12.292 57.0021 12.292C57.1341 12.292 57.2361 12.322 57.3081 12.382C57.3801 12.322 57.5541 12.292 57.8301 12.292C58.1901 12.292 58.4721 12.352 58.6761 12.472C58.8081 12.34 58.9701 12.274 59.1621 12.274C59.2821 12.274 59.4201 12.304 59.5761 12.364ZM72.2577 23.056C72.2577 23.056 72.3597 23.098 72.5637 23.182C72.7797 23.266 72.8637 23.548 72.8157 24.028C72.8637 24.124 72.8877 24.232 72.8877 24.352C72.8877 24.544 72.8097 24.7 72.6537 24.82C72.4977 24.94 72.3177 25 72.1137 25C71.9337 25 71.7777 24.946 71.6457 24.838C71.5257 24.718 71.4657 24.55 71.4657 24.334C71.3337 24.31 71.1957 24.208 71.0517 24.028C70.9197 23.836 70.8537 23.644 70.8537 23.452C70.8537 23.404 70.8657 23.332 70.8897 23.236C70.7697 23.176 70.6617 23.056 70.5657 22.876C70.4817 22.684 70.4217 22.486 70.3857 22.282C70.3497 22.078 70.3377 21.934 70.3497 21.85C70.1937 21.778 70.0677 21.604 69.9717 21.328C69.8877 21.04 69.8577 20.794 69.8817 20.59C69.7977 20.626 69.6957 20.644 69.5757 20.644C69.3357 20.644 69.1137 20.572 68.9097 20.428C68.7537 20.584 68.5197 20.662 68.2077 20.662C67.9197 20.662 67.7157 20.59 67.5957 20.446C67.4397 20.578 67.2717 20.644 67.0917 20.644C66.9477 20.644 66.8337 20.614 66.7497 20.554C66.6657 20.614 66.5397 20.644 66.3717 20.644C66.2277 20.644 66.0837 20.62 65.9397 20.572C65.7957 20.524 65.6817 20.458 65.5977 20.374C65.5857 20.374 65.5557 20.386 65.5077 20.41C65.5797 20.638 65.6157 20.842 65.6157 21.022C65.6157 21.298 65.4777 21.538 65.2017 21.742C65.2497 21.838 65.2737 21.952 65.2737 22.084C65.2737 22.348 65.1837 22.6 65.0037 22.84C64.8237 23.08 64.6497 23.212 64.4817 23.236C64.5297 23.344 64.5537 23.47 64.5537 23.614C64.5537 23.938 64.4457 24.238 64.2297 24.514C64.0137 24.778 63.7497 24.91 63.4377 24.91C63.3537 24.91 63.2877 24.904 63.2397 24.892C63.0837 24.892 62.9637 24.844 62.8797 24.748C62.7957 24.652 62.7537 24.526 62.7537 24.37C62.7537 24.262 62.7837 24.136 62.8437 23.992C62.8317 23.944 62.8257 23.872 62.8257 23.776C62.8257 23.536 62.9457 23.326 63.1857 23.146C63.1737 23.11 63.1677 23.056 63.1677 22.984C63.1677 22.804 63.2097 22.624 63.2937 22.444C63.3897 22.252 63.5097 22.126 63.6537 22.066C63.6417 22.042 63.6357 21.988 63.6357 21.904C63.6357 21.7 63.6837 21.466 63.7797 21.202C63.8757 20.926 63.9837 20.77 64.1037 20.734C64.0797 20.206 64.2537 19.672 64.6257 19.132C64.6257 18.856 64.6677 18.598 64.7517 18.358C64.8357 18.106 64.9857 17.926 65.2017 17.818C65.2137 17.59 65.2677 17.362 65.3637 17.134C65.4597 16.906 65.5677 16.714 65.6877 16.558C65.6517 16.426 65.6337 16.306 65.6337 16.198C65.6337 16.03 65.6637 15.898 65.7237 15.802C65.7957 15.694 65.8737 15.628 65.9577 15.604C65.9457 15.556 65.9397 15.484 65.9397 15.388C65.9397 15.124 66.0357 14.914 66.2277 14.758L66.2097 14.65C66.2097 14.47 66.2817 14.308 66.4257 14.164C66.4137 14.116 66.4077 14.05 66.4077 13.966C66.4077 13.75 66.4617 13.534 66.5697 13.318C66.6777 13.102 66.7977 12.958 66.9297 12.886C67.1457 12.586 67.3737 12.436 67.6137 12.436C67.7217 12.436 67.8597 12.472 68.0277 12.544C68.3757 12.556 68.6277 12.826 68.7837 13.354C68.8917 13.486 68.9697 13.642 69.0177 13.822C69.0657 13.99 69.0837 14.146 69.0717 14.29C69.1797 14.362 69.2577 14.458 69.3057 14.578C69.3657 14.698 69.3897 14.824 69.3777 14.956C69.4977 15.064 69.5997 15.232 69.6837 15.46C69.7797 15.688 69.8277 15.904 69.8277 16.108C69.8277 16.204 69.8217 16.27 69.8097 16.306C69.8937 16.39 69.9657 16.51 70.0257 16.666C70.0977 16.822 70.1337 16.966 70.1337 17.098C70.1337 17.17 70.1277 17.224 70.1157 17.26C70.2717 17.368 70.3977 17.536 70.4937 17.764C70.6017 17.992 70.6737 18.22 70.7097 18.448C70.7577 18.664 70.7697 18.814 70.7457 18.898C70.7697 18.934 70.8357 19.024 70.9437 19.168C71.0517 19.3 71.1357 19.438 71.1957 19.582C71.2557 19.714 71.2857 19.84 71.2857 19.96C71.2857 20.068 71.2737 20.146 71.2497 20.194C71.2977 20.254 71.3517 20.326 71.4117 20.41C71.4717 20.482 71.5197 20.548 71.5557 20.608C71.5917 20.668 71.6097 20.74 71.6097 20.824C71.6097 20.908 71.6037 20.968 71.5917 21.004C71.6877 21.1 71.7717 21.226 71.8437 21.382C71.9157 21.538 71.9517 21.688 71.9517 21.832C71.9517 21.952 71.9277 22.042 71.8797 22.102C72.0117 22.198 72.1137 22.336 72.1857 22.516C72.2577 22.696 72.2817 22.876 72.2577 23.056ZM68.9457 19.15C68.9697 19.078 69.0237 19.036 69.1077 19.024C69.1917 19 69.2637 19.006 69.3237 19.042C69.2997 18.97 69.2877 18.916 69.2877 18.88C69.2877 18.784 69.3117 18.712 69.3597 18.664C69.2517 18.58 69.1617 18.472 69.0897 18.34C69.0297 18.208 69.0057 18.076 69.0177 17.944C68.9337 17.92 68.8557 17.86 68.7837 17.764C68.7237 17.656 68.6937 17.542 68.6937 17.422C68.6937 17.386 68.7057 17.32 68.7297 17.224C68.4777 17.068 68.3517 16.834 68.3517 16.522C68.3517 16.402 68.3697 16.264 68.4057 16.108C68.3937 16.096 68.3637 16.072 68.3157 16.036C68.2677 15.988 68.2497 15.916 68.2617 15.82C68.0217 15.748 67.9077 15.556 67.9197 15.244C67.8237 15.196 67.7457 15.106 67.6857 14.974C67.7097 15.25 67.6017 15.466 67.3617 15.622C67.3737 15.754 67.3497 15.904 67.2897 16.072C67.2297 16.24 67.1577 16.366 67.0737 16.45C67.0857 16.498 67.0917 16.576 67.0917 16.684C67.0917 16.96 66.9777 17.326 66.7497 17.782C66.6897 17.914 66.6417 18.034 66.6057 18.142C66.5577 18.262 66.5037 18.382 66.4437 18.502C66.3957 18.622 66.3297 18.712 66.2457 18.772C66.2457 18.892 66.2217 19 66.1737 19.096L66.3177 19.078C66.4377 19.078 66.5277 19.108 66.5877 19.168C66.6237 19.108 66.6957 19.078 66.8037 19.078C66.8757 19.078 66.9297 19.096 66.9657 19.132C67.1097 19.024 67.2897 18.97 67.5057 18.97C67.6617 18.97 67.8057 18.994 67.9377 19.042C68.0697 19.09 68.1777 19.156 68.2617 19.24C68.3817 19.108 68.5077 19.042 68.6397 19.042C68.7237 19.042 68.8257 19.078 68.9457 19.15ZM84.5231 23.002C84.5951 23.074 84.6311 23.164 84.6311 23.272C84.6311 23.356 84.6011 23.428 84.5411 23.488C84.6011 23.596 84.6311 23.704 84.6311 23.812C84.6311 23.908 84.6071 24.004 84.5591 24.1C84.5831 24.244 84.5951 24.334 84.5951 24.37C84.5951 24.538 84.4991 24.694 84.3071 24.838C84.1631 24.946 84.0011 25 83.8211 25C83.5931 25 83.3891 24.922 83.2091 24.766C83.0411 24.742 82.8971 24.652 82.7771 24.496C82.6691 24.328 82.6331 24.142 82.6691 23.938C82.6091 23.89 82.5371 23.842 82.4531 23.794C82.3691 23.734 82.2971 23.674 82.2371 23.614C82.1891 23.542 82.1531 23.458 82.1291 23.362C81.9851 23.314 81.8711 23.23 81.7871 23.11C81.7031 22.978 81.6611 22.834 81.6611 22.678C81.6611 22.618 81.6671 22.57 81.6791 22.534C81.5231 22.51 81.3911 22.438 81.2831 22.318C81.1871 22.186 81.1331 22.042 81.1211 21.886C80.8811 21.766 80.7071 21.664 80.5991 21.58C80.4911 21.496 80.4251 21.364 80.4011 21.184C80.2811 21.124 80.1611 21.004 80.0411 20.824C79.9211 20.644 79.8491 20.482 79.8251 20.338C79.6091 20.23 79.4831 20.05 79.4471 19.798C79.3391 19.75 79.2191 19.636 79.0871 19.456C78.9551 19.264 78.8831 19.096 78.8711 18.952C78.7031 18.892 78.5411 18.754 78.3851 18.538C78.2291 18.31 78.1391 18.082 78.1151 17.854C78.0191 17.806 77.9051 17.686 77.7731 17.494C77.6411 17.29 77.5571 17.122 77.5211 16.99C77.4251 16.894 77.3171 16.738 77.1971 16.522C77.0771 16.294 76.9991 16.096 76.9631 15.928C76.8671 15.856 76.7651 15.724 76.6571 15.532C76.5491 15.34 76.4771 15.172 76.4411 15.028C76.4651 15.1 76.4771 15.202 76.4771 15.334C76.4771 15.49 76.4591 15.586 76.4231 15.622C76.4951 15.91 76.5311 16.15 76.5311 16.342C76.5311 16.414 76.5191 16.498 76.4951 16.594C76.5431 16.702 76.5671 16.864 76.5671 17.08C76.5671 17.272 76.5491 17.422 76.5131 17.53C76.5851 17.614 76.6211 17.758 76.6211 17.962C76.6211 18.142 76.5911 18.292 76.5311 18.412C76.6031 18.532 76.6391 18.652 76.6391 18.772C76.6391 18.904 76.6031 19.042 76.5311 19.186C76.4711 19.33 76.4351 19.42 76.4231 19.456C76.5311 19.612 76.5851 19.876 76.5851 20.248C76.5851 20.464 76.5551 20.65 76.4951 20.806C76.5911 20.962 76.6391 21.118 76.6391 21.274C76.6391 21.442 76.5731 21.682 76.4411 21.994C76.5611 22.114 76.6211 22.282 76.6211 22.498C76.6211 22.738 76.5551 22.978 76.4231 23.218C76.4351 23.326 76.4531 23.476 76.4771 23.668C76.5131 23.86 76.5311 24.016 76.5311 24.136C76.5311 24.652 76.2911 24.91 75.8111 24.91C75.6191 24.91 75.4571 24.844 75.3251 24.712C75.2051 24.58 75.1331 24.418 75.1091 24.226C75.0371 24.058 75.0011 23.878 75.0011 23.686C75.0011 23.494 75.0311 23.32 75.0911 23.164C75.0311 22.948 75.0011 22.744 75.0011 22.552C75.0011 22.396 75.0191 22.264 75.0551 22.156C75.0191 22.024 75.0011 21.91 75.0011 21.814C75.0011 21.634 75.0371 21.454 75.1091 21.274C75.0131 21.118 74.9651 20.92 74.9651 20.68C74.9651 20.416 75.0251 20.212 75.1451 20.068C75.0491 19.84 75.0011 19.624 75.0011 19.42C75.0011 19.18 75.0551 18.964 75.1631 18.772C75.1151 18.652 75.0911 18.556 75.0911 18.484C75.0911 18.448 75.1031 18.382 75.1271 18.286C74.9711 18.13 74.8931 17.878 74.8931 17.53C74.8931 17.35 74.9111 17.176 74.9471 17.008C74.9951 16.84 75.0491 16.72 75.1091 16.648C74.9771 16.408 74.9111 16.102 74.9111 15.73C74.9111 15.49 74.9471 15.298 75.0191 15.154C74.9471 15.022 74.9111 14.854 74.9111 14.65C74.9111 14.398 74.9591 14.194 75.0551 14.038C75.0191 13.942 75.0011 13.804 75.0011 13.624C75.0011 13.456 75.0191 13.342 75.0551 13.282C75.0551 12.982 75.1511 12.748 75.3431 12.58C75.5351 12.412 75.7631 12.328 76.0271 12.328C76.2911 12.328 76.5131 12.418 76.6931 12.598C76.8851 12.778 76.9691 13.018 76.9451 13.318C77.2211 13.354 77.4791 13.522 77.7191 13.822C77.9591 14.122 78.0731 14.446 78.0611 14.794C78.2171 14.902 78.3671 15.064 78.5111 15.28C78.6671 15.496 78.7511 15.694 78.7631 15.874C78.9191 15.994 79.0871 16.21 79.2671 16.522C79.4471 16.834 79.5431 17.11 79.5551 17.35C79.6991 17.362 79.8491 17.5 80.0051 17.764C80.1731 18.028 80.2691 18.25 80.2931 18.43C80.4131 18.478 80.5331 18.598 80.6531 18.79C80.7731 18.982 80.8331 19.15 80.8331 19.294C80.9291 19.318 81.0131 19.414 81.0851 19.582C81.1691 19.75 81.1991 19.882 81.1751 19.978C81.4751 20.098 81.6551 20.308 81.7151 20.608C81.8471 20.596 81.9911 20.674 82.1471 20.842C82.3031 21.01 82.3991 21.178 82.4351 21.346C82.5551 21.394 82.6811 21.502 82.8131 21.67C82.9571 21.826 83.0471 21.976 83.0831 22.12C83.0471 21.94 83.0291 21.808 83.0291 21.724C83.0291 21.64 83.0591 21.568 83.1191 21.508C82.9991 21.376 82.9391 21.184 82.9391 20.932C82.9391 20.8 82.9571 20.692 82.9931 20.608C82.9091 20.464 82.8671 20.332 82.8671 20.212C82.8671 20.104 82.8971 19.99 82.9571 19.87C82.8371 19.762 82.7771 19.576 82.7771 19.312C82.7771 19.192 82.7951 19.096 82.8311 19.024C82.7351 18.832 82.6871 18.616 82.6871 18.376C82.6871 18.304 82.6991 18.196 82.7231 18.052C82.5911 17.896 82.5251 17.644 82.5251 17.296C82.5251 17.008 82.5731 16.798 82.6691 16.666C82.6091 16.582 82.5551 16.468 82.5071 16.324C82.4711 16.168 82.4531 16.024 82.4531 15.892C82.4531 15.664 82.5011 15.49 82.5971 15.37C82.4891 15.262 82.4351 15.112 82.4351 14.92C82.4351 14.788 82.4651 14.62 82.5251 14.416C82.4051 14.236 82.3451 14.02 82.3451 13.768C82.3451 13.576 82.3811 13.426 82.4531 13.318C82.3931 13.162 82.3631 13.024 82.3631 12.904C82.3631 12.664 82.4831 12.496 82.7231 12.4C82.8551 12.352 82.9751 12.328 83.0831 12.328C83.2871 12.328 83.4311 12.406 83.5151 12.562C83.6111 12.718 83.6591 12.904 83.6591 13.12C83.6591 13.24 83.6531 13.324 83.6411 13.372C83.7371 13.444 83.8151 13.576 83.8751 13.768C83.9351 13.96 83.9651 14.158 83.9651 14.362C83.9651 14.542 83.9411 14.674 83.8931 14.758C83.9771 14.95 84.0191 15.202 84.0191 15.514C84.0191 15.778 83.9891 15.964 83.9291 16.072C84.0011 16.216 84.0371 16.426 84.0371 16.702C84.0371 16.918 84.0131 17.074 83.9651 17.17C84.0251 17.266 84.0731 17.398 84.1091 17.566C84.1571 17.722 84.1811 17.872 84.1811 18.016C84.1811 18.22 84.1391 18.364 84.0551 18.448C84.1391 18.52 84.2051 18.64 84.2531 18.808C84.3011 18.976 84.3251 19.15 84.3251 19.33C84.3251 19.486 84.3071 19.618 84.2711 19.726C84.3671 19.882 84.4151 20.068 84.4151 20.284C84.4151 20.464 84.3851 20.59 84.3251 20.662C84.3611 20.734 84.3911 20.854 84.4151 21.022C84.4391 21.19 84.4391 21.31 84.4151 21.382C84.5351 21.466 84.5951 21.64 84.5951 21.904C84.5951 22.108 84.5531 22.27 84.4691 22.39C84.5291 22.546 84.5591 22.672 84.5591 22.768C84.5591 22.804 84.5471 22.882 84.5231 23.002ZM96.3092 15.892C96.3692 15.94 96.4172 16.018 96.4532 16.126C96.4892 16.222 96.5072 16.324 96.5072 16.432C96.5072 16.624 96.4652 16.75 96.3812 16.81C96.4892 16.93 96.5432 17.068 96.5432 17.224C96.5432 17.392 96.4712 17.53 96.3272 17.638C96.3992 17.686 96.4352 17.764 96.4352 17.872C96.4352 17.956 96.4112 18.046 96.3632 18.142C96.3152 18.226 96.2552 18.298 96.1832 18.358C96.2192 18.502 96.2372 18.616 96.2372 18.7C96.2372 18.832 96.2132 18.958 96.1652 19.078C96.1292 19.198 96.0752 19.282 96.0032 19.33C96.1112 19.414 96.1652 19.546 96.1652 19.726C96.1652 19.858 96.1292 19.996 96.0572 20.14C95.9972 20.272 95.9132 20.374 95.8052 20.446C95.8172 20.818 95.6972 21.16 95.4452 21.472C95.4212 21.652 95.3552 21.82 95.2472 21.976C95.1392 22.132 95.0132 22.228 94.8692 22.264C94.8812 22.312 94.8872 22.384 94.8872 22.48C94.8872 22.888 94.6112 23.188 94.0592 23.38L94.0772 23.452C94.0772 23.548 94.0412 23.638 93.9692 23.722C93.8972 23.806 93.8192 23.854 93.7352 23.866C93.6272 24.142 93.3392 24.334 92.8712 24.442C92.8112 24.574 92.7152 24.682 92.5832 24.766C92.4512 24.838 92.3012 24.868 92.1332 24.856C91.9532 24.952 91.7612 25 91.5572 25C91.3052 25 91.0712 24.916 90.8552 24.748C90.7352 24.82 90.5612 24.856 90.3332 24.856C90.0572 24.856 89.7872 24.796 89.5232 24.676C89.2712 24.556 89.1092 24.4 89.0372 24.208C88.7012 24.136 88.5212 23.932 88.4972 23.596C88.1852 23.344 88.0232 23.098 88.0112 22.858C87.8432 22.846 87.6932 22.732 87.5612 22.516C87.4292 22.288 87.3632 22.06 87.3632 21.832C87.3632 21.712 87.3812 21.616 87.4172 21.544C87.3332 21.484 87.2612 21.388 87.2012 21.256C87.1532 21.124 87.1292 20.98 87.1292 20.824C87.1292 20.668 87.1532 20.524 87.2012 20.392C87.0812 20.248 87.0212 20.098 87.0212 19.942C87.0212 19.906 87.0332 19.84 87.0572 19.744C86.9372 19.624 86.8772 19.426 86.8772 19.15C86.8772 18.958 86.9072 18.802 86.9672 18.682C86.8712 18.55 86.8232 18.382 86.8232 18.178C86.8232 17.986 86.8712 17.824 86.9672 17.692C86.8592 17.56 86.8052 17.386 86.8052 17.17C86.8052 16.966 86.8472 16.816 86.9312 16.72C86.8352 16.588 86.7872 16.414 86.7872 16.198C86.7872 15.946 86.8532 15.754 86.9852 15.622C86.8652 15.49 86.8052 15.25 86.8052 14.902C86.8052 14.626 86.8472 14.428 86.9312 14.308C86.8112 14.128 86.7512 13.96 86.7512 13.804C86.7512 13.636 86.8112 13.462 86.9312 13.282C86.8712 13.138 86.8412 13.018 86.8412 12.922C86.8412 12.67 86.9732 12.466 87.2372 12.31C87.3572 12.25 87.4712 12.22 87.5792 12.22C87.7832 12.22 87.9572 12.298 88.1012 12.454C88.2572 12.61 88.3352 12.796 88.3352 13.012C88.3352 13.084 88.3292 13.138 88.3172 13.174C88.4492 13.306 88.5152 13.468 88.5152 13.66C88.5152 13.84 88.4492 14.008 88.3172 14.164C88.3292 14.212 88.3532 14.296 88.3892 14.416C88.4252 14.536 88.4432 14.644 88.4432 14.74C88.4432 14.872 88.4072 14.986 88.3352 15.082C88.4072 15.226 88.4432 15.442 88.4432 15.73C88.4432 15.994 88.4072 16.18 88.3352 16.288C88.4072 16.408 88.4432 16.63 88.4432 16.954C88.4432 17.254 88.4072 17.458 88.3352 17.566C88.4192 17.818 88.4612 18.016 88.4612 18.16C88.4612 18.328 88.4192 18.472 88.3352 18.592C88.3952 18.7 88.4132 18.826 88.3892 18.97C88.4732 19.042 88.5392 19.138 88.5872 19.258C88.6472 19.366 88.6772 19.486 88.6772 19.618C88.6772 19.678 88.6532 19.78 88.6052 19.924C88.7012 20.164 88.7492 20.356 88.7492 20.5C88.7492 20.608 88.7252 20.704 88.6772 20.788C88.7372 20.824 88.7852 20.89 88.8212 20.986C88.8692 21.07 88.8932 21.16 88.8932 21.256C88.8932 21.34 88.8752 21.418 88.8392 21.49C88.9832 21.502 89.1032 21.592 89.1992 21.76C89.3072 21.916 89.3492 22.072 89.3252 22.228C89.5652 22.288 89.7332 22.54 89.8292 22.984C89.9372 23.008 90.0872 23.08 90.2792 23.2C90.4712 23.308 90.5972 23.404 90.6572 23.488C90.7892 23.356 90.9572 23.29 91.1612 23.29C91.3172 23.29 91.4672 23.326 91.6112 23.398C91.6592 23.254 91.8092 23.128 92.0612 23.02C92.3252 22.9 92.5292 22.852 92.6732 22.876C92.7092 22.72 92.7932 22.57 92.9252 22.426C93.0572 22.282 93.2132 22.168 93.3932 22.084C93.4052 21.844 93.4832 21.61 93.6272 21.382C93.7832 21.154 93.9512 20.992 94.1312 20.896C94.1192 20.86 94.1132 20.794 94.1132 20.698C94.1132 20.518 94.1552 20.326 94.2392 20.122C94.3232 19.906 94.4252 19.762 94.5452 19.69C94.4612 19.57 94.4192 19.42 94.4192 19.24C94.4192 19.072 94.4492 18.904 94.5092 18.736C94.5692 18.568 94.6352 18.448 94.7072 18.376C94.6592 18.28 94.6352 18.16 94.6352 18.016C94.6352 17.728 94.7192 17.518 94.8872 17.386C94.8152 17.254 94.7792 17.104 94.7792 16.936C94.7792 16.66 94.8392 16.444 94.9592 16.288C94.8872 16.144 94.8512 15.964 94.8512 15.748C94.8512 15.604 94.8752 15.508 94.9232 15.46C94.8392 15.328 94.7972 15.154 94.7972 14.938C94.7972 14.818 94.8152 14.722 94.8512 14.65C94.7912 14.602 94.7372 14.53 94.6892 14.434C94.6532 14.338 94.6352 14.236 94.6352 14.128C94.6352 13.96 94.6832 13.84 94.7792 13.768C94.5992 13.672 94.5092 13.492 94.5092 13.228C94.5092 13.06 94.5512 12.916 94.6352 12.796C94.6112 12.652 94.5992 12.562 94.5992 12.526C94.5992 12.334 94.6592 12.19 94.7792 12.094C94.8992 11.986 95.0432 11.932 95.2112 11.932C95.3912 11.932 95.5532 11.998 95.6972 12.13C95.8532 12.25 95.9312 12.418 95.9312 12.634C95.9312 12.754 95.9072 12.88 95.8592 13.012C96.0392 13.108 96.1292 13.3 96.1292 13.588C96.1292 13.732 96.1172 13.84 96.0932 13.912C96.2132 14.044 96.2732 14.242 96.2732 14.506C96.2732 14.686 96.2432 14.824 96.1832 14.92C96.3152 15.088 96.3812 15.292 96.3812 15.532C96.3812 15.676 96.3572 15.796 96.3092 15.892ZM105.149 12.436C105.317 12.328 105.509 12.274 105.725 12.274C105.893 12.274 106.031 12.31 106.139 12.382C106.379 12.334 106.577 12.394 106.733 12.562C106.901 12.718 106.985 12.904 106.985 13.12C106.985 13.3 106.919 13.45 106.787 13.57C106.667 13.69 106.487 13.75 106.247 13.75C106.091 13.75 105.971 13.738 105.887 13.714C105.755 13.822 105.569 13.876 105.329 13.876C105.065 13.876 104.825 13.822 104.609 13.714C104.537 13.762 104.405 13.804 104.213 13.84C104.021 13.876 103.835 13.894 103.655 13.894C103.535 13.894 103.427 13.882 103.331 13.858C103.427 14.014 103.475 14.212 103.475 14.452C103.475 14.704 103.421 14.878 103.313 14.974C103.493 15.19 103.583 15.472 103.583 15.82C103.583 16.048 103.535 16.258 103.439 16.45C103.559 16.774 103.619 17.092 103.619 17.404C103.619 17.608 103.595 17.788 103.547 17.944C103.607 18.016 103.655 18.13 103.691 18.286C103.739 18.442 103.763 18.598 103.763 18.754C103.763 18.934 103.727 19.09 103.655 19.222C103.835 19.39 103.925 19.654 103.925 20.014C103.925 20.254 103.895 20.446 103.835 20.59C103.943 20.758 103.997 20.974 103.997 21.238C103.997 21.394 103.967 21.532 103.907 21.652C103.967 21.76 103.997 21.91 103.997 22.102C103.997 22.282 103.973 22.42 103.925 22.516C104.045 22.636 104.105 22.828 104.105 23.092C104.105 23.2 104.087 23.302 104.051 23.398C104.207 23.578 104.273 23.758 104.249 23.938C104.309 24.082 104.339 24.202 104.339 24.298C104.339 24.502 104.261 24.67 104.105 24.802C103.949 24.934 103.769 25 103.565 25C103.409 25 103.271 24.958 103.151 24.874C103.043 24.778 102.971 24.634 102.935 24.442C102.851 24.358 102.785 24.238 102.737 24.082C102.689 23.926 102.665 23.776 102.665 23.632C102.665 23.548 102.677 23.458 102.701 23.362C102.569 23.23 102.503 22.996 102.503 22.66C102.503 22.504 102.515 22.396 102.539 22.336C102.431 22.168 102.377 22.024 102.377 21.904C102.377 21.736 102.443 21.586 102.575 21.454C102.407 21.334 102.323 21.148 102.323 20.896C102.323 20.692 102.371 20.536 102.467 20.428C102.299 20.332 102.215 20.08 102.215 19.672C102.215 19.444 102.239 19.264 102.287 19.132C102.227 19.06 102.173 18.952 102.125 18.808C102.089 18.652 102.071 18.496 102.071 18.34C102.071 18.172 102.095 18.046 102.143 17.962C102.035 17.746 101.981 17.488 101.981 17.188C101.981 17.008 102.005 16.75 102.053 16.414C101.969 16.186 101.927 15.94 101.927 15.676C101.927 15.436 101.963 15.238 102.035 15.082C101.891 14.938 101.819 14.674 101.819 14.29C101.819 14.11 101.837 13.948 101.873 13.804C101.741 13.876 101.609 13.912 101.477 13.912C101.345 13.912 101.219 13.882 101.099 13.822C101.015 13.87 100.901 13.894 100.757 13.894C100.517 13.894 100.349 13.84 100.253 13.732C100.193 13.792 100.103 13.84 99.9832 13.876C99.8632 13.912 99.7372 13.93 99.6052 13.93C99.3052 13.93 99.1012 13.858 98.9932 13.714C98.9212 13.726 98.8252 13.732 98.7052 13.732C98.4052 13.732 98.1832 13.678 98.0392 13.57C97.8952 13.462 97.8232 13.318 97.8232 13.138C97.8232 12.934 97.9192 12.742 98.1112 12.562C98.3032 12.37 98.5312 12.274 98.7952 12.274C98.9152 12.274 99.0532 12.304 99.2092 12.364C99.3052 12.256 99.4912 12.202 99.7672 12.202C99.9952 12.202 100.169 12.244 100.289 12.328C100.385 12.244 100.553 12.202 100.793 12.202C100.949 12.202 101.099 12.22 101.243 12.256C101.399 12.292 101.513 12.34 101.585 12.4C101.669 12.28 101.891 12.22 102.251 12.22C102.575 12.22 102.779 12.274 102.863 12.382C102.959 12.286 103.127 12.238 103.367 12.238C103.595 12.238 103.739 12.292 103.799 12.4C103.943 12.292 104.153 12.238 104.429 12.238C104.741 12.238 104.981 12.304 105.149 12.436ZM50.7971 39.876C50.8331 39.996 50.8511 40.116 50.8511 40.236C50.8511 40.476 50.7551 40.638 50.5631 40.722C50.5871 40.902 50.5151 41.082 50.3471 41.262C50.1791 41.442 50.0231 41.532 49.8791 41.532C49.8191 41.64 49.6391 41.742 49.3391 41.838C49.0391 41.934 48.7631 41.982 48.5111 41.982C48.3311 41.982 48.1931 41.946 48.0971 41.874C47.9291 41.958 47.6891 42 47.3771 42C47.1011 42 46.8491 41.958 46.6211 41.874C46.4051 41.79 46.2731 41.664 46.2251 41.496C45.9851 41.532 45.7151 41.46 45.4151 41.28C45.1271 41.1 44.9411 40.914 44.8571 40.722C44.6411 40.662 44.4611 40.548 44.3171 40.38C44.1851 40.212 44.1131 40.014 44.1011 39.786C44.0291 39.678 43.9931 39.57 43.9931 39.462C43.9931 39.294 44.0471 39.144 44.1551 39.012C44.2751 38.88 44.4131 38.814 44.5691 38.814C44.7251 38.814 44.8751 38.91 45.0191 39.102C45.2351 39.078 45.4271 39.15 45.5951 39.318C45.7751 39.486 45.8651 39.654 45.8651 39.822C45.9011 39.822 45.9911 39.834 46.1351 39.858C46.2911 39.87 46.4291 39.912 46.5491 39.984C46.6691 40.056 46.7531 40.158 46.8011 40.29C47.0171 40.29 47.2271 40.32 47.4311 40.38C47.6471 40.428 47.7731 40.488 47.8091 40.56C47.9051 40.5 48.0431 40.452 48.2231 40.416C48.4151 40.368 48.5771 40.344 48.7091 40.344C48.7451 40.296 48.8351 40.248 48.9791 40.2C49.1231 40.152 49.2431 40.122 49.3391 40.11C49.2791 40.026 49.2491 39.9 49.2491 39.732C49.2491 39.48 49.3271 39.3 49.4831 39.192C49.3391 39.144 49.2251 39.072 49.1411 38.976C49.0571 38.868 49.0211 38.748 49.0331 38.616C48.9371 38.64 48.8651 38.652 48.8171 38.652C48.5891 38.652 48.4031 38.562 48.2591 38.382C48.0191 38.406 47.7791 38.352 47.5391 38.22C47.3111 38.088 47.1431 37.914 47.0351 37.698C46.9511 37.734 46.8611 37.752 46.7651 37.752C46.5611 37.752 46.3451 37.692 46.1171 37.572C45.9011 37.44 45.7631 37.314 45.7031 37.194C45.5351 37.242 45.3371 37.188 45.1091 37.032C44.8811 36.876 44.7671 36.702 44.7671 36.51C44.6231 36.438 44.5091 36.318 44.4251 36.15C44.3411 35.97 44.2991 35.808 44.2991 35.664C44.2991 35.556 44.3231 35.484 44.3711 35.448C44.3111 35.328 44.2811 35.208 44.2811 35.088C44.2811 34.872 44.3531 34.686 44.4971 34.53C44.4611 34.398 44.4431 34.278 44.4431 34.17C44.4431 33.966 44.4851 33.798 44.5691 33.666C44.6651 33.522 44.7791 33.462 44.9111 33.486C44.8871 33.294 44.9291 33.126 45.0371 32.982C45.1571 32.838 45.3011 32.736 45.4691 32.676C45.6491 32.604 45.8051 32.58 45.9371 32.604C46.0091 32.496 46.1051 32.412 46.2251 32.352C46.3451 32.292 46.4651 32.262 46.5851 32.262C46.7891 32.262 46.9331 32.322 47.0171 32.442C47.0291 32.382 47.0711 32.334 47.1431 32.298C47.2271 32.262 47.3231 32.244 47.4311 32.244C47.5271 32.244 47.6231 32.262 47.7191 32.298C47.8151 32.334 47.8871 32.376 47.9351 32.424C48.0071 32.352 48.1331 32.316 48.3131 32.316C48.4571 32.316 48.6011 32.346 48.7451 32.406C48.8891 32.454 48.9851 32.526 49.0331 32.622C49.1051 32.586 49.1831 32.568 49.2671 32.568C49.4111 32.568 49.5431 32.622 49.6631 32.73C49.7951 32.826 49.8851 32.952 49.9331 33.108C50.1131 33.084 50.2991 33.144 50.4911 33.288C50.6831 33.432 50.7551 33.576 50.7071 33.72C51.0311 33.9 51.1931 34.146 51.1931 34.458C51.1931 34.65 51.1271 34.818 50.9951 34.962C50.8631 35.106 50.6951 35.178 50.4911 35.178C50.3111 35.166 50.1611 35.118 50.0411 35.034C49.9211 34.95 49.8491 34.848 49.8251 34.728C49.6691 34.704 49.5191 34.644 49.3751 34.548C49.2431 34.44 49.1711 34.302 49.1591 34.134C48.9311 34.158 48.7571 34.134 48.6371 34.062C48.5291 33.99 48.4331 33.876 48.3491 33.72C48.2651 33.78 48.1571 33.81 48.0251 33.81C47.8931 33.81 47.7491 33.774 47.5931 33.702C47.5091 33.774 47.4011 33.834 47.2691 33.882C47.1491 33.93 47.0291 33.954 46.9091 33.954C46.7771 33.954 46.6631 33.924 46.5671 33.864C46.5911 34.008 46.5551 34.122 46.4591 34.206C46.3631 34.29 46.2311 34.32 46.0631 34.296C46.0991 34.38 46.1171 34.47 46.1171 34.566C46.1171 34.782 46.0211 34.962 45.8291 35.106C45.9611 35.166 46.0571 35.268 46.1171 35.412C46.1771 35.544 46.2011 35.676 46.1891 35.808L46.3331 35.79C46.6931 35.79 46.9211 35.904 47.0171 36.132L47.1611 36.114C47.3531 36.114 47.5331 36.162 47.7011 36.258C47.8811 36.354 48.0131 36.516 48.0971 36.744C48.2891 36.732 48.4751 36.756 48.6551 36.816C48.8351 36.864 48.9611 36.96 49.0331 37.104C49.1291 37.068 49.2191 37.05 49.3031 37.05C49.5071 37.05 49.6871 37.11 49.8431 37.23C50.0111 37.35 50.1011 37.488 50.1131 37.644C50.2211 37.644 50.3171 37.704 50.4011 37.824C50.4971 37.944 50.5331 38.082 50.5091 38.238C50.5931 38.226 50.6711 38.274 50.7431 38.382C50.8151 38.478 50.8511 38.592 50.8511 38.724C50.8511 38.796 50.8331 38.862 50.7971 38.922C50.9651 39.042 51.0491 39.204 51.0491 39.408C51.0491 39.516 51.0251 39.612 50.9771 39.696C50.9411 39.78 50.8811 39.84 50.7971 39.876ZM63.6239 40.452C63.6359 40.392 63.6659 40.35 63.7139 40.326C63.7739 40.302 63.8399 40.284 63.9119 40.272C63.9599 40.26 64.0199 40.254 64.0919 40.254C64.2959 40.254 64.4579 40.332 64.5779 40.488C64.7099 40.632 64.7759 40.806 64.7759 41.01C64.7759 41.166 64.7339 41.304 64.6499 41.424C64.5659 41.532 64.4399 41.61 64.2719 41.658C64.0199 41.874 63.7199 41.964 63.3719 41.928C63.2759 42.012 63.1499 42.054 62.9939 42.054C62.7779 42.054 62.5799 41.976 62.3999 41.82C62.2799 41.796 62.1359 41.736 61.9679 41.64C61.7999 41.532 61.7159 41.436 61.7159 41.352C61.5479 41.328 61.3739 41.232 61.1939 41.064C61.0259 40.896 60.9659 40.692 61.0139 40.452C60.8819 40.308 60.8039 40.158 60.7799 40.002C60.6359 39.93 60.5279 39.822 60.4559 39.678C60.3959 39.534 60.3779 39.384 60.4019 39.228C60.2459 39.084 60.1679 38.868 60.1679 38.58C60.1679 38.472 60.1799 38.334 60.2039 38.166C60.0359 38.034 59.9519 37.854 59.9519 37.626C59.9519 37.422 60.0179 37.254 60.1499 37.122C60.0059 36.978 59.9339 36.792 59.9339 36.564C59.9339 36.48 59.9579 36.378 60.0059 36.258C59.9339 36.114 59.8979 35.97 59.8979 35.826C59.8979 35.634 59.9519 35.484 60.0599 35.376C59.9879 35.232 59.9519 35.076 59.9519 34.908C59.9519 34.764 59.9699 34.638 60.0059 34.53C60.0539 34.41 60.1079 34.32 60.1679 34.26C60.0359 34.104 59.9699 33.936 59.9699 33.756C59.9699 33.66 59.9879 33.558 60.0239 33.45C59.9159 33.486 59.7959 33.504 59.6639 33.504C59.4599 33.504 59.3099 33.462 59.2139 33.378C59.0699 33.414 58.9439 33.432 58.8359 33.432C58.6199 33.432 58.3979 33.366 58.1699 33.234C58.0499 33.306 57.9239 33.342 57.7919 33.342C57.5999 33.342 57.4439 33.264 57.3239 33.108C57.1919 32.94 57.1259 32.754 57.1259 32.55C57.1259 32.37 57.1859 32.22 57.3059 32.1C57.4139 31.968 57.5759 31.896 57.7919 31.884C57.9359 31.824 58.0679 31.794 58.1879 31.794C58.4279 31.794 58.6379 31.854 58.8179 31.974C58.9739 31.914 59.1479 31.884 59.3399 31.884C59.5079 31.884 59.6399 31.914 59.7359 31.974C59.7479 31.926 59.7959 31.884 59.8799 31.848C59.9759 31.8 60.0539 31.782 60.1139 31.794C60.0659 31.686 60.0419 31.542 60.0419 31.362C60.0419 31.146 60.0899 31.032 60.1859 31.02C60.1019 30.9 60.0599 30.726 60.0599 30.498C60.0599 30.186 60.1379 29.97 60.2939 29.85C60.2819 29.61 60.3299 29.43 60.4379 29.31C60.5459 29.19 60.6839 29.13 60.8519 29.13C61.0199 29.13 61.1759 29.19 61.3199 29.31C61.4639 29.418 61.5359 29.562 61.5359 29.742C61.5359 29.862 61.4879 30 61.3919 30.156C61.5119 30.264 61.5719 30.444 61.5719 30.696C61.5719 30.804 61.5539 30.918 61.5179 31.038C61.4939 31.146 61.4579 31.23 61.4099 31.29C61.4819 31.338 61.5179 31.434 61.5179 31.578C61.5179 31.698 61.4879 31.86 61.4279 32.064C61.5359 32.028 61.6499 32.01 61.7699 32.01C61.9499 32.01 62.0879 32.052 62.1839 32.136C62.3039 32.076 62.3999 32.046 62.4719 32.046C62.5919 32.046 62.6879 32.094 62.7599 32.19C62.8439 32.13 62.9459 32.1 63.0659 32.1C63.2339 32.1 63.3659 32.166 63.4619 32.298C63.6899 32.298 63.8579 32.352 63.9659 32.46C64.0859 32.556 64.1459 32.682 64.1459 32.838C64.1459 33.03 64.0679 33.216 63.9119 33.396C63.7679 33.564 63.5999 33.648 63.4079 33.648C63.2999 33.648 63.1919 33.612 63.0839 33.54C62.9639 33.636 62.8079 33.684 62.6159 33.684C62.4359 33.684 62.2859 33.642 62.1659 33.558C62.0099 33.618 61.8959 33.648 61.8239 33.648C61.7279 33.648 61.6139 33.606 61.4819 33.522C61.5899 33.666 61.6439 33.822 61.6439 33.99C61.6439 34.17 61.5719 34.332 61.4279 34.476C61.5359 34.62 61.5899 34.8 61.5899 35.016C61.5899 35.208 61.5359 35.388 61.4279 35.556C61.5719 35.652 61.6439 35.808 61.6439 36.024C61.6439 36.204 61.5899 36.36 61.4819 36.492C61.6019 36.624 61.6619 36.858 61.6619 37.194C61.6619 37.338 61.6439 37.458 61.6079 37.554C61.6919 37.674 61.7339 37.8 61.7339 37.932C61.7339 38.004 61.7159 38.1 61.6799 38.22C61.6559 38.328 61.6379 38.418 61.6259 38.49C61.7699 38.658 61.8419 38.82 61.8419 38.976C62.0459 39.132 62.1479 39.318 62.1479 39.534C62.3879 39.666 62.5079 39.888 62.5079 40.2C62.5319 40.236 62.5559 40.26 62.5799 40.272C62.6039 40.284 62.6219 40.296 62.6339 40.308L62.7599 40.29C62.9399 40.29 63.0839 40.344 63.1919 40.452C63.2879 40.428 63.3659 40.416 63.4259 40.416C63.4619 40.416 63.5279 40.428 63.6239 40.452ZM76.5237 41.784C76.3797 41.928 76.1577 42 75.8577 42C75.6297 42 75.4437 41.964 75.2997 41.892C75.0837 41.94 74.8917 41.964 74.7237 41.964C74.2557 41.964 73.9197 41.844 73.7157 41.604C73.6677 41.616 73.6017 41.622 73.5177 41.622C73.2417 41.622 73.0317 41.496 72.8877 41.244C72.7677 41.256 72.6117 41.196 72.4197 41.064C72.2397 40.92 72.1617 40.782 72.1857 40.65C71.9937 40.602 71.8317 40.488 71.6997 40.308C71.5797 40.116 71.5257 39.9 71.5377 39.66C71.4057 39.612 71.3037 39.516 71.2317 39.372C71.1597 39.228 71.1237 39.066 71.1237 38.886C71.1237 38.694 71.1537 38.556 71.2137 38.472C71.0817 38.268 71.0157 38.034 71.0157 37.77C71.0157 37.494 71.0997 37.272 71.2677 37.104C71.1357 37.008 71.0697 36.864 71.0697 36.672C71.0697 36.552 71.0997 36.432 71.1597 36.312C71.2197 36.192 71.2977 36.108 71.3937 36.06C71.3697 35.892 71.3877 35.736 71.4477 35.592C71.5197 35.436 71.6157 35.322 71.7357 35.25C71.7117 35.214 71.6997 35.16 71.6997 35.088C71.6997 34.98 71.7357 34.872 71.8077 34.764C71.8917 34.656 71.9817 34.59 72.0777 34.566C72.0657 34.53 72.0597 34.482 72.0597 34.422C72.0597 34.17 72.1557 33.954 72.3477 33.774C72.5397 33.582 72.7257 33.498 72.9057 33.522C72.9057 33.354 72.9777 33.216 73.1217 33.108C73.2777 32.988 73.4757 32.928 73.7157 32.928C73.8237 32.928 73.9077 32.934 73.9677 32.946C74.0517 32.766 74.1957 32.622 74.3997 32.514C74.6037 32.394 74.8137 32.334 75.0297 32.334C75.1737 32.334 75.2937 32.364 75.3897 32.424C75.5577 32.28 75.7677 32.208 76.0197 32.208C76.2237 32.208 76.4037 32.256 76.5597 32.352C76.7277 32.448 76.8297 32.58 76.8657 32.748C77.0577 32.748 77.2617 32.82 77.4777 32.964C77.6937 33.096 77.8197 33.234 77.8557 33.378C78.1437 33.462 78.4197 33.648 78.6837 33.936C78.9597 34.212 79.0977 34.494 79.0977 34.782C79.0977 34.83 79.0857 34.902 79.0617 34.998C79.5777 35.106 79.8117 35.628 79.7637 36.564C79.8717 36.744 79.9257 36.936 79.9257 37.14C79.9257 37.38 79.8477 37.62 79.6917 37.86C79.7277 37.968 79.7457 38.07 79.7457 38.166C79.7457 38.31 79.7157 38.448 79.6557 38.58C79.5957 38.712 79.5177 38.814 79.4217 38.886C79.4337 39.078 79.3977 39.234 79.3137 39.354C79.2417 39.474 79.1037 39.636 78.8997 39.84C78.9117 39.888 78.9177 39.96 78.9177 40.056C78.9177 40.416 78.7137 40.65 78.3057 40.758C78.2697 40.95 78.1677 41.106 77.9997 41.226C77.8437 41.346 77.6517 41.406 77.4237 41.406C77.2317 41.67 76.9977 41.802 76.7217 41.802C76.6377 41.802 76.5717 41.796 76.5237 41.784ZM74.8317 40.524C74.9277 40.44 75.0897 40.398 75.3177 40.398C75.4857 40.398 75.5757 40.422 75.5877 40.47C75.6837 40.362 75.8037 40.278 75.9477 40.218C76.0917 40.158 76.2237 40.134 76.3437 40.146C76.5477 39.942 76.7697 39.84 77.0097 39.84C77.0937 39.84 77.1537 39.846 77.1897 39.858C77.1777 39.75 77.2077 39.648 77.2797 39.552C77.3517 39.444 77.4357 39.372 77.5317 39.336C77.5317 39.18 77.5677 39.048 77.6397 38.94C77.7237 38.82 77.8257 38.73 77.9457 38.67C77.9457 38.43 77.9937 38.238 78.0897 38.094C78.0537 37.998 78.0357 37.902 78.0357 37.806C78.0357 37.674 78.0657 37.548 78.1257 37.428C78.1857 37.296 78.2697 37.188 78.3777 37.104C78.2577 36.996 78.1977 36.864 78.1977 36.708C78.1977 36.564 78.2397 36.42 78.3237 36.276C78.0837 36.132 77.9217 35.994 77.8377 35.862C77.7657 35.718 77.7297 35.46 77.7297 35.088C77.6217 35.1 77.5077 35.04 77.3877 34.908C77.2797 34.776 77.2137 34.626 77.1897 34.458C77.0577 34.494 76.8957 34.458 76.7037 34.35C76.5237 34.23 76.4337 34.08 76.4337 33.9C76.3377 33.948 76.2237 33.972 76.0917 33.972C75.8397 33.972 75.6357 33.882 75.4797 33.702C75.3477 33.834 75.1737 33.942 74.9577 34.026C74.7537 34.098 74.5737 34.122 74.4177 34.098C74.4057 34.218 74.2977 34.362 74.0937 34.53C73.9017 34.686 73.7277 34.788 73.5717 34.836C73.6077 34.908 73.6257 34.992 73.6257 35.088C73.6257 35.208 73.5957 35.328 73.5357 35.448C73.4757 35.568 73.3917 35.67 73.2837 35.754C73.2957 35.922 73.2537 36.084 73.1577 36.24C73.0737 36.396 72.9537 36.504 72.7977 36.564C72.8217 36.66 72.8337 36.738 72.8337 36.798C72.8337 36.966 72.7917 37.098 72.7077 37.194C72.7437 37.278 72.7617 37.362 72.7617 37.446C72.7617 37.578 72.6957 37.722 72.5637 37.878C72.8637 38.082 73.0137 38.376 73.0137 38.76C73.0137 38.964 72.9777 39.138 72.9057 39.282C73.0257 39.294 73.1097 39.33 73.1577 39.39C73.2057 39.45 73.2477 39.546 73.2837 39.678C73.5837 39.714 73.8057 39.858 73.9497 40.11C74.0817 40.11 74.2437 40.152 74.4357 40.236C74.6397 40.32 74.7717 40.416 74.8317 40.524ZM88.8616 41.154C88.9096 41.418 88.8556 41.628 88.6996 41.784C88.5556 41.928 88.3756 42 88.1596 42C87.9676 42 87.7996 41.94 87.6556 41.82C87.5116 41.688 87.4396 41.508 87.4396 41.28C87.4396 41.136 87.4756 40.974 87.5476 40.794C87.4756 40.626 87.4396 40.452 87.4396 40.272C87.4396 40.128 87.4696 40.008 87.5296 39.912C87.4576 39.864 87.4036 39.792 87.3676 39.696C87.3316 39.6 87.3136 39.492 87.3136 39.372C87.3136 39.252 87.3376 39.12 87.3856 38.976C87.2776 38.844 87.2236 38.688 87.2236 38.508C87.2236 38.28 87.3076 38.094 87.4756 37.95C87.4636 37.914 87.4576 37.854 87.4576 37.77C87.4576 37.65 87.4696 37.566 87.4936 37.518C87.3616 37.35 87.2956 37.11 87.2956 36.798C87.2956 36.582 87.3376 36.414 87.4216 36.294C87.3376 36.222 87.2656 36.126 87.2056 36.006C87.1456 35.874 87.1156 35.742 87.1156 35.61C87.1156 35.466 87.1576 35.328 87.2416 35.196C87.1816 35.052 87.1516 34.926 87.1516 34.818C87.1516 34.638 87.2056 34.47 87.3136 34.314C87.1696 34.17 87.0976 34.02 87.0976 33.864C87.0976 33.744 87.1396 33.582 87.2236 33.378C87.1396 33.21 87.0976 33.03 87.0976 32.838C87.0976 32.586 87.1876 32.43 87.3676 32.37C87.3796 32.202 87.4396 32.064 87.5476 31.956C87.6556 31.848 87.7876 31.794 87.9436 31.794C88.1236 31.794 88.2796 31.884 88.4116 32.064C88.5556 32.232 88.6276 32.478 88.6276 32.802C88.6276 32.934 88.6216 33.042 88.6096 33.126C88.6576 33.102 88.7056 33.066 88.7536 33.018C88.8016 32.958 88.8616 32.916 88.9336 32.892C89.0056 32.868 89.1136 32.856 89.2576 32.856C89.2816 32.796 89.3596 32.736 89.4916 32.676C89.6356 32.616 89.7736 32.586 89.9056 32.586C90.0016 32.586 90.0676 32.598 90.1036 32.622C90.1996 32.574 90.2956 32.55 90.3916 32.55C90.5356 32.55 90.6916 32.652 90.8596 32.856C91.1476 32.832 91.3576 32.898 91.4896 33.054C91.6816 33.042 91.8496 33.066 91.9936 33.126C92.1376 33.186 92.2516 33.312 92.3356 33.504C92.5636 33.648 92.6776 33.84 92.6776 34.08C92.6776 34.284 92.5876 34.476 92.4076 34.656C92.2396 34.824 92.0536 34.908 91.8496 34.908C91.6216 34.908 91.4296 34.788 91.2736 34.548C91.1416 34.548 91.0396 34.536 90.9676 34.512C90.8956 34.488 90.8236 34.434 90.7516 34.35C90.6796 34.374 90.6196 34.386 90.5716 34.386C90.4636 34.386 90.3496 34.356 90.2296 34.296C90.0616 34.404 89.8816 34.452 89.6896 34.44C89.6176 34.608 89.4316 34.692 89.1316 34.692C89.1436 34.728 89.1496 34.788 89.1496 34.872C89.1496 35.028 89.1136 35.184 89.0416 35.34C88.9816 35.484 88.9036 35.592 88.8076 35.664C88.9036 35.892 88.9516 36.12 88.9516 36.348C88.9516 36.552 88.9036 36.708 88.8076 36.816C88.8436 36.864 88.8796 36.924 88.9156 36.996C88.9636 37.068 88.9996 37.134 89.0236 37.194C89.0476 37.29 89.0596 37.362 89.0596 37.41C89.0596 37.494 89.0296 37.608 88.9696 37.752C89.0296 37.896 89.0596 38.004 89.0596 38.076C89.0596 38.172 89.0176 38.304 88.9336 38.472C89.0056 38.592 89.0416 38.724 89.0416 38.868C89.0416 39.036 88.9996 39.18 88.9156 39.3C88.9996 39.492 89.0416 39.69 89.0416 39.894C89.0416 40.05 89.0056 40.194 88.9336 40.326C88.9936 40.446 89.0236 40.566 89.0236 40.686C89.0236 40.854 88.9696 41.01 88.8616 41.154ZM105.255 38.688C105.207 38.844 105.105 38.982 104.949 39.102C104.973 39.582 104.847 39.882 104.571 40.002C104.547 40.194 104.463 40.398 104.319 40.614C104.175 40.83 104.019 40.974 103.851 41.046C103.851 41.094 103.839 41.196 103.815 41.352C103.803 41.496 103.767 41.616 103.707 41.712C103.659 41.808 103.581 41.904 103.473 42C103.533 42.42 103.335 42.84 102.879 43.26C102.867 43.548 102.771 43.776 102.591 43.944C102.423 44.124 102.219 44.232 101.979 44.268C101.955 44.436 101.829 44.598 101.601 44.754C101.385 44.922 101.175 45.006 100.971 45.006C100.923 45.138 100.725 45.27 100.377 45.402C100.041 45.546 99.8192 45.582 99.7112 45.51C99.4232 45.534 99.1952 45.462 99.0272 45.294C98.8592 45.126 98.7752 44.928 98.7752 44.7C98.7752 44.532 98.8232 44.388 98.9192 44.268C99.0152 44.148 99.1532 44.088 99.3332 44.088C99.3932 44.088 99.4412 44.094 99.4772 44.106C99.8132 43.854 100.083 43.728 100.287 43.728C100.359 43.728 100.413 43.734 100.449 43.746C100.473 43.602 100.557 43.464 100.701 43.332C100.845 43.212 101.013 43.116 101.205 43.044C101.205 42.924 101.253 42.798 101.349 42.666C101.445 42.534 101.559 42.426 101.691 42.342C101.667 42.27 101.655 42.216 101.655 42.18C101.655 42 101.733 41.802 101.889 41.586C102.045 41.358 102.201 41.214 102.357 41.154C102.081 41.01 101.943 40.788 101.943 40.488C101.823 40.476 101.709 40.392 101.601 40.236C101.505 40.08 101.457 39.912 101.457 39.732C101.457 39.624 101.487 39.522 101.547 39.426C101.367 39.366 101.229 39.27 101.133 39.138C101.049 39.006 101.007 38.85 101.007 38.67C101.007 38.538 101.031 38.406 101.079 38.274C100.911 38.178 100.779 38.076 100.683 37.968C100.599 37.86 100.563 37.734 100.575 37.59C100.395 37.47 100.305 37.284 100.305 37.032C100.305 36.912 100.323 36.798 100.359 36.69C100.059 36.366 99.9092 36.018 99.9092 35.646C99.9092 35.538 99.9152 35.454 99.9272 35.394C99.7592 35.31 99.6332 35.196 99.5492 35.052C99.4652 34.896 99.4232 34.722 99.4232 34.53C99.4232 34.35 99.4592 34.182 99.5312 34.026C99.2192 33.81 99.0632 33.57 99.0632 33.306C99.0632 33.006 99.1952 32.766 99.4592 32.586C99.5672 32.514 99.6872 32.478 99.8192 32.478C99.9992 32.478 100.161 32.544 100.305 32.676C100.461 32.808 100.575 32.97 100.647 33.162C100.755 33.258 100.845 33.408 100.917 33.612C100.989 33.816 101.025 34.008 101.025 34.188C101.025 34.296 101.019 34.368 101.007 34.404C101.367 34.788 101.547 35.16 101.547 35.52C101.547 35.568 101.535 35.652 101.511 35.772C101.667 35.856 101.781 35.982 101.853 36.15C101.925 36.306 101.949 36.468 101.925 36.636C102.045 36.732 102.129 36.852 102.177 36.996C102.237 37.14 102.255 37.284 102.231 37.428C102.339 37.428 102.435 37.512 102.519 37.68C102.615 37.836 102.651 37.998 102.627 38.166C102.783 38.25 102.885 38.364 102.933 38.508C102.981 38.64 102.993 38.802 102.969 38.994C103.125 39.042 103.203 39.192 103.203 39.444C103.239 39.24 103.281 39.09 103.329 38.994C103.377 38.898 103.449 38.796 103.545 38.688C103.521 38.568 103.509 38.49 103.509 38.454C103.509 38.322 103.533 38.22 103.581 38.148C103.629 38.064 103.695 38.016 103.779 38.004C103.731 37.776 103.791 37.554 103.959 37.338C103.923 37.266 103.905 37.194 103.905 37.122C103.905 37.038 103.941 36.948 104.013 36.852C104.097 36.744 104.151 36.672 104.175 36.636C104.103 36.42 104.067 36.24 104.067 36.096C104.067 35.976 104.091 35.862 104.139 35.754C104.187 35.646 104.265 35.514 104.373 35.358C104.301 35.214 104.265 34.998 104.265 34.71C104.265 34.326 104.343 33.978 104.499 33.666C104.451 33.498 104.427 33.366 104.427 33.27C104.427 33.126 104.463 33 104.535 32.892C104.535 32.604 104.625 32.376 104.805 32.208C104.985 32.04 105.189 31.956 105.417 31.956C105.609 31.956 105.771 32.028 105.903 32.172C106.047 32.304 106.113 32.496 106.101 32.748C106.185 32.916 106.227 33.12 106.227 33.36C106.227 33.792 106.125 34.17 105.921 34.494C105.969 34.65 105.993 34.818 105.993 34.998C105.993 35.298 105.885 35.586 105.669 35.862C105.681 35.958 105.705 36.072 105.741 36.204C105.777 36.336 105.795 36.444 105.795 36.528C105.795 36.708 105.735 36.864 105.615 36.996C105.675 37.164 105.549 37.518 105.237 38.058C105.285 38.202 105.309 38.316 105.309 38.4C105.309 38.496 105.291 38.592 105.255 38.688Z" fill="#FBB503"/>
<path d="M33.9201 14.4983C34.2726 14.99 34.8394 15.9507 33.2139 16.6285M31.531 19.6619C31.8835 20.1536 32.4883 20.884 30.8628 21.5619M34.1574 18.7944C34.5098 19.2861 34.6962 19.8293 33.7954 20.2719M30.9397 33.2814C31.1707 33.7925 31.3605 34.888 30.2715 35.1814M28.3204 38.407C28.5514 38.9181 28.7412 40.0137 27.6522 40.307M31.2732 37.7117C31.5042 38.2228 31.4476 38.8047 30.5848 39.0171M36.1938 20.7859C35.5442 22.3342 33.9768 25.6231 32.904 26.3921C31.8311 27.1611 31.9505 29.7823 32.1443 30.9968C32.9968 32.2805 34.4573 35.4698 33.4793 37.9573C32.2569 41.0666 28.274 45.1396 24.6437 42.0574C21.0134 38.9753 22.504 35.6737 23.6505 33.0249C24.5311 31.9876 26.2029 29.1653 25.845 26.1736C25.3977 22.4341 22.9612 22.1504 24.4116 17.6597C25.8619 13.1689 28.544 11.2464 31.9976 11.8161C35.4511 12.3858 38.1074 16.9415 36.1938 20.7859Z" stroke="#FBB503"/>
<path d="M16.4499 32.8008C16.0221 32.373 15.3065 31.5174 16.8 30.584M17.9667 27.3172C17.5389 26.8894 16.8233 26.2671 18.3167 25.3337M15.5166 28.6006C15.0888 28.1728 14.8165 27.6672 15.6332 27.0838M16.3333 13.7831C16.0221 13.3164 15.6566 12.2663 16.6833 11.7996M18.0834 8.29944C17.7722 7.83274 17.4067 6.78269 18.4334 6.316M15.2832 9.46613C14.972 8.99944 14.9332 8.41608 15.7499 8.06606M13.1831 26.9671C13.572 25.3337 14.5832 21.8335 15.5166 20.9001C16.45 19.9668 15.9055 17.4 15.5166 16.2332C14.4665 15.1054 12.5064 12.1963 13.0665 9.58287C13.7665 6.31603 17.0333 1.64912 21.1169 4.09925C25.2004 6.54938 24.2671 10.0496 23.567 12.8497C22.867 14.0164 21.6769 17.0733 22.517 19.9668C23.567 23.5836 26.0172 23.4669 25.3171 28.1339C24.6171 32.8008 22.2836 35.1342 18.7834 35.1342C15.2832 35.1342 11.9208 31.0717 13.1831 26.9671Z" stroke="#FBB503"/>
</svg>
